<svg width="2182" height="2645" fill="none" xmlns="http://www.w3.org/2000/svg"><g clip-path="url(#clip0)"><path d="M1663.95 299v36.591c20.69 0 36.6 15.909 36.6 68.409 0 52.5-15.91 70-36.6 70v36.591c47.73 0 77.96-36.591 77.96-106.591s-31.82-105-77.96-105z" fill="#F0ECF4"/><path d="M1627.36 402.409c0 52.5 15.91 70 36.59 70V509c-47.72 0-77.95-36.591-77.95-106.591S1616.23 299 1663.95 299v36.591c-20.68 0-36.59 14.318-36.59 66.818z" fill="url(#paint0_linear)"/></g><g clip-path="url(#clip1)"><path d="M1875 1163v81.2c45.9 0 81.2 35.3 81.2 151.8 0 116.5-35.3 155.33-81.2 155.33v81.2c105.92 0 173-81.2 173-236.53 0-155.33-70.61-233-173-233z" fill="#F0ECF4"/><path d="M1793.8 1392.47c0 116.5 35.3 155.33 81.2 155.33v81.2c-105.92 0-173-81.2-173-236.53 0-155.33 67.08-229.47 173-229.47v81.2c-45.9 0-81.2 31.77-81.2 148.27z" fill="url(#paint1_linear)"/></g><g clip-path="url(#clip2)"><path d="M346 1517v32.93c18.572 0 32.857 14.32 32.857 61.57s-14.285 63-32.857 63v32.93c42.857 0 70-32.93 70-95.93 0-63-28.571-94.5-70-94.5z" fill="#F0ECF4"/><path d="M313.143 1610.07c0 47.25 14.286 63 32.857 63V1706c-42.857 0-70-32.93-70-95.93 0-63 27.143-93.07 70-93.07v32.93c-18.571 0-32.857 12.89-32.857 60.14z" fill="url(#paint2_linear)"/></g><g clip-path="url(#clip3)"><path d="M380.046 206v32.409c18.318 0 32.409 14.091 32.409 60.591s-14.091 62-32.409 62v32.409c42.272 0 69.045-32.409 69.045-94.409 0-62-28.182-93-69.045-93z" fill="#F0ECF4"/><path d="M347.612 298.083c0 46.75 14.082 62.334 32.388 62.334V393c-42.245 0-69-32.583-69-94.917C311 235.75 337.755 206 380 206v32.583c-18.306 0-32.388 12.75-32.388 59.5z" fill="url(#paint3_linear)"/></g><g clip-path="url(#clip4)"><path d="M318.212 455v13.242c7.485 0 13.243 5.758 13.243 24.758s-5.758 25.333-13.243 25.333v13.243c17.273 0 28.212-13.243 28.212-38.576s-11.515-38-28.212-38z" fill="#F0ECF4"/><path d="M304.97 492.424c0 19 5.757 25.334 13.242 25.334V531C300.939 531 290 517.758 290 492.424 290 467.091 300.939 455 318.212 455v13.242c-7.485 0-13.242 5.182-13.242 24.182z" fill="url(#paint4_linear)"/></g><g clip-path="url(#clip5)"><path d="M1898.4 0v21.78c12.31 0 21.78 9.47 21.78 40.72s-9.47 41.667-21.78 41.667v21.78c28.41 0 46.4-21.78 46.4-63.447S1925.86 0 1898.4 0z" fill="#F0ECF4"/><path d="M1876.62 61.553c0 31.25 9.47 41.667 21.78 41.667V125c-28.41 0-46.4-21.78-46.4-63.447S1869.99 0 1898.4 0v21.78c-12.31 0-21.78 8.523-21.78 39.773z" fill="url(#paint5_linear)"/></g><g clip-path="url(#clip6)"><path d="M1828.4 635v21.78c12.31 0 21.78 9.47 21.78 40.72s-9.47 41.667-21.78 41.667v21.78c28.41 0 46.4-21.78 46.4-63.447s-18.94-62.5-46.4-62.5z" fill="#F0ECF4"/><path d="M1806.62 696.553c0 31.25 9.47 41.667 21.78 41.667V760c-28.41 0-46.4-21.78-46.4-63.447S1799.99 635 1828.4 635v21.78c-12.31 0-21.78 8.523-21.78 39.773z" fill="url(#paint6_linear)"/></g><g clip-path="url(#clip7)"><path d="M1810.02 208.543v81.622H1772V317h71.56V208.543h-33.54z" fill="#F0ECF4"/><path d="M1874.87 317h-31.31v-26.835h31.31V317z" fill="url(#paint7_linear)"/><path d="M1843.56 175v33.543h-64.85v-20.126c19.01-3.354 29.07-6.708 40.25-13.417h24.6z" fill="url(#paint8_linear)"/></g><g clip-path="url(#clip8)"><path d="M1918.06 599.173v34.488H1902V645h30.24v-45.827h-14.18z" fill="#F0ECF4"/><path d="M1945.46 645h-13.22v-11.339h13.22V645z" fill="url(#paint9_linear)"/><path d="M1932.24 585v14.173h-27.41v-8.504c8.04-1.417 12.29-2.834 17.01-5.669h10.4z" fill="url(#paint10_linear)"/></g><g clip-path="url(#clip9)"><path d="M156.672 89.651v55.119H131v18.121h48.323v-73.24h-22.651z" fill="#F0ECF4"/><path d="M200.465 162.891h-21.142V144.77h21.142v18.121z" fill="url(#paint11_linear)"/><path d="M179.323 67v22.651H135.53v-13.59c12.836-2.266 19.631-4.53 27.182-9.061h16.611z" fill="url(#paint12_linear)"/></g><g clip-path="url(#clip10)"><path d="M1437.27 141.236v73.575H1403V239h64.5v-97.764h-30.23z" fill="#F0ECF4"/><path d="M1495.72 239h-28.22v-24.189h28.22V239z" fill="url(#paint13_linear)"/><path d="M1467.5 111v30.236h-58.45v-18.142c17.13-3.023 26.2-6.047 36.28-12.094h22.17z" fill="url(#paint14_linear)"/></g><g clip-path="url(#clip11)"><path d="M519.268 484.236v73.575H485V582h64.504v-97.764h-30.236z" fill="#F0ECF4"/><path d="M577.725 582h-28.221v-24.189h28.221V582z" fill="url(#paint15_linear)"/><path d="M549.504 454v30.236h-58.457v-18.142c17.134-3.023 26.205-6.047 36.283-12.094h22.174z" fill="url(#paint16_linear)"/></g><g clip-path="url(#clip12)"><path d="M1755.54 1126.72v157.5H1682V1336h138.43v-209.28h-64.89z" fill="#F0ECF4"/><path d="M1881 1336h-60.56v-51.78H1881V1336z" fill="url(#paint17_linear)"/><path d="M1820.43 1062v64.72h-125.45v-38.83c36.77-6.47 56.24-12.95 77.87-25.89h47.58z" fill="url(#paint18_linear)"/></g><g clip-path="url(#clip13)"><path d="M122.695 1491.19v263.26H0V1841h230.956v-349.81H122.695z" fill="#F0ECF4"/><path d="M332.001 1841H230.957v-86.55h101.044V1841z" fill="url(#paint19_linear)"/><path d="M230.955 1383v108.19H21.651v-64.91c61.348-10.82 93.826-21.64 129.913-43.28h79.391z" fill="url(#paint20_linear)"/></g><g clip-path="url(#clip14)"><path d="M104.702 619.149v119.597H49v39.319h104.852V619.149h-49.15z" fill="#F0ECF4"/><path d="M199.725 778.065h-45.873v-39.319h45.873v39.319z" fill="url(#paint21_linear)"/><path d="M153.851 570v49.149H58.829V589.66c27.852-4.915 42.596-9.83 58.979-19.66h36.043z" fill="url(#paint22_linear)"/></g><g opacity=".1" filter="url(#filter0_f)" fill-rule="evenodd" clip-rule="evenodd"><path d="M1910.3 2201.8l-33.88 104.78-17.74-5.76 34.07-105.37.11-.28c2.42-6.12 7.46-14.86 15.09-22.21 7.7-7.42 18.64-13.96 32.55-13.96 14.04 0 24.47 6.67 31.49 14.42 6.77 7.48 10.74 16.31 12.43 22.55l33.91 104.85-17.75 5.76-34.05-105.33-.07-.24c-1.01-3.84-3.73-10.01-8.28-15.04-4.41-4.86-10.13-8.29-17.68-8.29-7.68 0-14.23 3.55-19.62 8.74-5.35 5.16-8.96 11.4-10.58 15.38z" fill="#FFA800"/><path d="M1750.6 2362.16l88.81 62.52-10.68 15.17-89.3-62.86-.23-.18c-5.03-4.02-11.79-11.22-16.5-20.36-4.75-9.2-7.82-21.23-3.66-34.03 4.2-12.93 13.74-20.36 23.09-24.3 9.05-3.8 18.51-4.65 24.83-4.27l108.67 1.63-.28 18.56-109.14-1.64-.24-.02c-3.97-.26-10.59.3-16.64 2.85-5.86 2.46-10.55 6.46-12.65 12.92-2.14 6.6-.81 13.37 2.51 19.79 3.28 6.36 8.1 11.52 11.41 14.22z" fill="#ED534B"/><path d="M1848.42 2561.2l86.9-65.14 11.13 14.84-87.37 65.51-.24.16c-5.39 3.53-14.33 7.74-24.47 9.4-10.22 1.67-22.61.88-33.5-7.03-11-8-15.11-19.36-15.97-29.48-.82-9.78 1.29-19.04 3.61-24.93l35.14-102.85 17.55 6-35.28 103.3-.09.22c-1.48 3.69-2.99 10.16-2.44 16.7.54 6.34 2.89 12.03 8.39 16.02 5.61 4.08 12.46 4.91 19.59 3.74 7.06-1.15 13.46-4.15 17.05-6.46z" fill="#FF57C6"/><path d="M2126.4 2361.47l-88.81 62.51 10.68 15.17 89.3-62.85.23-.18c5.03-4.03 11.79-11.23 16.5-20.37 4.75-9.2 7.82-21.23 3.66-34.03-4.2-12.93-13.74-20.36-23.09-24.3-9.05-3.8-18.51-4.65-24.83-4.26l-108.67 1.63.28 18.55 109.14-1.64.24-.01c3.97-.27 10.59.29 16.64 2.84 5.86 2.46 10.55 6.47 12.65 12.93 2.14 6.59.81 13.36-2.51 19.79-3.28 6.35-8.1 11.51-11.41 14.22z" fill="#10E6D9"/><path d="M2027.6 2561.2l-86.9-65.14-11.13 14.84 87.38 65.51.24.16c5.38 3.53 14.32 7.74 24.46 9.4 10.22 1.67 22.61.88 33.5-7.03 11-8 15.12-19.36 15.97-29.48.83-9.78-1.29-19.04-3.61-24.93l-35.13-102.85-17.56 6 35.28 103.3.09.22c1.48 3.69 2.99 10.16 2.44 16.7-.53 6.34-2.89 12.03-8.39 16.02-5.61 4.08-12.46 4.91-19.59 3.74-7.06-1.15-13.46-4.15-17.05-6.46z" fill="#9F72FF"/></g><defs><linearGradient id="paint11_linear" x1="200.825" y1="153.997" x2="179.021" y2="153.997" gradientUnits="userSpaceOnUse"><stop stop-color="#F0ECF4"/><stop offset="1" stop-color="#F0ECF4" stop-opacity="0"/></linearGradient><linearGradient id="paint18_linear" x1="1694.98" y1="1094.25" x2="1819.57" y2="1094.25" gradientUnits="userSpaceOnUse"><stop stop-color="#F0ECF4"/><stop offset="1" stop-color="#F0ECF4" stop-opacity="0"/></linearGradient><linearGradient id="paint2_linear" x1="310.857" y1="1705.86" x2="310.857" y2="1517" gradientUnits="userSpaceOnUse"><stop stop-color="#F0ECF4"/><stop offset="1" stop-color="#F0ECF4" stop-opacity="0"/></linearGradient><linearGradient id="paint3_linear" x1="345.359" y1="392.858" x2="345.359" y2="206" gradientUnits="userSpaceOnUse"><stop stop-color="#F0ECF4"/><stop offset="1" stop-color="#F0ECF4" stop-opacity="0"/></linearGradient><linearGradient id="paint4_linear" x1="304.048" y1="530.942" x2="304.048" y2="455" gradientUnits="userSpaceOnUse"><stop stop-color="#F0ECF4"/><stop offset="1" stop-color="#F0ECF4" stop-opacity="0"/></linearGradient><linearGradient id="paint5_linear" x1="1875.11" y1="124.905" x2="1875.11" y2="0" gradientUnits="userSpaceOnUse"><stop stop-color="#F0ECF4"/><stop offset="1" stop-color="#F0ECF4" stop-opacity="0"/></linearGradient><linearGradient id="paint6_linear" x1="1805.11" y1="759.905" x2="1805.11" y2="635" gradientUnits="userSpaceOnUse"><stop stop-color="#F0ECF4"/><stop offset="1" stop-color="#F0ECF4" stop-opacity="0"/></linearGradient><linearGradient id="paint7_linear" x1="1875.4" y1="303.829" x2="1843.11" y2="303.829" gradientUnits="userSpaceOnUse"><stop stop-color="#F0ECF4"/><stop offset="1" stop-color="#F0ECF4" stop-opacity="0"/></linearGradient><linearGradient id="paint8_linear" x1="1778.71" y1="191.716" x2="1843.11" y2="191.716" gradientUnits="userSpaceOnUse"><stop stop-color="#F0ECF4"/><stop offset="1" stop-color="#F0ECF4" stop-opacity="0"/></linearGradient><linearGradient id="paint9_linear" x1="1945.69" y1="639.435" x2="1932.05" y2="639.435" gradientUnits="userSpaceOnUse"><stop stop-color="#F0ECF4"/><stop offset="1" stop-color="#F0ECF4" stop-opacity="0"/></linearGradient><linearGradient id="paint10_linear" x1="1904.83" y1="592.063" x2="1932.05" y2="592.063" gradientUnits="userSpaceOnUse"><stop stop-color="#F0ECF4"/><stop offset="1" stop-color="#F0ECF4" stop-opacity="0"/></linearGradient><linearGradient id="paint1_linear" x1="1788.15" y1="1628.65" x2="1788.15" y2="1163" gradientUnits="userSpaceOnUse"><stop stop-color="#F0ECF4"/><stop offset="1" stop-color="#F0ECF4" stop-opacity="0"/></linearGradient><linearGradient id="paint12_linear" x1="135.53" y1="78.288" x2="179.021" y2="78.288" gradientUnits="userSpaceOnUse"><stop stop-color="#F0ECF4"/><stop offset="1" stop-color="#F0ECF4" stop-opacity="0"/></linearGradient><linearGradient id="paint13_linear" x1="1496.21" y1="227.127" x2="1467.1" y2="227.127" gradientUnits="userSpaceOnUse"><stop stop-color="#F0ECF4"/><stop offset="1" stop-color="#F0ECF4" stop-opacity="0"/></linearGradient><linearGradient id="paint14_linear" x1="1409.05" y1="126.068" x2="1467.1" y2="126.068" gradientUnits="userSpaceOnUse"><stop stop-color="#F0ECF4"/><stop offset="1" stop-color="#F0ECF4" stop-opacity="0"/></linearGradient><linearGradient id="paint15_linear" x1="578.205" y1="570.127" x2="549.101" y2="570.127" gradientUnits="userSpaceOnUse"><stop stop-color="#F0ECF4"/><stop offset="1" stop-color="#F0ECF4" stop-opacity="0"/></linearGradient><linearGradient id="paint16_linear" x1="491.047" y1="469.068" x2="549.101" y2="469.068" gradientUnits="userSpaceOnUse"><stop stop-color="#F0ECF4"/><stop offset="1" stop-color="#F0ECF4" stop-opacity="0"/></linearGradient><linearGradient id="paint17_linear" x1="1882.03" y1="1310.58" x2="1819.57" y2="1310.58" gradientUnits="userSpaceOnUse"><stop stop-color="#F0ECF4"/><stop offset="1" stop-color="#F0ECF4" stop-opacity="0"/></linearGradient><linearGradient id="paint0_linear" x1="1624.82" y1="508.841" x2="1624.82" y2="299" gradientUnits="userSpaceOnUse"><stop stop-color="#F0ECF4"/><stop offset="1" stop-color="#F0ECF4" stop-opacity="0"/></linearGradient><linearGradient id="paint19_linear" x1="333.722" y1="1798.52" x2="229.514" y2="1798.52" gradientUnits="userSpaceOnUse"><stop stop-color="#F0ECF4"/><stop offset="1" stop-color="#F0ECF4" stop-opacity="0"/></linearGradient><linearGradient id="paint20_linear" x1="21.651" y1="1436.91" x2="229.512" y2="1436.91" gradientUnits="userSpaceOnUse"><stop stop-color="#F0ECF4"/><stop offset="1" stop-color="#F0ECF4" stop-opacity="0"/></linearGradient><linearGradient id="paint21_linear" x1="200.506" y1="758.766" x2="153.197" y2="758.766" gradientUnits="userSpaceOnUse"><stop stop-color="#F0ECF4"/><stop offset="1" stop-color="#F0ECF4" stop-opacity="0"/></linearGradient><linearGradient id="paint22_linear" x1="58.829" y1="594.493" x2="153.196" y2="594.493" gradientUnits="userSpaceOnUse"><stop stop-color="#F0ECF4"/><stop offset="1" stop-color="#F0ECF4" stop-opacity="0"/></linearGradient><clipPath id="clip14"><path fill="#fff" transform="translate(49 570)" d="M0 0h150.724v208.065H0z"/></clipPath><clipPath id="clip0"><path fill="#fff" transform="translate(1586 299)" d="M0 0h155.909v210H0z"/></clipPath><clipPath id="clip1"><path fill="#fff" transform="translate(1702 1163)" d="M0 0h346v466H0z"/></clipPath><clipPath id="clip2"><path fill="#fff" transform="translate(276 1517)" d="M0 0h140v189H0z"/></clipPath><clipPath id="clip3"><path fill="#fff" transform="translate(311 206)" d="M0 0h138v187H0z"/></clipPath><clipPath id="clip4"><path fill="#fff" transform="translate(290 455)" d="M0 0h56.424v76H0z"/></clipPath><clipPath id="clip5"><path fill="#fff" transform="translate(1852)" d="M0 0h92.803v125H0z"/></clipPath><clipPath id="clip6"><path fill="#fff" transform="translate(1782 635)" d="M0 0h92.803v125H0z"/></clipPath><clipPath id="clip7"><path fill="#fff" transform="translate(1772 175)" d="M0 0h102.866v142H0z"/></clipPath><clipPath id="clip8"><path fill="#fff" transform="translate(1902 585)" d="M0 0h43.465v60H0z"/></clipPath><clipPath id="clip9"><path fill="#fff" transform="translate(131 67)" d="M0 0h69.465v95.891H0z"/></clipPath><clipPath id="clip10"><path fill="#fff" transform="translate(1403 111)" d="M0 0h92.724v128H0z"/></clipPath><clipPath id="clip11"><path fill="#fff" transform="translate(485 454)" d="M0 0h92.724v128H0z"/></clipPath><clipPath id="clip12"><path fill="#fff" transform="translate(1682 1062)" d="M0 0h199v274H0z"/></clipPath><clipPath id="clip13"><path fill="#fff" transform="translate(0 1383)" d="M0 0h332v458H0z"/></clipPath><filter id="filter0_f" x="1675" y="2139" width="504.918" height="505.657" filterUnits="userSpaceOnUse" color-interpolation-filters="sRGB"><feFlood flood-opacity="0" result="BackgroundImageFix"/><feBlend in="SourceGraphic" in2="BackgroundImageFix" result="shape"/><feGaussianBlur stdDeviation="10" result="effect1_foregroundBlur"/></filter></defs></svg>