<svg width="48" height="48" fill="none" xmlns="http://www.w3.org/2000/svg"><path fill-rule="evenodd" clip-rule="evenodd" d="M2 16C2 10.477 6.477 6 12 6h24c5.523 0 10 4.477 10 10v16c0 5.523-4.477 10-10 10H12C6.477 42 2 37.523 2 32V16zm10-6a6 6 0 00-6 6v16a6 6 0 006 6h24a6 6 0 006-6V16a6 6 0 00-6-6H12z" fill="#FF57C6"/><path d="M12 4a2 2 0 114 0v8a2 2 0 11-4 0V4zM32 4a2 2 0 114 0v8a2 2 0 11-4 0V4zM10 21a1 1 0 011-1h2a1 1 0 011 1v2a1 1 0 01-1 1h-2a1 1 0 01-1-1v-2zM18 21a1 1 0 011-1h2a1 1 0 011 1v2a1 1 0 01-1 1h-2a1 1 0 01-1-1v-2zM26 21a1 1 0 011-1h2a1 1 0 011 1v2a1 1 0 01-1 1h-2a1 1 0 01-1-1v-2zM34 21a1 1 0 011-1h2a1 1 0 011 1v2a1 1 0 01-1 1h-2a1 1 0 01-1-1v-2zM10 29a1 1 0 011-1h2a1 1 0 011 1v2a1 1 0 01-1 1h-2a1 1 0 01-1-1v-2zM18 29a1 1 0 011-1h2a1 1 0 011 1v2a1 1 0 01-1 1h-2a1 1 0 01-1-1v-2zM26 29a1 1 0 011-1h2a1 1 0 011 1v2a1 1 0 01-1 1h-2a1 1 0 01-1-1v-2zM34 29a1 1 0 011-1h2a1 1 0 011 1v2a1 1 0 01-1 1h-2a1 1 0 01-1-1v-2z" fill="#FF57C6"/></svg>