<svg width="178" height="101" fill="none" xmlns="http://www.w3.org/2000/svg"><path d="M21.92 91.97l1.603-2.536-1.603 2.536zM8.01 75.85l-2.722 1.261.01.02.009.02L8.01 75.85zm0-50.57L5.3 23.991 5.298 24l-.003.007L8.01 25.28zM21.92 9.03l1.603 2.536L21.92 9.03zm40.3 0l-1.603 2.536L62.22 9.03zM76 25.28l-2.722 1.261.01.02.009.02L76 25.28zm0 50.57l-2.71-1.288-.003.007-.003.007L76 75.85zM62.22 91.97l-1.603-2.536 1.603 2.536zM55.07 72.6l-2.49-1.674-.01.015-.01.016 2.51 1.643zm0-44.2l-2.51 1.643.01.016.01.015 2.49-1.674zm-26 0l-2.49-1.674-.01.015-.01.016 2.51 1.643zm0 44.2l-2.51 1.643.01.016.01.016 2.49-1.675zm13 21.96c-7.02 0-13.172-1.727-18.547-5.126l-3.206 5.072c6.412 4.054 13.693 6.054 21.753 6.054v-6zm-18.547-5.126c-5.364-3.392-9.644-8.31-12.81-14.885L5.307 77.15c3.594 7.466 8.587 13.293 15.01 17.355l3.206-5.072zM10.732 74.59C7.662 67.963 6.07 59.964 6.07 50.5h-6c0 10.123 1.702 19.023 5.218 26.611l5.444-2.522zM6.07 50.5c0-9.465 1.592-17.415 4.656-23.946l-5.432-2.548C1.771 31.516.07 40.379.07 50.5h6zm4.65-23.931c3.168-6.663 7.449-11.617 12.803-15.003l-3.206-5.072C13.885 10.562 8.892 16.441 5.3 23.991l5.418 2.578zm12.803-15.003C28.898 8.167 35.05 6.44 42.07 6.44v-6c-8.06 0-15.341 2-21.753 6.054l3.206 5.072zM42.07 6.44c7.02 0 13.172 1.727 18.547 5.126l3.206-5.072C57.411 2.44 50.13.44 42.07.44v6zm18.547 5.126c5.347 3.38 9.58 8.326 12.661 14.975l5.444-2.522c-3.505-7.564-8.46-13.453-14.899-17.525l-3.206 5.072zm12.68 15.015c3.14 6.524 4.773 14.464 4.773 23.919h6c0-10.131-1.748-19.005-5.367-26.521l-5.406 2.602zM78.07 50.5c0 9.454-1.632 17.443-4.78 24.061l5.42 2.577c3.612-7.595 5.36-16.505 5.36-26.638h-6zm-4.786 24.076c-3.079 6.562-7.31 11.471-12.667 14.858l3.206 5.072c6.43-4.067 11.385-9.904 14.893-17.382l-5.432-2.548zM60.617 89.434C55.242 92.833 49.09 94.56 42.07 94.56v6c8.06 0 15.341-2 21.753-6.054l-3.206-5.072zM42.07 82.75c6.591 0 11.854-2.921 15.51-8.507l-5.02-3.286c-2.584 3.948-5.988 5.793-10.49 5.793v6zm15.49-8.475c3.704-5.508 5.32-13.6 5.32-23.775h-6c0 9.758-1.59 16.4-4.3 20.425l4.98 3.35zM62.88 50.5c0-10.176-1.616-18.267-5.32-23.774l-4.98 3.349c2.71 4.026 4.3 10.667 4.3 20.425h6zm-5.3-23.743c-3.656-5.586-8.919-8.507-15.51-8.507v6c4.502 0 7.906 1.845 10.49 5.793l5.02-3.286zM42.07 18.25c-6.52 0-11.76 2.932-15.49 8.476l4.98 3.349c2.683-3.99 6.11-5.825 10.51-5.825v-6zm-15.51 8.507c-3.6 5.5-5.17 13.577-5.17 23.743h6c0-9.767 1.55-16.423 4.19-20.457l-5.02-3.286zM21.39 50.5c0 10.166 1.57 18.243 5.17 23.743l5.02-3.286c-2.64-4.034-4.19-10.69-4.19-20.457h-6zm5.19 23.775c3.73 5.543 8.97 8.475 15.49 8.475v-6c-4.4 0-7.827-1.835-10.51-5.825l-4.98 3.35zm148.052 2.615v3h3v-3h-3zm-14.82 0v-3h-3v3h3zm0 19.11v3h3v-3h-3zm-20.54 0h-3v3h3v-3zm0-19.11h3v-3h-3v3zm-49.01 0h-3v3h3v-3zm0-14.17l-2.407-1.79-.593.797v.993h3zM133.162 5V2h-1.508l-.899 1.21L133.162 5zm22.1 0l2.427 1.764L161.152 2h-5.89v3zm-39.78 54.73l-2.426-1.764-3.463 4.764h5.889v-3zm24.44 0v3h3v-3h-3zm0-17.03v-3h-3v3h3zm19.89 0h3v-3h-3v3zm0 17.03h-3v3h3v-3zm14.82 0h3v-3h-3v3zm0 14.16h-14.82v6h14.82v-6zm-17.82 3V96h6V76.89h-6zm3 16.11h-20.54v6h20.54v-6zm-17.54 3V76.89h-6V96h6zm-3-22.11h-49.01v6h49.01v-6zm-46.01 3V62.72h-6v14.17h6zm-.592-12.38l42.9-57.72-4.815-3.58-42.9 57.72 4.815 3.58zM133.162 8h22.1V2h-22.1v6zm19.674-4.764l-39.78 54.73 4.853 3.528 39.78-54.73-4.853-3.528zM115.482 62.73h24.44v-6h-24.44v6zm27.44-3V42.7h-6v17.03h6zm-3-14.03h19.89v-6h-19.89v6zm16.89-3v17.03h6V42.7h-6zm3 20.03h14.82v-6h-14.82v6zm11.82-3v17.16h6V59.73h-6z" fill="#FF57C6"/><path d="M21.92 91.97l1.603-2.536-1.603 2.536zM8.01 75.85l-2.722 1.261.01.02.009.02L8.01 75.85zm0-50.57L5.3 23.991 5.298 24l-.003.007L8.01 25.28zM21.92 9.03l1.603 2.536L21.92 9.03zm40.3 0l-1.603 2.536L62.22 9.03zM76 25.28l-2.722 1.261.01.02.009.02L76 25.28zm0 50.57l-2.71-1.288-.003.007-.003.007L76 75.85zM62.22 91.97l-1.603-2.536 1.603 2.536zM55.07 72.6l-2.49-1.674-.01.015-.01.016 2.51 1.643zm0-44.2l-2.51 1.643.01.016.01.015 2.49-1.674zm-26 0l-2.49-1.674-.01.015-.01.016 2.51 1.643zm0 44.2l-2.51 1.643.01.016.01.016 2.49-1.675zm13 21.96c-7.02 0-13.172-1.727-18.547-5.126l-3.206 5.072c6.412 4.054 13.693 6.054 21.753 6.054v-6zm-18.547-5.126c-5.364-3.392-9.644-8.31-12.81-14.885L5.307 77.15c3.594 7.466 8.587 13.293 15.01 17.355l3.206-5.072zM10.732 74.59C7.662 67.963 6.07 59.964 6.07 50.5h-6c0 10.123 1.702 19.023 5.218 26.611l5.444-2.522zM6.07 50.5c0-9.465 1.592-17.415 4.656-23.946l-5.432-2.548C1.771 31.516.07 40.379.07 50.5h6zm4.65-23.931c3.168-6.663 7.449-11.617 12.803-15.003l-3.206-5.072C13.885 10.562 8.892 16.441 5.3 23.991l5.418 2.578zm12.803-15.003C28.898 8.167 35.05 6.44 42.07 6.44v-6c-8.06 0-15.341 2-21.753 6.054l3.206 5.072zM42.07 6.44c7.02 0 13.172 1.727 18.547 5.126l3.206-5.072C57.411 2.44 50.13.44 42.07.44v6zm18.547 5.126c5.347 3.38 9.58 8.326 12.661 14.975l5.444-2.522c-3.505-7.564-8.46-13.453-14.899-17.525l-3.206 5.072zm12.68 15.015c3.14 6.524 4.773 14.464 4.773 23.919h6c0-10.131-1.748-19.005-5.367-26.521l-5.406 2.602zM78.07 50.5c0 9.454-1.632 17.443-4.78 24.061l5.42 2.577c3.612-7.595 5.36-16.505 5.36-26.638h-6zm-4.786 24.076c-3.079 6.562-7.31 11.471-12.667 14.858l3.206 5.072c6.43-4.067 11.385-9.904 14.893-17.382l-5.432-2.548zM60.617 89.434C55.242 92.833 49.09 94.56 42.07 94.56v6c8.06 0 15.341-2 21.753-6.054l-3.206-5.072zM42.07 82.75c6.591 0 11.854-2.921 15.51-8.507l-5.02-3.286c-2.584 3.948-5.988 5.793-10.49 5.793v6zm15.49-8.475c3.704-5.508 5.32-13.6 5.32-23.775h-6c0 9.758-1.59 16.4-4.3 20.425l4.98 3.35zM62.88 50.5c0-10.176-1.616-18.267-5.32-23.774l-4.98 3.349c2.71 4.026 4.3 10.667 4.3 20.425h6zm-5.3-23.743c-3.656-5.586-8.919-8.507-15.51-8.507v6c4.502 0 7.906 1.845 10.49 5.793l5.02-3.286zM42.07 18.25c-6.52 0-11.76 2.932-15.49 8.476l4.98 3.349c2.683-3.99 6.11-5.825 10.51-5.825v-6zm-15.51 8.507c-3.6 5.5-5.17 13.577-5.17 23.743h6c0-9.767 1.55-16.423 4.19-20.457l-5.02-3.286zM21.39 50.5c0 10.166 1.57 18.243 5.17 23.743l5.02-3.286c-2.64-4.034-4.19-10.69-4.19-20.457h-6zm5.19 23.775c3.73 5.543 8.97 8.475 15.49 8.475v-6c-4.4 0-7.827-1.835-10.51-5.825l-4.98 3.35zm148.052 2.615v3h3v-3h-3zm-14.82 0v-3h-3v3h3zm0 19.11v3h3v-3h-3zm-20.54 0h-3v3h3v-3zm0-19.11h3v-3h-3v3zm-49.01 0h-3v3h3v-3zm0-14.17l-2.407-1.79-.593.797v.993h3zM133.162 5V2h-1.508l-.899 1.21L133.162 5zm22.1 0l2.427 1.764L161.152 2h-5.89v3zm-39.78 54.73l-2.426-1.764-3.463 4.764h5.889v-3zm24.44 0v3h3v-3h-3zm0-17.03v-3h-3v3h3zm19.89 0h3v-3h-3v3zm0 17.03h-3v3h3v-3zm14.82 0h3v-3h-3v3zm0 14.16h-14.82v6h14.82v-6zm-17.82 3V96h6V76.89h-6zm3 16.11h-20.54v6h20.54v-6zm-17.54 3V76.89h-6V96h6zm-3-22.11h-49.01v6h49.01v-6zm-46.01 3V62.72h-6v14.17h6zm-.592-12.38l42.9-57.72-4.815-3.58-42.9 57.72 4.815 3.58zM133.162 8h22.1V2h-22.1v6zm19.674-4.764l-39.78 54.73 4.853 3.528 39.78-54.73-4.853-3.528zM115.482 62.73h24.44v-6h-24.44v6zm27.44-3V42.7h-6v17.03h6zm-3-14.03h19.89v-6h-19.89v6zm16.89-3v17.03h6V42.7h-6zm3 20.03h14.82v-6h-14.82v6zm11.82-3v17.16h6V59.73h-6z" fill="url(#paint0_linear)"/><defs><linearGradient id="paint0_linear" x1="-56" y1="19.5" x2="252.219" y2="80.143" gradientUnits="userSpaceOnUse"><stop stop-color="#FFA800"/><stop offset=".547" stop-color="#FF57C6"/><stop offset="1" stop-color="#10E6D9"/></linearGradient></defs></svg>