<svg width="852" height="293" fill="none" xmlns="http://www.w3.org/2000/svg"><g opacity=".037" stroke="#FF579E"><path opacity=".037" d="M113.523 200.515h-4.728v-78.482h4.728c18.911 0 32.149 9.456 32.149 38.768 0 29.313-13.238 39.714-32.149 39.714zm.945-101.176h-34.04v122.925h35.931c34.041 0 57.68-19.857 57.68-62.408 0-41.605-23.639-60.517-59.571-60.517zM194.842 122.979h28.367v76.591h-28.367v22.694h85.101V199.57h-28.367v-76.591h28.367v-23.64h-85.101v23.64zM354.644 175.931h17.966v21.748c-2.837 1.891-7.565 2.837-12.293 2.837-19.857 0-29.313-15.13-29.313-39.714 0-24.585 12.293-39.714 28.368-39.714 9.455 0 15.129 3.782 20.802 8.51l15.129-17.021c-7.564-8.51-19.857-16.074-35.931-16.074-32.15 0-56.735 23.639-56.735 64.299 0 41.605 25.531 63.353 56.735 63.353 16.074 0 30.258-7.565 38.768-15.129v-56.735h-42.551v23.64h-.945zM421.779 122.979h28.367v76.591h-28.367v22.694h85.102V199.57h-28.368v-76.591h28.368v-23.64h-85.102v23.64zM526.738 122.979h36.877v99.285h28.367v-99.285h36.878v-23.64H526.738v23.64zM678.029 172.148l2.837-11.347c2.837-12.292 6.619-26.476 9.456-39.714h.945c2.837 13.238 6.619 27.422 9.456 39.714l2.837 11.347h-25.531zm-2.836-72.809l-38.769 122.925h28.367l7.565-29.313h36.877l7.565 29.313h29.313L707.342 99.339h-32.149v0zM796.226 199.57V99.34h-27.422v122.924h82.265V199.57h-54.843z"/></g><g opacity=".074" stroke="#FF579E"><path opacity=".074" d="M109.741 196.734h-4.728v-78.483h4.728c18.911 0 32.149 9.456 32.149 38.768.946 29.313-12.292 39.715-32.149 39.715zm1.891-101.177h-34.04v122.925h35.931c34.041 0 57.68-19.857 57.68-62.408 0-41.605-23.639-60.517-59.571-60.517zM192.005 119.197h28.368v76.591h-28.368v23.639h85.102v-23.639H248.74v-76.591h28.367v-23.64h-85.102v23.64zM351.807 172.149h17.966v21.748c-2.837 1.891-7.564 3.782-12.292 3.782-19.857 0-29.313-15.129-29.313-39.714s12.292-39.714 28.367-39.714c9.456 0 15.129 3.782 20.803 8.51l15.129-17.02c-7.565-8.51-19.857-16.075-35.932-16.075-32.149 0-56.734 23.639-56.734 64.299 0 41.605 25.53 63.353 56.734 63.353 16.075 0 30.258-7.564 38.769-15.129v-56.734h-42.551v22.694h-.946zM418.943 119.197h28.367v76.591h-28.367v23.639h85.101v-23.639h-28.367v-76.591h28.367v-23.64h-85.101v23.64zM523.902 119.197h36.877v100.23h28.367v-100.23h36.877v-23.64H523.902v23.64zM675.193 168.366l2.837-11.347c2.836-12.292 6.619-26.476 9.455-39.714h.946c2.837 13.238 6.619 27.422 9.456 39.714l2.837 11.347h-25.531zm-3.782-72.809l-38.769 122.925h28.367l7.565-29.313h36.877l7.565 29.313h29.313L703.56 95.557h-32.149zM793.39 195.788V95.558h-28.368v123.869h83.211v-23.639H793.39z"/></g><g opacity=".111" stroke="#FF579E"><path opacity=".111" d="M106.904 192.951h-4.728v-78.482h4.728c18.912 0 32.15 9.456 32.15 38.768 0 29.313-13.238 39.714-32.15 39.714zm1.891-101.176h-34.04V214.7h35.931c34.041 0 57.68-19.857 57.68-62.407 0-41.605-23.639-60.517-59.571-60.517zM189.169 115.414h28.367v76.592h-28.367v23.639h85.101v-23.639h-29.313v-76.592h29.313V91.775h-85.101v23.639zM348.971 168.366h17.965v21.748c-2.836 1.892-7.564 3.783-12.292 3.783-19.857 0-29.313-15.129-29.313-39.714s12.293-39.714 28.367-39.714c9.456 0 15.13 3.782 20.803 8.51l15.129-17.02c-7.564-8.51-19.857-16.075-35.932-16.075-32.149 0-56.734 23.639-56.734 64.299 0 41.605 25.531 63.353 56.734 63.353 16.075 0 30.259-7.565 38.769-15.129v-56.734h-42.551v22.693h-.945zM416.106 115.414h28.367v76.592h-28.367v23.639h85.101v-23.639h-29.312v-76.592h29.312V91.775h-85.101v23.639zM521.065 115.414h36.877v100.231h27.422V115.414h37.823V91.775H521.065v23.639zM671.411 164.584l2.837-11.347c2.836-12.292 6.619-26.476 9.455-39.714h.946c2.837 13.238 6.619 27.422 9.456 39.714l2.836 11.347h-25.53zm-2.837-72.809L629.806 214.7h28.367l7.564-29.312h36.878l7.564 29.312h29.313L700.724 91.775h-32.15v0zM789.607 192.006V91.776h-27.421v123.869h83.21v-23.639h-55.789z"/></g><g opacity=".148" stroke="#FF579E"><path opacity=".148" d="M104.067 189.169H99.34v-78.482h4.727c18.912 0 32.15 9.455 32.15 38.768 0 29.313-13.238 39.714-32.15 39.714zm1.892-101.176H71.918v122.924h35.932c34.04 0 57.68-19.857 57.68-62.408-.946-41.605-24.585-60.516-59.571-60.516zM185.387 111.632h29.312v76.591h-29.312v23.64h86.047v-23.64h-29.313v-76.591h29.313v-23.64h-86.047v23.64zM345.188 164.584h17.966v21.748c-2.837 1.891-7.564 3.783-12.292 3.783-18.912 0-28.367-15.13-28.367-40.66 0-24.585 12.292-39.714 28.367-39.714 9.456 0 15.129 3.782 20.802 8.51l15.13-17.02c-8.511-7.565-19.857-15.13-35.932-15.13-32.15 0-56.735 23.64-56.735 64.299 0 41.606 25.531 63.354 56.735 63.354 16.075 0 30.258-7.565 38.768-15.129V141.89h-42.551v22.694h-1.891zM412.324 111.632h29.313v76.591h-29.313v23.64h86.047v-23.64h-29.313v-76.591h29.313v-23.64h-86.047v23.64zM518.228 111.632h36.877v100.231h27.422V111.632h36.877v-23.64H518.228v23.64zM668.574 160.802l2.837-11.347c2.837-12.292 6.619-26.476 9.456-39.714h.945c2.837 13.238 6.619 27.422 9.456 39.714l2.837 11.347h-25.531zm-2.836-72.81l-38.769 122.925h28.367l7.565-29.313h37.823l7.564 29.313h29.313L698.833 87.993h-33.095zM786.771 188.223V87.993h-27.422v123.87h82.265v-23.64h-54.843z"/></g><g opacity=".185" stroke="#FF579E"><path opacity=".185" d="M101.231 185.387h-4.728v-78.483h4.728c18.911 0 32.149 9.456 32.149 38.769 0 29.312-13.238 39.714-32.149 39.714zm.945-101.177h-34.04v122.925h35.931c34.041 0 57.68-19.857 57.68-62.408 0-41.605-23.639-60.517-59.571-60.517zM182.55 107.85h28.367v76.591H182.55v23.639h85.101v-23.639h-28.367V107.85h28.367V84.21H182.55v23.64zM342.351 160.802h17.966v21.748c-2.836 1.891-7.564 3.782-12.292 3.782-19.857 0-29.313-15.129-29.313-39.714s12.293-39.714 28.367-39.714c9.456 0 15.129 3.782 20.803 8.51l15.129-17.02c-7.565-8.51-19.857-16.075-35.932-16.075-32.149 0-56.734 23.639-56.734 64.299 0 41.605 25.53 63.353 56.734 63.353 16.075 0 30.259-7.564 38.769-15.129v-56.734h-42.551v22.694h-.946zM409.487 107.85h28.367v76.591h-28.367v23.639h85.101v-23.639h-28.367V107.85h28.367V84.21h-85.101v23.64zM514.446 107.85h36.877v100.23h28.367V107.85h36.878V84.21H514.446v23.64zM665.737 157.019l2.837-11.346c2.836-12.293 6.619-26.476 9.455-39.715h.946c2.837 13.239 6.619 27.422 9.456 39.715l2.836 11.346h-25.53zM662.9 84.21l-38.768 122.925h28.367l7.565-29.313h36.877l7.564 29.313h29.313L695.05 84.21H662.9zM783.934 184.441V84.211h-27.422V208.08h82.265v-23.639h-54.843z"/></g><g opacity=".222" stroke="#FF579E"><path opacity=".222" d="M97.448 181.604h-3.782v-78.482h4.728c18.911 0 32.149 9.455 32.149 38.768 0 29.313-13.238 39.714-33.095 39.714zm1.891-100.23H65.3v122.924h35.932c34.04 0 57.679-19.857 57.679-62.408 0-42.55-23.639-60.517-59.57-60.517zM179.713 104.067h28.367v76.592h-28.367v23.639h85.101v-23.639h-28.367v-76.592h28.367V81.373h-85.101v22.694zM339.515 157.019h17.966v21.748c-2.837 1.892-7.565 3.783-12.293 3.783-19.857 0-29.313-15.129-29.313-39.714s12.293-39.714 28.368-39.714c9.455 0 15.129 3.782 20.802 8.51l15.129-17.02c-7.564-8.51-19.857-16.075-35.931-16.075-32.15 0-56.735 23.639-56.735 64.299 0 41.605 25.531 63.353 56.735 63.353 16.074 0 30.258-7.565 38.768-15.129v-56.734H340.46v22.693h-.945zM406.65 104.067h28.367v76.592H406.65v23.639h85.102v-23.639h-28.368v-76.592h28.368V81.373H406.65v22.694zM511.609 104.067h36.877v100.231h28.368V104.067h36.877V81.373H511.609v22.694zM662.901 153.237l2.836-11.347c2.837-12.292 6.619-26.476 9.456-39.714h.946c2.836 13.238 6.619 27.422 9.455 39.714l2.837 11.347h-25.53zm-3.783-71.864L620.35 204.298h28.367l7.565-29.313h36.877l7.564 29.313h29.313L691.268 81.373h-32.15zM781.097 180.659V81.373H752.73v122.925h83.21v-23.639h-54.843z"/></g><g opacity=".259" stroke="#FF579E"><path opacity=".259" d="M94.612 177.822h-4.728V99.339h4.728c18.911 0 32.149 9.456 32.149 38.769s-12.292 39.714-32.15 39.714zm1.891-100.23h-34.04v122.924h35.931c34.041 0 57.68-19.857 57.68-62.408 0-42.55-23.639-60.517-59.571-60.517zM176.876 100.285h28.368v76.591h-28.368v23.64h85.102v-23.64h-28.367v-76.591h28.367V77.591h-85.102v22.694zM336.678 154.183h17.966v21.748c-2.836 1.891-7.564 3.782-12.292 3.782-19.857 0-29.313-15.129-29.313-39.714s12.292-39.714 28.367-39.714c9.456 0 15.129 3.782 20.803 8.51l15.129-17.02c-7.565-9.456-19.857-17.02-35.932-17.02-32.149 0-56.734 23.639-56.734 64.299 0 41.605 25.53 63.353 56.734 63.353 16.075 0 30.259-7.565 38.769-15.129v-56.735h-42.551v23.64h-.946zM403.814 100.285h28.367v76.591h-28.367v23.64h85.101v-23.64h-28.367v-76.591h28.367V77.591h-85.101v22.694zM508.772 100.285h36.878v100.231h28.367V100.285h36.877V77.591H508.772v22.694zM660.064 149.455l2.837-11.347c2.837-12.293 6.619-26.476 9.456-39.714h.945c2.837 13.238 6.619 27.421 9.456 39.714l2.837 11.347h-25.531zm-3.782-71.864l-38.769 122.925h28.368l7.564-29.313h37.823l7.565 29.313h29.312L689.377 77.591h-33.095v0zM778.261 176.876V77.591h-28.367v122.925h83.21v-23.64h-54.843z"/></g><g opacity=".296" stroke="#FF579E"><path opacity=".296" d="M91.775 174.04h-4.728V95.557h4.728c18.912 0 32.15 9.456 32.15 38.769 0 30.258-13.238 39.714-32.15 39.714zm1.891-100.231h-34.04v122.924h35.932c34.04 0 57.679-19.857 57.679-62.407-.945-41.606-24.584-60.517-59.57-60.517zM173.094 96.503h29.313v76.591h-29.313v23.639h86.048v-23.639h-29.313V96.503h29.313V73.809h-86.048v22.694zM333.842 150.4h17.02v20.803c-2.836 1.891-7.564 3.782-12.292 3.782-19.857 0-29.313-15.129-29.313-39.714s12.292-39.714 28.367-39.714c9.456 0 15.129 3.782 20.803 8.51l15.129-17.02c-7.565-8.51-19.857-16.075-35.932-16.075-32.149 0-56.734 23.64-56.734 64.299 0 41.605 25.53 63.354 56.734 63.354 16.075 0 30.259-7.565 38.769-15.13v-56.734h-42.551V150.4zM400.032 96.503h29.312v76.591h-29.312v23.639h86.047v-23.639h-29.313V96.503h29.313V73.809h-86.047v22.694zM505.936 96.503h36.877v100.23h27.422V96.503h36.877V73.809H505.936v22.694zM656.282 145.672l2.837-11.346c2.836-12.293 6.619-26.476 9.455-39.714h.946c2.837 13.238 6.619 27.421 9.456 39.714l2.836 11.346h-25.53zm-2.837-71.863l-38.768 122.924h28.367l7.564-29.312h36.878l7.564 29.312h29.313L685.595 73.809h-32.15v0zM774.478 173.094V73.809h-27.421v122.924h82.265v-23.639h-54.844z"/></g><g opacity=".333" stroke="#FF579E"><path opacity=".333" d="M88.938 170.257H84.21V92.72h4.728c18.912 0 32.15 9.456 32.15 38.769s-13.238 38.768-32.15 38.768zm.946-100.23h-34.04V192.95h35.931c34.041 0 57.68-19.857 57.68-62.408 0-41.605-23.639-60.516-59.571-60.516zM170.257 93.666h29.313v75.646h-29.313v23.639h85.102v-23.639h-28.367V93.666h28.367v-23.64h-85.102v23.64zM330.059 146.618h17.966v21.748c-2.837 1.891-7.564 3.783-12.292 3.783-19.857 0-29.313-15.13-29.313-39.714 0-24.585 12.292-39.714 28.367-39.714 9.456 0 15.129 3.782 20.803 8.51l15.129-17.02c-7.565-9.456-18.912-17.02-35.932-17.02-32.149 0-56.734 23.638-56.734 64.298 0 41.605 25.53 63.353 56.734 63.353 16.075 0 30.258-7.564 38.769-15.129v-56.734h-42.551v23.639h-.946zM397.195 93.666h29.312v75.646h-29.312v23.639h85.101v-23.639h-28.367V93.666h28.367v-23.64h-85.101v23.64zM502.154 93.666h37.822v99.285h27.422V93.666h36.877v-23.64H502.154v23.64zM653.445 141.89l2.837-11.347c2.836-12.292 6.619-26.476 9.455-39.714h.946c2.837 13.238 6.619 27.422 9.456 39.714l2.836 11.347h-25.53v0zm-2.837-71.863L611.84 192.95h28.367l7.564-29.313h36.878l7.564 29.313h29.313L682.758 70.027h-32.15v0zM771.641 169.312V70.027H744.22V192.95h82.265v-23.639h-54.844z"/></g><g opacity=".37" stroke="#FF579E"><path opacity=".37" d="M85.156 167.421h-3.782V88.938h4.728c18.911 0 32.149 9.456 32.149 38.769 0 29.312-13.238 39.714-33.095 39.714zm1.891-101.176h-34.04v122.924h35.931c34.041 0 57.68-19.857 57.68-62.408 0-41.605-23.639-60.516-59.57-60.516zM167.421 89.884h28.367v76.591h-28.367v22.694h85.101v-22.694h-28.367V89.884h28.367v-23.64h-85.101v23.64zM327.223 142.836h17.965v21.748c-2.836 1.891-7.564 3.782-12.292 3.782-19.857 0-29.313-15.129-29.313-39.714s12.293-39.714 28.367-39.714c9.456 0 15.13 3.782 20.803 8.51l15.129-17.02c-7.564-8.51-18.911-16.075-35.932-16.075-32.149 0-56.734 23.64-56.734 64.299 0 41.605 25.531 63.353 56.734 63.353 16.075 0 30.259-7.564 38.769-15.129v-56.734h-42.551v22.694h-.945zM394.358 89.884h28.367v76.591h-28.367v22.694h85.101v-22.694h-28.367V89.884h28.367v-23.64h-85.101v23.64zM499.317 89.884h36.877v99.285h28.367V89.884h36.878v-23.64H499.317v23.64zM650.608 138.108l2.837-11.347c2.837-12.292 6.619-26.476 9.456-39.714h.945c2.837 13.238 6.619 27.422 9.456 39.714l2.837 11.347h-25.531zm-3.782-71.864L608.058 189.17h28.367l7.564-29.313h37.823l7.565 29.313h29.313L679.921 66.244h-33.095v0zM768.805 166.475V66.245h-28.367v122.924h83.21v-22.694h-54.843z"/></g><g opacity=".407" stroke="#FF579E"><path opacity=".407" d="M82.32 163.638h-4.728V85.156h4.727c18.912 0 32.15 9.456 32.15 38.768 0 29.313-12.293 39.714-32.15 39.714zm1.89-101.176H50.17v122.925h35.932c34.04 0 57.68-19.857 57.68-62.408 0-41.605-23.64-60.517-59.572-60.517zM164.584 86.102h28.367v76.591h-28.367v22.694h85.101v-22.694h-28.367V86.102h28.367v-23.64h-85.101v23.64zM324.386 139.053h17.966v21.749c-2.837 1.891-7.565 3.782-12.293 3.782-19.857 0-29.312-15.129-29.312-39.714s12.292-39.714 28.367-39.714c9.455 0 15.129 3.782 20.802 8.51l15.129-17.02c-7.564-8.51-19.857-16.075-35.931-16.075-32.15 0-56.735 23.64-56.735 64.299 0 41.605 25.531 63.353 56.735 63.353 16.074 0 30.258-7.564 38.768-15.129V116.36h-42.551v22.693h-.945zM391.521 86.102h28.367v76.591h-28.367v22.694h85.102v-22.694h-28.367V86.102h28.367v-23.64h-85.102v23.64zM496.48 86.102h36.878v99.285h28.367V86.102h36.877v-23.64H496.48v23.64zM647.772 134.326l2.836-11.347c2.837-12.293 6.619-26.476 9.456-39.714h.946c2.836 13.238 6.619 27.421 9.455 39.714l2.837 11.347h-25.53v0zm-3.783-71.864l-38.768 122.925h28.367l7.565-29.313h36.877l7.565 29.313h29.312L676.139 62.462h-32.15zM765.968 162.693V62.463h-28.367v122.924h83.21v-22.694h-54.843z"/></g><g opacity=".444" stroke="#FF579E"><path opacity=".444" d="M79.482 159.856h-4.728V81.374h4.728c18.912 0 32.15 9.456 32.15 38.768 0 29.313-13.238 39.714-32.15 39.714zM81.373 58.68h-34.04v122.924h35.931c34.041 0 57.68-19.857 57.68-62.407-.945-41.606-24.584-60.517-59.57-60.517zM160.802 82.32h29.312v76.591h-29.312v22.693h86.047v-22.693h-29.313V82.319h29.313V58.68h-86.047v23.64zM321.549 135.271h17.966v21.748c-2.837 1.892-7.565 3.783-12.293 3.783-19.857 0-29.313-15.129-29.313-39.714s12.293-39.714 28.368-39.714c9.455 0 15.129 3.782 20.802 8.51l15.129-17.02c-7.564-8.51-19.857-16.075-35.931-16.075-32.15 0-56.735 23.639-56.735 64.299 0 41.605 25.531 63.353 56.735 63.353 16.074 0 30.258-7.565 38.768-15.129v-56.734h-42.551v22.693h-.945zM387.739 82.32h29.312v76.591h-29.312v22.693h86.047v-22.693h-29.313V82.319h29.313V58.68h-86.047v23.64zM493.643 82.32h36.877v99.284h27.422V82.319h36.877V58.68H493.643v23.64zM643.989 130.543l2.837-11.346c2.836-12.293 6.619-26.476 9.455-39.714h.946c2.837 13.238 6.619 27.421 9.456 39.714l2.836 11.346h-25.53zm-2.837-71.863l-38.768 122.924h28.367l7.565-29.312h36.877l7.564 29.312h29.313L673.302 58.68h-32.15v0zM762.186 158.911V58.68h-27.422v122.924h82.265v-22.693h-54.843z"/></g><g opacity=".481" stroke="#FF579E"><path opacity=".481" d="M76.646 156.074h-4.728V77.591h4.728c18.911 0 32.149 9.456 32.149 38.769s-13.238 39.714-32.15 39.714zm.945-101.176h-34.04v122.924h35.931c34.041 0 57.68-19.857 57.68-62.408 0-41.605-23.639-60.516-59.57-60.516zM157.965 78.537h29.313v76.591h-29.313v23.64h86.047v-23.64h-29.313v-76.59h29.313v-23.64h-86.047v23.64zM317.767 131.489h17.966v21.748c-2.837 1.891-7.565 3.782-12.293 3.782-19.857 0-29.313-15.129-29.313-39.714 0-25.53 12.293-40.66 28.368-40.66 9.455 0 15.129 3.783 20.802 8.511l15.129-17.02c-7.564-7.565-18.911-15.13-35.931-15.13-32.15 0-56.735 23.64-56.735 64.299 0 41.606 25.531 63.354 56.735 63.354 16.074 0 30.258-7.565 38.768-15.129v-56.735h-42.551v22.694h-.945zM384.902 78.537h29.313v76.591h-29.313v23.64h86.047v-23.64h-29.313v-76.59h29.313v-23.64h-86.047v23.64zM489.861 78.537h37.823v100.231h27.421V78.538h36.878v-23.64H489.861v23.64zM641.152 127.707l2.837-11.347c2.837-12.292 6.619-26.476 9.456-39.714h.945c2.837 13.238 6.619 27.422 9.456 39.714l2.837 11.347h-25.531v0zm-2.836-72.81l-38.769 122.925h28.367l7.565-29.313h36.877l7.565 29.313h30.258L671.411 54.898h-33.095v0zM759.349 155.128V54.898h-27.422v123.87h82.265v-23.64h-54.843z"/></g><g opacity=".518" stroke="#FF579E"><path opacity=".518" d="M73.81 152.292h-4.728V73.809h4.727c18.912 0 32.15 9.456 32.15 38.768 0 29.313-13.238 39.715-32.15 39.715zm.945-101.177h-34.04V174.04h35.931c34.041 0 57.68-19.857 57.68-62.408 0-41.605-23.639-60.517-59.571-60.517zM155.128 74.755h28.368v76.591h-28.368v23.639h85.102v-23.639h-28.367V74.755h28.367v-23.64h-85.102v23.64zM314.93 127.707h17.966v21.748c-2.837 1.891-7.564 3.782-12.292 3.782-19.857 0-29.313-15.129-29.313-39.714s12.292-39.714 28.367-39.714c9.456 0 15.129 3.782 20.803 8.51L355.59 65.3c-7.565-8.51-19.857-16.075-35.932-16.075-32.149 0-56.734 23.64-56.734 64.299 0 41.605 25.53 63.353 56.734 63.353 16.075 0 30.258-7.564 38.769-15.129v-56.734h-42.551v22.694h-.946zM382.066 74.755h28.367v76.591h-28.367v23.639h85.101v-23.639H438.8V74.755h28.367v-23.64h-85.101v23.64zM487.025 74.755h36.877v100.23h28.367V74.755h36.877v-23.64H487.025v23.64zM638.316 123.924l2.837-11.347c2.837-12.292 6.619-26.475 9.456-39.714h.945c2.837 13.239 6.619 27.422 9.456 39.714l2.837 11.347h-25.531zm-3.782-72.809L595.765 174.04h28.368l7.564-29.313h36.877l7.565 29.313h29.313L666.683 51.115h-32.149v0zM756.513 151.346V51.116h-28.367v123.869h83.21v-23.639h-54.843z"/></g><g opacity=".556" stroke="#FF579E"><path opacity=".556" d="M70.026 148.509H65.3V70.027h4.727c18.912 0 32.15 9.456 32.15 38.768 0 29.313-12.293 39.714-32.15 39.714zm1.892-101.176H37.877v122.924h35.932c34.04 0 57.68-19.857 57.68-62.407 0-41.605-23.64-60.517-59.571-60.517zM152.291 70.972h28.367v76.592h-28.367v23.639h85.102v-23.639h-28.368V70.972h28.368V47.333h-85.102v23.64zM312.093 123.924h17.966v21.748c-2.837 1.892-7.565 3.783-12.293 3.783-19.857 0-29.312-15.129-29.312-39.714s12.292-39.714 28.367-39.714c9.456 0 15.129 3.782 20.802 8.51l15.13-17.02c-7.565-8.51-19.857-16.075-35.932-16.075-32.15 0-56.735 23.64-56.735 64.299 0 41.605 25.531 63.353 56.735 63.353 16.075 0 30.258-7.565 38.768-15.129v-56.734h-42.551v22.693h-.945zM379.228 70.972h28.367v76.592h-28.367v23.639h85.102v-23.639h-28.367V70.972h28.367V47.333h-85.102v23.64zM484.187 70.972h36.877v100.231h28.368V70.973h36.877v-23.64H484.187v23.64zM635.479 120.142l2.836-11.347c2.837-12.292 6.619-26.476 9.456-39.714h.946c2.836 13.238 6.619 27.422 9.455 39.714l2.837 11.347h-25.53zm-3.783-72.809l-38.768 122.924h28.367l7.565-29.312h36.877l7.565 29.312h29.312L663.846 47.333h-32.15v0zM753.675 147.564V47.334h-28.367v123.869h83.21v-23.639h-54.843z"/></g><g opacity=".593" stroke="#FF579E"><path opacity=".593" d="M67.19 144.727h-4.728V66.245h4.728c18.911 0 32.15 9.455 32.15 38.768 0 29.313-13.239 39.714-32.15 39.714zm1.891-101.176h-34.04v122.924h35.931c34.041 0 57.68-19.857 57.68-62.408-.945-41.605-24.585-60.516-59.57-60.516zM148.509 67.19h29.313v76.591h-29.313v23.64h86.047v-23.64h-29.312v-76.59h29.312V43.55h-86.047v23.64zM309.256 120.142h17.966v21.748c-2.836 1.891-7.564 3.783-12.292 3.783-19.857 0-29.313-15.13-29.313-39.715 0-24.584 12.293-39.714 28.367-39.714 9.456 0 15.129 3.783 20.803 8.51l15.129-17.02c-7.564-8.51-19.857-16.074-35.932-16.074-32.149 0-56.734 23.639-56.734 64.298 0 41.606 25.53 63.354 56.734 63.354 16.075 0 30.259-7.565 38.769-15.129V97.448h-42.551v22.694h-.946zM375.447 67.19h29.312v76.591h-29.312v23.64h86.047v-23.64h-29.313v-76.59h29.313V43.55h-86.047v23.64zM481.351 67.19h36.877v100.231h27.422V67.191h36.877V43.55H481.351v23.64zM631.697 116.36l2.836-11.347c2.837-12.292 6.619-26.476 9.456-39.714h.946c2.836 13.238 6.619 27.422 9.455 39.714l2.837 11.347h-25.53zm-2.837-72.81l-38.768 122.925h28.367l7.564-29.313h36.878l7.564 29.313h30.259L661.955 43.551H628.86zM749.893 143.781V43.551h-27.421v123.87h82.264v-23.64h-54.843z"/></g><g opacity=".63" stroke="#FF579E"><path opacity=".63" d="M64.354 140.945h-4.728V62.462h4.728c18.911 0 32.149 9.456 32.149 38.769 0 29.312-13.238 39.714-32.15 39.714zm.945-100.231H31.26v122.924H67.19c34.041 0 57.68-19.857 57.68-62.407 0-42.551-23.639-60.517-59.57-60.517zM145.673 63.408h29.312v76.591h-29.312v23.639h86.047v-23.639h-29.313V63.408h29.313V40.714h-86.047v22.694zM305.474 116.36h17.966v21.748c-2.836 1.891-7.564 3.782-12.292 3.782-19.857 0-29.313-15.129-29.313-39.714s12.293-39.714 28.367-39.714c9.456 0 15.13 3.782 20.803 8.51l15.129-17.02c-7.564-8.51-19.857-16.075-35.932-16.075-32.149 0-56.734 23.64-56.734 64.299 0 41.605 25.53 63.354 56.734 63.354 16.075 0 30.259-7.565 38.769-15.13V93.666H306.42v22.694h-.946zM372.61 63.408h29.313v76.591H372.61v23.639h86.047v-23.639h-29.313V63.408h29.313V40.714H372.61v22.694zM478.514 63.408h36.877v100.23h27.422V63.408h36.877V40.714H478.514v22.694zM628.86 112.577l2.837-11.346c2.836-12.293 6.619-26.477 9.455-39.714h.946c2.837 13.237 6.619 27.421 9.456 39.714l2.836 11.346h-25.53zm-2.837-71.863l-38.768 122.924h28.367l7.565-29.312h36.877l7.565 29.312h29.312L658.173 40.714h-32.15v0zM747.057 139.999V40.714h-27.422v122.924H801.9v-23.639h-54.843z"/></g><g opacity=".667" stroke="#FF579E"><path opacity=".667" d="M61.516 137.162H56.79V58.68h4.727c18.912 0 32.15 9.456 32.15 38.768 0 29.313-13.238 39.714-32.15 39.714zm.946-100.23h-34.04v122.924h35.931c34.04 0 57.68-19.857 57.68-62.408 0-42.55-23.64-60.516-59.571-60.516zM142.835 59.625h28.368v76.592h-28.368v23.639h85.102v-23.639H199.57V59.625h28.367V36.932h-85.102v22.693zM302.637 113.523h17.966v21.748c-2.837 1.891-7.564 3.782-12.292 3.782-19.857 0-29.313-15.129-29.313-39.714s12.292-39.714 28.367-39.714c9.456 0 15.129 3.783 20.803 8.51l15.129-17.02c-7.565-8.51-19.857-16.075-35.932-16.075-32.149 0-56.734 23.64-56.734 64.3 0 41.605 25.53 63.353 56.734 63.353 16.075 0 30.259-7.565 38.769-15.129V90.829h-42.551v22.694h-.946zM369.773 59.625h28.367v76.592h-28.367v23.639h85.101v-23.639h-28.367V59.625h28.367V36.932h-85.101v22.693zM474.732 59.625h36.877v100.231h28.367V59.626h36.878V36.931H474.732v22.693zM626.023 108.795l2.837-11.347c2.837-12.292 6.619-26.476 9.456-39.714h.945c2.837 13.238 6.619 27.422 9.456 39.714l2.837 11.347h-25.531zm-3.782-71.863l-38.769 122.924h28.368l7.564-29.313h36.878l7.564 29.313h29.313L654.39 36.932h-32.149v0zM744.22 136.217V36.932h-28.367v122.924h83.21v-23.639H744.22z"/></g><g opacity=".704" stroke="#FF579E"><path opacity=".704" d="M57.734 133.38h-4.728V54.898h4.728c18.912 0 32.15 9.455 32.15 38.768 0 29.313-12.293 39.714-32.15 39.714zm1.891-100.23h-34.04v122.924h35.931c34.041 0 57.68-19.857 57.68-62.408 0-41.605-23.639-60.516-59.57-60.516zM139.999 55.843h28.367v76.592h-28.367v23.639H225.1v-23.639h-28.367V55.843H225.1V33.15h-85.101v22.694zM299.801 109.741h17.966v21.748c-2.837 1.891-7.565 3.782-12.293 3.782-19.857 0-29.313-15.129-29.313-39.714s12.293-39.714 28.368-39.714c9.455 0 15.129 3.782 20.802 8.51l15.129-17.02c-7.564-8.51-19.857-16.075-35.931-16.075-32.15 0-56.735 23.64-56.735 64.3 0 41.604 25.531 63.352 56.735 63.352 16.074 0 30.258-7.564 38.768-15.129V87.047h-42.551v22.694h-.945zM366.936 55.843h28.367v76.592h-28.367v23.639h85.102v-23.639H423.67V55.843h28.368V33.15h-85.102v22.694zM471.895 55.843h36.877v100.231h28.368V55.844h36.877V33.15H471.895v22.693zM623.187 105.013l2.836-11.347c2.837-12.292 6.619-26.476 9.456-39.714h.945c2.837 13.238 6.619 27.422 9.456 39.714l2.837 11.347h-25.53zm-3.783-71.864l-38.768 122.925h28.367l7.564-29.313h36.878l7.564 29.313h30.259L653.445 33.149h-34.041zM741.383 132.435V33.15h-28.367v122.924h83.21v-23.639h-54.843z"/></g><g opacity=".741" stroke="#FF579E"><path opacity=".741" d="M54.898 129.598H50.17V52.061h4.727c18.912 0 32.15 9.456 32.15 38.768 0 29.313-13.238 38.769-32.15 38.769zm1.89-100.23h-34.04v122.924h34.986c34.04 0 57.68-19.857 57.68-62.408 0-41.605-22.694-60.517-58.625-60.517zM136.217 53.007h29.313v75.645h-29.313v23.64h86.047v-23.64h-29.313V53.007h29.313v-23.64h-86.047v23.64zM296.964 105.959h17.966v21.748c-2.837 1.891-7.565 3.782-12.293 3.782-19.857 0-29.312-15.129-29.312-39.714s12.292-39.714 28.367-39.714c9.456 0 15.129 3.782 20.802 8.51l15.13-17.02c-7.565-8.51-19.857-16.075-35.932-16.075-32.15 0-56.734 23.64-56.734 64.299 0 41.605 25.53 63.353 56.734 63.353 16.075 0 30.258-7.564 38.768-15.129V83.265h-42.55v22.694h-.946zM363.154 53.007h29.313v75.645h-29.313v23.64h86.047v-23.64h-29.313V53.007h29.313v-23.64h-86.047v23.64zM469.058 53.007h36.877v99.285h27.422V53.007h36.877v-23.64H469.058v23.64zM619.404 101.231l2.837-11.347c2.837-12.293 6.619-26.476 9.456-39.714h.945c2.837 13.238 6.619 27.421 9.456 39.714l2.837 11.347h-25.531zm-2.836-71.864l-38.769 122.925h28.367l7.565-29.313h36.877l7.565 29.313h29.312L649.663 29.367h-33.095zM737.601 128.652V29.367h-27.422v122.925h82.265v-23.64h-54.843z"/></g><g opacity=".778" stroke="#FF579E"><path opacity=".778" d="M52.06 125.815h-4.727V48.279h4.728c18.911 0 32.15 9.455 32.15 38.768 0 29.313-13.239 38.768-32.15 38.768zm.946-100.23h-34.04v122.924h35.931c34.04 0 57.68-19.857 57.68-62.408 0-41.605-23.64-60.516-59.57-60.516zM133.38 49.224h29.312v76.591H133.38v22.694h86.047v-22.694h-29.313V49.224h29.313v-23.64H133.38v23.64zM293.181 102.176h17.966v21.748c-2.837 1.891-7.564 3.783-12.292 3.783-19.857 0-29.313-15.13-29.313-39.714 0-24.585 12.292-39.714 28.367-39.714 9.456 0 15.129 3.782 20.803 8.51l16.074-17.966c-7.564-8.51-19.857-16.075-35.931-16.075-32.15 0-56.735 23.64-56.735 64.299 0 41.605 25.531 63.353 56.735 63.353 16.074 0 30.258-7.564 38.768-15.129V78.537h-42.551v23.639h-1.891zM360.317 49.224h29.313v76.591h-29.313v22.694h86.047v-22.694h-29.313V49.224h29.313v-23.64h-86.047v23.64zM466.221 49.224h36.877v99.285h27.422V49.224h36.877v-23.64H466.221v23.64zM616.567 97.448l2.837-11.347c2.837-12.292 6.619-26.476 9.456-39.714h.945c2.837 13.238 6.619 27.422 9.456 39.714l2.837 11.347h-25.531zm-2.837-71.863l-38.768 122.924h28.367l7.565-29.313h36.877l7.565 29.313h29.312L645.88 25.585h-32.15v0zM734.764 125.815V25.585h-27.422v122.924h82.265v-22.694h-54.843z"/></g><g opacity=".815" stroke="#FF579E"><path opacity=".815" d="M49.224 122.979h-4.728V44.496h4.728c18.911 0 32.15 9.456 32.15 38.769s-13.239 39.714-32.15 39.714zm.946-101.176H16.129v122.924H52.06c34.04 0 57.68-19.857 57.68-62.408 0-41.605-23.64-60.516-59.572-60.516zM130.543 45.442h28.367v76.591h-28.367v22.694h85.101v-22.694h-28.367v-76.59h28.367v-23.64h-85.101v23.64zM290.345 98.394h17.966v21.748c-2.837 1.891-7.565 3.782-12.293 3.782-19.857 0-29.312-15.129-29.312-39.714 0-24.584 12.292-39.714 28.367-39.714 9.455 0 15.129 3.783 20.802 8.51l15.129-17.02c-7.564-8.51-18.911-16.074-35.931-16.074-32.15 0-56.735 23.639-56.735 64.298 0 41.606 25.531 63.354 56.735 63.354 16.074 0 30.258-7.565 38.768-15.129V75.7H291.29v22.694h-.945zM357.48 45.442h28.367v76.591H357.48v22.694h85.102v-22.694h-28.367v-76.59h28.367v-23.64H357.48v23.64zM462.439 45.442h36.877v99.285h28.367V45.442h36.878v-23.64H462.439v23.64zM613.731 93.666l2.836-11.347c2.837-12.292 6.619-26.476 9.456-39.714h.946c2.836 13.238 6.619 27.422 9.455 39.714l2.837 11.347h-25.53zm-3.783-71.863L571.18 144.727h28.367l7.565-29.313h36.877l7.565 29.313h30.258L643.989 21.803h-34.041zM731.927 122.033V21.803H703.56v122.924h83.21v-22.694h-54.843z"/></g><g opacity=".852" stroke="#FF579E"><path opacity=".852" d="M45.442 119.196h-4.728V40.714h4.728c18.911 0 32.15 9.456 32.15 38.769 0 29.312-12.293 39.713-32.15 39.713zM47.333 18.02h-34.04v122.925h35.931c34.04 0 57.68-19.857 57.68-62.408 0-41.605-23.64-60.517-59.57-60.517zM127.707 41.66h28.367v76.591h-28.367v22.694h85.101v-22.694h-28.367V41.66h28.367V18.02h-85.101v23.64zM287.508 94.612h17.966v21.748c-2.836 1.891-7.564 3.782-12.292 3.782-19.857 0-29.313-15.129-29.313-39.714s12.293-39.714 28.367-39.714c9.456 0 15.129 3.782 20.803 8.51l15.129-17.02c-7.565-8.51-19.857-16.075-35.932-16.075-32.149 0-56.734 23.64-56.734 64.299 0 41.605 25.53 63.353 56.734 63.353 16.075 0 30.259-7.564 38.769-15.129V71.918h-42.551v22.694h-.946zM354.644 41.66h28.367v76.591h-28.367v22.694h85.101v-22.694h-28.367V41.66h28.367V18.02h-85.101v23.64zM459.603 41.66h36.877v99.285h28.367V41.66h36.877V18.02H459.603v23.64zM610.894 89.884l2.837-11.347c2.837-12.293 6.619-26.476 9.456-39.714h.945c2.837 13.238 6.619 27.421 9.456 39.714l2.837 11.347h-25.531zm-3.782-71.864l-38.768 122.925h28.367l7.564-29.313h36.878l7.564 29.313h29.313L639.261 18.02h-32.149v0zM729.091 118.251V18.021h-28.367v122.924h83.21v-22.694h-54.843z"/></g><g opacity=".889" stroke="#FF579E"><path opacity=".889" d="M42.605 115.414h-4.728V36.932h4.728c18.912 0 32.15 9.456 32.15 38.768 0 29.313-13.238 39.714-32.15 39.714zm1.891-101.176h-34.04v122.924h35.932c34.04 0 57.679-19.857 57.679-62.407-.945-41.605-23.639-60.517-59.57-60.517zM123.925 37.877h29.312v76.592h-29.312v23.639h86.047v-23.639h-29.313V37.877h29.313V14.238h-86.047v23.64zM284.672 90.83h17.966v21.747c-2.837 1.892-7.565 3.783-12.293 3.783-19.857 0-29.313-15.129-29.313-39.714s12.293-39.714 28.368-39.714c9.455 0 15.129 3.782 20.802 8.51l15.129-17.02c-7.564-8.51-19.857-16.075-35.931-16.075-32.15 0-56.735 23.64-56.735 64.299 0 41.605 25.531 63.353 56.735 63.353 16.074 0 30.258-7.565 38.768-15.129V68.135h-43.496V90.83zM350.862 37.877h29.313v76.592h-29.313v23.639h86.047v-23.639h-29.313V37.877h29.313V14.238h-86.047v23.64zM456.766 37.877h36.877v100.231h27.422V37.878h36.877v-23.64H456.766v23.64zM607.112 87.047l2.837-11.347c2.836-12.292 6.619-26.476 9.455-39.714h.946c2.837 13.238 6.619 27.422 9.456 39.714l2.836 11.347h-25.53zm-2.837-72.809l-38.768 122.924h28.367l7.565-29.312h36.877l7.564 29.312h29.313L636.425 14.238h-32.15v0zM725.309 114.469V14.238h-27.422v123.87h82.265v-23.639h-54.843z"/></g><g opacity=".926" stroke="#FF579E"><path opacity=".926" d="M39.768 111.632h-4.727V33.149h4.727c18.912 0 32.15 9.456 32.15 38.769 0 29.312-13.238 39.714-32.15 39.714zm.946-101.177H6.674V133.38h35.931c34.04 0 57.68-19.857 57.68-62.408 0-41.605-23.64-60.516-59.571-60.516zM121.087 34.095H150.4v76.591h-29.313v23.639h86.047v-23.639h-29.312V34.095h29.312v-23.64h-86.047v23.64zM280.889 87.047h17.966v21.748c-2.837 1.891-7.565 3.782-12.293 3.782-19.857 0-29.312-15.129-29.312-39.714 0-24.584 12.292-39.714 28.367-39.714 9.456 0 15.129 3.783 20.802 8.51l16.075-17.965c-7.564-8.51-19.857-16.075-35.932-16.075-32.149 0-56.734 23.64-56.734 64.299 0 41.605 25.531 63.353 56.734 63.353 16.075 0 30.259-7.564 38.769-15.129V63.408H282.78v23.639h-1.891zM348.025 34.095h29.312v76.591h-29.312v23.639h86.047v-23.639h-29.313V34.095h29.313v-23.64h-86.047v23.64zM453.929 34.095h36.877v100.23h27.422V34.095h36.877v-23.64H453.929v23.64zM604.275 83.265l2.837-11.347c2.836-12.293 6.619-26.476 9.455-39.714h.946c2.837 13.238 6.619 27.421 9.456 39.714l2.836 11.347h-25.53zm-2.837-72.81L562.67 133.38h28.367l7.564-29.313h36.878l7.564 29.313h29.313L634.533 10.456h-33.095zM722.471 110.686V10.456H695.05v123.869h82.265v-23.639h-54.844z"/></g><g opacity=".963" stroke="#FF579E"><path opacity=".963" d="M36.932 107.85h-4.728V29.367h4.728c18.911 0 32.15 9.456 32.15 38.768 0 29.313-13.239 39.715-32.15 39.715zm.945-101.177H3.837v122.925h35.931c34.041 0 57.68-19.857 57.68-62.408 0-41.605-23.639-60.517-59.57-60.517zM118.251 30.313h28.367v76.591h-28.367v23.639h85.101v-23.639h-28.367V30.313h28.367V6.673h-85.101v23.64zM278.053 83.265h17.965v21.748c-2.836 1.891-7.564 3.782-12.292 3.782-19.857 0-29.313-15.129-29.313-39.714s12.293-39.714 28.367-39.714c9.456 0 15.13 3.782 20.803 8.51l15.129-17.966c-7.564-8.51-19.857-16.074-35.932-16.074-32.149 0-56.734 23.639-56.734 64.299 0 41.605 25.531 63.353 56.734 63.353 16.075 0 30.259-7.565 38.769-15.129V59.625h-42.551v23.64h-.945zM345.188 30.313h28.367v76.591h-28.367v23.639h85.101v-23.639h-28.367V30.313h28.367V6.673h-85.101v23.64zM450.147 30.313h36.877v100.23h28.367V30.313h36.878V6.673H450.147v23.64zM601.438 79.482l2.837-11.347c2.837-12.292 6.619-26.476 9.456-39.714h.945c2.837 13.239 6.619 27.422 9.456 39.714l2.837 11.347h-25.531zm-3.782-72.809l-38.768 122.925h28.367l7.564-29.313h36.878l7.564 29.313h29.313L629.806 6.673h-32.15v0zM719.635 106.904V6.674h-28.367v123.869h83.21v-23.639h-54.843z"/></g><path d="M33.15 104.068h-3.783V25.585h4.728c18.912 0 32.15 9.456 32.15 38.768-.946 29.313-13.239 39.715-33.096 39.715zM35.04 2.891H1v122.925h35.932c34.04 0 57.68-19.857 57.68-62.408 0-41.605-23.64-60.517-59.571-60.517zM115.414 26.53h28.367v76.592h-28.367v23.639h85.102v-23.639h-28.368V26.531h28.368V2.89h-85.102v23.64zM275.216 79.483h17.966v21.748c-2.837 1.891-7.565 3.782-12.293 3.782-19.857 0-29.312-15.13-29.312-39.714 0-24.585 12.292-39.714 28.367-39.714 9.456 0 15.129 3.782 20.802 8.51l15.13-17.02C308.311 8.565 296.964 1 279.944 1c-32.15 0-56.735 23.64-56.735 64.299 0 41.605 25.531 63.353 56.735 63.353 16.075 0 30.258-7.564 38.768-15.129V56.789h-43.496v22.694zM342.351 26.53h28.368v76.592h-28.368v23.639h85.102v-23.639h-28.367V26.531h28.367V2.89h-85.102v23.64zM447.31 26.53h36.878v100.231h28.367V26.531h36.877V2.89H447.31v23.64zM598.602 75.7l2.836-11.347c2.837-12.292 6.619-26.475 9.456-39.713h.946c2.836 13.237 6.619 27.421 9.455 39.713l2.837 11.347h-25.53zm-3.783-72.809l-38.768 122.925h28.367l7.565-29.313h36.877l7.565 29.313h29.312L626.969 2.891h-32.15zM716.798 103.122V2.892h-28.367V126.76h83.21v-23.639h-54.843z" fill="#fff"/><path d="M33.15 104.068h-3.783V25.585h4.728c18.912 0 32.15 9.456 32.15 38.768-.946 29.313-13.239 39.715-33.096 39.715zM35.04 2.891H1v122.925h35.932c34.04 0 57.68-19.857 57.68-62.408 0-41.605-23.64-60.517-59.571-60.517z" stroke="url(#paint0_linear)" stroke-width="1.5"/><path d="M115.414 26.53h28.367v76.592h-28.367v23.639h85.102v-23.639h-28.368V26.531h28.368V2.89h-85.102v23.64z" stroke="url(#paint1_linear)" stroke-width="1.5"/><path d="M275.216 79.483h17.966v21.748c-2.837 1.891-7.565 3.782-12.293 3.782-19.857 0-29.312-15.13-29.312-39.714 0-24.585 12.292-39.714 28.367-39.714 9.456 0 15.129 3.782 20.802 8.51l15.13-17.02C308.311 8.565 296.964 1 279.944 1c-32.15 0-56.735 23.64-56.735 64.299 0 41.605 25.531 63.353 56.735 63.353 16.075 0 30.258-7.564 38.768-15.129V56.789h-43.496v22.694z" stroke="url(#paint2_linear)" stroke-width="1.5"/><path d="M342.351 26.53h28.368v76.592h-28.368v23.639h85.102v-23.639h-28.367V26.531h28.367V2.89h-85.102v23.64z" stroke="url(#paint3_linear)" stroke-width="1.5"/><path d="M447.31 26.53h36.878v100.231h28.367V26.531h36.877V2.89H447.31v23.64z" stroke="url(#paint4_linear)" stroke-width="1.5"/><path d="M598.602 75.7l2.836-11.347c2.837-12.292 6.619-26.475 9.456-39.713h.946c2.836 13.237 6.619 27.421 9.455 39.713l2.837 11.347h-25.53zm-3.783-72.809l-38.768 122.925h28.367l7.565-29.313h36.877l7.565 29.313h29.312L626.969 2.891h-32.15z" stroke="url(#paint5_linear)" stroke-width="1.5"/><path d="M716.798 103.122V2.892h-28.367V126.76h83.21v-23.639h-54.843z" stroke="url(#paint6_linear)" stroke-width="1.5"/><g filter="url(#filter0_d)" fill="#251440"><path d="M313.039 222.264c-.946 0-1.891.945-2.837.945 3.783-9.455 6.619-19.857 10.402-29.312 2.836-7.565 7.564-17.966 1.891-25.531-8.51-12.292-28.367.946-35.932 7.565-4.728 3.782-8.51 7.564-12.292 11.347 4.727-17.966 3.782-33.095-10.402-33.095-6.619 0-12.292 3.782-17.966 7.564 1.891-9.456 3.783-18.911 4.728-28.367v-.946c0-.945 0-2.836.946-4.728 0-.945.945-2.836.945-4.727.946-7.565.946-15.13-3.782-20.803-2.837-3.782-6.619-5.673-11.347-5.673h-5.673c-1.891 0-2.837 0-4.728.945-3.782.946-7.565 1.891-10.401 2.837-12.293 4.728-23.64 11.347-34.041 20.802-17.966 17.021-29.313 46.334-13.238 68.082 4.728 6.619 16.075 0 11.347-6.619-12.293-17.021-2.837-37.823 10.401-51.061 4.728-4.728 23.639-17.966 35.932-20.803 1.891 0 2.837-.945 4.728-.945 1.891 0 3.782 0 5.673.945 1.891.946 2.837 2.837 2.837 5.674v11.346c0 1.892 0 2.837-.946 4.728-1.891 9.456-3.782 19.857-5.673 29.313-.946 3.782-1.891 7.565-2.837 12.293-7.564 6.619-15.129 13.238-20.802 21.748-12.293 15.129-24.585 35.931-27.422 54.843-2.837 15.129 10.401 20.802 22.694 13.238 12.292-7.565 18.911-23.639 23.639-36.877 5.673-15.13 10.401-30.259 13.238-46.333l11.347-8.511c3.782-2.836 10.401-8.51 11.347-.945 0 3.782-.946 8.51-1.891 11.347-1.891 7.564-4.728 16.074-7.565 23.639-3.782 10.401-8.51 19.857-13.238 30.258-3.782 7.565 7.565 14.184 11.347 6.619 8.51-16.074 17.966-32.149 30.258-45.387 6.619-7.565 17.966-20.803 28.367-21.748 2.837 0 1.892-1.891 1.892.945 0 .946-1.892 4.728-2.837 6.619-1.891 5.674-3.782 10.402-5.674 16.075-3.782 11.347-7.564 22.694-11.346 33.095-1.892 5.673 4.727 9.456 9.455 7.565 5.674-2.837 11.347-4.728 17.021-7.565 6.619-2.837 0-14.184-7.565-10.401zm-92.666-17.021c-3.782 13.238-8.51 25.531-16.075 36.878-1.891 3.782-4.728 7.564-8.51 9.455-.946.946-1.891.946-2.837 1.892v-2.837c3.783-19.857 15.129-37.823 29.313-53.898 0 2.837-.946 5.674-1.891 8.51zM516.337 153.237l-31.204 8.51c-7.564 19.857-17.02 40.66-25.53 60.517-3.783 7.564-14.184.945-11.347-6.619 7.564-17.02 15.129-33.095 21.748-50.116-4.728.946-9.456 1.892-13.238 1.892-.946 3.782-6.619 7.564-11.347 4.727l-5.673-4.727c-4.728-3.783 0-10.402 4.728-11.347 10.401-.946 20.802-2.837 31.203-5.674 1.892-5.673 4.728-11.347 6.619-17.02.946-1.891.946-2.837 1.892-4.728.945-1.891.945-2.837 1.891-4.728 1.891-5.673 3.782-11.347 5.673-16.074.946-1.892.946-3.783 1.891-5.674 0-.945.946-1.891.946-2.837 1.891-4.727 6.619-5.673 10.401-3.782 1.891.946 2.837 1.891 2.837 3.782v2.837c-1.891 4.728-3.782 10.401-5.674 15.129-.945 1.891-.945 3.783-1.891 5.674-.945 1.891-.945 3.782-1.891 5.673-1.891 6.619-4.728 12.293-6.619 18.912 7.565-1.892 15.129-3.783 22.694-6.619 6.619-1.892 9.456 10.401 1.891 12.292z"/><path d="M588.2 143.781c-5.673.946-11.346 2.837-17.02 6.619-2.837-2.836-7.564-2.836-9.456.946-1.891 4.728-3.782 8.51-5.673 13.238-.946.945-.946 1.891-.946 2.837-3.782 8.51-7.564 17.02-10.401 26.476-2.837-2.837-7.564-2.837-10.401.945-3.782-2.837-4.728-4.728-3.782-6.619 1.891-2.837 3.782-5.673 4.727-9.456 3.783-7.564-6.619-13.238-11.346-6.619-.946 1.892-2.837 4.728-3.783 6.619-4.728 8.511-11.347 17.021-18.911 23.64-1.891 1.891-7.565 7.564-9.456 3.782-.945-.946 1.891-7.565 1.891-9.456 1.891-6.619 5.674-12.292 11.347-17.02 5.674-5.673-2.837-15.129-9.456-9.456-8.51 9.456-29.312 42.551-8.51 50.116 9.456 2.836 17.966-4.728 24.585-10.402 2.837-2.836 6.619-6.619 8.51-9.455 0 .945.946.945.946 1.891 4.728 4.728 11.347 5.673 17.02 2.836-4.728 15.13-9.456 30.259-13.238 45.388-1.891 8.51 10.401 11.347 12.293 3.782 3.782-18.911 9.455-36.877 16.074-54.843 24.585 11.347 55.789-13.238 55.789-39.714 1.891-12.292-10.401-17.966-20.803-16.075zm8.511 21.748c-4.728 15.13-21.749 30.259-37.823 21.749 1.891-5.674 4.728-11.347 7.564-17.021 5.674-6.619 36.878-24.585 30.259-4.728zM376.392 218.481c-9.455 6.619-23.639 9.456-33.095 1.892 12.293-3.783 27.422-10.402 31.204-21.749 6.619-17.965-16.075-21.748-27.422-17.965-17.02 4.727-28.367 19.857-20.802 37.822 10.401 22.694 37.823 22.694 55.789 10.402 7.564-3.783.945-15.129-5.674-10.402zm-23.639-25.53c1.891 0 9.456-1.891 10.401.946.946 2.836-4.728 6.619-6.619 6.619-5.673 3.782-12.292 6.619-18.911 7.564-1.891-7.564 6.619-13.238 15.129-15.129z"/><path d="M433.127 210.917c-9.456 6.619-23.64 9.456-33.095 1.891 12.292-3.782 27.421-10.401 31.203-21.748 6.619-17.966-16.074-21.748-27.421-17.966-17.02 4.728-28.367 19.857-20.803 37.823 10.402 22.694 37.823 22.694 55.789 10.401 8.51-3.782 1.891-15.129-5.673-10.401zm-23.64-25.53c1.891 0 9.456-1.892 10.402.945.945 2.837-4.728 6.619-6.619 6.619-5.674 3.782-12.293 6.619-18.912 7.565-.945-7.565 6.619-13.238 15.129-15.129z"/></g><defs><linearGradient id="paint0_linear" x1="748.547" y1="45.292" x2="2.349" y2="36.715" gradientUnits="userSpaceOnUse"><stop stop-color="#FFA800"/><stop offset=".313" stop-color="#FF579E"/><stop offset=".682" stop-color="#9F72FF"/><stop offset="1" stop-color="#10E6D9"/></linearGradient><linearGradient id="paint1_linear" x1="748.547" y1="45.292" x2="2.349" y2="36.715" gradientUnits="userSpaceOnUse"><stop stop-color="#FFA800"/><stop offset=".313" stop-color="#FF579E"/><stop offset=".682" stop-color="#9F72FF"/><stop offset="1" stop-color="#10E6D9"/></linearGradient><linearGradient id="paint2_linear" x1="748.547" y1="45.292" x2="2.349" y2="36.715" gradientUnits="userSpaceOnUse"><stop stop-color="#FFA800"/><stop offset=".313" stop-color="#FF579E"/><stop offset=".682" stop-color="#9F72FF"/><stop offset="1" stop-color="#10E6D9"/></linearGradient><linearGradient id="paint3_linear" x1="748.547" y1="45.292" x2="2.349" y2="36.715" gradientUnits="userSpaceOnUse"><stop stop-color="#FFA800"/><stop offset=".313" stop-color="#FF579E"/><stop offset=".682" stop-color="#9F72FF"/><stop offset="1" stop-color="#10E6D9"/></linearGradient><linearGradient id="paint4_linear" x1="748.547" y1="45.292" x2="2.349" y2="36.715" gradientUnits="userSpaceOnUse"><stop stop-color="#FFA800"/><stop offset=".313" stop-color="#FF579E"/><stop offset=".682" stop-color="#9F72FF"/><stop offset="1" stop-color="#10E6D9"/></linearGradient><linearGradient id="paint5_linear" x1="748.547" y1="45.292" x2="2.349" y2="36.715" gradientUnits="userSpaceOnUse"><stop stop-color="#FFA800"/><stop offset=".313" stop-color="#FF579E"/><stop offset=".682" stop-color="#9F72FF"/><stop offset="1" stop-color="#10E6D9"/></linearGradient><linearGradient id="paint6_linear" x1="748.547" y1="45.292" x2="2.349" y2="36.715" gradientUnits="userSpaceOnUse"><stop stop-color="#FFA800"/><stop offset=".313" stop-color="#FF579E"/><stop offset=".682" stop-color="#9F72FF"/><stop offset="1" stop-color="#10E6D9"/></linearGradient><filter id="filter0_d" x="140.607" y="77.644" width="489.59" height="214.561" filterUnits="userSpaceOnUse" color-interpolation-filters="sRGB"><feFlood flood-opacity="0" result="BackgroundImageFix"/><feColorMatrix in="SourceAlpha" values="0 0 0 0 0 0 0 0 0 0 0 0 0 0 0 0 0 0 127 0"/><feOffset dy="4"/><feGaussianBlur stdDeviation="10.5"/><feColorMatrix values="0 0 0 0 1 0 0 0 0 1 0 0 0 0 1 0 0 0 0.25 0"/><feBlend in2="BackgroundImageFix" result="effect1_dropShadow"/><feBlend in="SourceGraphic" in2="effect1_dropShadow" result="shape"/></filter></defs></svg>