<svg version="1.2" baseProfile="tiny-ps" xmlns="http://www.w3.org/2000/svg" width="200" height="60"><style></style><path id="Layer" fill-rule="evenodd" d="M85.72 37.48V59h-5.96v-2.48c-1.55 1.87-3.79 2.8-6.72 2.8-2.03 0-3.87-.45-5.52-1.36-1.63-.91-2.91-2.2-3.84-3.88-.93-1.68-1.4-3.63-1.4-5.84s.47-4.16 1.4-5.84c.93-1.68 2.21-2.97 3.84-3.88 1.65-.91 3.49-1.36 5.52-1.36 2.75 0 4.89.87 6.44 2.6v-2.28h6.24zM74.12 54.2c1.57 0 2.88-.53 3.92-1.6 1.04-1.09 1.56-2.55 1.56-4.36 0-1.81-.52-3.25-1.56-4.32-1.04-1.09-2.35-1.64-3.92-1.64-1.6 0-2.92.55-3.96 1.64-1.04 1.07-1.56 2.51-1.56 4.32 0 1.81.52 3.27 1.56 4.36 1.04 1.07 2.36 1.6 3.96 1.6zm23.46-16.24h5.52v4.8h-5.36V59H91.5V37c0-2.45.72-4.4 2.16-5.84 1.46-1.44 3.52-2.16 6.16-2.16.93 0 1.81.11 2.64.32.85.19 1.56.47 2.12.84l-1.64 4.52c-.72-.51-1.56-.76-2.52-.76-1.9 0-2.84 1.04-2.84 3.12v.92zm14.72 0h5.52v4.8h-5.36V59h-6.24V37c0-2.45.72-4.4 2.16-5.84 1.47-1.44 3.52-2.16 6.16-2.16.94 0 1.82.11 2.64.32.86.19 1.56.47 2.12.84l-1.64 4.52c-.72-.51-1.56-.76-2.52-.76-1.89 0-2.84 1.04-2.84 3.12v.92zm21.73-.8c2.67 0 4.81.8 6.44 2.4 1.65 1.6 2.48 3.97 2.48 7.12V59h-6.24V47.64c0-1.71-.37-2.97-1.12-3.8-.75-.85-1.83-1.28-3.24-1.28-1.57 0-2.83.49-3.76 1.48-.93.96-1.4 2.4-1.4 4.32V59h-6.24V29.32h6.24v10.4c.83-.83 1.83-1.45 3-1.88 1.17-.45 2.45-.68 3.84-.68zm36.26.32V59h-5.92v-2.56c-.83.93-1.82 1.65-2.96 2.16-1.15.48-2.39.72-3.72.72-2.83 0-5.07-.81-6.72-2.44-1.66-1.63-2.48-4.04-2.48-7.24V37.48h6.24v11.24c0 3.47 1.45 5.2 4.36 5.2 1.49 0 2.69-.48 3.6-1.44.9-.99 1.36-2.44 1.36-4.36V37.48h6.24zm18.5-.32c2 0 3.81.47 5.44 1.4 1.65.91 2.94 2.2 3.88 3.88.93 1.65 1.4 3.59 1.4 5.8s-.47 4.16-1.4 5.84c-.94 1.65-2.23 2.95-3.88 3.88-1.63.91-3.44 1.36-5.44 1.36-2.96 0-5.22-.93-6.76-2.8V59h-5.96V29.32h6.24v10.44c1.57-1.73 3.73-2.6 6.48-2.6zm-1.08 17.04c1.6 0 2.9-.53 3.92-1.6 1.04-1.09 1.56-2.55 1.56-4.36 0-1.81-.52-3.25-1.56-4.32-1.02-1.09-2.32-1.64-3.92-1.64s-2.92.55-3.96 1.64c-1.02 1.07-1.52 2.51-1.52 4.32 0 1.81.5 3.27 1.52 4.36 1.04 1.07 2.36 1.6 3.96 1.6z" fill="#251440"/><path id="Layer" d="M15.81 30.19C7.08 30.62-1.69 16.95 3.1 8.85c7.82-13.21 24.61-7.23 18.51 5.93-2.95 6.36 2.93 14.98-5.8 15.41z" fill="none" stroke="#ff57c6" stroke-width="2"/><path id="Layer" d="M11.29 11.24C10.12 2.46 21.56 3.36 27 3.36c5.44 0 12.5-1 14.44 3.54 1.48 3.46.68 5.94-9.01 11.75s-19.68 3.56-21.14-7.41z" fill="none" stroke="#10e6d9" stroke-width="2"/><path id="Layer" d="M42.1 13.57c10.5 3.41 2.63 16.76-5.21 19.32-7.85 2.57-15.71-.08-16.39-8.74-.69-8.66 11.1-13.99 21.6-10.58z" fill="none" stroke="#ed534b" stroke-width="2"/><path id="Layer" d="M38.45 39.4c-4.57 4.56-9.85 1.93-11.91.04-3.84-3.22-10.77-6.66-10.24-14.25.66-9.49 9.76-14 17.13-9.19 7.37 4.82 10.72 17.68 5.02 23.4z" fill="none" stroke="#9f72ff" stroke-width="2"/><path id="Layer" d="M33.46 27.1c1.74 4.23-.2 10.18-10.32 14.31-10.62 4.33-16.95-1.86-17.7-8.69-.41-3.77-.63-7.5 4.68-10.33 7.2-3.83 21.6.47 23.34 4.71z" fill="none" stroke="#ffa800" stroke-width="2"/></svg>