<svg width="62" height="57" fill="none" xmlns="http://www.w3.org/2000/svg"><path d="M54.948 9.349l3.96-1.922v29.212h-3.96V9.35zM7.137 9.349L3.176 7.427v29.212h3.96V9.35z" fill="#009788"/><path fill-rule="evenodd" clip-rule="evenodd" d="M17.666 14.154c-5.12-3.747-9.564-6.727-14.876-8.937L.182.701C6.653 2.142 14.092 6.18 20.08 11.367c5.988 5.188 10.916 12.107 12.461 19.122h-3.766c-1.837-5.957-5.99-11.915-11.108-16.335z" fill="#009788"/><path fill-rule="evenodd" clip-rule="evenodd" d="M44.518 14.154c5.12-3.747 9.562-6.726 14.874-8.937L62 .7c-6.471 1.44-13.91 5.478-19.897 10.666-5.988 5.188-10.916 12.107-12.461 19.122h3.766c1.837-5.957 5.99-11.916 11.11-16.335z" fill="#009788"/><path fill-rule="evenodd" clip-rule="evenodd" d="M45.096 30.202c1.643 0 2.897-1.25 2.897-2.882 0-1.632-1.351-2.882-2.897-2.882-1.642 0-2.896 1.25-2.896 2.882a2.898 2.898 0 002.896 2.882zm0 3.844c3.767 0 6.858-2.979 6.858-6.726s-3.09-6.726-6.858-6.726c-3.766 0-6.857 2.979-6.857 6.726s3.09 6.726 6.858 6.726zM17.085 30.777c1.643 0 2.897-1.25 2.897-2.881 0-1.633-1.351-2.882-2.897-2.882-1.642 0-2.897 1.25-2.897 2.882-.097 1.634 1.255 2.881 2.897 2.881zm0 3.844c3.767 0 6.858-2.978 6.858-6.725 0-3.748-3.091-6.726-6.858-6.726-3.766 0-6.857 2.978-6.857 6.726 0 3.747 3.09 6.725 6.857 6.725z" fill="#009788"/><path d="M61.614 38.56H.569v1.922h61.045V38.56zM5.494 43.077l3.284 8.168 3.283-8.168h4.056v12.972h-2.992V47.88L9.84 56.05H7.523L4.335 47.88v8.169H1.341V43.077h4.153zM21.238 53.551l-.965 2.498h-3.188l5.313-12.972h2.896l5.313 12.972h-3.188l-.965-2.498h-5.216zm2.608-6.63l-1.643 4.131h3.189l-1.546-4.132zM35.631 43.077l3.284 8.168 3.283-8.168h4.056v12.972H43.26V47.88l-3.188 8.169h-2.318l-3.188-8.169v8.169h-2.994V43.077h4.06zM51.473 53.551l-.965 2.498H47.32l5.312-12.972h2.994l5.312 12.972H57.75l-.965-2.498h-5.312zm2.51-6.63l-1.642 4.131h3.188l-1.546-4.132z" fill="#009788"/></svg>