<svg width="115" height="31" fill="none" xmlns="http://www.w3.org/2000/svg"><g clip-path="url(#clip0)"><path d="M4.16.712h21.807a3.655 3.655 0 013.643 3.649V26.41c0 2.025-1.638 3.666-3.643 3.666H4.161A3.663 3.663 0 01.5 26.41V4.36A3.66 3.66 0 014.16.713z" fill="red"/><path fill-rule="evenodd" clip-rule="evenodd" d="M2.627 10.785a7.947 7.947 0 017.948-7.943h7.513v6.564c0 .873-.715 1.589-1.586 1.589H2.627v-.21zM27.5 20.003c0 4.382-3.556 7.943-7.931 7.943h-7.53v-6.564c0-.873.714-1.589 1.586-1.589H27.5v.21zm-7.949-8.694c4.375 0 7.931 3.561 7.931 7.943v.21H10.558c-4.375 0-7.949-3.562-7.949-7.961v-.21h16.943v.018z" fill="#fff"/><path d="M39.912 18.187c0 .629.105 1.152.314 1.606.209.437.505.803.889 1.1.383.28.82.489 1.307.611a6.891 6.891 0 001.621.175c.628 0 1.15-.07 1.604-.21.436-.157.802-.349 1.08-.576a1.96 1.96 0 00.593-.785c.122-.297.175-.611.175-.908 0-.629-.14-1.083-.436-1.38-.28-.296-.575-.523-.907-.645a16.278 16.278 0 00-2.039-.594c-.767-.192-1.708-.454-2.824-.75-.697-.175-1.29-.42-1.76-.716a4.411 4.411 0 01-1.099-1.013 3.533 3.533 0 01-.592-1.17 5.171 5.171 0 01-.157-1.256c0-.82.174-1.537.505-2.13a4.379 4.379 0 011.377-1.502c.558-.401 1.203-.68 1.918-.872a8.375 8.375 0 012.161-.297c.854 0 1.656.122 2.388.349.767.21 1.43.541 1.987.978a5.02 5.02 0 011.378 1.64c.33.646.505 1.38.505 2.235h-2.859c-.07-1.047-.435-1.798-1.08-2.217-.645-.436-1.447-.663-2.44-.663-.332 0-.68.035-1.03.122a2.64 2.64 0 00-.958.349c-.296.157-.54.367-.732.646-.174.28-.279.61-.279 1.03 0 .576.174 1.03.523 1.379.366.314.837.559 1.412.733.052.018.296.088.715.21.418.104.906.227 1.412.366.522.14 1.028.28 1.499.42.505.121.854.209 1.08.279.54.174.994.401 1.395.68.4.297.715.629.976 1.013.279.367.47.768.593 1.187.14.42.209.856.209 1.275 0 .907-.192 1.693-.575 2.356a4.519 4.519 0 01-1.465 1.572 5.981 5.981 0 01-2.074.89 9.91 9.91 0 01-2.37.297 9.983 9.983 0 01-2.633-.35 6.15 6.15 0 01-2.144-1.047 5.28 5.28 0 01-1.464-1.798c-.366-.75-.558-1.624-.575-2.636l2.876.017zM59.87 16.668a3.934 3.934 0 00-.278-1.187c-.14-.384-.331-.716-.593-.977a2.35 2.35 0 00-.906-.681 2.637 2.637 0 00-1.186-.28c-.453 0-.871.088-1.255.245-.366.157-.68.367-.959.663-.261.28-.47.594-.644.978a3.207 3.207 0 00-.245 1.24h6.067zm-6.048 1.711c0 .454.07.908.192 1.327.14.419.33.803.592 1.117.262.315.593.576.977.786.4.174.871.28 1.411.28.767 0 1.377-.158 1.83-.49.471-.331.82-.838 1.047-1.483h2.457c-.14.645-.366 1.204-.714 1.71a4.933 4.933 0 01-1.203 1.275 5.02 5.02 0 01-1.604.75 6.273 6.273 0 01-1.83.28c-.924 0-1.743-.157-2.458-.454a5.239 5.239 0 01-1.83-1.274c-.488-.542-.854-1.205-1.116-1.973a8.266 8.266 0 01-.366-2.514c0-.838.122-1.624.384-2.374a6.512 6.512 0 011.133-1.99 5.814 5.814 0 011.795-1.38c.698-.331 1.5-.506 2.37-.506.925 0 1.761.192 2.493.594.75.384 1.36.89 1.848 1.536s.837 1.379 1.046 2.217a6.32 6.32 0 01.174 2.566h-8.628zM63.775 11.798h2.458v1.64h.07c.191-.296.418-.558.645-.802.226-.245.47-.454.75-.611.296-.175.61-.297.975-.384a4.567 4.567 0 011.255-.157c.715 0 1.377.157 1.987.489.628.314 1.064.82 1.325 1.483a5.475 5.475 0 011.534-1.449c.575-.349 1.308-.523 2.162-.523 1.255 0 2.213.296 2.893.907.698.611 1.046 1.624 1.046 3.073v8.153h-2.597V16.72c0-.471-.018-.908-.052-1.274-.035-.402-.122-.734-.28-1.013a1.399 1.399 0 00-.644-.663c-.297-.158-.68-.227-1.186-.227-.889 0-1.516.279-1.917.82-.4.541-.593 1.327-.593 2.34v6.913H71.01v-7.594c0-.82-.157-1.45-.453-1.85-.296-.42-.837-.647-1.621-.647-.331 0-.663.07-.976.21-.314.14-.576.331-.82.593a3.423 3.423 0 00-.575.96c-.14.385-.209.82-.209 1.31v7.018h-2.58v-11.82zM83.02 11.798h2.457v1.606h.052c.366-.68.872-1.17 1.534-1.466a5.11 5.11 0 012.127-.454c.924 0 1.743.174 2.423.506a4.736 4.736 0 011.743 1.344 5.676 5.676 0 011.028 1.99c.227.768.35 1.571.35 2.444a8.45 8.45 0 01-.315 2.305 5.525 5.525 0 01-.941 1.99 4.978 4.978 0 01-1.569 1.38c-.645.33-1.394.505-2.266.505a4.9 4.9 0 01-1.133-.122 4.662 4.662 0 01-1.098-.314 4.949 4.949 0 01-.976-.576 3.331 3.331 0 01-.732-.838h-.053v5.9h-2.597l-.035-16.2zm9.064 5.918c0-.541-.07-1.047-.21-1.554a4.417 4.417 0 00-.61-1.326 2.952 2.952 0 00-1.028-.943 2.747 2.747 0 00-1.412-.367c-1.098 0-1.935.384-2.493 1.152-.54.768-.819 1.781-.819 3.038 0 .594.07 1.152.21 1.676.156.506.365.943.662 1.31.278.366.627.663 1.028.872.418.21.889.314 1.412.314.593 0 1.098-.122 1.499-.366.418-.245.75-.559 1.011-.943.279-.402.47-.838.575-1.327a6.492 6.492 0 00.174-1.536zM96.197 11.798h2.44v2.287h.053c.07-.314.227-.629.436-.943.226-.297.488-.576.801-.82a3.504 3.504 0 011.046-.611 3.026 3.026 0 011.168-.227c.297 0 .506 0 .61.017l.366.053v2.513a5.173 5.173 0 00-.575-.07 2.83 2.83 0 00-.54-.052 2.86 2.86 0 00-1.255.28 2.696 2.696 0 00-1.011.785c-.297.332-.523.75-.68 1.257a5.862 5.862 0 00-.244 1.746v5.621h-2.615V11.798zM108.539 23.93c-.942 0-1.796-.156-2.528-.453a5.298 5.298 0 01-1.865-1.31c-.506-.54-.889-1.204-1.168-1.972-.261-.768-.384-1.606-.384-2.514 0-.908.123-1.728.384-2.496a5.854 5.854 0 011.168-1.973 5.544 5.544 0 011.865-1.274 6.463 6.463 0 012.528-.49c.941 0 1.778.158 2.51.49a4.936 4.936 0 011.865 1.274c.523.541.906 1.204 1.168 1.973.279.768.418 1.588.418 2.496 0 .908-.139 1.746-.418 2.514a5.35 5.35 0 01-1.168 1.973 5.798 5.798 0 01-1.865 1.309c-.732.314-1.552.454-2.51.454zm0-2.042c.575 0 1.08-.122 1.499-.366.418-.245.784-.559 1.045-.96.279-.402.471-.838.593-1.327.14-.506.209-1.013.209-1.537 0-.506-.069-1.012-.209-1.5a3.678 3.678 0 00-.593-1.328 3.231 3.231 0 00-1.045-.96c-.419-.244-.924-.366-1.499-.366-.576 0-1.081.122-1.5.366a2.92 2.92 0 00-1.045.96c-.279.385-.489.82-.611 1.327a6.446 6.446 0 00-.191 1.502c0 .523.069 1.03.191 1.536.14.489.349.925.611 1.327a3.23 3.23 0 001.045.96c.419.244.924.366 1.5.366zM38.64 26.34a.456.456 0 00-.157-.314.536.536 0 00-.332-.105c-.07 0-.122.018-.209.035a.332.332 0 00-.192.122.645.645 0 00-.14.245 1.322 1.322 0 00-.051.401c0 .087.017.175.035.262a.612.612 0 00.104.244.83.83 0 00.174.175c.07.035.157.07.262.07.14 0 .261-.035.349-.14a.525.525 0 00.174-.367h.488c-.052.28-.157.507-.331.664-.175.157-.401.227-.68.227-.175 0-.314-.035-.453-.088a.785.785 0 01-.331-.244 1.257 1.257 0 01-.21-.367c-.052-.14-.07-.279-.07-.453 0-.158.018-.315.07-.454.053-.14.105-.28.21-.367a.908.908 0 01.33-.244c.14-.07.297-.088.471-.088a1.322 1.322 0 01.68.192c.087.07.157.158.227.245.052.105.087.21.104.349h-.523zm4.357 1.519a1.33 1.33 0 01-.47-.088.974.974 0 01-.35-.244 1.87 1.87 0 01-.226-.367 1.34 1.34 0 01-.07-.47c0-.158.018-.333.07-.455a.998.998 0 01.227-.366c.087-.105.21-.175.349-.245a1.33 1.33 0 01.94 0c.14.053.262.14.35.245a.998.998 0 01.226.366c.052.14.07.297.07.454 0 .175-.035.332-.07.471a.998.998 0 01-.227.367c-.087.105-.209.175-.348.244-.14.053-.297.088-.47.088zm0-.384a.51.51 0 00.28-.07.623.623 0 00.295-.42c.018-.104.035-.191.035-.278 0-.105-.017-.192-.035-.28a.521.521 0 00-.104-.244.603.603 0 00-.192-.175.51.51 0 00-.279-.07.474.474 0 00-.279.07.621.621 0 00-.192.175c-.052.07-.087.157-.122.244a1.533 1.533 0 00-.034.28c0 .087.017.192.035.279.034.087.07.174.121.244.053.07.122.14.192.175a.51.51 0 00.28.07zm3.974-1.868h.454v.332l.017.017a.852.852 0 01.279-.28.764.764 0 01.4-.104c.245 0 .437.07.576.192.14.122.21.314.21.559v1.5h-.489v-1.378c0-.175-.035-.297-.104-.367-.07-.087-.175-.122-.314-.122a.482.482 0 00-.227.052.278.278 0 00-.157.123c-.052.052-.07.104-.104.174-.035.07-.035.14-.035.227v1.292h-.47v-2.217h-.035zm4.69 0h.365v-.175c0-.14.018-.244.053-.331a.629.629 0 01.14-.21.28.28 0 01.191-.087c.07-.018.157-.035.227-.035.157 0 .279.017.33.035v.366c-.034-.017-.069-.017-.104-.017-.035 0-.07-.018-.122-.018a.294.294 0 00-.174.053c-.052.035-.07.087-.07.174v.227h.419v.367h-.419v1.833h-.488v-1.833h-.366l.017-.35zm5.525.908c0-.07-.017-.14-.052-.227-.035-.07-.07-.14-.105-.175a.628.628 0 00-.174-.122.482.482 0 00-.227-.052.482.482 0 00-.226.052c-.07.017-.122.07-.175.122a.63.63 0 00-.122.175c-.017.07-.034.14-.052.227h1.133zm-1.133.314c0 .087.018.157.035.244.017.087.07.157.105.21a.682.682 0 00.174.14.58.58 0 00.261.052c.14 0 .262-.035.332-.088a.54.54 0 00.191-.279h.453a.647.647 0 01-.139.314c-.07.088-.14.175-.227.245s-.191.104-.296.14a1.164 1.164 0 01-.784-.035.786.786 0 01-.331-.245 1.257 1.257 0 01-.21-.367 1.34 1.34 0 01-.07-.47 1.207 1.207 0 01.28-.804 1.56 1.56 0 01.33-.262.93.93 0 01.437-.087c.174 0 .33.035.453.105.14.07.261.174.348.279.087.122.157.262.192.419.035.157.052.314.035.471h-1.569v.018zm4.445-1.222h.453v.419h.018c.017-.053.035-.122.07-.175.052-.052.087-.105.139-.157.052-.052.122-.087.192-.122s.14-.035.209-.035h.122c.017 0 .052 0 .07.017v.472c-.035 0-.07-.018-.105-.018-.035 0-.07-.017-.105-.017a.536.536 0 00-.226.052.774.774 0 00-.192.14.882.882 0 00-.174.559v1.047h-.488l.017-2.182zm5.386.908c0-.07-.017-.14-.052-.227a.76.76 0 00-.105-.175.625.625 0 00-.174-.122.482.482 0 00-.227-.052.482.482 0 00-.226.052c-.07.017-.122.07-.174.122a.629.629 0 00-.122.175c-.035.07-.035.14-.053.227h1.133zm-1.133.314c0 .087.018.157.035.244.035.087.07.157.105.21a.68.68 0 00.174.14.58.58 0 00.261.052c.14 0 .262-.035.332-.088a.539.539 0 00.192-.279h.453a.647.647 0 01-.14.314c-.07.088-.14.175-.226.245-.087.07-.192.104-.297.14a1.164 1.164 0 01-.784-.035.785.785 0 01-.331-.245 1.257 1.257 0 01-.21-.367 1.918 1.918 0 01-.07-.47 1.207 1.207 0 01.28-.804 1.22 1.22 0 01.33-.262c.123-.07.28-.087.437-.087.174 0 .33.035.453.105.14.07.261.174.349.279.087.122.156.262.191.419.035.157.053.314.035.471h-1.569v.018zm4.445-1.222h.454v.332l.017.017a.852.852 0 01.279-.28.763.763 0 01.4-.104c.245 0 .436.07.576.192.14.122.21.314.21.559v1.5h-.489v-1.378a.612.612 0 00-.105-.367c-.07-.087-.174-.122-.313-.122a.482.482 0 00-.227.052.278.278 0 00-.157.123c-.052.052-.07.104-.104.174-.035.07-.035.14-.035.227v1.292h-.488l-.018-2.217zm6.38.733a.456.456 0 00-.157-.314.536.536 0 00-.331-.105c-.07 0-.122.018-.21.035a.332.332 0 00-.19.122.988.988 0 00-.158.245c-.052.104-.052.244-.052.401 0 .087.017.175.035.262a.612.612 0 00.104.244c.053.07.105.122.175.175.07.035.157.07.261.07.14 0 .262-.035.349-.14a.607.607 0 00.174-.367h.488c-.035.28-.157.507-.331.664-.174.157-.401.227-.68.227-.174 0-.314-.035-.453-.088a.912.912 0 01-.331-.244 1.259 1.259 0 01-.21-.367c-.052-.14-.07-.279-.07-.453 0-.158.018-.315.07-.454a.819.819 0 01.192-.367.91.91 0 01.331-.244c.14-.07.297-.088.471-.088a1.322 1.322 0 01.68.192c.087.07.157.158.227.245.052.105.087.21.104.349h-.488zm4.846.175c0-.07-.017-.14-.052-.227a.425.425 0 00-.105-.175c-.035-.052-.105-.087-.174-.122a.483.483 0 00-.227-.052.482.482 0 00-.227.052c-.07.017-.121.07-.174.122a.629.629 0 00-.122.175c-.035.07-.035.14-.052.227h1.133zm-1.116.314c0 .087.018.157.035.244.018.087.07.157.105.21a.682.682 0 00.174.14.58.58 0 00.262.052c.139 0 .261-.035.33-.088a.539.539 0 00.192-.279h.454a.862.862 0 01-.14.314c-.07.088-.14.175-.226.245-.088.07-.192.104-.297.14a1.093 1.093 0 01-.33.052c-.175 0-.315-.035-.454-.088a.786.786 0 01-.331-.244 1.259 1.259 0 01-.21-.367 1.913 1.913 0 01-.07-.47c0-.158.036-.298.07-.437.053-.14.123-.262.21-.367a1.56 1.56 0 01.33-.262.93.93 0 01.437-.087c.174 0 .33.035.453.105.14.07.261.174.349.279.087.122.156.262.191.419.035.157.053.314.035.471h-1.569v.018z" fill="#000"/></g><defs><clipPath id="clip0"><path fill="#fff" transform="translate(.5 .712)" d="M0 0h114v29.364H0z"/></clipPath></defs></svg>