<svg width="108" height="34" fill="none" xmlns="http://www.w3.org/2000/svg"><g clip-path="url(#clip0)"><path d="M41.157 13.785V12.28h-6.89v1.578h4.526l-4.653 5.891v1.632h7.017v-1.632H36.43l4.727-5.964zM45.047 14.438c-1.182 0-2.036.326-2.563 1.051-.6.725-.855 1.577-.855 2.484 0 .979.255 1.83.855 2.556.6.725 1.436 1.052 2.563 1.052 1.182 0 2.036-.327 2.563-1.052.6-.725.855-1.577.855-2.556 0-.98-.255-1.831-.855-2.484-.545-.725-1.381-1.051-2.563-1.051zm1.182 5.112c-.255.399-.655.526-1.182.526-.527 0-.927-.2-1.182-.526-.254-.399-.4-.925-.4-1.577 0-.653.128-1.178.4-1.577.255-.4.655-.526 1.182-.526.527 0 .927.2 1.182.526.254.398.4.852.4 1.577s-.146 1.25-.4 1.577zM53.046 14.51c-.528 0-.982.127-1.31.4-.2.198-.454.452-.726.924v-1.197H49.3v6.744h1.782v-3.209c0-.525.073-.924.2-1.178.255-.453.727-.725 1.436-.725h.528v-1.831h-.128c0 .072 0 .072-.072.072zM57.645 14.51c-.527 0-.927.127-1.255.326-.254.2-.527.4-.727.726v-3.21h-1.781v9.083h1.709v-.852c.254.327.454.599.654.726.327.199.782.326 1.382.326.927 0 1.581-.327 2.108-1.052.528-.652.727-1.577.727-2.61 0-.98-.254-1.831-.781-2.484-.455-.653-1.182-.979-2.036-.979zm.582 5.04c-.255.399-.6.526-1.055.526-.527 0-.927-.2-1.181-.58-.255-.4-.4-.852-.4-1.433 0-.453.072-.906.2-1.178.272-.598.654-.852 1.309-.852.654 0 1.054.326 1.308.906.128.327.2.726.2 1.179.019.58-.109 1.033-.381 1.432zM66.97 20.91c-.072-.073-.072-.254-.127-.454V16.595c0-.78-.254-1.378-.854-1.632-.6-.272-1.255-.453-1.964-.453-1.108 0-1.963.326-2.435.925a3.363 3.363 0 00-.528 1.432h1.71c.072-.272.126-.453.272-.599.2-.199.454-.326.909-.326.4 0 .654.073.854.127.2.127.255.326.255.598 0 .2-.128.4-.4.526-.128.073-.4.127-.727.127h-.528a4.69 4.69 0 00-1.581.453c-.654.4-.982.98-.982 1.759 0 .652.2 1.106.6 1.504.4.327.927.526 1.509.526.454 0 .927-.127 1.309-.326.327-.2.6-.399.854-.653 0 .127 0 .254.073.4 0 .126.073.253.127.398h1.909v-.254a.786.786 0 01-.254-.217zm-1.836-2.158c0 .599-.2.98-.527 1.251-.327.2-.654.326-1.054.326-.255 0-.455-.072-.6-.199-.2-.127-.255-.326-.255-.653 0-.326.128-.598.4-.725.2-.072.455-.2.782-.254l.4-.072c.2-.073.327-.073.454-.127.128-.072.2-.127.328-.2v.653h.072zM71.697 17.32a94.283 94.283 0 01-1.836-.453c-.2-.073-.255-.272-.255-.454 0-.126.073-.326.255-.398.127-.127.454-.2.854-.2.455 0 .782.127.982.327.127.127.2.326.2.525h1.781c-.072-.852-.4-1.378-.927-1.758-.527-.327-1.254-.526-2.036-.526-.927 0-1.581.2-2.036.653-.454.453-.727.979-.727 1.559 0 .526.127.924.455 1.178.327.254.854.526 1.636.725 1.054.254 1.709.454 1.836.526.2.127.254.272.254.453 0 .2-.127.327-.327.453-.2.127-.454.127-.854.127-.6 0-.982-.127-1.255-.326-.127-.127-.2-.326-.254-.653h-1.818c0 .726.254 1.251.782 1.705.527.453 1.309.652 2.363.652s1.836-.2 2.29-.652c.528-.4.728-.98.728-1.632 0-.526-.2-.925-.528-1.25a4.961 4.961 0 00-1.563-.581zM79.241 19.405l-1.636-7.125h-2.763v9.101h1.782v-6.146-.725-.725l1.708 7.65h1.836l1.71-7.65v7.596h1.78v-9.1h-2.762l-1.655 7.124zM90.476 15.743a2.886 2.886 0 00-1.182-.979 3.901 3.901 0 00-1.582-.326c-.981 0-1.781.326-2.436.906-.6.598-.927 1.505-.927 2.683 0 1.251.328 2.158 1.055 2.683.654.526 1.509.852 2.363.852 1.109 0 1.909-.326 2.563-.979.4-.398.6-.78.655-1.25h-1.782c-.127.199-.2.326-.4.453-.254.2-.6.326-.981.326-.4 0-.728-.072-.982-.272-.455-.254-.655-.725-.727-1.432h4.926c0-.598 0-1.052-.073-1.305-.036-.435-.236-.961-.49-1.36zm-4.272 1.577c.072-.453.2-.78.454-1.051.255-.254.6-.4 1.054-.4.4 0 .782.128 1.055.4.254.254.454.598.454 1.051h-3.017zM95.984 15.49c-.2-.327-.455-.6-.782-.726-.327-.2-.654-.254-1.109-.254-.927 0-1.581.326-2.108.98-.528.652-.782 1.576-.782 2.682 0 .98.254 1.831.782 2.43.527.652 1.181.978 1.963.978.454 0 .854-.072 1.181-.253.328-.2.6-.454.855-.852v.924h1.709V12.28H95.91v3.21h.073zm-.327 4.06c-.273.399-.655.526-1.11.526-.526 0-.854-.2-1.108-.58-.273-.4-.4-.852-.4-1.505 0-.598.127-1.052.4-1.432.254-.4.6-.58 1.109-.58a1.6 1.6 0 01.927.326c.4.326.654.906.654 1.758-.072.635-.218 1.088-.472 1.487zM100.783 12.207h-1.782v1.632h1.782v-1.632zM100.783 14.637h-1.782v6.744h1.782v-6.744zM107.8 20.91c-.073-.073-.073-.254-.127-.454V16.595c0-.78-.255-1.378-.855-1.632-.6-.272-1.254-.453-1.963-.453-1.109 0-1.963.326-2.436.925a3.373 3.373 0 00-.527 1.432h1.709c.072-.272.127-.453.254-.599.2-.199.455-.326.927-.326.4 0 .655.073.855.127.2.127.254.326.254.598 0 .2-.127.4-.4.526-.127.073-.4.127-.727.127l-.6.072a5.152 5.152 0 00-1.581.454c-.655.399-.982.979-.982 1.758 0 .653.2 1.106.6 1.505.4.326.927.526 1.509.526.454 0 .927-.127 1.309-.327.327-.199.6-.398.854-.652 0 .127 0 .254.073.399 0 .127.073.253.127.398h1.909V21.2a.729.729 0 00-.182-.29zm-1.909-2.158c0 .598-.2.98-.527 1.251-.327.2-.654.326-1.054.326-.255 0-.455-.072-.6-.199-.2-.127-.255-.326-.255-.653 0-.326.128-.598.4-.725.127-.072.455-.2.782-.254l.4-.072c.2-.073.327-.073.454-.127.128-.073.2-.127.328-.2v.653h.072z" fill="#000"/><path d="M10.235 21.562l19.233 9.228V12.28l-19.233 9.282z" fill="url(#paint0_linear)"/><path d="M29.486 33.473L0 23.013v7.777l29.486 2.683z" fill="url(#paint1_linear)"/><path d="M0 21.562l19.233-9.282L0 3.052v18.51z" fill="url(#paint2_linear)"/><path d="M0 .315l29.486 10.46V2.999L0 .315z" fill="url(#paint3_linear)"/></g><defs><linearGradient id="paint0_linear" x1="10.242" y1="21.537" x2="29.479" y2="21.537" gradientUnits="userSpaceOnUse"><stop stop-color="#F26A2A"/><stop offset=".083" stop-color="#F26A2A"/><stop offset="1" stop-color="#C12126"/></linearGradient><linearGradient id="paint1_linear" x1="29.479" y1="28.241" x2="0" y2="28.241" gradientUnits="userSpaceOnUse"><stop stop-color="#F26A2A"/><stop offset=".083" stop-color="#F26A2A"/><stop offset="1" stop-color="#C12126"/></linearGradient><linearGradient id="paint2_linear" x1="-2.274" y1="-.749" x2="8.193" y2="14.894" gradientUnits="userSpaceOnUse"><stop stop-color="#006EB7"/><stop offset="1" stop-color="#43BB90"/></linearGradient><linearGradient id="paint3_linear" x1=".002" y1="5.547" x2="29.479" y2="5.547" gradientUnits="userSpaceOnUse"><stop stop-color="#006EB7"/><stop offset="1" stop-color="#43BB90"/></linearGradient><clipPath id="clip0"><path fill="#fff" transform="translate(0 .315)" d="M0 0h108v33.158H0z"/></clipPath></defs></svg>