<svg width="44" height="40" fill="none" xmlns="http://www.w3.org/2000/svg"><g clip-path="url(#clip0)" fill="#009688"><path d="M38.658 6.626l2.762-1.352v20.539h-2.762V6.626zM5.745 6.626L2.983 5.274v20.539h2.762V6.626z"/><path fill-rule="evenodd" clip-rule="evenodd" d="M12.989 9.938C9.415 7.351 6.46 5.176 2.77 3.608L.936.492c4.5 1.039 9.619 3.841 13.694 7.467 4.095 3.626 7.572 8.506 8.595 13.483h-2.55c-1.235-4.135-4.094-8.387-7.687-11.504z"/><path fill-rule="evenodd" clip-rule="evenodd" d="M31.512 9.938c3.573-2.587 6.547-4.762 10.217-6.33L43.564.394c-4.5 1.039-9.619 3.841-13.694 7.467-4.095 3.625-7.572 8.505-8.595 13.483h2.55c1.332-4.037 4.21-8.29 7.687-11.406z"/><path fill-rule="evenodd" clip-rule="evenodd" d="M31.917 21.246c1.12 0 2.047-.823 2.047-2.077 0-1.137-.927-2.078-2.047-2.078s-2.047.824-2.047 2.078c0 1.137.908 2.077 2.047 2.077zm0 2.685c2.55 0 4.694-2.077 4.694-4.762 0-2.705-2.144-4.782-4.694-4.782a4.741 4.741 0 00-4.713 4.782c0 2.704 2.144 4.762 4.713 4.762zM12.583 21.658c1.12 0 2.047-.824 2.047-2.078s-.927-2.077-2.047-2.077-2.047.823-2.047 2.077c.019 1.137.927 2.078 2.047 2.078zm0 2.704c2.55 0 4.693-2.077 4.693-4.782 0-2.704-2.143-4.762-4.693-4.762s-4.694 2.058-4.694 4.762c0 2.705 2.144 4.782 4.694 4.782z"/><path d="M43.352 27.165H1.245v1.352h42.126v-1.352h-.02zM4.625 30.262l2.24 5.703 2.241-5.704h2.762v9.133H9.821v-5.703l-2.24 5.703H5.938l-2.144-5.703v5.703H1.747v-9.132h2.878zM15.442 37.63l-.715 1.764h-2.144l3.69-9.132h2.047l3.67 9.132h-2.145l-.714-1.764h-3.69zm1.854-4.664l-1.12 2.9h2.144l-1.024-2.9zM25.37 30.262l2.24 5.703 2.24-5.704h2.762v9.133h-2.047v-5.703l-2.125 5.703H26.8l-2.144-5.703v5.703h-2.048v-9.132h2.762zM36.301 37.63l-.714 1.764h-2.144l3.689-9.132h2.047l3.67 9.132h-2.144l-.714-1.764H36.3zm1.739-4.664l-1.12 2.9h2.143l-1.023-2.9z"/></g><defs><clipPath id="clip0"><path fill="#fff" transform="translate(.936 .394)" d="M0 0h42.628v39H0z"/></clipPath></defs></svg>