<svg width="104" height="27" fill="none" xmlns="http://www.w3.org/2000/svg"><g clip-path="url(#clip0)"><path d="M1.22 10.341V2.213C1.22 1.4 1.89.73 2.724.73h8.146c.815 0 1.484.67 1.484 1.484v8.128c0 .815-.67 1.485-1.484 1.485H2.723c-.833 0-1.502-.67-1.502-1.485z" fill="#A2C623"/><path d="M15.033 25.402v-9.123c0-.851.687-1.539 1.556-1.539h9.16c.85 0 1.557.688 1.557 1.539v9.141c0 .85-.688 1.539-1.557 1.539h-9.16c-.85 0-1.556-.706-1.556-1.557z" fill="#3FAB35"/><path d="M6.887 26.959c3.385 0 6.136-2.733 6.136-6.119 0-3.385-2.751-6.118-6.136-6.118a6.1 6.1 0 00-6.137 6.1 6.142 6.142 0 006.137 6.137z" fill="#386EB5"/><path d="M14.888 11.011l5.485-9.612c.271-.47.886-.47 1.14 0l5.485 9.612c.29.489-.036 1.14-.58 1.14H15.468c-.525 0-.85-.651-.58-1.14z" fill="#E20E13"/><path opacity=".1" d="M10.87 11.825c.832 0 1.502-.67 1.502-1.502v-8.11c0-.398-.145-.742-.399-1.013L1.691 11.427a1.54 1.54 0 001.014.399h8.164z" fill="#020203"/><path opacity=".05" d="M1.22 10.341c0 .833.67 1.503 1.503 1.503h8.146c.398 0 .742-.145 1.014-.399L1.637 1.2a1.47 1.47 0 00-.416 1.013v8.128zM15.087 25.438c0 .833.688 1.52 1.52 1.52h9.268c.363 0 .688-.126.942-.343.018 0 .018-.036 0-.036l-11.35-11.314c-.018-.018-.036-.018-.036 0-.218.253-.344.58-.344.941v9.232z" fill="#020203"/><path opacity=".05" d="M25.803 26.959c.833 0 1.502-.67 1.502-1.503v-9.268c0-.362-.126-.706-.361-.96L15.575 26.525c.254.218.544.417.924.417h9.304v.018zM2.542 16.496a6.118 6.118 0 000 8.653 6.14 6.14 0 008.67 0l-8.67-8.653z" fill="#020203"/><path opacity=".1" d="M2.542 25.185a6.157 6.157 0 008.67 0 6.118 6.118 0 000-8.653l-8.67 8.653zM24.174 6.07l-9.323 5.647c.109.254.326.435.616.435h10.952c.524 0 .85-.652.579-1.14l-2.824-4.943z" fill="#020203"/><path opacity=".1" d="M17.712 6.07l9.322 5.647c-.108.254-.326.435-.615.435H15.467c-.525 0-.85-.652-.58-1.14l2.825-4.943z" fill="#020203"/><path d="M45.842 4.621h-.272c-.488 0-.923.254-1.158.67l-4.11 7.096-4.108-7.096a1.338 1.338 0 00-1.159-.67h-.271c-1.032 0-1.684 1.123-1.177 2.01l5.231 9.014v7.042c0 .742.598 1.34 1.34 1.34h.29c.742 0 1.34-.598 1.34-1.34v-7.042l5.23-9.014c.507-.887-.144-2.01-1.176-2.01z" fill="url(#paint0_linear)"/><path d="M58.82 3.879c-5.846 0-10.136 4.362-10.136 10.083 0 5.702 4.29 10.082 10.137 10.082s10.137-4.362 10.137-10.082c0-5.702-4.29-10.083-10.137-10.083zm0 17.432c-4.18 0-7.15-3.023-7.15-7.35 0-4.308 2.987-7.33 7.15-7.33 4.182 0 7.151 3.022 7.151 7.33.018 4.309-2.969 7.35-7.15 7.35z" fill="url(#paint1_linear)"/><path d="M79.457 12.097l-1.955-.778c-1.9-.76-2.1-1.774-2.1-2.353 0-1.25.942-2.335 2.752-2.335.85 0 1.484.199 2.1.706.108.09.199.199.29.29.434.47 1.14.615 1.7.27l.055-.035a1.337 1.337 0 00.344-2.028 6.873 6.873 0 00-.615-.633c-.616-.525-1.81-1.304-3.91-1.304-3.657 0-5.703 2.498-5.703 5.123 0 2.915 2.372 4.254 3.965 4.924l1.864.778c1.286.525 2.806 1.34 2.806 3.313 0 1.955-1.394 3.258-3.204 3.258-1.177 0-1.991-.47-2.534-1.158a4.049 4.049 0 01-.634-1.25 1.328 1.328 0 00-1.556-.923l-.308.073a1.34 1.34 0 00-.996 1.72 6.068 6.068 0 001.358 2.335c.995 1.104 2.335 1.955 4.58 1.955 3.656 0 6.281-2.535 6.281-6.227 0-2.227-.996-4.254-4.58-5.72z" fill="url(#paint2_linear)"/><path d="M96.455 6.16c-.47-1.05-1.955-1.068-2.444-.018l-7.548 16.002c-.417.887.235 1.919 1.212 1.919h.218c.525 0 1.013-.308 1.23-.797l1.775-3.892h8.327l1.683 3.874c.217.489.706.815 1.231.815h.253c.978 0 1.629-.996 1.231-1.883L96.455 6.16zm-4.326 10.39l3.004-6.589 2.897 6.59h-5.901z" fill="url(#paint3_linear)"/></g><defs><linearGradient id="paint0_linear" x1="25.868" y1="5.578" x2="102.964" y2="44.977" gradientUnits="userSpaceOnUse"><stop stop-color="#C81617"/><stop offset=".332" stop-color="#CED71A"/><stop offset=".693" stop-color="#3FAB35"/><stop offset="1" stop-color="#396EB5"/></linearGradient><linearGradient id="paint1_linear" x1="29.295" y1="-1.128" x2="106.392" y2="38.269" gradientUnits="userSpaceOnUse"><stop stop-color="#C81617"/><stop offset=".332" stop-color="#CED71A"/><stop offset=".693" stop-color="#3FAB35"/><stop offset="1" stop-color="#396EB5"/></linearGradient><linearGradient id="paint2_linear" x1="33.248" y1="-8.863" x2="110.344" y2="30.534" gradientUnits="userSpaceOnUse"><stop stop-color="#C81617"/><stop offset=".332" stop-color="#CED71A"/><stop offset=".693" stop-color="#3FAB35"/><stop offset="1" stop-color="#396EB5"/></linearGradient><linearGradient id="paint3_linear" x1="35.751" y1="-13.762" x2="112.849" y2="25.635" gradientUnits="userSpaceOnUse"><stop stop-color="#C81617"/><stop offset=".332" stop-color="#CED71A"/><stop offset=".693" stop-color="#3FAB35"/><stop offset="1" stop-color="#396EB5"/></linearGradient><clipPath id="clip0"><path fill="#fff" transform="translate(.75 .729)" d="M0 0h103v26.23H0z"/></clipPath></defs></svg>