<svg width="60" height="60" fill="none" xmlns="http://www.w3.org/2000/svg"><path d="M30 5l3.297 6.461 7.165 1.14-5.127 5.133 1.13 7.165L30 21.61l-6.466 3.29 1.13-7.166-5.126-5.133 7.165-1.14L30 5z" stroke="#FF579E" stroke-width="3" stroke-linejoin="round"/><path d="M51.233 2.524a.3.3 0 01.534 0L53.68 6.27a.3.3 0 00.22.16l4.153.66a.3.3 0 01.166.508l-2.972 2.976a.3.3 0 00-.084.259l.655 4.154a.3.3 0 01-.433.314l-3.748-1.907a.3.3 0 00-.272 0l-3.748 1.907a.3.3 0 01-.433-.314l.655-4.154a.3.3 0 00-.084-.259l-2.971-2.976a.3.3 0 01.165-.508l4.153-.66a.3.3 0 00.22-.16l1.912-3.746zM8.233 2.524a.3.3 0 01.534 0L10.68 6.27a.3.3 0 00.22.16l4.153.66a.3.3 0 01.165.508l-2.971 2.976a.3.3 0 00-.084.259l.655 4.154a.3.3 0 01-.433.314l-3.748-1.907a.3.3 0 00-.272 0l-3.748 1.907a.3.3 0 01-.433-.314l.655-4.154a.3.3 0 00-.084-.259L1.782 7.598a.3.3 0 01.166-.508L6.1 6.43a.3.3 0 00.22-.16l1.912-3.746zM53.826 24.555a.5.5 0 01.63.63l-.843 2.599a.5.5 0 00.071.447l1.605 2.212a.5.5 0 01-.405.793l-2.732.002a.5.5 0 00-.404.206l-1.607 2.21a.5.5 0 01-.88-.14l-.846-2.598a.5.5 0 00-.32-.32l-2.598-.846a.5.5 0 01-.14-.88l2.21-1.608a.5.5 0 00.206-.404l.001-2.732a.5.5 0 01.794-.404l2.211 1.604a.5.5 0 00.448.071l2.599-.842zM6.185 24.555a.5.5 0 00-.63.63l.842 2.599a.5.5 0 01-.07.447l-1.605 2.212a.5.5 0 00.404.793l2.733.002a.5.5 0 01.404.206l1.607 2.21a.5.5 0 00.88-.14l.845-2.598a.5.5 0 01.321-.32l2.598-.846a.5.5 0 00.14-.88l-2.21-1.608a.5.5 0 01-.206-.404l-.002-2.732a.5.5 0 00-.793-.404L9.23 25.326a.5.5 0 01-.447.071l-2.6-.842z" fill="#FF579E"/><path d="M30 31v11M30 51v6M44.5 35C36 44 37 57 37 57M15.51 35c8.5 9 7.5 22 7.5 22M49 47c-3.384 4.09-2.986 10-2.986 10M11.01 47c3.384 4.09 2.986 10 2.986 10M54.25 38v6.5M5.76 38v6.5M57.5 41.25H51M2.51 41.25h6.5" stroke="#FF579E" stroke-width="3" stroke-linecap="round"/></svg>