<svg width="60" height="60" fill="none" xmlns="http://www.w3.org/2000/svg"><path d="M27.627 8.222c.918-1.63 3.263-1.63 4.181 0l6.035 10.707a2.4 2.4 0 001.616 1.174l12.048 2.43c1.833.37 2.558 2.601 1.292 3.978l-8.318 9.048a2.4 2.4 0 00-.617 1.9l1.411 12.21c.215 1.857-1.683 3.235-3.383 2.457l-11.176-5.115a2.4 2.4 0 00-1.998 0l-11.175 5.115c-1.7.778-3.598-.6-3.383-2.457l1.41-12.21a2.4 2.4 0 00-.617-1.9l-8.318-9.048c-1.265-1.377-.54-3.607 1.292-3.977l12.049-2.431a2.4 2.4 0 001.616-1.174l6.035-10.707z" stroke="#FF579E" stroke-width="3"/><path d="M38.663 9.485a.966.966 0 011.675 0l2.417 4.25a.96.96 0 00.647.466l4.826.965a.95.95 0 01.518 1.578l-3.332 3.592a.947.947 0 00-.248.754l.566 4.846c.086.738-.674 1.285-1.355.976l-4.477-2.03a.97.97 0 00-.8 0l-4.477 2.03c-.68.309-1.44-.238-1.355-.976l.566-4.846a.947.947 0 00-.248-.754l-3.332-3.592a.95.95 0 01.518-1.578l4.826-.965a.96.96 0 00.647-.466l2.418-4.25z" fill="#FF579E"/></svg>