<svg width="201" height="23" fill="none" xmlns="http://www.w3.org/2000/svg"><path d="M0 11.504C0 17.854 5.042 23 11.25 23c5.063 0 9.35-3.414 10.757-8.118h-9.48c-1.825 0-3.314-1.514-3.314-3.378 0-1.865 1.482-3.386 3.314-3.386h9.487C20.601 3.42 16.32 0 11.257 0 5.042 0 0 5.152 0 11.504zm46.779-.008C46.779 5.146 41.737 0 35.529 0c-5.063 0-9.344 3.42-10.757 8.118h7.889v-3.14l9.24 6.434-9.24 6.618v-3.148h-7.89C26.186 19.586 30.467 23 35.529 23c6.209 0 11.25-5.138 11.25-11.49C46.787 17.863 51.822 23 58.037 23c6.215 0 11.25-5.145 11.25-11.496C69.294 5.152 64.252 0 58.037 0c-6.208 0-11.25 5.145-11.257 11.496z" fill="#7AB341"/><path d="M72.854 17.427l2.051-2.517c1.42 1.199 2.916 1.963 4.72 1.963 1.427 0 2.277-.575 2.277-1.521v-.042c0-.905-.541-1.367-3.183-2.054-3.183-.827-5.24-1.725-5.24-4.935v-.05c0-2.93 2.304-4.864 5.528-4.864 2.299 0 4.267.736 5.866 2.054l-1.804 2.67c-1.4-.988-2.779-1.59-4.11-1.59-1.33 0-2.03.623-2.03 1.408V8c0 1.058.679 1.401 3.41 2.116 3.203.849 5.014 2.033 5.014 4.844v.042c0 3.211-2.394 5.013-5.804 5.013a9.911 9.911 0 01-6.695-2.587zM93.496 15.422v-.624c-.59-.28-1.352-.462-2.188-.462-1.468 0-2.374.602-2.374 1.703v.042c0 .947.768 1.5 1.873 1.5 1.605.007 2.689-.89 2.689-2.159zm-7.875.806v-.049c0-2.699 2.01-3.946 4.877-3.946 1.221 0 2.1.21 2.957.504v-.203c0-1.458-.885-2.264-2.593-2.264-1.31 0-2.237.252-3.341.666l-.858-2.671c1.331-.603 2.642-.995 4.693-.995 1.872 0 3.23.504 4.088 1.388.906.925 1.31 2.285 1.31 3.946v7.172h-3.32v-1.34c-.837.947-1.99 1.57-3.656 1.57-2.285.008-4.157-1.331-4.157-3.778zM100.877 2.944h-3.43V19.79h3.43V2.944zM109.912 12.632c-.206-1.57-1.104-2.629-2.552-2.629-1.42 0-2.346 1.038-2.62 2.629h5.172zm-8.534 1.037v-.049c0-3.526 2.456-6.435 5.982-6.435 4.041 0 5.893 3.204 5.893 6.716 0 .273-.027.595-.048.925h-8.417c.336 1.591 1.42 2.425 2.956 2.425 1.153 0 1.99-.371 2.936-1.268l1.962 1.773c-1.125 1.43-2.75 2.306-4.946 2.306-3.636-.007-6.318-2.607-6.318-6.393z" fill="#424241"/><path d="M112.828 18.142l1.468-2.306c1.31.974 2.682 1.479 3.814 1.479.995 0 1.447-.372 1.447-.925v-.05c0-.764-1.173-1.016-2.51-1.43-1.695-.504-3.609-1.31-3.609-3.708v-.049c0-2.517 1.99-3.919 4.425-3.919 1.537 0 3.204.526 4.514 1.43l-1.31 2.426c-1.194-.715-2.388-1.157-3.266-1.157-.837 0-1.262.372-1.262.856v.049c0 .694 1.152 1.016 2.463 1.479 1.694.575 3.656 1.409 3.656 3.666v.042c0 2.748-2.01 3.996-4.63 3.996-1.702-.007-3.595-.582-5.2-1.879z" fill="#424241"/><path d="M129.566 16.579c2.84 0 4.761-1.963 4.761-4.816v-.056c0-2.86-1.914-4.865-4.761-4.865h-2.689v9.73h2.689v.007zm-6.167-12.94h6.167c4.967 0 8.397 3.483 8.397 8.026v.049c0 4.542-3.43 8.075-8.397 8.075h-6.167V3.64zM147.862 13.67v-.05c0-1.822-1.29-3.414-3.183-3.414-1.962 0-3.135 1.55-3.135 3.372v.042c0 1.823 1.283 3.414 3.183 3.414 1.955 0 3.135-1.542 3.135-3.365zm-9.707 0v-.05c0-3.554 2.799-6.435 6.565-6.435 3.746 0 6.524 2.832 6.524 6.386v.042c0 3.554-2.799 6.436-6.572 6.436-3.746.006-6.517-2.825-6.517-6.38zM151.724 15.422V7.423h3.43v6.891c0 1.669.769 2.517 2.072 2.517 1.31 0 2.147-.848 2.147-2.517v-6.89h3.437v12.358h-3.437V18.03c-.789 1.037-1.804 1.983-3.539 1.983-2.594 0-4.11-1.752-4.11-4.591zM172.785 13.62v-.042c0-2.054-1.352-3.414-2.95-3.414-1.606 0-2.936 1.36-2.936 3.414v.042c0 2.054 1.33 3.414 2.936 3.414 1.598 0 2.95-1.339 2.95-3.414zm-5.845 4.55v1.612h-3.43V2.937h3.43V9.19c.837-1.15 1.982-2.005 3.773-2.005 2.819 0 5.502 2.257 5.502 6.393v.042c0 4.13-2.635 6.394-5.502 6.394-1.832 0-2.957-.856-3.773-1.844zM180.461 2.944h-3.43V19.79h3.43V2.944zM189.722 12.632c-.199-1.57-1.105-2.628-2.545-2.628-1.42 0-2.353 1.037-2.621 2.628h5.166zm-8.534 1.038v-.05c0-3.525 2.456-6.434 5.982-6.434 4.041 0 5.893 3.203 5.893 6.715 0 .274-.028.596-.048.925h-8.418c.337 1.592 1.42 2.426 2.964 2.426 1.152 0 1.983-.371 2.929-1.269l1.962 1.774c-1.125 1.43-2.751 2.306-4.939 2.306-3.636-.007-6.325-2.608-6.325-6.393zM193.708 7.424h3.43v2.489c.699-1.71 1.831-2.811 3.862-2.72v3.666h-.185c-2.278 0-3.677 1.402-3.677 4.36v4.57h-3.43V7.425z" fill="#7AB341"/></svg>