<svg width="262" height="52" fill="none" xmlns="http://www.w3.org/2000/svg"><path fill-rule="evenodd" clip-rule="evenodd" d="M260.111 30.395c-1.209 1.969-2.903 3.495-5.084 4.579-2.18 1.084-4.69 1.626-7.531 1.626H235.61V10.436h11.886c2.841 0 5.351.542 7.531 1.626 2.181 1.084 3.875 2.61 5.084 4.579 1.208 1.968 1.812 4.26 1.812 6.877 0 2.616-.604 4.909-1.812 6.877zm-6.653-12.801c-1.558-1.458-3.645-2.187-6.261-2.187h-5.532V31.63h5.532c2.616 0 4.703-.73 6.261-2.187 1.557-1.458 2.336-3.432 2.336-5.924 0-2.492-.779-4.467-2.336-5.924zm-32.985 13.4h-12.148l-2.317 5.606h-6.204l11.661-26.164h5.98L229.144 36.6h-6.354l-2.317-5.607zm-6.055-14.615l-4.149 10.017h8.298l-4.149-10.017zm-25.715 20.22l-5.046-7.288h-5.569V36.6h-6.055V10.436h11.325c2.317 0 4.329.386 6.036 1.159 1.707.772 3.021 1.868 3.943 3.289.922 1.42 1.383 3.102 1.383 5.046 0 1.943-.467 3.619-1.401 5.027-.935 1.408-2.262 2.485-3.981 3.233l5.868 8.41h-6.503zm-1.533-20.052c-.947-.785-2.33-1.177-4.149-1.177h-4.933v9.12h4.933c1.819 0 3.202-.399 4.149-1.196.947-.798 1.421-1.92 1.421-3.364 0-1.47-.474-2.598-1.421-3.383zm-43.955-6.111h19.773v4.859h-13.755v5.681h12.147v4.71h-12.147v6.055h14.24V36.6h-20.258V10.436zM120.004 36.6l-11.287-26.164h6.541l7.961 18.688 8.073-18.688h6.018L125.985 36.6h-5.981zM83.712 10.436h19.772v4.859H89.729v5.681h12.148v4.71H89.729v6.055h14.241V36.6H83.712V10.436z" fill="#211540"/><path fill-rule="evenodd" clip-rule="evenodd" d="M6.474 25.697L38.506 7.345V0L.076 22.036v7.346l38.43 22.012 19.192-11.007v-7.345L38.506 44.048 6.474 25.697zm44.827-3.66L32.086 33.041l6.42 3.685L51.3 29.382v-7.346zm-6.397-11.03l-25.612 14.69 6.396 3.685 19.216-11.03v-7.346z" fill="#FF8A00"/></svg>