<svg width="169" height="22" fill="none" xmlns="http://www.w3.org/2000/svg"><path d="M6.325.928L168.5.875l-5.722 21H.5L6.325.928z" fill="#000"/><path d="M163.912 3.897H49.162l-4.278 15.538h114.749l4.279-15.538zM17.563 3.897H9.315L5.139 18.958H9.83l1.134-4.03h5.155c2.733 0 4.382-1.273 5.155-3.978l.413-1.484c.876-3.394-.67-5.569-4.124-5.569zm-.877 7.16h-4.742l.876-3.235h4.743l-.877 3.235zM43.132 3.897h-5.774l-5 6.046-2.062-6.046H25.81l-4.227 15.114h4.433l2.32-8.379 1.598 4.667h2.835l4.124-4.932-2.423 8.644h4.382L43.08 3.897h.052z" fill="#F8FF13"/><path d="M114.064 5.754l-7.063 12.409h4.021l1.134-2.068h5.258v2.068h3.454V5.807h-6.804v-.053zm-.258 7.318l2.165-3.924h1.443v3.924h-3.608zM58.596 5.754l-7.114 12.409h4.021l1.134-2.068h5.258v2.068h3.454V5.807h-6.753v-.053zm-.309 7.318l2.165-3.924h1.443v3.924h-3.608zM133.137 9.307l.98-3.553h-10.929l-.979 3.553h3.969l-2.474 8.856h3.608l2.475-8.856h3.35zM91.382 18.163l3.402-12.41h-3.608l-3.403 12.41h3.609zM105.919 18.163l3.454-12.41h-3.609l-3.454 12.41h3.609zM77.67 9.307l.98-3.553h-8.816l-1.03 3.553-2.424 8.856h3.609l1.134-4.03h4.69l.671-2.546h-4.69l.618-2.28h5.258zM88.546 9.307l.98-3.553H80.71L79.68 9.307l-2.423 8.856h3.608L82 14.133h4.69l.67-2.546h-4.69l.618-2.28h5.258zM101.692 14.61h-4.124l2.474-8.856h-3.608L92.98 18.11h7.732l.98-3.5zM145.818 9.307l.98-3.553h-11.083l-3.403 12.409h10.929l.928-3.023h-7.423l.463-1.697h5.207l.928-2.97h-5.31l.31-1.166h7.474zM156.953 9.042l.876-3.288h-6.289c-2.165 0-3.247.371-3.866 2.545-.206.69-.567 1.91-.567 2.493 0 1.803 1.083 2.386 3.145 2.386h2.938l-.567 1.856h-6.908l-.825 3.023h7.681c2.114 0 2.268-1.167 2.835-2.864l.31-1.113c.876-3.235-1.856-3.5-2.475-3.5h-3.196l.464-1.591 6.444.053z" fill="#000"/></svg>