<svg width="335" height="38" fill="none" xmlns="http://www.w3.org/2000/svg"><path d="M.077 18.697c0 10.184 8.143 18.43 18.2 18.43 8.182 0 15.125-5.472 17.376-12.996H20.342c-2.965 0-5.367-2.432-5.367-5.434 0-3.002 2.402-5.434 5.367-5.434H35.69C33.364 5.74 26.459.267 18.278.267 8.22.267.077 8.513.077 18.697zM75.696 18.697C75.696 8.513 67.552.305 57.495.305c-8.181 0-15.124 5.472-17.376 12.996h12.76V8.247l14.936 10.298-14.936 10.602v-5.016h-12.76c2.29 7.524 9.194 12.996 17.376 12.996 10.057 0 18.2-8.246 18.2-18.43 0 10.184 8.144 18.43 18.202 18.43 10.057 0 18.201-8.246 18.201-18.43S103.954.267 93.897.267c-10.058 0-18.201 8.246-18.201 18.43z" fill="#7FAF2A"/><path d="M115.963 27.019l3.49-4.256c2.44 2.014 4.954 3.306 8.032 3.306 2.439 0 3.865-.988 3.865-2.584v-.076c0-1.52-.938-2.28-5.404-3.458-5.404-1.406-8.932-2.926-8.932-8.322v-.076c0-4.94 3.903-8.208 9.42-8.208 3.903 0 7.28 1.254 9.982 3.458l-3.077 4.522c-2.364-1.672-4.729-2.698-6.98-2.698-2.252 0-3.453 1.064-3.453 2.356v.076c0 1.786 1.163 2.356 5.817 3.572 5.441 1.444 8.519 3.42 8.519 8.17v.076c0 5.396-4.091 8.436-9.87 8.436a16.555 16.555 0 01-11.409-4.294zM151.127 23.637v-1.064c-1.013-.456-2.289-.76-3.715-.76-2.514 0-4.053 1.026-4.053 2.888v.076c0 1.596 1.313 2.546 3.19 2.546 2.739 0 4.578-1.52 4.578-3.686zm-13.435 1.368v-.076c0-4.56 3.415-6.65 8.294-6.65 2.064 0 3.565.342 5.029.836v-.342c0-2.432-1.502-3.8-4.429-3.8-2.214 0-3.79.418-5.704 1.14l-1.464-4.522c2.252-1.026 4.504-1.672 7.994-1.672 3.19 0 5.479.874 6.943 2.318 1.538 1.558 2.214 3.838 2.214 6.65v12.084h-5.667V28.73c-1.426 1.596-3.378 2.66-6.23 2.66-3.79 0-6.98-2.242-6.98-6.384zM163.699 2.585h-5.854v28.386h5.854V2.585zM179.048 18.925c-.338-2.66-1.876-4.446-4.353-4.446-2.439 0-3.978 1.748-4.466 4.446h8.819zm-14.523 1.786v-.114c0-5.966 4.203-10.868 10.17-10.868 6.868 0 10.02 5.396 10.02 11.324 0 .456-.038 1.026-.075 1.558h-14.336c.563 2.698 2.44 4.104 5.029 4.104 1.951 0 3.377-.608 4.991-2.128l3.34 3.002c-1.914 2.394-4.691 3.876-8.406 3.876-6.155 0-10.733-4.408-10.733-10.754z" fill="#000"/><path d="M184.002 28.235l2.514-3.876c2.214 1.634 4.578 2.508 6.492 2.508 1.689 0 2.44-.608 2.44-1.558v-.076c0-1.292-1.989-1.71-4.278-2.394-2.89-.874-6.155-2.204-6.155-6.27v-.076c0-4.256 3.377-6.612 7.543-6.612 2.627 0 5.442.912 7.693 2.394l-2.214 4.104c-2.026-1.216-4.09-1.938-5.554-1.938-1.426 0-2.139.608-2.139 1.444v.076c0 1.178 1.951 1.71 4.203 2.508 2.89.988 6.23 2.356 6.23 6.194v.076c0 4.636-3.415 6.726-7.881 6.726a15.067 15.067 0 01-8.894-3.23z" fill="#000"/><path d="M212.485 25.613c4.842 0 8.107-3.306 8.107-8.132v-.076c0-4.826-3.265-8.208-8.107-8.208h-4.578v16.416h4.578zm-10.47-21.85h10.47c8.444 0 14.299 5.89 14.299 13.528v.076c0 7.676-5.855 13.604-14.299 13.604h-10.47V3.763zM243.634 20.711v-.114c0-3.078-2.177-5.738-5.404-5.738-3.34 0-5.329 2.622-5.329 5.662v.076c0 3.078 2.177 5.776 5.404 5.776 3.34 0 5.329-2.622 5.329-5.662zm-16.512 0v-.114c0-6.004 4.766-10.868 11.183-10.868 6.38 0 11.108 4.788 11.108 10.792v.076c0 6.004-4.766 10.868-11.183 10.868-6.38 0-11.108-4.788-11.108-10.754zM250.201 23.637v-13.49h5.855v11.628c0 2.812 1.313 4.256 3.527 4.256 2.215 0 3.641-1.444 3.641-4.256V10.147h5.854v20.862h-5.854v-2.964c-1.351 1.748-3.078 3.344-6.042 3.344-4.391 0-6.981-2.964-6.981-7.752zM286.078 20.597v-.076c0-3.458-2.289-5.776-5.029-5.776-2.739 0-4.991 2.28-4.991 5.776v.076c0 3.458 2.252 5.776 4.991 5.776 2.702 0 5.029-2.242 5.029-5.776zm-9.982 7.676v2.736h-5.817V2.585h5.854v10.526c1.426-1.938 3.378-3.382 6.418-3.382 4.803 0 9.382 3.8 9.382 10.792v.076c0 6.954-4.504 10.792-9.382 10.792-3.115 0-5.067-1.444-6.455-3.116zM299.138 2.585h-5.854v28.386h5.854V2.585zM314.9 18.925c-.338-2.66-1.877-4.446-4.353-4.446-2.402 0-3.978 1.748-4.466 4.446h8.819zm-14.524 1.786v-.114c0-5.966 4.204-10.868 10.171-10.868 6.867 0 10.02 5.396 10.02 11.324 0 .456-.038 1.026-.076 1.558h-14.335c.563 2.698 2.402 4.104 5.029 4.104 1.951 0 3.377-.608 4.991-2.128l3.34 3.002c-1.914 2.394-4.691 3.876-8.407 3.876-6.192 0-10.733-4.408-10.733-10.754zM321.655 10.147h5.854v4.218c1.201-2.888 3.115-4.75 6.568-4.598v6.194h-.3c-3.866 0-6.268 2.356-6.268 7.334v7.714h-5.854V10.147z" fill="#7FAF2A"/></svg>