<svg width="182" height="41" fill="none" xmlns="http://www.w3.org/2000/svg"><path d="M181.493 23.444h-7.724c.121 1.226.728 2.003 1.78 2.29 1.374.367 2.588.04 3.437-1.35.768.409 1.496.777 2.264 1.145-1.536 2.454-3.76 3.353-6.349 2.617-2.466-.695-3.922-2.617-3.922-5.275-.041-2.535 1.456-4.661 3.842-5.357 2.952-.858 6.025.696 6.429 3.599 0 .082.162.163.284.286-.041.695-.041 1.39-.041 2.045zm-2.75-2.045c-.566-1.35-1.415-1.8-2.588-1.717-1.092.081-1.901.572-2.184 1.717h4.772z" fill="#131214"/><path d="M30.168 40.334c-.526-.573-.93-.982-1.415-1.514 5.419-4.906 7.804-10.958 7.036-18.196-.526-4.784-2.71-8.71-6.066-12.104-6.187-6.297-18.845-8.71-28.348.287C.809 8.48.445 7.989 0 7.335 5.621 1.773 12.374-.394 19.977 1.16c9.18 1.84 15.286 7.606 17.47 16.806 2.143 8.75-.647 16.152-7.279 22.367z" fill="#C25752"/><path d="M66.645 28.391c-4.368 0-7.846-3.557-7.805-7.974 0-4.457 3.437-7.892 7.885-7.85 4.449.04 7.805 3.475 7.805 7.973-.04 4.457-3.478 7.892-7.885 7.851zm4.933-7.933c0-2.985-2.022-5.152-4.853-5.152-2.83 0-4.974 2.249-4.974 5.234.04 2.985 2.063 5.03 4.974 5.03 2.912 0 4.853-2.086 4.853-5.112zM49.417 22.544v5.439h-2.75V12.935c2.265.082 4.61-.287 6.916.204 1.9.368 3.114 1.677 3.397 3.68.323 2.045-.445 3.599-2.184 4.662-.283.163-.688.204-.809.695 1.254 1.84 2.588 3.721 3.882 5.643-2.588.654-3.114.49-4.489-1.513-.727-1.022-1.455-2.044-2.143-3.108-.364-.654-.85-.981-1.82-.654zm.122-2.903c4.124.327 4.57-.49 4.61-2.004.04-1.717-1.254-2.249-4.61-1.922v3.926z" fill="#131214"/><path d="M8.816 8.968h3.073c3.114 0 6.188-.04 9.302 0 2.79.041 4.933 1.35 6.146 3.885 1.173 2.453.97 4.866-.647 7.033-1.051 1.39-2.507 2.331-4.367 2.78 1.334 1.555 2.79 2.863 3.801 4.499.445.736.081 2.003.081 3.394-3.195-3.476-6.228-6.747-9.503-10.305h4.003c2.79-.04 4.813-1.84 4.853-4.334.04-2.535-1.982-4.416-4.893-4.416h-7.967c-2.224-.041-2.507-.205-3.882-2.536z" fill="#C25752"/><path d="M97.823 23.689c.728.654 1.456 1.145 1.901 1.922-2.75 3.435-7.886 3.762-11.202.777-3.235-2.904-3.437-8.26-.404-11.49 2.993-3.15 8.25-3.15 11.161-.041-.606.695-1.172 1.349-1.779 2.044-2.386-2.208-5.338-2.29-7.522.204-1.739 1.963-1.456 5.316.405 7.156 2.062 1.922 5.014 1.718 7.44-.572zM133.168 23.444h-7.643c.121 1.226.727 2.003 1.738 2.29 1.416.408 2.669 0 3.478-1.35.809.41 1.497.777 2.224 1.145-1.536 2.658-4.286 3.558-7.076 2.372-2.548-1.104-3.842-3.926-2.993-6.747.809-2.658 3.559-4.335 6.349-3.762 2.588.49 4.125 2.821 3.923 6.052zm-2.71-2.086c-.485-1.227-1.294-1.717-2.467-1.717-1.132.04-1.86.572-2.305 1.717h4.772zM111.654 22.749c.04 3.19-2.224 5.561-5.338 5.643-3.195.04-5.581-2.29-5.581-5.561 0-3.149 2.224-5.48 5.298-5.52 3.275 0 5.58 2.167 5.621 5.438zm-5.419 3.026c1.496-.041 2.709-1.39 2.628-3.067-.08-1.676-1.172-2.78-2.709-2.78-1.537 0-2.669 1.308-2.629 2.985.041 1.635 1.254 2.903 2.71 2.862z" fill="#131214"/><path d="M8.533 16.615c2.022-.45 3.478-.123 4.731 1.472 2.063 2.576 4.206 5.152 6.632 7.442 2.265 2.127 3.963 4.703 6.35 6.706 1.698 1.431 1.698 1.718 1.415 5.112-6.47-6.993-12.739-13.822-19.128-20.732z" fill="#C25752"/><path d="M144.612 20.336c-.849.368-1.617.655-2.345.982-1.699-1.595-3.195-1.8-4.327-.573-1.052 1.145-1.011 3.353.121 4.375 1.254 1.145 2.669.9 4.246-.777.769.328 1.537.696 2.305 1.023-1.092 2.371-3.397 3.516-5.863 2.985-2.669-.532-4.328-2.576-4.408-5.316-.081-2.658 1.496-4.866 4.003-5.52 2.588-.777 4.934.286 6.268 2.821zM159.049 17.72c3.114-.164 3.114-.164 4.166 2.535.485 1.267.97 2.494 1.577 4.048.687-1.759 1.415-3.23 1.86-4.785.445-1.553 1.254-2.126 2.79-1.84.324.041.647.041 1.133.082-1.456 3.394-2.791 6.665-4.247 9.896-.323.777-2.79.695-3.113-.082-1.416-3.271-2.75-6.502-4.166-9.855zM147.443 20.172a47.508 47.508 0 00-1.779-.163 5.264 5.264 0 010-2.25c.566-.04 1.132-.08 1.779-.163v-2.985h2.588c.324.94-.04 1.963.202 3.067h2.427v2.29c-.768.368-1.618 0-2.507.286 0 1.145-.041 2.372 0 3.558.04 1.635.485 2.044 2.224 1.84.121.368.283.777.404 1.145.121.368.364.695.243 1.104-3.074 1.513-5.54 0-5.581-3.353-.04-1.472 0-2.863 0-4.375zM79.545 27.983h-2.71V13.017h2.71v14.966zM118.327 13.017h2.709v14.925c-.89.327-1.779.081-2.709.122V13.017zM115.9 27.983h-2.588V13.017h2.588v14.966zM154.924 27.983V17.76h2.71v10.223h-2.71z" fill="#131214"/><path d="M8.047 11.259c-.04 1.104-.89 1.922-1.94 1.922-1.052-.041-1.901-.9-1.901-2.004 0-1.145.93-2.045 2.022-1.963 1.091.082 1.86.94 1.82 2.045z" fill="#C25752"/><path d="M154.52 14.652c-.041-.94.849-1.88 1.779-1.88.93 0 1.941.94 1.86 1.84-.121.98-.687 1.676-1.738 1.799-.971.081-1.861-.818-1.901-1.759z" fill="#131214"/></svg>