<svg width="178" height="101" viewBox="0 0 178 101" fill="none" xmlns="http://www.w3.org/2000/svg">
<path fill-rule="evenodd" clip-rule="evenodd" d="M5.22738 76.6915L5.21807 76.6714C1.70168 69.0834 0 60.183 0 50.06C0 39.9385 1.70118 31.0751 5.22403 23.5658L5.2274 23.5587L5.23081 23.5515C8.82204 16.0007 13.8147 10.1217 20.2466 6.05442C26.6588 1.99967 33.9404 0 42 0C50.0596 0 57.3412 1.99967 63.7534 6.05442C70.1871 10.1228 75.138 16.0045 78.6425 23.5583C82.2551 31.0706 84 39.9375 84 50.06C84 60.1897 82.2527 69.0976 78.6426 76.6913C75.1346 84.1659 70.1813 90.0009 63.7534 94.0656C57.3412 98.1203 50.0596 100.12 42 100.12C33.9404 100.12 26.6588 98.1203 20.2466 94.0656C13.8241 90.0043 8.83126 84.1765 5.237 76.7114L5.22738 76.6915ZM75.93 75.41C79.31 68.3033 81 59.8533 81 50.06C81 40.2667 79.31 31.86 75.93 24.84C72.6367 17.7333 68.0433 12.3167 62.15 8.59C56.2567 4.86333 49.54 3 42 3C34.46 3 27.7433 4.86333 21.85 8.59C15.9567 12.3167 11.32 17.7333 7.94 24.84C4.64667 31.86 3 40.2667 3 50.06C3 59.8533 4.64667 68.3033 7.94 75.41C11.32 82.43 15.9567 87.8033 21.85 91.53C27.7433 95.2567 34.46 97.12 42 97.12C49.54 97.12 56.2567 95.2567 62.15 91.53C68.0433 87.8033 72.6367 82.43 75.93 75.41ZM52.5003 70.5012L52.5108 70.4855C55.2194 66.4592 56.81 59.8176 56.81 50.06C56.81 40.3024 55.2194 33.6608 52.5108 29.6345L52.5003 29.6188L52.4899 29.603C49.906 25.6554 46.502 23.81 42 23.81C37.605 23.81 34.1822 25.64 31.4999 29.6186C28.8657 33.6541 27.32 40.3054 27.32 50.06C27.32 59.8145 28.8657 66.4658 31.4998 70.5013C34.1822 74.48 37.605 76.31 42 76.31C46.502 76.31 49.906 74.4646 52.4899 70.517L52.5003 70.5012ZM177.562 79.45H162.742V98.56H136.202V79.45H87.1924V61.2872L131.584 1.56H161.082L121.302 56.29H136.852V39.26H162.742V56.29H177.562V79.45ZM159.742 59.29V42.26H139.852V59.29H115.412L155.192 4.55999H133.092L90.1924 62.28V76.45H139.202V95.56H159.742V76.45H174.562V59.29H159.742ZM55 72.16C51.88 76.9267 47.5467 79.31 42 79.31C36.54 79.31 32.2067 76.9267 29 72.16C25.88 67.3933 24.32 60.0267 24.32 50.06C24.32 40.0933 25.88 32.7267 29 27.96C32.2067 23.1933 36.54 20.81 42 20.81C47.5467 20.81 51.88 23.1933 55 27.96C58.2067 32.7267 59.81 40.0933 59.81 50.06C59.81 60.0267 58.2067 67.3933 55 72.16Z" fill="#FF57C6"/>
<path fill-rule="evenodd" clip-rule="evenodd" d="M5.22738 76.6915L5.21807 76.6714C1.70168 69.0834 0 60.183 0 50.06C0 39.9385 1.70118 31.0751 5.22403 23.5658L5.2274 23.5587L5.23081 23.5515C8.82204 16.0007 13.8147 10.1217 20.2466 6.05442C26.6588 1.99967 33.9404 0 42 0C50.0596 0 57.3412 1.99967 63.7534 6.05442C70.1871 10.1228 75.138 16.0045 78.6425 23.5583C82.2551 31.0706 84 39.9375 84 50.06C84 60.1897 82.2527 69.0976 78.6426 76.6913C75.1346 84.1659 70.1813 90.0009 63.7534 94.0656C57.3412 98.1203 50.0596 100.12 42 100.12C33.9404 100.12 26.6588 98.1203 20.2466 94.0656C13.8241 90.0043 8.83126 84.1765 5.237 76.7114L5.22738 76.6915ZM75.93 75.41C79.31 68.3033 81 59.8533 81 50.06C81 40.2667 79.31 31.86 75.93 24.84C72.6367 17.7333 68.0433 12.3167 62.15 8.59C56.2567 4.86333 49.54 3 42 3C34.46 3 27.7433 4.86333 21.85 8.59C15.9567 12.3167 11.32 17.7333 7.94 24.84C4.64667 31.86 3 40.2667 3 50.06C3 59.8533 4.64667 68.3033 7.94 75.41C11.32 82.43 15.9567 87.8033 21.85 91.53C27.7433 95.2567 34.46 97.12 42 97.12C49.54 97.12 56.2567 95.2567 62.15 91.53C68.0433 87.8033 72.6367 82.43 75.93 75.41ZM52.5003 70.5012L52.5108 70.4855C55.2194 66.4592 56.81 59.8176 56.81 50.06C56.81 40.3024 55.2194 33.6608 52.5108 29.6345L52.5003 29.6188L52.4899 29.603C49.906 25.6554 46.502 23.81 42 23.81C37.605 23.81 34.1822 25.64 31.4999 29.6186C28.8657 33.6541 27.32 40.3054 27.32 50.06C27.32 59.8145 28.8657 66.4658 31.4998 70.5013C34.1822 74.48 37.605 76.31 42 76.31C46.502 76.31 49.906 74.4646 52.4899 70.517L52.5003 70.5012ZM177.562 79.45H162.742V98.56H136.202V79.45H87.1924V61.2872L131.584 1.56H161.082L121.302 56.29H136.852V39.26H162.742V56.29H177.562V79.45ZM159.742 59.29V42.26H139.852V59.29H115.412L155.192 4.55999H133.092L90.1924 62.28V76.45H139.202V95.56H159.742V76.45H174.562V59.29H159.742ZM55 72.16C51.88 76.9267 47.5467 79.31 42 79.31C36.54 79.31 32.2067 76.9267 29 72.16C25.88 67.3933 24.32 60.0267 24.32 50.06C24.32 40.0933 25.88 32.7267 29 27.96C32.2067 23.1933 36.54 20.81 42 20.81C47.5467 20.81 51.88 23.1933 55 27.96C58.2067 32.7267 59.81 40.0933 59.81 50.06C59.81 60.0267 58.2067 67.3933 55 72.16Z" fill="url(#paint0_linear)"/>
<defs>
<linearGradient id="paint0_linear" x1="-56.07" y1="19.06" x2="252.149" y2="79.7027" gradientUnits="userSpaceOnUse">
<stop stop-color="#FFA800"/>
<stop offset="0.546875" stop-color="#FF57C6"/>
<stop offset="1" stop-color="#10E6D9"/>
</linearGradient>
</defs>
</svg>
