<svg width="27" height="15" viewBox="0 0 27 15" fill="none" xmlns="http://www.w3.org/2000/svg">
<path fill-rule="evenodd" clip-rule="evenodd" d="M0.5 7.62C0.5 7.34385 0.723858 7.12 1 7.12H26C26.2761 7.12 26.5 7.34385 26.5 7.62C26.5 7.89614 26.2761 8.12 26 8.12H1C0.723858 8.12 0.5 7.89614 0.5 7.62Z" fill="#FF579E"/>
<path fill-rule="evenodd" clip-rule="evenodd" d="M26.3536 7.26644C26.5488 7.4617 26.5488 7.77829 26.3536 7.97355L20.3536 13.9735C20.1583 14.1688 19.8417 14.1688 19.6464 13.9735C19.4512 13.7783 19.4512 13.4617 19.6464 13.2664L25.2929 7.62L19.6464 1.97355C19.4512 1.77829 19.4512 1.4617 19.6464 1.26644C19.8417 1.07118 20.1583 1.07118 20.3536 1.26644L26.3536 7.26644Z" fill="#FF579E"/>
</svg>
