<svg width="4" height="15" viewBox="0 0 4 15" fill="none" xmlns="http://www.w3.org/2000/svg">
<path d="M0.539902 0.554932H3.4999L2.9999 9.91493H1.0199L0.539902 0.554932ZM2.0199 14.6949C1.55324 14.6949 1.16657 14.5483 0.859902 14.2549C0.553236 13.9483 0.399902 13.5749 0.399902 13.1349C0.399902 12.6949 0.553236 12.3283 0.859902 12.0349C1.16657 11.7416 1.55324 11.5949 2.0199 11.5949C2.47324 11.5949 2.84657 11.7416 3.1399 12.0349C3.44657 12.3283 3.5999 12.6949 3.5999 13.1349C3.5999 13.5749 3.44657 13.9483 3.1399 14.2549C2.84657 14.5483 2.47324 14.6949 2.0199 14.6949Z" fill="#FF579E"/>
</svg>
