<svg width="18" height="18" viewBox="0 0 18 18" fill="none" xmlns="http://www.w3.org/2000/svg">
<path d="M9.83301 0.00976562C10.8578 1.49404 11.6564 3.12237 12.2027 4.84136C13.4526 4.64528 14.6565 4.22356 15.7556 3.59683L16.0781 3.39682C14.548 1.46036 12.2907 0.236088 9.83301 0.00976562Z" fill="#FF579E"/>
<path d="M11.258 6.29004C10.5084 6.37589 9.75448 6.41898 8.99999 6.41906C8.24545 6.41895 7.49156 6.37589 6.74193 6.29004C6.58267 6.9684 6.48125 7.65905 6.43872 8.35454H11.5613C11.5188 7.65905 11.4173 6.9684 11.258 6.29004Z" fill="#FF579E"/>
<path d="M8.99992 12.8706C8.36423 12.8712 7.729 12.9041 7.09668 12.9693C7.56184 14.3583 8.20138 15.6826 8.99992 16.9106C9.79845 15.6826 10.438 14.3582 10.9032 12.9693C10.2708 12.9041 9.6356 12.8712 8.99992 12.8706Z" fill="#FF579E"/>
<path d="M12.8463 9.64502C12.807 10.4062 12.7041 11.1629 12.5386 11.907C13.9122 12.1351 15.2332 12.6099 16.4379 13.3083L16.8025 13.5353C17.4944 12.3474 17.9041 11.0164 17.9999 9.64502H12.8463Z" fill="#FF579E"/>
<path d="M16.8025 4.46484L16.4379 4.69196C15.2335 5.39146 13.9124 5.86727 12.5386 6.09647C12.7038 6.83929 12.8068 7.59458 12.8463 8.35452H17.9999C17.9039 6.98335 17.4943 5.65259 16.8025 4.46484Z" fill="#FF579E"/>
<path d="M6.43872 9.64502C6.48163 10.3406 6.5835 11.0312 6.74322 11.7095C8.24371 11.5381 9.75882 11.5381 11.2593 11.7095C11.4182 11.0311 11.5192 10.3405 11.5613 9.64502H6.43872Z" fill="#FF579E"/>
<path d="M1.56192 4.69196L1.19739 4.46484C0.505607 5.65259 0.0959424 6.98335 0 8.35452H5.15356C5.1931 7.59458 5.29604 6.83925 5.46131 6.09647C4.08746 5.86727 2.76638 5.39146 1.56192 4.69196Z" fill="#FF579E"/>
<path d="M5.79734 13.1592C4.54751 13.3553 3.3437 13.7768 2.24444 14.4031L1.92188 14.6037C3.45189 16.5403 5.70937 17.7644 8.16701 17.9902C7.14204 16.5062 6.34343 14.8781 5.79734 13.1592Z" fill="#FF579E"/>
<path d="M8.99992 1.08936C8.20149 2.31718 7.56199 3.64128 7.09668 5.02999C7.72896 5.09554 8.36423 5.12846 8.99992 5.12869C9.6356 5.12846 10.2708 5.0955 10.9032 5.02999C10.4378 3.64128 9.79834 2.31718 8.99992 1.08936Z" fill="#FF579E"/>
<path d="M15.7553 14.4031C14.6561 13.7768 13.4522 13.3554 12.2024 13.1592C11.6558 14.8782 10.8565 16.5063 9.83081 17.9901C12.2885 17.7643 14.5459 16.5402 16.0759 14.6037L15.7553 14.4031Z" fill="#FF579E"/>
<path d="M1.92383 3.39682L2.24447 3.59683C3.34357 4.22356 4.54743 4.64524 5.79736 4.84136C6.34417 3.12222 7.14347 1.49392 8.16897 0.00976562C5.71132 0.236051 3.45399 1.46032 1.92383 3.39682Z" fill="#FF579E"/>
<path d="M5.15356 9.64502H0C0.095829 11.0164 0.505493 12.3474 1.19743 13.5353L1.56196 13.3083C2.76664 12.6099 4.08768 12.1352 5.46131 11.907C5.29577 11.1629 5.19283 10.4062 5.15356 9.64502Z" fill="#FF579E"/>
</svg>
