<svg width="114" height="59" fill="none" xmlns="http://www.w3.org/2000/svg"><path d="M77.723 45.332h5.182V25.589l-5.182-3.006v22.749zM31.089 17.669c-3.903 0-7.302 2.172-9.068 5.377-1.767-3.205-5.163-5.377-9.069-5.377-3.1 0-5.874 1.375-7.771 3.541v-3.216H0v27.338h5.182V29.059c0-3.595 2.9-6.51 6.477-6.51 3.577 0 6.477 2.915 6.477 6.51v16.273h5.182V29.059c0-3.595 2.9-6.51 6.477-6.51 3.578 0 6.477 2.915 6.477 6.51v16.273h5.183V28.083c-.004-5.752-4.643-10.414-10.367-10.414zM108.815 10.557V20.78a13.822 13.822 0 00-8.745-3.11c-7.69 0-13.925 6.266-13.925 13.995 0 7.729 6.235 13.994 13.925 13.994 3.314 0 6.354-1.167 8.745-3.11v2.785h5.181V7.55l-5.181 3.006zm-8.743 29.894c-4.83 0-8.744-3.934-8.744-8.788s3.914-8.788 8.744-8.788 8.745 3.934 8.745 8.788c-.002 4.854-3.917 8.788-8.745 8.788zM67.362 16.57v4.21a13.821 13.821 0 00-8.745-3.11c-7.69 0-13.925 6.266-13.925 13.995 0 7.729 6.234 13.994 13.925 13.994 3.314 0 6.354-1.168 8.745-3.11v1.663c0 4.854-3.915 8.788-8.745 8.788-3.178 0-5.955-1.711-7.484-4.261l-4.483 2.602c2.427 4.107 6.872 6.867 11.97 6.867 7.69 0 13.924-6.265 13.924-13.994V19.576l-5.182-3.005zm-8.745 23.88c-4.83 0-8.744-3.934-8.744-8.787 0-4.854 3.914-8.788 8.744-8.788s8.745 3.934 8.745 8.788c0 4.853-3.915 8.788-8.745 8.788z" fill="#101010"/><path d="M73.409 6.749l-6.046 2.505 15.546 9.02 5.18-3.007L73.41 6.75z" fill="#E52421"/><path d="M77.729 15.268l5.182 3.006L114 .236 77.729 15.268z" fill="#ED6C71"/></svg>