<svg width="120" height="62" fill="none" xmlns="http://www.w3.org/2000/svg"><path d="M118.742 10.094C105.917 25.993 76.958 36.17 47.412 42.26c-12.34 2.543-25.304 4.21-37.961 6.345-2.853.481-6.307.89-8.372 2.012" stroke="#FF579E" stroke-width="2" stroke-linecap="round" stroke-linejoin="round"/><path d="M8.587 42.982c-1.813 1.584-3.854 3.052-5.293 4.768a23.635 23.635 0 00-1.52 2.051c-.128.19-.51.61-.296.842.248.269 1.607.215 1.955.228 2.388.088 4.77.198 7.154.48 1.463.172 5.18.454 5.72 1.487" stroke="#FF579E" stroke-width="2" stroke-linecap="round" stroke-linejoin="round"/></svg>