<svg width="1131" height="625" fill="none" xmlns="http://www.w3.org/2000/svg"><g opacity=".08" filter="url(#filter0_f)"><path d="M206.203 204.526h-72.108l-13.52 33.35H71l75.714-171.258h47.772L270.2 237.876h-50.476l-13.521-33.35zm-14.421-36.055l-21.633-54.982-21.632 54.982h43.265z" fill="url(#paint0_linear)"/><path d="M332.393 109.883h31.548v35.153h-30.647v92.84h-46.87v-92.84h-18.929v-35.153h18.929v-3.605c0-16.225 4.507-28.844 14.422-38.758 9.915-9.014 23.435-14.422 40.561-14.422 6.309 0 11.717.901 17.125 1.803 5.409.9 9.915 2.704 13.521 5.408l-11.718 32.448c-4.507-2.704-9.013-3.605-13.52-3.605s-9.014 1.803-11.718 4.507c-1.803 3.605-2.704 8.112-2.704 13.52v2.704z" fill="url(#paint1_linear)"/><path d="M475.709 109.883v35.153h-30.646v92.84h-46.871v-92.84h-18.928v-35.153h18.928v-3.605c0-16.225 4.507-28.844 14.422-38.758 9.915-9.014 23.435-14.422 40.561-14.422 6.309 0 11.718.901 17.126 1.803 5.408.9 9.915 2.704 13.52 5.408l-11.718 32.448c-4.506-2.704-9.013-3.605-13.52-3.605s-9.013 1.803-11.718 4.507c-2.704 2.704-3.605 7.211-3.605 12.619v3.605h32.449z" fill="url(#paint2_linear)"/><path d="M619.024 117.996c9.915 9.915 15.323 24.336 15.323 44.166v75.714h-46.87v-68.503c0-18.027-7.211-27.041-21.633-27.041-8.112 0-14.421 2.704-18.928 8.113-4.507 5.408-7.211 12.619-7.211 23.435v63.996h-46.871V55.802h46.871v61.292c5.408-4.506 10.816-8.112 18.027-10.816 7.211-2.704 14.422-3.605 21.633-3.605 16.224 0 29.744 5.408 39.659 15.323z" fill="url(#paint3_linear)"/><path d="M802 105.377v132.499h-44.167v-14.421c-4.507 5.408-10.816 9.013-18.027 12.619-7.211 2.704-14.422 4.506-21.632 4.506-17.126 0-30.646-5.408-40.561-15.323s-15.323-25.238-15.323-45.068v-74.812h46.87v65.799c0 9.915 1.803 17.126 5.408 21.632 3.606 4.507 9.014 7.211 16.225 7.211 7.21 0 13.52-2.704 18.027-8.112 4.506-5.408 7.211-12.619 7.211-23.435v-63.095H802z" fill="url(#paint4_linear)"/><path d="M948.921 110.785a58.638 58.638 0 0123.435 23.435c5.408 9.915 9.014 22.534 9.014 36.054 0 13.521-2.705 26.14-9.014 36.055-5.408 10.816-13.52 18.027-23.435 24.336-9.915 5.408-20.731 8.112-32.449 8.112-17.126 0-30.646-5.408-38.758-15.323v13.521h-44.167V55.802h46.871v60.391c9.013-9.013 21.632-13.52 36.955-13.52 9.915 0 21.633 2.704 31.548 8.112zm-23.436 83.826c5.409-5.408 8.113-13.52 8.113-23.435s-2.704-17.126-8.113-22.534c-5.408-5.408-11.717-8.112-19.829-8.112-8.113 0-14.422 2.704-19.83 8.112-5.408 5.408-8.112 13.52-8.112 22.534 0 9.915 2.704 18.027 8.112 23.435 5.408 5.408 11.717 8.112 19.83 8.112 8.112 0 15.323-2.704 19.829-8.112z" fill="url(#paint5_linear)"/><path d="M245.863 454.201l-.901-91.037-44.167 73.911h-21.632l-44.167-71.207v88.333H89.929V282.944h39.659l60.391 99.149 58.588-99.149h39.66l.901 171.257h-43.265z" fill="url(#paint6_linear)"/><path d="M457.682 399.219h-96.445c1.802 7.21 5.408 11.717 11.717 15.323 6.31 3.605 12.619 5.408 20.731 5.408 6.31 0 11.718-.902 16.225-2.704 4.507-1.803 9.013-4.507 14.422-9.014l24.336 25.238c-12.619 14.422-31.547 21.633-56.785 21.633-15.323 0-28.844-2.704-40.561-9.014-11.718-6.309-20.731-14.422-27.041-24.337-7.211-9.013-9.915-20.731-9.915-34.251 0-12.619 2.704-24.337 9.014-35.153 6.309-9.915 15.323-18.027 26.139-24.337 10.816-6.309 23.435-9.013 36.956-9.013 13.52 0 25.238 2.704 36.054 8.112 10.816 5.408 18.928 13.52 25.238 23.435 6.309 9.915 9.013 22.534 9.013 36.956.902.901.902 4.507.902 11.718zm-88.333-40.562c-4.507 4.507-8.112 9.915-9.014 16.225h54.082c-.902-7.211-4.507-12.619-9.014-16.225-4.507-4.506-10.816-6.309-18.027-6.309s-13.52 1.803-18.027 6.309z" fill="url(#paint7_linear)"/><path d="M614.518 399.219h-96.446c1.803 7.21 5.409 11.717 11.718 15.323 6.31 3.605 12.619 5.408 20.731 5.408 6.31 0 11.718-.902 16.225-2.704 4.506-1.803 9.013-4.507 14.421-9.014l24.337 25.238c-12.619 14.422-31.548 21.633-56.785 21.633-15.324 0-28.844-2.704-40.561-9.014-11.718-6.309-20.732-14.422-27.041-24.337-6.31-10.816-9.915-22.533-9.915-35.152s2.704-24.337 9.013-35.153c6.31-9.915 15.324-18.027 26.14-24.337 10.816-6.309 23.435-9.013 36.955-9.013 13.521 0 25.238 2.704 36.055 8.112 10.816 5.408 18.928 13.52 25.238 23.435 6.309 9.915 9.013 22.534 9.013 36.956.902 1.802.902 5.408.902 12.619zm-88.333-40.561c-4.507 4.506-8.113 9.914-9.014 16.224h54.081c-.901-7.211-4.506-12.619-9.013-16.224-4.507-4.507-10.816-6.31-18.027-6.31s-13.521 1.803-18.027 6.31z" fill="url(#paint8_linear)"/><path d="M728.088 448.793c-3.605 2.704-9.013 4.507-14.421 5.408-5.408.902-11.718 1.803-18.027 1.803-17.126 0-30.647-4.507-39.66-12.619-9.014-8.112-13.52-20.731-13.52-37.857v-44.166h-18.929v-35.153h18.929v-34.252h46.87v34.252h30.646v35.153H689.33v44.166c0 4.507.901 8.112 3.605 10.816 2.705 2.704 6.31 3.606 9.915 3.606 5.408 0 9.915-1.803 14.422-4.507l10.816 33.35z" fill="url(#paint9_linear)"/><path d="M884.924 454.201h-44.166v-14.422c-4.507 5.408-10.816 9.014-18.027 12.619-7.211 2.704-14.422 4.507-21.633 4.507-17.126 0-30.646-5.408-40.561-15.323s-15.323-25.238-15.323-45.068v-73.911h46.871V387.5c0 9.915 1.802 17.126 5.408 21.633 3.605 4.507 9.013 7.211 16.224 7.211s13.52-2.704 18.027-8.112c4.507-5.409 7.211-12.619 7.211-23.436V320.8h45.969v133.401z" fill="url(#paint10_linear)"/><path d="M1030.94 328.011c9.92 5.408 18.03 13.52 23.44 24.337 5.41 9.915 9.01 22.534 9.01 36.054 0 13.52-2.7 26.139-9.01 36.054-5.41 9.915-13.52 18.027-23.44 24.337-9.91 5.408-20.73 8.112-32.445 8.112-15.323 0-27.942-4.507-36.955-13.52v59.489h-46.871V322.603h44.167v13.52c9.013-9.915 21.632-15.323 38.758-15.323 12.616-1.802 23.436.902 33.346 7.211zm-22.53 82.925c5.41-5.408 8.11-13.52 8.11-23.435s-2.7-17.126-8.11-23.436c-5.41-5.408-11.717-8.112-19.83-8.112-8.112 0-14.421 2.704-19.829 8.112-5.409 5.409-8.113 13.521-8.113 23.436s2.704 17.125 8.113 23.435c5.408 5.408 11.717 8.112 19.829 8.112 8.113 0 14.42-2.704 19.83-8.112z" fill="url(#paint11_linear)"/></g><mask id="a" maskUnits="userSpaceOnUse" x="70" y="52.098" width="994" height="452" fill="#000"><path fill="#fff" d="M70 52.098h994v452H70z"/><path fill-rule="evenodd" clip-rule="evenodd" d="M207.651 202.378l13.52 33.35h45.731L193.087 68.766h-44.974L74.299 235.728h44.829l13.52-33.35h75.003zm-87.076 35.498H71l75.714-171.258h47.772L270.2 237.876h-50.476l-13.52-33.35h-72.109l-13.52 33.35zm74.36-67.257h-49.572l24.786-62.997 24.786 62.997zm135.31-58.588v-4.852c0-5.633.937-10.493 2.931-14.48l.156-.313.246-.246c3.154-3.153 8.23-5.136 13.237-5.136 4.071 0 8.205.693 12.346 2.682l10.312-28.558c-3.059-1.975-6.805-3.36-11.293-4.109-5.42-.903-10.664-1.773-16.773-1.773-16.624 0-29.601 5.23-39.078 13.829-9.405 9.424-13.757 21.44-13.757 37.203v5.753h-18.928v30.857h18.928v92.84h42.575v-92.84h30.646v-30.857h-31.548zM300.846 67.52c9.915-9.014 23.435-14.422 40.561-14.422 6.309 0 11.717.901 17.126 1.803 5.408.9 9.915 2.704 13.52 5.408l-11.718 32.448a25.91 25.91 0 00-1.908-1.04c-3.871-1.9-7.741-2.565-11.612-2.565-4.507 0-9.014 1.803-11.718 4.507-1.802 3.605-2.704 8.112-2.704 13.52v2.704h31.548v35.153h-30.646v92.84h-46.871v-92.84h-18.928v-35.153h18.928v-3.605c0-16.225 4.507-28.844 14.422-38.758zm97.346 42.363h-18.928v35.153h18.928v92.84h46.871v-92.84h30.646v-35.153H443.26v-3.605c0-5.408.902-9.915 3.606-12.62 2.704-2.703 7.211-4.506 11.717-4.506 3.871 0 7.742.665 11.612 2.566.636.312 1.273.658 1.909 1.04l11.717-32.45c-3.605-2.703-8.112-4.506-13.52-5.407-5.408-.902-10.816-1.803-17.126-1.803-17.126 0-30.646 5.408-40.561 14.422-9.915 9.915-14.422 22.533-14.422 38.758v3.605zm15.905-40.808c-9.404 9.423-13.757 21.44-13.757 37.203v5.753h-18.928v30.857h18.928v92.84h42.575v-92.84h30.646v-30.857h-32.449v-5.753c0-5.491.88-10.784 4.235-14.138 3.153-3.153 8.229-5.136 13.236-5.136 4.071 0 8.205.693 12.346 2.682l10.312-28.558c-3.059-1.975-6.805-3.36-11.293-4.109-5.419-.903-10.664-1.773-16.773-1.773-16.624 0-29.601 5.23-39.078 13.828zm125.608-13.273h-46.87v182.074h46.87V173.88c0-10.816 2.704-18.027 7.211-23.435 4.507-5.409 10.816-8.113 18.929-8.113 14.421 0 21.632 9.014 21.632 27.041v68.503h46.871v-75.714c0-19.83-5.409-34.251-15.324-44.166-9.914-9.915-23.435-15.323-39.659-15.323-7.211 0-14.422.901-21.633 3.605-6.258 2.347-11.158 5.373-15.879 9.077a95.68 95.68 0 00-2.148 1.739V55.802zm92.494 179.926v-73.566c0-19.433-5.289-33.243-14.693-42.647-9.468-9.468-22.42-14.694-38.141-14.694-7.029 0-13.971.878-20.878 3.468-6.923 2.596-12.124 6.053-17.407 10.456l-3.523 2.936v-63.73h-42.574v177.777h42.574V173.88c0-11.209 2.816-18.94 7.709-24.811 4.979-5.975 11.937-8.885 20.579-8.885 7.684 0 13.788 2.426 17.901 7.567 4.04 5.049 5.879 12.379 5.879 21.622v66.355h42.574zm125.634 2.148H802V105.377h-45.969v63.095c0 10.816-2.704 18.027-7.211 23.435-4.507 5.408-10.816 8.112-18.027 8.112s-12.619-2.704-16.225-7.211c-3.605-4.506-5.408-11.717-5.408-21.632v-65.799h-46.87v74.812c0 19.83 5.408 35.153 15.323 45.068s23.435 15.323 40.561 15.323c7.211 0 14.422-1.802 21.632-4.507 6.129-3.064 11.606-6.128 15.879-10.299a30.612 30.612 0 002.148-2.32v14.422zm-18.886-3.774c7.156-3.583 13.062-7.014 17.236-12.023l3.799-4.557v18.206h39.87V107.525h-41.673v60.947c0 11.209-2.817 18.939-7.709 24.81-4.954 5.945-11.893 8.885-19.677 8.885-7.804 0-13.853-2.956-17.902-8.017-4.062-5.077-5.879-12.888-5.879-22.974v-63.651h-42.574v72.664c0 19.467 5.307 34.163 14.694 43.549 9.455 9.456 22.401 14.694 39.042 14.694 6.825 0 13.732-1.699 20.773-4.33zm231.537-28.833l.06-.094c6.021-9.461 8.678-21.637 8.678-34.901 0-13.149-3.51-25.415-8.752-35.025a56.483 56.483 0 00-22.578-22.578c-9.587-5.23-20.949-7.85-30.519-7.85-14.896 0-26.917 4.371-35.436 12.891l-3.667 3.667V57.95h-42.575v176.877h39.871v-17.39l3.81 4.657c7.583 9.268 20.395 14.535 37.096 14.535 11.347 0 21.787-2.609 31.357-7.815 9.699-6.181 17.445-13.124 22.606-23.446l.049-.099zm-21.563 25.396c-9.915 5.408-20.731 8.112-32.449 8.112-15.693 0-28.359-4.541-36.61-12.93a34.988 34.988 0 01-2.148-2.393v13.521h-44.167V55.802h46.871v60.391a42.232 42.232 0 012.148-2.004c8.827-7.677 20.666-11.516 34.807-11.516 9.915 0 21.633 2.704 31.548 8.112a58.638 58.638 0 0123.435 23.435c5.408 9.915 9.014 22.534 9.014 36.054 0 13.521-2.704 26.14-9.014 36.055-5.408 10.816-13.52 18.027-23.435 24.336zM245.863 454.201h43.265l-.901-171.257h-39.66l-58.588 99.149-60.391-99.149h-39.66v171.257h45.069v-88.333l44.166 71.207h21.633l44.166-73.911.901 91.037zm-46.286-19.274l47.457-79.418.956 96.544h38.979l-.879-166.961h-36.297l-59.786 101.176-61.625-101.176H92.077v166.961h40.772V358.33l47.509 76.597h19.219zm258.105-35.709l-.001-2.148c-.009-5.788-.094-8.762-.9-9.569 0-14.422-2.704-27.041-9.014-36.956-6.309-9.915-14.422-18.027-25.238-23.435-10.816-5.408-22.534-8.112-36.054-8.112-13.521 0-26.14 2.704-36.956 9.013-10.816 6.31-19.83 14.422-26.139 24.337-6.31 10.816-9.014 22.534-9.014 35.153 0 13.52 2.704 25.238 9.915 34.251 6.31 9.915 15.323 18.028 27.041 24.337 11.718 6.31 25.238 9.014 40.561 9.014 25.238 0 44.166-7.211 56.785-21.633l-24.336-25.238c-5.408 4.507-9.915 7.211-14.422 9.014-4.507 1.802-9.915 2.704-16.224 2.704-8.113 0-14.422-1.803-20.732-5.408-5.658-3.234-9.142-7.192-11.1-13.175a30.918 30.918 0 01-.617-2.149h96.445zm-33.525 11.927c-4.881 3.884-9.14 6.372-13.449 8.095-4.824 1.93-10.518 2.858-17.022 2.858-8.489 0-15.166-1.902-21.797-5.691-6.792-3.881-10.784-8.86-12.736-16.668l-.667-2.669h97.047c-.004-2.55-.023-4.497-.108-5.95-.054-.92-.131-1.549-.221-1.961a3.12 3.12 0 00-.071-.268l-.5-.5v-.89c0-14.18-2.663-26.35-8.678-35.802-6.14-9.649-13.979-17.464-24.387-22.668-10.494-5.247-21.879-7.885-35.093-7.885-13.241 0-25.463 2.648-35.873 8.721-10.563 6.161-19.294 14.038-25.388 23.599-6.075 10.431-8.7 21.752-8.7 34.035 0 13.264 2.657 24.425 9.445 32.91l.072.09.062.098c6.088 9.566 14.81 17.44 26.247 23.599 11.323 6.097 24.47 8.757 39.543 8.757 23.937 0 41.761-6.582 53.845-19.44l-21.571-22.37zm-66.298-34.115l.35-2.452c.992-6.943 4.936-12.755 9.621-17.439 5.052-5.052 12.004-6.939 19.546-6.939 7.5 0 14.417 1.866 19.461 6.854 4.857 3.92 8.74 9.791 9.711 17.561l.302 2.415h-58.991zm47.544-18.373c-4.507-4.506-10.816-6.309-18.027-6.309s-13.52 1.803-18.027 6.309c-3.987 3.987-7.268 8.679-8.596 14.077-.174.704-.314 1.42-.418 2.148h54.082a26.57 26.57 0 00-.358-2.148c-1.288-6.146-4.608-10.838-8.656-14.077zM613.616 386.6c0-14.422-2.704-27.041-9.013-36.956-6.31-9.915-14.422-18.027-25.238-23.435-10.816-5.408-22.534-8.112-36.054-8.112-13.521 0-26.14 2.704-36.956 9.013-10.816 6.31-19.83 14.422-26.139 24.337-6.31 10.816-9.014 22.534-9.014 35.153s3.606 24.336 9.915 35.152c6.31 9.915 15.323 18.028 27.041 24.337 11.717 6.31 25.238 9.014 40.561 9.014 25.238 0 44.166-7.211 56.785-21.633l-24.336-25.238c-5.409 4.507-9.915 7.211-14.422 9.014-4.507 1.802-9.915 2.704-16.225 2.704-8.112 0-14.421-1.803-20.731-5.408-5.658-3.234-9.142-7.192-11.101-13.175a31.617 31.617 0 01-.616-2.148h96.445l-.001-2.148c-.009-5.798-.094-8.857-.901-10.471zm-1.247 10.471c-.004-2.554-.023-4.525-.109-6.071-.112-2.02-.331-2.972-.565-3.44l-.227-.453v-.507c0-14.18-2.662-26.35-8.677-35.803-6.14-9.648-13.979-17.463-24.387-22.667-10.494-5.247-21.879-7.885-35.093-7.885-13.241 0-25.463 2.648-35.874 8.721-10.562 6.161-19.293 14.038-25.387 23.599-6.075 10.43-8.7 21.751-8.7 34.035 0 12.176 3.471 23.512 9.602 34.035 6.086 9.55 14.8 17.412 26.224 23.563 11.323 6.097 24.469 8.757 39.543 8.757 23.937 0 41.76-6.582 53.845-19.44l-21.571-22.37c-4.881 3.884-9.141 6.372-13.449 8.095-4.824 1.93-10.518 2.858-17.023 2.858-8.489 0-15.165-1.902-21.796-5.691-6.792-3.881-10.784-8.86-12.736-16.667l-.667-2.669h97.047zm-97.674-20.041l.35-2.452c.992-6.943 4.936-12.755 9.621-17.439 5.052-5.052 12.004-6.939 19.546-6.939 7.5 0 14.417 1.866 19.461 6.854 4.857 3.92 8.74 9.791 9.711 17.562l.302 2.414h-58.991zm47.544-18.372c-4.507-4.507-10.816-6.31-18.027-6.31s-13.52 1.803-18.027 6.31c-3.987 3.986-7.268 8.678-8.596 14.076-.174.704-.314 1.42-.418 2.148h54.082a26.57 26.57 0 00-.358-2.148c-1.288-6.146-4.608-10.838-8.656-14.076zm127.091 2.704h30.646v-35.153H689.33v-34.252h-46.87v34.252h-18.929v35.153h18.929v44.166c0 17.126 4.506 29.745 13.52 37.857 9.014 8.112 22.534 12.619 39.66 12.619 6.309 0 12.619-.901 18.027-1.803 5.408-.901 10.816-2.704 14.422-5.408l-10.817-33.35c-.634.381-1.269.743-1.906 1.086-3.887 2.09-7.869 3.421-12.515 3.421-3.606 0-7.211-.902-9.915-3.606-2.704-2.704-3.606-6.309-3.606-10.816v-44.166zm26.709 57.242c-3.997 2.101-8.229 3.494-13.188 3.494-3.937 0-8.185-.986-11.434-4.235-3.282-3.282-4.235-7.567-4.235-12.335v-46.315h30.646v-30.856h-30.646v-34.252h-42.574v34.252h-18.929v30.856h18.929v46.315c0 16.775 4.41 28.701 12.809 36.26 8.503 7.653 21.447 12.068 38.223 12.068 6.124 0 12.289-.876 17.674-1.774 4.609-.768 9.045-2.19 12.234-4.158l-9.509-29.32zm124.719 35.597h44.166V320.8h-45.969v63.996c0 10.817-2.704 18.027-7.211 23.436-4.506 5.408-10.816 8.112-18.027 8.112-7.21 0-12.619-2.704-16.224-7.211-3.606-4.507-5.408-11.718-5.408-21.633v-64.897h-46.871v73.911c0 19.83 5.408 35.153 15.323 45.068s23.436 15.323 40.561 15.323c7.211 0 14.422-1.803 21.633-4.507 6.128-3.064 11.606-6.129 15.879-10.3a30.408 30.408 0 002.148-2.319v14.422zm-18.886-3.775c7.156-3.582 13.062-7.013 17.236-12.022l3.798-4.558v18.207h39.87V322.948h-41.673v61.848c0 11.209-2.816 18.94-7.708 24.811-4.955 5.945-11.893 8.885-19.678 8.885-7.804 0-13.853-2.956-17.902-8.017-4.061-5.078-5.878-12.889-5.878-22.975v-62.749h-42.575v71.763c0 19.467 5.308 34.162 14.694 43.549 9.456 9.455 22.401 14.694 39.042 14.694 6.825 0 13.733-1.699 20.774-4.331zm207.978-120.564l-.06-.039c-9.5-6.048-19.81-8.623-31.892-6.896l-.151.021h-.153c-16.627 0-28.629 5.227-37.169 14.62l-3.737 4.111v-16.928h-39.871v175.975h42.575v-62.527l3.667 3.667c8.519 8.519 20.54 12.891 35.437 12.891 11.344 0 21.784-2.609 31.354-7.816 9.63-6.141 17.45-13.987 22.64-23.513l.04-.064.04-.061c6.02-9.461 8.68-21.637 8.68-34.901 0-13.149-3.51-25.416-8.76-35.026l-.01-.033-.02-.035c-5.21-10.414-13-18.208-22.54-23.411l-.07-.035zm1.09 118.931c-9.91 5.408-20.73 8.112-32.444 8.112-14.142 0-25.981-3.839-34.808-11.516a43.158 43.158 0 01-2.148-2.004v59.489h-46.871V322.603h44.167v13.52a45.794 45.794 0 012.148-2.211c8.837-8.505 20.804-13.112 36.61-13.112 12.616-1.802 23.436.902 33.346 7.211 9.92 5.408 18.03 13.521 23.44 24.337 5.41 9.915 9.01 22.534 9.01 36.054 0 13.52-2.7 26.139-9.01 36.054-5.41 9.915-13.52 18.027-23.44 24.337zm-20.95-86.188l.05.063c5.77 6.732 8.63 14.452 8.63 24.833 0 10.276-2.8 19.016-8.74 24.954-5.81 5.812-12.669 8.741-21.349 8.741-8.681 0-15.537-2.929-21.349-8.741l-.058-.059-.054-.062c-5.771-6.733-8.629-14.453-8.629-24.833 0-10.277 2.803-19.017 8.741-24.954 5.812-5.812 12.668-8.742 21.349-8.742 8.68 0 15.539 2.93 21.349 8.742l.06.058zM170.149 113.489l-21.632 54.982h43.265l-21.633-54.982zm755.337 81.122c-4.507 5.408-11.718 8.112-19.83 8.112-8.112 0-14.422-2.704-19.83-8.112-5.408-5.408-8.112-13.52-8.112-23.435 0-9.014 2.704-17.126 8.112-22.534 5.408-5.408 11.718-8.112 19.83-8.112 8.112 0 14.422 2.704 19.83 8.112 5.408 5.408 8.112 12.619 8.112 22.534s-2.704 18.027-8.112 23.435zm10.26-23.435c0 10.237-2.782 18.949-8.673 24.885-5.027 5.978-12.896 8.81-21.417 8.81-8.681 0-15.537-2.929-21.349-8.741-5.937-5.937-8.741-14.677-8.741-24.954 0-9.407 2.821-18.133 8.741-24.053 5.812-5.812 12.668-8.741 21.349-8.741 8.681 0 15.537 2.929 21.348 8.741 5.903 5.902 8.742 13.712 8.742 24.053zm33.005 239.76c-5.408-6.31-8.112-13.52-8.112-23.435s2.704-18.027 8.112-23.436c5.408-5.408 11.717-8.112 19.83-8.112 8.112 0 14.419 2.704 19.829 8.112 5.41 6.31 8.11 13.521 8.11 23.436s-2.7 18.027-8.11 23.435c-5.41 5.408-11.717 8.112-19.829 8.112-8.113 0-14.422-2.704-19.83-8.112z"/></mask><path fill-rule="evenodd" clip-rule="evenodd" d="M207.651 202.378l13.52 33.35h45.731L193.087 68.766h-44.974L74.299 235.728h44.829l13.52-33.35h75.003zm-87.076 35.498H71l75.714-171.258h47.772L270.2 237.876h-50.476l-13.52-33.35h-72.109l-13.52 33.35zm74.36-67.257h-49.572l24.786-62.997 24.786 62.997zm135.31-58.588v-4.852c0-5.633.937-10.493 2.931-14.48l.156-.313.246-.246c3.154-3.153 8.23-5.136 13.237-5.136 4.071 0 8.205.693 12.346 2.682l10.312-28.558c-3.059-1.975-6.805-3.36-11.293-4.109-5.42-.903-10.664-1.773-16.773-1.773-16.624 0-29.601 5.23-39.078 13.829-9.405 9.424-13.757 21.44-13.757 37.203v5.753h-18.928v30.857h18.928v92.84h42.575v-92.84h30.646v-30.857h-31.548zM300.846 67.52c9.915-9.014 23.435-14.422 40.561-14.422 6.309 0 11.717.901 17.126 1.803 5.408.9 9.915 2.704 13.52 5.408l-11.718 32.448a25.91 25.91 0 00-1.908-1.04c-3.871-1.9-7.741-2.565-11.612-2.565-4.507 0-9.014 1.803-11.718 4.507-1.802 3.605-2.704 8.112-2.704 13.52v2.704h31.548v35.153h-30.646v92.84h-46.871v-92.84h-18.928v-35.153h18.928v-3.605c0-16.225 4.507-28.844 14.422-38.758zm97.346 42.363h-18.928v35.153h18.928v92.84h46.871v-92.84h30.646v-35.153H443.26v-3.605c0-5.408.902-9.915 3.606-12.62 2.704-2.703 7.211-4.506 11.717-4.506 3.871 0 7.742.665 11.612 2.566.636.312 1.273.658 1.909 1.04l11.717-32.45c-3.605-2.703-8.112-4.506-13.52-5.407-5.408-.902-10.816-1.803-17.126-1.803-17.126 0-30.646 5.408-40.561 14.422-9.915 9.915-14.422 22.533-14.422 38.758v3.605zm15.905-40.808c-9.404 9.423-13.757 21.44-13.757 37.203v5.753h-18.928v30.857h18.928v92.84h42.575v-92.84h30.646v-30.857h-32.449v-5.753c0-5.491.88-10.784 4.235-14.138 3.153-3.153 8.229-5.136 13.236-5.136 4.071 0 8.205.693 12.346 2.682l10.312-28.558c-3.059-1.975-6.805-3.36-11.293-4.109-5.419-.903-10.664-1.773-16.773-1.773-16.624 0-29.601 5.23-39.078 13.828zm125.608-13.273h-46.87v182.074h46.87V173.88c0-10.816 2.704-18.027 7.211-23.435 4.507-5.409 10.816-8.113 18.929-8.113 14.421 0 21.632 9.014 21.632 27.041v68.503h46.871v-75.714c0-19.83-5.409-34.251-15.324-44.166-9.914-9.915-23.435-15.323-39.659-15.323-7.211 0-14.422.901-21.633 3.605-6.258 2.347-11.158 5.373-15.879 9.077a95.68 95.68 0 00-2.148 1.739V55.802zm92.494 179.926v-73.566c0-19.433-5.289-33.243-14.693-42.647-9.468-9.468-22.42-14.694-38.141-14.694-7.029 0-13.971.878-20.878 3.468-6.923 2.596-12.124 6.053-17.407 10.456l-3.523 2.936v-63.73h-42.574v177.777h42.574V173.88c0-11.209 2.816-18.94 7.709-24.811 4.979-5.975 11.937-8.885 20.579-8.885 7.684 0 13.788 2.426 17.901 7.567 4.04 5.049 5.879 12.379 5.879 21.622v66.355h42.574zm125.634 2.148H802V105.377h-45.969v63.095c0 10.816-2.704 18.027-7.211 23.435-4.507 5.408-10.816 8.112-18.027 8.112s-12.619-2.704-16.225-7.211c-3.605-4.506-5.408-11.717-5.408-21.632v-65.799h-46.87v74.812c0 19.83 5.408 35.153 15.323 45.068s23.435 15.323 40.561 15.323c7.211 0 14.422-1.802 21.632-4.507 6.129-3.064 11.606-6.128 15.879-10.299a30.612 30.612 0 002.148-2.32v14.422zm-18.886-3.774c7.156-3.583 13.062-7.014 17.236-12.023l3.799-4.557v18.206h39.87V107.525h-41.673v60.947c0 11.209-2.817 18.939-7.709 24.81-4.954 5.945-11.893 8.885-19.677 8.885-7.804 0-13.853-2.956-17.902-8.017-4.062-5.077-5.879-12.888-5.879-22.974v-63.651h-42.574v72.664c0 19.467 5.307 34.163 14.694 43.549 9.455 9.456 22.401 14.694 39.042 14.694 6.825 0 13.732-1.699 20.773-4.33zm231.537-28.833l.06-.094c6.021-9.461 8.678-21.637 8.678-34.901 0-13.149-3.51-25.415-8.752-35.025a56.483 56.483 0 00-22.578-22.578c-9.587-5.23-20.949-7.85-30.519-7.85-14.896 0-26.917 4.371-35.436 12.891l-3.667 3.667V57.95h-42.575v176.877h39.871v-17.39l3.81 4.657c7.583 9.268 20.395 14.535 37.096 14.535 11.347 0 21.787-2.609 31.357-7.815 9.699-6.181 17.445-13.124 22.606-23.446l.049-.099zm-21.563 25.396c-9.915 5.408-20.731 8.112-32.449 8.112-15.693 0-28.359-4.541-36.61-12.93a34.988 34.988 0 01-2.148-2.393v13.521h-44.167V55.802h46.871v60.391a42.232 42.232 0 012.148-2.004c8.827-7.677 20.666-11.516 34.807-11.516 9.915 0 21.633 2.704 31.548 8.112a58.638 58.638 0 0123.435 23.435c5.408 9.915 9.014 22.534 9.014 36.054 0 13.521-2.704 26.14-9.014 36.055-5.408 10.816-13.52 18.027-23.435 24.336zM245.863 454.201h43.265l-.901-171.257h-39.66l-58.588 99.149-60.391-99.149h-39.66v171.257h45.069v-88.333l44.166 71.207h21.633l44.166-73.911.901 91.037zm-46.286-19.274l47.457-79.418.956 96.544h38.979l-.879-166.961h-36.297l-59.786 101.176-61.625-101.176H92.077v166.961h40.772V358.33l47.509 76.597h19.219zm258.105-35.709l-.001-2.148c-.009-5.788-.094-8.762-.9-9.569 0-14.422-2.704-27.041-9.014-36.956-6.309-9.915-14.422-18.027-25.238-23.435-10.816-5.408-22.534-8.112-36.054-8.112-13.521 0-26.14 2.704-36.956 9.013-10.816 6.31-19.83 14.422-26.139 24.337-6.31 10.816-9.014 22.534-9.014 35.153 0 13.52 2.704 25.238 9.915 34.251 6.31 9.915 15.323 18.028 27.041 24.337 11.718 6.31 25.238 9.014 40.561 9.014 25.238 0 44.166-7.211 56.785-21.633l-24.336-25.238c-5.408 4.507-9.915 7.211-14.422 9.014-4.507 1.802-9.915 2.704-16.224 2.704-8.113 0-14.422-1.803-20.732-5.408-5.658-3.234-9.142-7.192-11.1-13.175a30.918 30.918 0 01-.617-2.149h96.445zm-33.525 11.927c-4.881 3.884-9.14 6.372-13.449 8.095-4.824 1.93-10.518 2.858-17.022 2.858-8.489 0-15.166-1.902-21.797-5.691-6.792-3.881-10.784-8.86-12.736-16.668l-.667-2.669h97.047c-.004-2.55-.023-4.497-.108-5.95-.054-.92-.131-1.549-.221-1.961a3.12 3.12 0 00-.071-.268l-.5-.5v-.89c0-14.18-2.663-26.35-8.678-35.802-6.14-9.649-13.979-17.464-24.387-22.668-10.494-5.247-21.879-7.885-35.093-7.885-13.241 0-25.463 2.648-35.873 8.721-10.563 6.161-19.294 14.038-25.388 23.599-6.075 10.431-8.7 21.752-8.7 34.035 0 13.264 2.657 24.425 9.445 32.91l.072.09.062.098c6.088 9.566 14.81 17.44 26.247 23.599 11.323 6.097 24.47 8.757 39.543 8.757 23.937 0 41.761-6.582 53.845-19.44l-21.571-22.37zm-66.298-34.115l.35-2.452c.992-6.943 4.936-12.755 9.621-17.439 5.052-5.052 12.004-6.939 19.546-6.939 7.5 0 14.417 1.866 19.461 6.854 4.857 3.92 8.74 9.791 9.711 17.561l.302 2.415h-58.991zm47.544-18.373c-4.507-4.506-10.816-6.309-18.027-6.309s-13.52 1.803-18.027 6.309c-3.987 3.987-7.268 8.679-8.596 14.077-.174.704-.314 1.42-.418 2.148h54.082a26.57 26.57 0 00-.358-2.148c-1.288-6.146-4.608-10.838-8.656-14.077zM613.616 386.6c0-14.422-2.704-27.041-9.013-36.956-6.31-9.915-14.422-18.027-25.238-23.435-10.816-5.408-22.534-8.112-36.054-8.112-13.521 0-26.14 2.704-36.956 9.013-10.816 6.31-19.83 14.422-26.139 24.337-6.31 10.816-9.014 22.534-9.014 35.153s3.606 24.336 9.915 35.152c6.31 9.915 15.323 18.028 27.041 24.337 11.717 6.31 25.238 9.014 40.561 9.014 25.238 0 44.166-7.211 56.785-21.633l-24.336-25.238c-5.409 4.507-9.915 7.211-14.422 9.014-4.507 1.802-9.915 2.704-16.225 2.704-8.112 0-14.421-1.803-20.731-5.408-5.658-3.234-9.142-7.192-11.101-13.175a31.617 31.617 0 01-.616-2.148h96.445l-.001-2.148c-.009-5.798-.094-8.857-.901-10.471zm-1.247 10.471c-.004-2.554-.023-4.525-.109-6.071-.112-2.02-.331-2.972-.565-3.44l-.227-.453v-.507c0-14.18-2.662-26.35-8.677-35.803-6.14-9.648-13.979-17.463-24.387-22.667-10.494-5.247-21.879-7.885-35.093-7.885-13.241 0-25.463 2.648-35.874 8.721-10.562 6.161-19.293 14.038-25.387 23.599-6.075 10.43-8.7 21.751-8.7 34.035 0 12.176 3.471 23.512 9.602 34.035 6.086 9.55 14.8 17.412 26.224 23.563 11.323 6.097 24.469 8.757 39.543 8.757 23.937 0 41.76-6.582 53.845-19.44l-21.571-22.37c-4.881 3.884-9.141 6.372-13.449 8.095-4.824 1.93-10.518 2.858-17.023 2.858-8.489 0-15.165-1.902-21.796-5.691-6.792-3.881-10.784-8.86-12.736-16.667l-.667-2.669h97.047zm-97.674-20.041l.35-2.452c.992-6.943 4.936-12.755 9.621-17.439 5.052-5.052 12.004-6.939 19.546-6.939 7.5 0 14.417 1.866 19.461 6.854 4.857 3.92 8.74 9.791 9.711 17.562l.302 2.414h-58.991zm47.544-18.372c-4.507-4.507-10.816-6.31-18.027-6.31s-13.52 1.803-18.027 6.31c-3.987 3.986-7.268 8.678-8.596 14.076-.174.704-.314 1.42-.418 2.148h54.082a26.57 26.57 0 00-.358-2.148c-1.288-6.146-4.608-10.838-8.656-14.076zm127.091 2.704h30.646v-35.153H689.33v-34.252h-46.87v34.252h-18.929v35.153h18.929v44.166c0 17.126 4.506 29.745 13.52 37.857 9.014 8.112 22.534 12.619 39.66 12.619 6.309 0 12.619-.901 18.027-1.803 5.408-.901 10.816-2.704 14.422-5.408l-10.817-33.35c-.634.381-1.269.743-1.906 1.086-3.887 2.09-7.869 3.421-12.515 3.421-3.606 0-7.211-.902-9.915-3.606-2.704-2.704-3.606-6.309-3.606-10.816v-44.166zm26.709 57.242c-3.997 2.101-8.229 3.494-13.188 3.494-3.937 0-8.185-.986-11.434-4.235-3.282-3.282-4.235-7.567-4.235-12.335v-46.315h30.646v-30.856h-30.646v-34.252h-42.574v34.252h-18.929v30.856h18.929v46.315c0 16.775 4.41 28.701 12.809 36.26 8.503 7.653 21.447 12.068 38.223 12.068 6.124 0 12.289-.876 17.674-1.774 4.609-.768 9.045-2.19 12.234-4.158l-9.509-29.32zm124.719 35.597h44.166V320.8h-45.969v63.996c0 10.817-2.704 18.027-7.211 23.436-4.506 5.408-10.816 8.112-18.027 8.112-7.21 0-12.619-2.704-16.224-7.211-3.606-4.507-5.408-11.718-5.408-21.633v-64.897h-46.871v73.911c0 19.83 5.408 35.153 15.323 45.068s23.436 15.323 40.561 15.323c7.211 0 14.422-1.803 21.633-4.507 6.128-3.064 11.606-6.129 15.879-10.3a30.408 30.408 0 002.148-2.319v14.422zm-18.886-3.775c7.156-3.582 13.062-7.013 17.236-12.022l3.798-4.558v18.207h39.87V322.948h-41.673v61.848c0 11.209-2.816 18.94-7.708 24.811-4.955 5.945-11.893 8.885-19.678 8.885-7.804 0-13.853-2.956-17.902-8.017-4.061-5.078-5.878-12.889-5.878-22.975v-62.749h-42.575v71.763c0 19.467 5.308 34.162 14.694 43.549 9.456 9.455 22.401 14.694 39.042 14.694 6.825 0 13.733-1.699 20.774-4.331zm207.978-120.564l-.06-.039c-9.5-6.048-19.81-8.623-31.892-6.896l-.151.021h-.153c-16.627 0-28.629 5.227-37.169 14.62l-3.737 4.111v-16.928h-39.871v175.975h42.575v-62.527l3.667 3.667c8.519 8.519 20.54 12.891 35.437 12.891 11.344 0 21.784-2.609 31.354-7.816 9.63-6.141 17.45-13.987 22.64-23.513l.04-.064.04-.061c6.02-9.461 8.68-21.637 8.68-34.901 0-13.149-3.51-25.416-8.76-35.026l-.01-.033-.02-.035c-5.21-10.414-13-18.208-22.54-23.411l-.07-.035zm1.09 118.931c-9.91 5.408-20.73 8.112-32.444 8.112-14.142 0-25.981-3.839-34.808-11.516a43.158 43.158 0 01-2.148-2.004v59.489h-46.871V322.603h44.167v13.52a45.794 45.794 0 012.148-2.211c8.837-8.505 20.804-13.112 36.61-13.112 12.616-1.802 23.436.902 33.346 7.211 9.92 5.408 18.03 13.521 23.44 24.337 5.41 9.915 9.01 22.534 9.01 36.054 0 13.52-2.7 26.139-9.01 36.054-5.41 9.915-13.52 18.027-23.44 24.337zm-20.95-86.188l.05.063c5.77 6.732 8.63 14.452 8.63 24.833 0 10.276-2.8 19.016-8.74 24.954-5.81 5.812-12.669 8.741-21.349 8.741-8.681 0-15.537-2.929-21.349-8.741l-.058-.059-.054-.062c-5.771-6.733-8.629-14.453-8.629-24.833 0-10.277 2.803-19.017 8.741-24.954 5.812-5.812 12.668-8.742 21.349-8.742 8.68 0 15.539 2.93 21.349 8.742l.06.058zM170.149 113.489l-21.632 54.982h43.265l-21.633-54.982zm755.337 81.122c-4.507 5.408-11.718 8.112-19.83 8.112-8.112 0-14.422-2.704-19.83-8.112-5.408-5.408-8.112-13.52-8.112-23.435 0-9.014 2.704-17.126 8.112-22.534 5.408-5.408 11.718-8.112 19.83-8.112 8.112 0 14.422 2.704 19.83 8.112 5.408 5.408 8.112 12.619 8.112 22.534s-2.704 18.027-8.112 23.435zm10.26-23.435c0 10.237-2.782 18.949-8.673 24.885-5.027 5.978-12.896 8.81-21.417 8.81-8.681 0-15.537-2.929-21.349-8.741-5.937-5.937-8.741-14.677-8.741-24.954 0-9.407 2.821-18.133 8.741-24.053 5.812-5.812 12.668-8.741 21.349-8.741 8.681 0 15.537 2.929 21.348 8.741 5.903 5.902 8.742 13.712 8.742 24.053zm33.005 239.76c-5.408-6.31-8.112-13.52-8.112-23.435s2.704-18.027 8.112-23.436c5.408-5.408 11.717-8.112 19.83-8.112 8.112 0 14.419 2.704 19.829 8.112 5.41 6.31 8.11 13.521 8.11 23.436s-2.7 18.027-8.11 23.435c-5.41 5.408-11.717 8.112-19.829 8.112-8.113 0-14.422-2.704-19.83-8.112z" fill="url(#paint12_linear)"/><path clip-rule="evenodd" d="M207.651 202.378l13.52 33.35h45.731L193.087 68.766h-44.974L74.299 235.728h44.829l13.52-33.35h75.003zm-87.076 35.498H71l75.714-171.258h47.772L270.2 237.876h-50.476l-13.52-33.35h-72.109l-13.52 33.35zm74.36-67.257h-49.572l24.786-62.997 24.786 62.997zm135.31-58.588v-4.852c0-5.633.937-10.493 2.931-14.48l.156-.313.246-.246c3.154-3.153 8.23-5.136 13.237-5.136 4.071 0 8.205.693 12.346 2.682l10.312-28.558c-3.059-1.975-6.805-3.36-11.293-4.109-5.42-.903-10.664-1.773-16.773-1.773-16.624 0-29.601 5.23-39.078 13.829-9.405 9.424-13.757 21.44-13.757 37.203v5.753h-18.928v30.857h18.928v92.84h42.575v-92.84h30.646v-30.857h-31.548zM300.846 67.52c9.915-9.014 23.435-14.422 40.561-14.422 6.309 0 11.717.901 17.126 1.803 5.408.9 9.915 2.704 13.52 5.408l-11.718 32.448a25.91 25.91 0 00-1.908-1.04c-3.871-1.9-7.741-2.565-11.612-2.565-4.507 0-9.014 1.803-11.718 4.507-1.802 3.605-2.704 8.112-2.704 13.52v2.704h31.548v35.153h-30.646v92.84h-46.871v-92.84h-18.928v-35.153h18.928v-3.605c0-16.225 4.507-28.844 14.422-38.758zm97.346 42.363h-18.928v35.153h18.928v92.84h46.871v-92.84h30.646v-35.153H443.26v-3.605c0-5.408.902-9.915 3.606-12.62 2.704-2.703 7.211-4.506 11.717-4.506 3.871 0 7.742.665 11.612 2.566.636.312 1.273.658 1.909 1.04l11.717-32.45c-3.605-2.703-8.112-4.506-13.52-5.407-5.408-.902-10.816-1.803-17.126-1.803-17.126 0-30.646 5.408-40.561 14.422-9.915 9.915-14.422 22.533-14.422 38.758v3.605zm15.905-40.808c-9.404 9.423-13.757 21.44-13.757 37.203v5.753h-18.928v30.857h18.928v92.84h42.575v-92.84h30.646v-30.857h-32.449v-5.753c0-5.491.88-10.784 4.235-14.138 3.153-3.153 8.229-5.136 13.236-5.136 4.071 0 8.205.693 12.346 2.682l10.312-28.558c-3.059-1.975-6.805-3.36-11.293-4.109-5.419-.903-10.664-1.773-16.773-1.773-16.624 0-29.601 5.23-39.078 13.828zm125.608-13.273h-46.87v182.074h46.87V173.88c0-10.816 2.704-18.027 7.211-23.435 4.507-5.409 10.816-8.113 18.929-8.113 14.421 0 21.632 9.014 21.632 27.041v68.503h46.871v-75.714c0-19.83-5.409-34.251-15.324-44.166-9.914-9.915-23.435-15.323-39.659-15.323-7.211 0-14.422.901-21.633 3.605-6.258 2.347-11.158 5.373-15.879 9.077a95.68 95.68 0 00-2.148 1.739V55.802zm92.494 179.926v-73.566c0-19.433-5.289-33.243-14.693-42.647-9.468-9.468-22.42-14.694-38.141-14.694-7.029 0-13.971.878-20.878 3.468-6.923 2.596-12.124 6.053-17.407 10.456l-3.523 2.936v-63.73h-42.574v177.777h42.574V173.88c0-11.209 2.816-18.94 7.709-24.811 4.979-5.975 11.937-8.885 20.579-8.885 7.684 0 13.788 2.426 17.901 7.567 4.04 5.049 5.879 12.379 5.879 21.622v66.355h42.574zm125.634 2.148H802V105.377h-45.969v63.095c0 10.816-2.704 18.027-7.211 23.435-4.507 5.408-10.816 8.112-18.027 8.112s-12.619-2.704-16.225-7.211c-3.605-4.506-5.408-11.717-5.408-21.632v-65.799h-46.87v74.812c0 19.83 5.408 35.153 15.323 45.068s23.435 15.323 40.561 15.323c7.211 0 14.422-1.802 21.632-4.507 6.129-3.064 11.606-6.128 15.879-10.299a30.612 30.612 0 002.148-2.32v14.422zm-18.886-3.774c7.156-3.583 13.062-7.014 17.236-12.023l3.799-4.557v18.206h39.87V107.525h-41.673v60.947c0 11.209-2.817 18.939-7.709 24.81-4.954 5.945-11.893 8.885-19.677 8.885-7.804 0-13.853-2.956-17.902-8.017-4.062-5.077-5.879-12.888-5.879-22.974v-63.651h-42.574v72.664c0 19.467 5.307 34.163 14.694 43.549 9.455 9.456 22.401 14.694 39.042 14.694 6.825 0 13.732-1.699 20.773-4.33zm231.537-28.833l.06-.094c6.021-9.461 8.678-21.637 8.678-34.901 0-13.149-3.51-25.415-8.752-35.025a56.483 56.483 0 00-22.578-22.578c-9.587-5.23-20.949-7.85-30.519-7.85-14.896 0-26.917 4.371-35.436 12.891l-3.667 3.667V57.95h-42.575v176.877h39.871v-17.39l3.81 4.657c7.583 9.268 20.395 14.535 37.096 14.535 11.347 0 21.787-2.609 31.357-7.815 9.699-6.181 17.445-13.124 22.606-23.446l.049-.099zm-21.563 25.396c-9.915 5.408-20.731 8.112-32.449 8.112-15.693 0-28.359-4.541-36.61-12.93a34.988 34.988 0 01-2.148-2.393v13.521h-44.167V55.802h46.871v60.391a42.232 42.232 0 012.148-2.004c8.827-7.677 20.666-11.516 34.807-11.516 9.915 0 21.633 2.704 31.548 8.112a58.638 58.638 0 0123.435 23.435c5.408 9.915 9.014 22.534 9.014 36.054 0 13.521-2.704 26.14-9.014 36.055-5.408 10.816-13.52 18.027-23.435 24.336zM245.863 454.201h43.265l-.901-171.257h-39.66l-58.588 99.149-60.391-99.149h-39.66v171.257h45.069v-88.333l44.166 71.207h21.633l44.166-73.911.901 91.037zm-46.286-19.274l47.457-79.418.956 96.544h38.979l-.879-166.961h-36.297l-59.786 101.176-61.625-101.176H92.077v166.961h40.772V358.33l47.509 76.597h19.219zm258.105-35.709l-.001-2.148c-.009-5.788-.094-8.762-.9-9.569 0-14.422-2.704-27.041-9.014-36.956-6.309-9.915-14.422-18.027-25.238-23.435-10.816-5.408-22.534-8.112-36.054-8.112-13.521 0-26.14 2.704-36.956 9.013-10.816 6.31-19.83 14.422-26.139 24.337-6.31 10.816-9.014 22.534-9.014 35.153 0 13.52 2.704 25.238 9.915 34.251 6.31 9.915 15.323 18.028 27.041 24.337 11.718 6.31 25.238 9.014 40.561 9.014 25.238 0 44.166-7.211 56.785-21.633l-24.336-25.238c-5.408 4.507-9.915 7.211-14.422 9.014-4.507 1.802-9.915 2.704-16.224 2.704-8.113 0-14.422-1.803-20.732-5.408-5.658-3.234-9.142-7.192-11.1-13.175a30.918 30.918 0 01-.617-2.149h96.445zm-33.525 11.927c-4.881 3.884-9.14 6.372-13.449 8.095-4.824 1.93-10.518 2.858-17.022 2.858-8.489 0-15.166-1.902-21.797-5.691-6.792-3.881-10.784-8.86-12.736-16.668l-.667-2.669h97.047c-.004-2.55-.023-4.497-.108-5.95-.054-.92-.131-1.549-.221-1.961a3.12 3.12 0 00-.071-.268l-.5-.5v-.89c0-14.18-2.663-26.35-8.678-35.802-6.14-9.649-13.979-17.464-24.387-22.668-10.494-5.247-21.879-7.885-35.093-7.885-13.241 0-25.463 2.648-35.873 8.721-10.563 6.161-19.294 14.038-25.388 23.599-6.075 10.431-8.7 21.752-8.7 34.035 0 13.264 2.657 24.425 9.445 32.91l.072.09.062.098c6.088 9.566 14.81 17.44 26.247 23.599 11.323 6.097 24.47 8.757 39.543 8.757 23.937 0 41.761-6.582 53.845-19.44l-21.571-22.37zm-66.298-34.115l.35-2.452c.992-6.943 4.936-12.755 9.621-17.439 5.052-5.052 12.004-6.939 19.546-6.939 7.5 0 14.417 1.866 19.461 6.854 4.857 3.92 8.74 9.791 9.711 17.561l.302 2.415h-58.991zm47.544-18.373c-4.507-4.506-10.816-6.309-18.027-6.309s-13.52 1.803-18.027 6.309c-3.987 3.987-7.268 8.679-8.596 14.077-.174.704-.314 1.42-.418 2.148h54.082a26.57 26.57 0 00-.358-2.148c-1.288-6.146-4.608-10.838-8.656-14.077zM613.616 386.6c0-14.422-2.704-27.041-9.013-36.956-6.31-9.915-14.422-18.027-25.238-23.435-10.816-5.408-22.534-8.112-36.054-8.112-13.521 0-26.14 2.704-36.956 9.013-10.816 6.31-19.83 14.422-26.139 24.337-6.31 10.816-9.014 22.534-9.014 35.153s3.606 24.336 9.915 35.152c6.31 9.915 15.323 18.028 27.041 24.337 11.717 6.31 25.238 9.014 40.561 9.014 25.238 0 44.166-7.211 56.785-21.633l-24.336-25.238c-5.409 4.507-9.915 7.211-14.422 9.014-4.507 1.802-9.915 2.704-16.225 2.704-8.112 0-14.421-1.803-20.731-5.408-5.658-3.234-9.142-7.192-11.101-13.175a31.617 31.617 0 01-.616-2.148h96.445l-.001-2.148c-.009-5.798-.094-8.857-.901-10.471zm-1.247 10.471c-.004-2.554-.023-4.525-.109-6.071-.112-2.02-.331-2.972-.565-3.44l-.227-.453v-.507c0-14.18-2.662-26.35-8.677-35.803-6.14-9.648-13.979-17.463-24.387-22.667-10.494-5.247-21.879-7.885-35.093-7.885-13.241 0-25.463 2.648-35.874 8.721-10.562 6.161-19.293 14.038-25.387 23.599-6.075 10.43-8.7 21.751-8.7 34.035 0 12.176 3.471 23.512 9.602 34.035 6.086 9.55 14.8 17.412 26.224 23.563 11.323 6.097 24.469 8.757 39.543 8.757 23.937 0 41.76-6.582 53.845-19.44l-21.571-22.37c-4.881 3.884-9.141 6.372-13.449 8.095-4.824 1.93-10.518 2.858-17.023 2.858-8.489 0-15.165-1.902-21.796-5.691-6.792-3.881-10.784-8.86-12.736-16.667l-.667-2.669h97.047zm-97.674-20.041l.35-2.452c.992-6.943 4.936-12.755 9.621-17.439 5.052-5.052 12.004-6.939 19.546-6.939 7.5 0 14.417 1.866 19.461 6.854 4.857 3.92 8.74 9.791 9.711 17.562l.302 2.414h-58.991zm47.544-18.372c-4.507-4.507-10.816-6.31-18.027-6.31s-13.52 1.803-18.027 6.31c-3.987 3.986-7.268 8.678-8.596 14.076-.174.704-.314 1.42-.418 2.148h54.082a26.57 26.57 0 00-.358-2.148c-1.288-6.146-4.608-10.838-8.656-14.076zm127.091 2.704h30.646v-35.153H689.33v-34.252h-46.87v34.252h-18.929v35.153h18.929v44.166c0 17.126 4.506 29.745 13.52 37.857 9.014 8.112 22.534 12.619 39.66 12.619 6.309 0 12.619-.901 18.027-1.803 5.408-.901 10.816-2.704 14.422-5.408l-10.817-33.35c-.634.381-1.269.743-1.906 1.086-3.887 2.09-7.869 3.421-12.515 3.421-3.606 0-7.211-.902-9.915-3.606-2.704-2.704-3.606-6.309-3.606-10.816v-44.166zm26.709 57.242c-3.997 2.101-8.229 3.494-13.188 3.494-3.937 0-8.185-.986-11.434-4.235-3.282-3.282-4.235-7.567-4.235-12.335v-46.315h30.646v-30.856h-30.646v-34.252h-42.574v34.252h-18.929v30.856h18.929v46.315c0 16.775 4.41 28.701 12.809 36.26 8.503 7.653 21.447 12.068 38.223 12.068 6.124 0 12.289-.876 17.674-1.774 4.609-.768 9.045-2.19 12.234-4.158l-9.509-29.32zm124.719 35.597h44.166V320.8h-45.969v63.996c0 10.817-2.704 18.027-7.211 23.436-4.506 5.408-10.816 8.112-18.027 8.112-7.21 0-12.619-2.704-16.224-7.211-3.606-4.507-5.408-11.718-5.408-21.633v-64.897h-46.871v73.911c0 19.83 5.408 35.153 15.323 45.068s23.436 15.323 40.561 15.323c7.211 0 14.422-1.803 21.633-4.507 6.128-3.064 11.606-6.129 15.879-10.3a30.408 30.408 0 002.148-2.319v14.422zm-18.886-3.775c7.156-3.582 13.062-7.013 17.236-12.022l3.798-4.558v18.207h39.87V322.948h-41.673v61.848c0 11.209-2.816 18.94-7.708 24.811-4.955 5.945-11.893 8.885-19.678 8.885-7.804 0-13.853-2.956-17.902-8.017-4.061-5.078-5.878-12.889-5.878-22.975v-62.749h-42.575v71.763c0 19.467 5.308 34.162 14.694 43.549 9.456 9.455 22.401 14.694 39.042 14.694 6.825 0 13.733-1.699 20.774-4.331zm207.978-120.564l-.06-.039c-9.5-6.048-19.81-8.623-31.892-6.896l-.151.021h-.153c-16.627 0-28.629 5.227-37.169 14.62l-3.737 4.111v-16.928h-39.871v175.975h42.575v-62.527l3.667 3.667c8.519 8.519 20.54 12.891 35.437 12.891 11.344 0 21.784-2.609 31.354-7.816 9.63-6.141 17.45-13.987 22.64-23.513l.04-.064.04-.061c6.02-9.461 8.68-21.637 8.68-34.901 0-13.149-3.51-25.416-8.76-35.026l-.01-.033-.02-.035c-5.21-10.414-13-18.208-22.54-23.411l-.07-.035zm1.09 118.931c-9.91 5.408-20.73 8.112-32.444 8.112-14.142 0-25.981-3.839-34.808-11.516a43.158 43.158 0 01-2.148-2.004v59.489h-46.871V322.603h44.167v13.52a45.794 45.794 0 012.148-2.211c8.837-8.505 20.804-13.112 36.61-13.112 12.616-1.802 23.436.902 33.346 7.211 9.92 5.408 18.03 13.521 23.44 24.337 5.41 9.915 9.01 22.534 9.01 36.054 0 13.52-2.7 26.139-9.01 36.054-5.41 9.915-13.52 18.027-23.44 24.337zm-20.95-86.188l.05.063c5.77 6.732 8.63 14.452 8.63 24.833 0 10.276-2.8 19.016-8.74 24.954-5.81 5.812-12.669 8.741-21.349 8.741-8.681 0-15.537-2.929-21.349-8.741l-.058-.059-.054-.062c-5.771-6.733-8.629-14.453-8.629-24.833 0-10.277 2.803-19.017 8.741-24.954 5.812-5.812 12.668-8.742 21.349-8.742 8.68 0 15.539 2.93 21.349 8.742l.06.058zM170.149 113.489l-21.632 54.982h43.265l-21.633-54.982zm755.337 81.122c-4.507 5.408-11.718 8.112-19.83 8.112-8.112 0-14.422-2.704-19.83-8.112-5.408-5.408-8.112-13.52-8.112-23.435 0-9.014 2.704-17.126 8.112-22.534 5.408-5.408 11.718-8.112 19.83-8.112 8.112 0 14.422 2.704 19.83 8.112 5.408 5.408 8.112 12.619 8.112 22.534s-2.704 18.027-8.112 23.435zm10.26-23.435c0 10.237-2.782 18.949-8.673 24.885-5.027 5.978-12.896 8.81-21.417 8.81-8.681 0-15.537-2.929-21.349-8.741-5.937-5.937-8.741-14.677-8.741-24.954 0-9.407 2.821-18.133 8.741-24.053 5.812-5.812 12.668-8.741 21.349-8.741 8.681 0 15.537 2.929 21.348 8.741 5.903 5.902 8.742 13.712 8.742 24.053zm33.005 239.76c-5.408-6.31-8.112-13.52-8.112-23.435s2.704-18.027 8.112-23.436c5.408-5.408 11.717-8.112 19.83-8.112 8.112 0 14.419 2.704 19.829 8.112 5.41 6.31 8.11 13.521 8.11 23.436s-2.7 18.027-8.11 23.435c-5.41 5.408-11.717 8.112-19.829 8.112-8.113 0-14.422-2.704-19.83-8.112z" stroke="#000" stroke-width=".8" mask="url(#a)"/><path clip-rule="evenodd" d="M207.651 202.378l13.52 33.35h45.731L193.087 68.766h-44.974L74.299 235.728h44.829l13.52-33.35h75.003zm-87.076 35.498H71l75.714-171.258h47.772L270.2 237.876h-50.476l-13.52-33.35h-72.109l-13.52 33.35zm74.36-67.257h-49.572l24.786-62.997 24.786 62.997zm135.31-58.588v-4.852c0-5.633.937-10.493 2.931-14.48l.156-.313.246-.246c3.154-3.153 8.23-5.136 13.237-5.136 4.071 0 8.205.693 12.346 2.682l10.312-28.558c-3.059-1.975-6.805-3.36-11.293-4.109-5.42-.903-10.664-1.773-16.773-1.773-16.624 0-29.601 5.23-39.078 13.829-9.405 9.424-13.757 21.44-13.757 37.203v5.753h-18.928v30.857h18.928v92.84h42.575v-92.84h30.646v-30.857h-31.548zM300.846 67.52c9.915-9.014 23.435-14.422 40.561-14.422 6.309 0 11.717.901 17.126 1.803 5.408.9 9.915 2.704 13.52 5.408l-11.718 32.448a25.91 25.91 0 00-1.908-1.04c-3.871-1.9-7.741-2.565-11.612-2.565-4.507 0-9.014 1.803-11.718 4.507-1.802 3.605-2.704 8.112-2.704 13.52v2.704h31.548v35.153h-30.646v92.84h-46.871v-92.84h-18.928v-35.153h18.928v-3.605c0-16.225 4.507-28.844 14.422-38.758zm97.346 42.363h-18.928v35.153h18.928v92.84h46.871v-92.84h30.646v-35.153H443.26v-3.605c0-5.408.902-9.915 3.606-12.62 2.704-2.703 7.211-4.506 11.717-4.506 3.871 0 7.742.665 11.612 2.566.636.312 1.273.658 1.909 1.04l11.717-32.45c-3.605-2.703-8.112-4.506-13.52-5.407-5.408-.902-10.816-1.803-17.126-1.803-17.126 0-30.646 5.408-40.561 14.422-9.915 9.915-14.422 22.533-14.422 38.758v3.605zm15.905-40.808c-9.404 9.423-13.757 21.44-13.757 37.203v5.753h-18.928v30.857h18.928v92.84h42.575v-92.84h30.646v-30.857h-32.449v-5.753c0-5.491.88-10.784 4.235-14.138 3.153-3.153 8.229-5.136 13.236-5.136 4.071 0 8.205.693 12.346 2.682l10.312-28.558c-3.059-1.975-6.805-3.36-11.293-4.109-5.419-.903-10.664-1.773-16.773-1.773-16.624 0-29.601 5.23-39.078 13.828zm125.608-13.273h-46.87v182.074h46.87V173.88c0-10.816 2.704-18.027 7.211-23.435 4.507-5.409 10.816-8.113 18.929-8.113 14.421 0 21.632 9.014 21.632 27.041v68.503h46.871v-75.714c0-19.83-5.409-34.251-15.324-44.166-9.914-9.915-23.435-15.323-39.659-15.323-7.211 0-14.422.901-21.633 3.605-6.258 2.347-11.158 5.373-15.879 9.077a95.68 95.68 0 00-2.148 1.739V55.802zm92.494 179.926v-73.566c0-19.433-5.289-33.243-14.693-42.647-9.468-9.468-22.42-14.694-38.141-14.694-7.029 0-13.971.878-20.878 3.468-6.923 2.596-12.124 6.053-17.407 10.456l-3.523 2.936v-63.73h-42.574v177.777h42.574V173.88c0-11.209 2.816-18.94 7.709-24.811 4.979-5.975 11.937-8.885 20.579-8.885 7.684 0 13.788 2.426 17.901 7.567 4.04 5.049 5.879 12.379 5.879 21.622v66.355h42.574zm125.634 2.148H802V105.377h-45.969v63.095c0 10.816-2.704 18.027-7.211 23.435-4.507 5.408-10.816 8.112-18.027 8.112s-12.619-2.704-16.225-7.211c-3.605-4.506-5.408-11.717-5.408-21.632v-65.799h-46.87v74.812c0 19.83 5.408 35.153 15.323 45.068s23.435 15.323 40.561 15.323c7.211 0 14.422-1.802 21.632-4.507 6.129-3.064 11.606-6.128 15.879-10.299a30.612 30.612 0 002.148-2.32v14.422zm-18.886-3.774c7.156-3.583 13.062-7.014 17.236-12.023l3.799-4.557v18.206h39.87V107.525h-41.673v60.947c0 11.209-2.817 18.939-7.709 24.81-4.954 5.945-11.893 8.885-19.677 8.885-7.804 0-13.853-2.956-17.902-8.017-4.062-5.077-5.879-12.888-5.879-22.974v-63.651h-42.574v72.664c0 19.467 5.307 34.163 14.694 43.549 9.455 9.456 22.401 14.694 39.042 14.694 6.825 0 13.732-1.699 20.773-4.33zm231.537-28.833l.06-.094c6.021-9.461 8.678-21.637 8.678-34.901 0-13.149-3.51-25.415-8.752-35.025a56.483 56.483 0 00-22.578-22.578c-9.587-5.23-20.949-7.85-30.519-7.85-14.896 0-26.917 4.371-35.436 12.891l-3.667 3.667V57.95h-42.575v176.877h39.871v-17.39l3.81 4.657c7.583 9.268 20.395 14.535 37.096 14.535 11.347 0 21.787-2.609 31.357-7.815 9.699-6.181 17.445-13.124 22.606-23.446l.049-.099zm-21.563 25.396c-9.915 5.408-20.731 8.112-32.449 8.112-15.693 0-28.359-4.541-36.61-12.93a34.988 34.988 0 01-2.148-2.393v13.521h-44.167V55.802h46.871v60.391a42.232 42.232 0 012.148-2.004c8.827-7.677 20.666-11.516 34.807-11.516 9.915 0 21.633 2.704 31.548 8.112a58.638 58.638 0 0123.435 23.435c5.408 9.915 9.014 22.534 9.014 36.054 0 13.521-2.704 26.14-9.014 36.055-5.408 10.816-13.52 18.027-23.435 24.336zM245.863 454.201h43.265l-.901-171.257h-39.66l-58.588 99.149-60.391-99.149h-39.66v171.257h45.069v-88.333l44.166 71.207h21.633l44.166-73.911.901 91.037zm-46.286-19.274l47.457-79.418.956 96.544h38.979l-.879-166.961h-36.297l-59.786 101.176-61.625-101.176H92.077v166.961h40.772V358.33l47.509 76.597h19.219zm258.105-35.709l-.001-2.148c-.009-5.788-.094-8.762-.9-9.569 0-14.422-2.704-27.041-9.014-36.956-6.309-9.915-14.422-18.027-25.238-23.435-10.816-5.408-22.534-8.112-36.054-8.112-13.521 0-26.14 2.704-36.956 9.013-10.816 6.31-19.83 14.422-26.139 24.337-6.31 10.816-9.014 22.534-9.014 35.153 0 13.52 2.704 25.238 9.915 34.251 6.31 9.915 15.323 18.028 27.041 24.337 11.718 6.31 25.238 9.014 40.561 9.014 25.238 0 44.166-7.211 56.785-21.633l-24.336-25.238c-5.408 4.507-9.915 7.211-14.422 9.014-4.507 1.802-9.915 2.704-16.224 2.704-8.113 0-14.422-1.803-20.732-5.408-5.658-3.234-9.142-7.192-11.1-13.175a30.918 30.918 0 01-.617-2.149h96.445zm-33.525 11.927c-4.881 3.884-9.14 6.372-13.449 8.095-4.824 1.93-10.518 2.858-17.022 2.858-8.489 0-15.166-1.902-21.797-5.691-6.792-3.881-10.784-8.86-12.736-16.668l-.667-2.669h97.047c-.004-2.55-.023-4.497-.108-5.95-.054-.92-.131-1.549-.221-1.961a3.12 3.12 0 00-.071-.268l-.5-.5v-.89c0-14.18-2.663-26.35-8.678-35.802-6.14-9.649-13.979-17.464-24.387-22.668-10.494-5.247-21.879-7.885-35.093-7.885-13.241 0-25.463 2.648-35.873 8.721-10.563 6.161-19.294 14.038-25.388 23.599-6.075 10.431-8.7 21.752-8.7 34.035 0 13.264 2.657 24.425 9.445 32.91l.072.09.062.098c6.088 9.566 14.81 17.44 26.247 23.599 11.323 6.097 24.47 8.757 39.543 8.757 23.937 0 41.761-6.582 53.845-19.44l-21.571-22.37zm-66.298-34.115l.35-2.452c.992-6.943 4.936-12.755 9.621-17.439 5.052-5.052 12.004-6.939 19.546-6.939 7.5 0 14.417 1.866 19.461 6.854 4.857 3.92 8.74 9.791 9.711 17.561l.302 2.415h-58.991zm47.544-18.373c-4.507-4.506-10.816-6.309-18.027-6.309s-13.52 1.803-18.027 6.309c-3.987 3.987-7.268 8.679-8.596 14.077-.174.704-.314 1.42-.418 2.148h54.082a26.57 26.57 0 00-.358-2.148c-1.288-6.146-4.608-10.838-8.656-14.077zM613.616 386.6c0-14.422-2.704-27.041-9.013-36.956-6.31-9.915-14.422-18.027-25.238-23.435-10.816-5.408-22.534-8.112-36.054-8.112-13.521 0-26.14 2.704-36.956 9.013-10.816 6.31-19.83 14.422-26.139 24.337-6.31 10.816-9.014 22.534-9.014 35.153s3.606 24.336 9.915 35.152c6.31 9.915 15.323 18.028 27.041 24.337 11.717 6.31 25.238 9.014 40.561 9.014 25.238 0 44.166-7.211 56.785-21.633l-24.336-25.238c-5.409 4.507-9.915 7.211-14.422 9.014-4.507 1.802-9.915 2.704-16.225 2.704-8.112 0-14.421-1.803-20.731-5.408-5.658-3.234-9.142-7.192-11.101-13.175a31.617 31.617 0 01-.616-2.148h96.445l-.001-2.148c-.009-5.798-.094-8.857-.901-10.471zm-1.247 10.471c-.004-2.554-.023-4.525-.109-6.071-.112-2.02-.331-2.972-.565-3.44l-.227-.453v-.507c0-14.18-2.662-26.35-8.677-35.803-6.14-9.648-13.979-17.463-24.387-22.667-10.494-5.247-21.879-7.885-35.093-7.885-13.241 0-25.463 2.648-35.874 8.721-10.562 6.161-19.293 14.038-25.387 23.599-6.075 10.43-8.7 21.751-8.7 34.035 0 12.176 3.471 23.512 9.602 34.035 6.086 9.55 14.8 17.412 26.224 23.563 11.323 6.097 24.469 8.757 39.543 8.757 23.937 0 41.76-6.582 53.845-19.44l-21.571-22.37c-4.881 3.884-9.141 6.372-13.449 8.095-4.824 1.93-10.518 2.858-17.023 2.858-8.489 0-15.165-1.902-21.796-5.691-6.792-3.881-10.784-8.86-12.736-16.667l-.667-2.669h97.047zm-97.674-20.041l.35-2.452c.992-6.943 4.936-12.755 9.621-17.439 5.052-5.052 12.004-6.939 19.546-6.939 7.5 0 14.417 1.866 19.461 6.854 4.857 3.92 8.74 9.791 9.711 17.562l.302 2.414h-58.991zm47.544-18.372c-4.507-4.507-10.816-6.31-18.027-6.31s-13.52 1.803-18.027 6.31c-3.987 3.986-7.268 8.678-8.596 14.076-.174.704-.314 1.42-.418 2.148h54.082a26.57 26.57 0 00-.358-2.148c-1.288-6.146-4.608-10.838-8.656-14.076zm127.091 2.704h30.646v-35.153H689.33v-34.252h-46.87v34.252h-18.929v35.153h18.929v44.166c0 17.126 4.506 29.745 13.52 37.857 9.014 8.112 22.534 12.619 39.66 12.619 6.309 0 12.619-.901 18.027-1.803 5.408-.901 10.816-2.704 14.422-5.408l-10.817-33.35c-.634.381-1.269.743-1.906 1.086-3.887 2.09-7.869 3.421-12.515 3.421-3.606 0-7.211-.902-9.915-3.606-2.704-2.704-3.606-6.309-3.606-10.816v-44.166zm26.709 57.242c-3.997 2.101-8.229 3.494-13.188 3.494-3.937 0-8.185-.986-11.434-4.235-3.282-3.282-4.235-7.567-4.235-12.335v-46.315h30.646v-30.856h-30.646v-34.252h-42.574v34.252h-18.929v30.856h18.929v46.315c0 16.775 4.41 28.701 12.809 36.26 8.503 7.653 21.447 12.068 38.223 12.068 6.124 0 12.289-.876 17.674-1.774 4.609-.768 9.045-2.19 12.234-4.158l-9.509-29.32zm124.719 35.597h44.166V320.8h-45.969v63.996c0 10.817-2.704 18.027-7.211 23.436-4.506 5.408-10.816 8.112-18.027 8.112-7.21 0-12.619-2.704-16.224-7.211-3.606-4.507-5.408-11.718-5.408-21.633v-64.897h-46.871v73.911c0 19.83 5.408 35.153 15.323 45.068s23.436 15.323 40.561 15.323c7.211 0 14.422-1.803 21.633-4.507 6.128-3.064 11.606-6.129 15.879-10.3a30.408 30.408 0 002.148-2.319v14.422zm-18.886-3.775c7.156-3.582 13.062-7.013 17.236-12.022l3.798-4.558v18.207h39.87V322.948h-41.673v61.848c0 11.209-2.816 18.94-7.708 24.811-4.955 5.945-11.893 8.885-19.678 8.885-7.804 0-13.853-2.956-17.902-8.017-4.061-5.078-5.878-12.889-5.878-22.975v-62.749h-42.575v71.763c0 19.467 5.308 34.162 14.694 43.549 9.456 9.455 22.401 14.694 39.042 14.694 6.825 0 13.733-1.699 20.774-4.331zm207.978-120.564l-.06-.039c-9.5-6.048-19.81-8.623-31.892-6.896l-.151.021h-.153c-16.627 0-28.629 5.227-37.169 14.62l-3.737 4.111v-16.928h-39.871v175.975h42.575v-62.527l3.667 3.667c8.519 8.519 20.54 12.891 35.437 12.891 11.344 0 21.784-2.609 31.354-7.816 9.63-6.141 17.45-13.987 22.64-23.513l.04-.064.04-.061c6.02-9.461 8.68-21.637 8.68-34.901 0-13.149-3.51-25.416-8.76-35.026l-.01-.033-.02-.035c-5.21-10.414-13-18.208-22.54-23.411l-.07-.035zm1.09 118.931c-9.91 5.408-20.73 8.112-32.444 8.112-14.142 0-25.981-3.839-34.808-11.516a43.158 43.158 0 01-2.148-2.004v59.489h-46.871V322.603h44.167v13.52a45.794 45.794 0 012.148-2.211c8.837-8.505 20.804-13.112 36.61-13.112 12.616-1.802 23.436.902 33.346 7.211 9.92 5.408 18.03 13.521 23.44 24.337 5.41 9.915 9.01 22.534 9.01 36.054 0 13.52-2.7 26.139-9.01 36.054-5.41 9.915-13.52 18.027-23.44 24.337zm-20.95-86.188l.05.063c5.77 6.732 8.63 14.452 8.63 24.833 0 10.276-2.8 19.016-8.74 24.954-5.81 5.812-12.669 8.741-21.349 8.741-8.681 0-15.537-2.929-21.349-8.741l-.058-.059-.054-.062c-5.771-6.733-8.629-14.453-8.629-24.833 0-10.277 2.803-19.017 8.741-24.954 5.812-5.812 12.668-8.742 21.349-8.742 8.68 0 15.539 2.93 21.349 8.742l.06.058zM170.149 113.489l-21.632 54.982h43.265l-21.633-54.982zm755.337 81.122c-4.507 5.408-11.718 8.112-19.83 8.112-8.112 0-14.422-2.704-19.83-8.112-5.408-5.408-8.112-13.52-8.112-23.435 0-9.014 2.704-17.126 8.112-22.534 5.408-5.408 11.718-8.112 19.83-8.112 8.112 0 14.422 2.704 19.83 8.112 5.408 5.408 8.112 12.619 8.112 22.534s-2.704 18.027-8.112 23.435zm10.26-23.435c0 10.237-2.782 18.949-8.673 24.885-5.027 5.978-12.896 8.81-21.417 8.81-8.681 0-15.537-2.929-21.349-8.741-5.937-5.937-8.741-14.677-8.741-24.954 0-9.407 2.821-18.133 8.741-24.053 5.812-5.812 12.668-8.741 21.349-8.741 8.681 0 15.537 2.929 21.348 8.741 5.903 5.902 8.742 13.712 8.742 24.053zm33.005 239.76c-5.408-6.31-8.112-13.52-8.112-23.435s2.704-18.027 8.112-23.436c5.408-5.408 11.717-8.112 19.83-8.112 8.112 0 14.419 2.704 19.829 8.112 5.41 6.31 8.11 13.521 8.11 23.436s-2.7 18.027-8.11 23.435c-5.41 5.408-11.717 8.112-19.829 8.112-8.113 0-14.422-2.704-19.83-8.112z" stroke="url(#paint13_linear)" stroke-width=".8" mask="url(#a)"/><mask id="b" maskUnits="userSpaceOnUse" x="-408" y="28" width="1980" height="494"><path d="M83.109 31l-488.565 488.565M109.568 31l-488.564 488.565M136.029 31l-488.565 488.565M162.489 31l-488.565 488.565M188.949 31l-488.565 488.565M215.409 31l-487.62 488.565M242.814 31l-488.565 488.565M269.274 31l-488.565 488.565M295.734 31l-488.565 488.565M322.193 31l-488.564 488.565M348.653 31l-488.564 488.565M375.114 31l-488.565 488.565M401.574 31L-86.991 519.565M428.034 31L-60.531 519.565M454.493 31L-34.072 519.565M480.954 31L-6.666 519.565M508.359 31L19.794 519.565M534.818 31L46.254 519.565M561.278 31L72.714 519.565M587.738 31L99.174 519.565M614.199 31L125.634 519.565M640.659 31L152.094 519.565M667.118 31L178.553 519.565M693.578 31L205.014 519.565M720.039 31L231.474 519.565M746.498 31L257.934 519.565M772.958 31L285.339 519.565M800.364 31L311.799 519.565M826.824 31L338.259 519.565M853.284 31L364.719 519.565M879.743 31L391.178 519.565M906.203 31L417.639 519.565M932.664 31L444.099 519.565M959.123 31L470.559 519.565M985.583 31L497.019 519.565M1012.04 31L523.479 519.565M1038.5 31L549.939 519.565M1064.96 31L577.344 519.565M1092.37 31L603.803 519.565M1118.83 31L630.264 519.565M1145.29 31L656.723 519.565M1171.75 31L683.184 519.565M1198.21 31L709.644 519.565M1224.67 31L736.104 519.565M1251.13 31L762.563 519.565M1277.59 31L789.023 519.565M1304.05 31L815.483 519.565M1330.51 31L842.889 519.565M1357.91 31L869.348 519.565M1384.37 31L895.809 519.565M1410.83 31L922.268 519.565M1437.29 31L948.728 519.565M1463.75 31L975.188 519.565M1490.21 31l-488.56 488.565M1516.67 31l-488.56 488.565M1543.13 31l-488.56 488.565M1569.59 31l-488.56 488.565" stroke="#000" stroke-width="6.309" stroke-miterlimit="10"/></mask><g mask="url(#b)"><path d="M188.004 201.099h-75.6l-14.175 34.965H46.254l79.38-179.55h50.085l79.38 179.55h-52.92l-14.175-34.965zm-15.12-37.8l-22.68-57.645-22.68 57.645h45.36z" fill="url(#paint14_linear)"/><path d="M320.304 101.875h33.075v36.855h-32.13v97.335h-49.14V138.73h-19.845v-36.855h19.845v-3.78c0-17.01 4.725-30.24 15.12-40.635 10.395-9.45 24.57-15.12 42.525-15.12 6.615 0 12.285.945 17.955 1.89 5.67.945 10.395 2.835 14.175 5.67l-12.285 34.02c-4.725-2.835-9.45-3.78-14.175-3.78-4.725 0-9.45 1.89-12.285 4.725-1.89 3.78-2.835 8.505-2.835 14.175v2.835z" fill="url(#paint15_linear)"/><path d="M437.484 101.875h33.075v36.855h-32.13v97.335h-49.14V138.73h-19.845v-36.855h19.845v-3.78c0-17.01 4.725-30.24 15.12-40.635 10.395-9.45 24.57-15.12 42.525-15.12 6.615 0 12.285.945 17.955 1.89 5.67.945 10.395 2.835 14.175 5.67l-12.285 34.02c-4.725-2.835-9.45-3.78-14.175-3.78-4.725 0-9.45 1.89-12.285 4.725-2.835 2.835-3.78 7.56-3.78 13.23v3.78h.945z" fill="url(#paint16_linear)"/><path d="M620.814 110.38c10.395 10.395 16.065 25.515 16.065 46.305v79.38h-49.14v-71.82c0-18.9-7.56-28.35-22.68-28.35-8.505 0-15.12 2.835-19.845 8.505-4.725 5.67-7.56 13.23-7.56 24.57v67.095h-49.14V45.175h49.14v64.26c5.67-4.725 11.34-8.505 18.9-11.34 7.56-2.835 15.12-3.78 22.68-3.78 17.01 0 31.185 5.67 41.58 16.065z" fill="url(#paint17_linear)"/><path d="M812.649 97.15v138.915h-46.305v-15.12c-4.725 5.67-11.34 9.45-18.9 13.23-7.56 2.835-15.12 4.725-22.68 4.725-17.955 0-32.13-5.67-42.525-16.065-10.395-10.395-16.065-26.46-16.065-47.25V97.15h49.14v68.985c0 10.395 1.89 17.955 5.67 22.68 3.78 4.725 9.45 7.56 17.01 7.56 7.56 0 14.175-2.835 18.9-8.505 4.725-5.67 7.56-13.23 7.56-24.57V97.15h48.195z" fill="url(#paint18_linear)"/><path d="M966.684 102.82a61.481 61.481 0 0124.57 24.57c5.67 10.395 9.446 23.625 9.446 37.8 0 14.175-2.831 27.405-9.446 37.8-5.67 11.34-14.175 18.9-24.57 25.515-10.395 5.67-21.735 8.505-34.02 8.505-17.955 0-32.13-5.67-40.635-16.065v14.175h-46.305V45.175h49.14v63.315c9.45-9.45 22.68-14.175 38.745-14.175 10.395 0 22.68 2.835 33.075 8.505zm-24.57 87.885c5.67-5.67 8.505-14.175 8.505-24.57s-2.835-17.955-8.505-23.625c-5.67-5.67-12.285-8.505-20.79-8.505-8.505 0-15.12 2.835-20.79 8.505-5.67 5.67-8.505 14.175-8.505 23.625 0 10.395 2.835 18.9 8.505 24.57 5.67 5.67 12.285 8.505 20.79 8.505 8.505 0 16.065-2.835 20.79-8.505z" fill="url(#paint19_linear)"/><path d="M229.584 462.864l-.945-95.445-46.305 77.49h-22.68l-46.305-74.655v92.61h-47.25V283.315h41.58l63.315 103.95 61.425-103.95h41.58l.945 179.549h-45.36z" fill="url(#paint20_linear)"/><path d="M451.659 405.22H350.544c1.89 7.56 5.67 12.285 12.285 16.065 6.615 3.78 13.23 5.67 21.735 5.67 6.615 0 12.285-.945 17.01-2.835 4.725-1.89 9.45-4.725 15.12-9.45l25.515 26.46c-13.23 15.119-33.075 22.68-59.535 22.68-16.065 0-30.24-2.835-42.525-9.45-12.285-6.615-21.735-15.12-28.35-25.515-7.56-9.45-10.395-21.735-10.395-35.91 0-13.23 2.835-25.515 9.45-36.855 6.615-10.395 16.065-18.9 27.405-25.515 11.34-6.615 24.57-9.45 38.745-9.45 14.175 0 26.46 2.835 37.8 8.505 11.34 5.67 19.845 14.175 26.46 24.57 6.615 10.395 9.45 23.625 9.45 38.745.945.945.945 4.725.945 12.285zm-92.61-42.525c-4.725 4.725-8.505 10.395-9.45 17.01h56.7c-.945-7.56-4.725-13.23-9.45-17.01-4.725-4.725-11.34-6.615-18.9-6.615-7.56 0-14.175 1.89-18.9 6.615z" fill="url(#paint21_linear)"/><path d="M616.089 405.22H514.974c1.89 7.56 5.67 12.285 12.285 16.065 6.615 3.78 13.23 5.67 21.735 5.67 6.615 0 12.285-.945 17.01-2.835 4.725-1.89 9.45-4.725 15.12-9.45l25.515 26.46c-13.23 15.12-33.075 22.68-59.535 22.68-16.065 0-30.24-2.835-42.525-9.45-12.285-6.615-21.735-15.12-28.35-25.515-6.615-11.34-10.395-23.625-10.395-36.855 0-13.23 2.835-25.515 9.45-36.855 6.615-10.395 16.065-18.9 27.405-25.515 11.34-6.615 24.57-9.45 38.745-9.45 14.175 0 26.46 2.835 37.8 8.505 11.34 5.67 19.845 14.175 26.46 24.57 6.615 10.395 9.45 23.625 9.45 38.745.945 1.89.945 5.67.945 13.23zm-92.61-42.525c-4.725 4.725-8.505 10.395-9.45 17.01h56.7c-.945-7.56-4.725-13.23-9.45-17.01-4.725-4.725-11.34-6.615-18.9-6.615-7.56 0-14.175 1.89-18.9 6.615z" fill="url(#paint22_linear)"/><path d="M735.159 457.194c-3.78 2.835-9.45 4.725-15.12 5.67-5.67.945-12.285 1.89-18.9 1.89-17.955 0-32.13-4.725-41.58-13.23-9.45-8.505-14.175-21.735-14.175-39.69v-46.305h-19.845v-36.855h19.845v-35.91h49.14v35.91h32.13v36.855h-32.13v46.305c0 4.725.945 8.505 3.78 11.34 2.835 2.835 6.615 3.78 10.395 3.78 5.67 0 10.395-1.89 15.12-4.725l11.34 34.965z" fill="url(#paint23_linear)"/><path d="M899.589 323.949v138.915h-46.305v-15.12c-4.725 5.67-11.34 9.45-18.9 13.23-7.56 2.835-15.12 4.725-22.68 4.725-17.955 0-32.13-5.67-42.525-16.065-10.395-10.395-16.065-26.46-16.065-47.25v-77.49h49.14v68.04c0 10.395 1.89 17.955 5.67 22.68 3.78 4.725 9.45 7.56 17.01 7.56 7.56 0 14.175-2.835 18.9-8.505 4.725-5.67 7.56-13.23 7.56-24.57v-67.095h48.195v.945z" fill="url(#paint24_linear)"/><path d="M1052.68 330.564c10.39 5.67 18.9 14.175 24.57 25.515 5.67 10.395 9.45 23.625 9.45 37.8 0 14.175-2.84 27.405-9.45 37.8-5.67 10.395-14.18 18.9-24.57 25.515-10.4 5.67-21.74 8.505-34.02 8.505-16.07 0-29.296-4.725-38.746-14.175v62.37h-49.14v-189h46.305v14.175c9.45-10.395 22.68-16.065 40.631-16.065 13.23-1.89 24.57.945 34.97 7.56zm-23.63 86.94c5.67-5.67 8.51-14.175 8.51-24.57s-2.84-17.955-8.51-24.57c-5.67-5.67-12.28-8.505-20.79-8.505-8.501 0-15.116 2.835-20.786 8.505-5.67 5.67-8.505 14.175-8.505 24.57s2.835 17.955 8.505 24.57c5.67 5.67 12.285 8.505 20.786 8.505 8.51 0 15.12-2.835 20.79-8.505z" fill="url(#paint25_linear)"/></g><g opacity=".2"><mask id="c" maskUnits="userSpaceOnUse" x="-453" y="17" width="2070" height="516"><path d="M60.64 20l-510.564 510.565M88.292 20l-510.565 510.565M115.943 20l-510.564 510.565M143.595 20L-366.97 530.565M171.246 20l-510.564 510.565M198.898 20l-509.577 510.565M227.537 20l-510.565 510.565M255.188 20l-510.564 510.565M282.84 20l-510.565 510.565M310.491 20l-510.564 510.565M338.143 20l-510.565 510.565M365.794 20l-510.565 510.565M393.446 20l-510.565 510.565M421.097 20L-89.467 530.565M448.749 20L-61.816 530.565M476.4 20L-33.177 530.565M505.039 20L-5.526 530.565M532.691 20L22.126 530.565M560.342 20L49.777 530.565M587.994 20L77.429 530.565M615.645 20L105.081 530.565M643.297 20L132.732 530.565M670.948 20L160.383 530.565M698.6 20L188.035 530.565M726.251 20L215.686 530.565M753.903 20L243.338 530.565M781.554 20L271.977 530.565M810.193 20L299.628 530.565M837.845 20L327.28 530.565M865.496 20L354.931 530.565M893.147 20L382.583 530.565M920.799 20L410.234 530.565M948.451 20L437.886 530.565M976.102 20L465.537 530.565M1003.75 20L493.189 530.565M1031.4 20L520.84 530.565M1059.06 20L548.492 530.565M1086.71 20L577.131 530.565M1115.35 20L604.782 530.565M1143 20L632.434 530.565M1170.65 20L660.085 530.565M1198.3 20L687.737 530.565M1225.95 20L715.388 530.565M1253.6 20L743.04 530.565M1281.26 20L770.691 530.565M1308.91 20L798.343 530.565M1336.56 20L825.994 530.565M1364.21 20L854.633 530.565M1392.85 20L882.284 530.565M1420.5 20L909.936 530.565M1448.15 20L937.587 530.565M1475.8 20L965.239 530.565M1503.46 20L992.891 530.565M1531.11 20l-510.57 510.565M1558.76 20l-510.57 510.565M1586.41 20l-510.57 510.565M1614.06 20L1103.5 530.565" stroke="#000" stroke-width="6.594" stroke-miterlimit="10"/></mask><g mask="url(#c)"><path d="M170.259 197.759H91.255l-14.813 36.539H22.127L105.08 46.663h52.34l82.955 187.635h-55.303l-14.814-36.539zm-15.8-39.502l-23.702-60.24-23.701 60.24h47.403z" fill="url(#paint26_linear)"/><path d="M308.517 94.066h34.564v38.515h-33.577v101.718h-51.353V132.581h-20.738V94.066h20.738v-3.95c0-17.776 4.938-31.602 15.801-42.465 10.863-9.876 25.677-15.8 44.44-15.8 6.913 0 12.838.987 18.764 1.974 5.925.988 10.863 2.963 14.813 5.926l-12.838 35.551c-4.938-2.962-9.876-3.95-14.813-3.95-4.938 0-9.876 1.975-12.839 4.938-1.975 3.95-2.962 8.888-2.962 14.813v2.963z" fill="url(#paint27_linear)"/><path d="M430.973 94.066h34.565v38.515h-33.577v101.718h-51.353V132.581H359.87V94.066h20.738v-3.95c0-17.776 4.938-31.602 15.801-42.465 10.863-9.876 25.676-15.8 44.44-15.8 6.913 0 12.838.987 18.763 1.974 5.926.988 10.864 2.963 14.814 5.926l-12.838 35.551c-4.938-2.962-9.876-3.95-14.814-3.95-4.937 0-9.875 1.975-12.838 4.938-2.963 2.963-3.95 7.9-3.95 13.826v3.95h.987z" fill="url(#paint28_linear)"/><path d="M622.558 102.954c10.863 10.863 16.789 26.664 16.789 48.39v82.955h-51.353v-75.054c0-19.751-7.9-29.627-23.701-29.627-8.888 0-15.801 2.963-20.739 8.888-4.938 5.926-7.9 13.826-7.9 25.677v70.116h-51.353V34.813h51.353v67.154c5.925-4.938 11.85-8.888 19.751-11.85 7.9-2.964 15.801-3.951 23.701-3.951 17.776 0 32.589 5.925 43.452 16.788z" fill="url(#paint29_linear)"/><path d="M823.032 89.129v145.17h-48.39v-15.801c-4.938 5.925-11.851 9.876-19.751 13.826-7.901 2.963-15.801 4.938-23.701 4.938-18.764 0-33.577-5.926-44.44-16.789-10.863-10.863-16.789-27.651-16.789-49.377V89.129h51.353v72.091c0 10.863 1.975 18.764 5.925 23.701 3.95 4.938 9.876 7.901 17.776 7.901 7.901 0 14.813-2.963 19.751-8.888 4.938-5.926 7.901-13.826 7.901-25.677V89.129h50.365z" fill="url(#paint30_linear)"/><path d="M984.003 95.054a64.279 64.279 0 0125.677 25.676c5.92 10.863 9.87 24.689 9.87 39.502 0 14.814-2.96 28.639-9.87 39.503-5.93 11.85-14.814 19.751-25.677 26.663-10.863 5.926-22.714 8.888-35.552 8.888-18.763 0-33.577-5.925-42.465-16.788v14.813h-48.39V34.813h51.353v66.166c9.876-9.875 23.701-14.813 40.49-14.813 10.863 0 23.701 2.963 34.564 8.888zm-25.676 91.842c5.925-5.925 8.888-14.813 8.888-25.676 0-10.863-2.963-18.764-8.888-24.689-5.926-5.925-12.839-8.888-21.727-8.888s-15.8 2.963-21.726 8.888c-5.925 5.925-8.888 14.813-8.888 24.689 0 10.863 2.963 19.751 8.888 25.676 5.926 5.926 12.838 8.888 21.726 8.888s16.789-2.962 21.727-8.888z" fill="url(#paint31_linear)"/><path d="M213.712 471.311l-.988-99.743-48.39 80.98h-23.701l-48.39-78.017v96.78H42.865V283.676h43.453l66.166 108.631 64.191-108.631h43.452l.987 187.635h-47.402z" fill="url(#paint32_linear)"/><path d="M445.787 411.071H340.119c1.975 7.9 5.925 12.838 12.838 16.788 6.913 3.95 13.826 5.925 22.714 5.925 6.912 0 12.838-.987 17.775-2.962 4.938-1.975 9.876-4.938 15.801-9.876l26.664 27.652c-13.825 15.8-34.564 23.701-62.216 23.701-16.788 0-31.601-2.963-44.439-9.876-12.839-6.913-22.714-15.801-29.627-26.664-7.9-9.875-10.863-22.713-10.863-37.527 0-13.825 2.963-26.664 9.875-38.514 6.913-10.863 16.789-19.751 28.639-26.664 11.851-6.913 25.677-9.876 40.49-9.876 14.813 0 27.652 2.963 39.502 8.888 11.851 5.926 20.739 14.814 27.652 25.677s9.875 24.689 9.875 40.489c.988.988.988 4.938.988 12.839zm-96.78-44.44c-4.938 4.937-8.888 10.863-9.876 17.776h59.253c-.987-7.901-4.938-13.826-9.875-17.776-4.938-4.938-11.851-6.913-19.751-6.913-7.901 0-14.814 1.975-19.751 6.913z" fill="url(#paint33_linear)"/><path d="M617.621 411.071H511.953c1.975 7.9 5.925 12.838 12.838 16.788 6.913 3.95 13.826 5.925 22.714 5.925 6.912 0 12.838-.987 17.775-2.962 4.938-1.975 9.876-4.938 15.801-9.876l26.664 27.652c-13.826 15.8-34.564 23.701-62.216 23.701-16.788 0-31.601-2.963-44.439-9.876-12.839-6.912-22.714-15.8-29.627-26.664-6.913-11.85-10.863-24.688-10.863-38.514 0-13.826 2.963-26.664 9.875-38.515 6.913-10.863 16.789-19.751 28.639-26.664 11.851-6.912 25.677-9.875 40.49-9.875 14.813 0 27.652 2.963 39.502 8.888 11.851 5.925 20.739 14.813 27.652 25.676 6.913 10.863 9.875 24.689 9.875 40.49.988 1.975.988 5.925.988 13.826zm-96.78-44.44c-4.938 4.938-8.888 10.863-9.876 17.776h59.253c-.987-7.901-4.938-13.826-9.875-17.776-4.938-4.938-11.851-6.913-19.751-6.913-7.901 0-14.814 1.975-19.751 6.913z" fill="url(#paint34_linear)"/><path d="M742.052 465.386c-3.95 2.963-9.875 4.938-15.8 5.925-5.926.988-12.839 1.975-19.751 1.975-18.764 0-33.577-4.937-43.453-13.825-9.875-8.888-14.813-22.714-14.813-41.478v-48.39h-20.739v-38.514h20.739v-37.527h51.353v37.527h33.576v38.514h-33.576v48.39c0 4.938.987 8.888 3.95 11.851 2.963 2.963 6.913 3.95 10.863 3.95 5.925 0 10.863-1.975 15.801-4.938l11.85 36.54z" fill="url(#paint35_linear)"/><path d="M913.887 326.14v145.171h-48.39V455.51c-4.938 5.925-11.851 9.875-19.752 13.826-7.9 2.962-15.8 4.937-23.701 4.937-18.763 0-33.577-5.925-44.44-16.788s-16.788-27.651-16.788-49.378v-80.979h51.353v71.104c0 10.863 1.975 18.763 5.925 23.701 3.95 4.938 9.876 7.901 17.776 7.901s14.813-2.963 19.751-8.888c4.938-5.926 7.9-13.826 7.9-25.677v-70.116h50.366v.987z" fill="url(#paint36_linear)"/><path d="M1073.87 333.054c10.86 5.925 19.75 14.813 25.68 26.664 5.92 10.863 9.87 24.688 9.87 39.502 0 14.813-2.96 28.639-9.87 39.502-5.93 10.863-14.82 19.751-25.68 26.664-10.86 5.925-22.71 8.888-35.55 8.888-16.79 0-30.62-4.938-40.491-14.814v65.179h-51.353V327.128h48.39v14.814c9.874-10.864 23.704-16.789 42.464-16.789 13.83-1.975 25.68.988 36.54 7.901zm-24.69 90.854c5.93-5.925 8.89-14.813 8.89-25.676 0-10.863-2.96-18.763-8.89-25.676-5.92-5.926-12.84-8.888-21.72-8.888-8.89 0-15.81 2.962-21.73 8.888-5.926 5.925-8.889 14.813-8.889 25.676 0 10.863 2.963 18.764 8.889 25.676 5.92 5.926 12.84 8.888 21.73 8.888 8.88 0 15.8-2.962 21.72-8.888z" fill="url(#paint37_linear)"/></g></g><g opacity=".1"><mask id="d" maskUnits="userSpaceOnUse" x="-493" y="7" width="2150" height="536"><path d="M40.215 10L-490.35 540.565M68.95 10l-530.565 530.565M97.684 10L-432.88 540.565M126.419 10l-530.565 530.565M155.154 10l-530.565 530.565M183.888 10L-345.65 540.565M213.649 10l-530.565 530.565M242.384 10l-530.565 530.565M271.118 10l-530.564 530.565M299.853 10l-530.565 530.565M328.588 10l-530.565 530.565M357.322 10l-530.564 530.565M386.057 10l-530.565 530.565M414.792 10l-530.565 530.565M443.526 10L-87.039 540.565M472.261 10L-57.277 540.565M502.022 10L-28.543 540.565M530.756 10L.192 540.565M559.491 10L28.926 540.565M588.226 10L57.661 540.565M616.961 10L86.396 540.565M645.695 10L115.13 540.565M674.429 10L143.865 540.565M703.164 10L172.6 540.565M731.899 10L201.334 540.565M760.634 10L230.069 540.565M789.368 10L259.83 540.565M819.129 10L288.564 540.565M847.864 10L317.299 540.565M876.599 10L346.034 540.565M905.333 10L374.768 540.565M934.068 10L403.503 540.565M962.803 10L432.238 540.565M991.537 10L460.973 540.565M1020.27 10L489.707 540.565M1049.01 10L518.442 540.565M1077.74 10L547.176 540.565M1106.48 10L576.937 540.565M1136.24 10L605.672 540.565M1164.97 10L634.407 540.565M1193.71 10L663.141 540.565M1222.44 10L691.876 540.565M1251.18 10L720.61 540.565M1279.91 10L749.345 540.565M1308.64 10L778.08 540.565M1337.38 10L806.814 540.565M1366.11 10L835.549 540.565M1394.85 10L865.31 540.565M1424.61 10L894.044 540.565M1453.34 10L922.78 540.565M1482.08 10L951.514 540.565M1510.81 10L980.249 540.565M1539.55 10l-530.57 530.565M1568.28 10l-530.56 530.565M1597.02 10l-530.57 530.565M1625.75 10l-530.56 530.565M1654.49 10l-530.57 530.565" stroke="#000" stroke-width="6.852" stroke-miterlimit="10"/></mask><g mask="url(#d)"><path d="M154.128 194.722h-82.1l-15.393 37.971H.192L86.396 37.708h54.391l86.204 194.985h-57.47l-15.393-37.971zm-16.42-41.049l-24.63-62.6-24.63 62.6h49.26z" fill="url(#paint38_linear)"/><path d="M297.801 86.967h35.918v40.024h-34.892v105.702h-53.364V126.991h-21.551V86.967h21.551v-4.105c0-18.472 5.131-32.84 16.42-44.128 11.288-10.262 26.682-16.42 46.18-16.42 7.184 0 13.341 1.027 19.499 2.053 6.157 1.026 11.288 3.079 15.393 6.157L329.614 67.47c-5.131-3.079-10.262-4.105-15.393-4.105s-10.263 2.052-13.341 5.131c-2.053 4.105-3.079 9.236-3.079 15.394v3.078z" fill="url(#paint39_linear)"/><path d="M425.055 86.967h35.918v40.024h-34.892v105.702h-53.364V126.991h-21.551V86.967h21.551v-4.105c0-18.472 5.131-32.84 16.419-44.128 11.289-10.262 26.683-16.42 46.181-16.42 7.184 0 13.341 1.027 19.499 2.053 6.157 1.026 11.288 3.079 15.393 6.157L456.868 67.47c-5.131-3.079-10.262-4.105-15.394-4.105-5.131 0-10.262 2.052-13.341 5.131-3.078 3.079-4.105 8.21-4.105 14.367v4.105h1.027z" fill="url(#paint40_linear)"/><path d="M624.144 96.204c11.289 11.288 17.446 27.708 17.446 50.286v86.203h-53.364v-77.994c0-20.524-8.21-30.787-24.63-30.787-9.236 0-16.419 3.079-21.551 9.236-5.131 6.158-8.209 14.368-8.209 26.683v72.862h-53.365v-207.3h53.365v69.785c6.157-5.132 12.314-9.236 20.524-12.315 8.21-3.079 16.42-4.105 24.63-4.105 18.472 0 33.866 6.157 45.154 17.446z" fill="url(#paint41_linear)"/><path d="M832.471 81.837v150.857h-50.286v-16.42c-5.131 6.157-12.315 10.262-20.525 14.367-8.209 3.079-16.419 5.131-24.629 5.131-19.499 0-34.892-6.157-46.181-17.446-11.288-11.288-17.446-28.734-17.446-51.312V81.837h53.364v74.915c0 11.289 2.053 19.499 6.158 24.63s10.262 8.21 18.472 8.21 15.394-3.079 20.525-9.237c5.131-6.157 8.21-14.367 8.21-26.682V81.837h52.338z" fill="url(#paint42_linear)"/><path d="M999.748 87.994a66.764 66.764 0 0126.682 26.682c6.16 11.289 10.26 25.656 10.26 41.05 0 15.393-3.08 29.761-10.26 41.049-6.16 12.315-15.39 20.525-26.682 27.709-11.289 6.157-23.604 9.236-36.945 9.236-19.498 0-34.892-6.158-44.128-17.446v15.393h-50.286V25.393h53.365v68.758c10.262-10.262 24.629-15.393 42.075-15.393 11.289 0 24.63 3.079 35.919 9.236zm-26.683 95.44c6.158-6.157 9.237-15.393 9.237-26.682 0-11.289-3.079-19.499-9.237-25.656-6.157-6.157-13.341-9.236-22.577-9.236-9.236 0-16.42 3.079-22.577 9.236s-9.236 15.394-9.236 25.656c0 11.289 3.079 20.525 9.236 26.682 6.157 6.158 13.341 9.236 22.577 9.236 9.236 0 17.446-3.078 22.577-9.236z" fill="url(#paint43_linear)"/><path d="M199.282 478.99l-1.026-103.65-50.286 84.152h-24.629l-50.286-81.073V478.99H21.743V284.005h45.155l68.758 112.886 66.705-112.886h45.154l1.027 194.985h-49.26z" fill="url(#paint44_linear)"/><path d="M440.448 416.39H330.641c2.052 8.21 6.157 13.341 13.341 17.446 7.183 4.105 14.367 6.157 23.603 6.157 7.184 0 13.341-1.026 18.473-3.079 5.131-2.052 10.262-5.131 16.419-10.262l27.709 28.735c-14.368 16.42-35.919 24.629-64.653 24.629-17.446 0-32.84-3.078-46.181-10.262-13.341-7.184-23.603-16.42-30.787-27.708-8.21-10.263-11.289-23.604-11.289-38.997 0-14.368 3.079-27.709 10.263-40.024 7.183-11.288 17.446-20.524 29.761-27.708 12.314-7.184 26.682-10.262 42.075-10.262 15.394 0 28.735 3.078 41.05 9.236 12.315 6.157 21.551 15.393 28.735 26.682 7.183 11.289 10.262 25.656 10.262 42.076 1.026 1.026 1.026 5.131 1.026 13.341zm-100.571-46.181c-5.131 5.131-9.236 11.289-10.263 18.472h61.575c-1.027-8.21-5.131-14.367-10.263-18.472-5.131-5.131-12.314-7.184-20.524-7.184s-15.394 2.053-20.525 7.184z" fill="url(#paint45_linear)"/><path d="M619.013 416.39H509.206c2.052 8.21 6.157 13.341 13.341 17.446 7.184 4.105 14.367 6.157 23.603 6.157 7.184 0 13.342-1.026 18.473-3.078 5.131-2.053 10.262-5.132 16.42-10.263l27.708 28.735c-14.367 16.42-35.918 24.629-64.653 24.629-17.446 0-32.84-3.078-46.181-10.262-13.341-7.184-23.603-16.42-30.787-27.708-7.184-12.315-11.288-25.656-11.288-40.024 0-14.367 3.078-27.708 10.262-40.023 7.184-11.288 17.446-20.525 29.761-27.708 12.315-7.184 26.682-10.263 42.076-10.263 15.393 0 28.734 3.079 41.049 9.237 12.315 6.157 21.551 15.393 28.735 26.682 7.183 11.288 10.262 25.656 10.262 42.075 1.026 2.053 1.026 6.158 1.026 14.368zm-100.571-46.181c-5.131 5.131-9.236 11.289-10.262 18.472h61.574c-1.026-8.21-5.131-14.367-10.262-18.472-5.132-5.131-12.315-7.184-20.525-7.184-8.21 0-15.394 2.053-20.525 7.184z" fill="url(#paint46_linear)"/><path d="M748.319 472.833c-4.105 3.078-10.262 5.131-16.42 6.157-6.157 1.026-13.341 2.053-20.524 2.053-19.499 0-34.892-5.132-45.155-14.368-10.262-9.236-15.393-23.603-15.393-43.102v-50.285h-21.551v-40.024h21.551v-38.997h53.364v38.997h34.892v40.024h-34.892v50.285c0 5.131 1.026 9.236 4.105 12.315 3.079 3.079 7.184 4.105 11.289 4.105 6.157 0 11.288-2.052 16.419-5.131l12.315 37.971z" fill="url(#paint47_linear)"/><path d="M926.885 328.133V478.99h-50.286v-16.42c-5.131 6.157-12.315 10.262-20.525 14.367-8.21 3.079-16.42 5.131-24.629 5.131-19.499 0-34.893-6.157-46.181-17.446-11.289-11.288-17.446-28.734-17.446-51.312v-84.151h53.364v73.889c0 11.289 2.053 19.499 6.158 24.63s10.262 8.21 18.472 8.21 15.393-3.079 20.525-9.236c5.131-6.158 8.21-14.368 8.21-26.683v-72.863h52.338v1.027z" fill="url(#paint48_linear)"/><path d="M1093.14 335.317c11.28 6.157 20.52 15.393 26.68 27.708 6.15 11.289 10.26 25.656 10.26 41.05 0 15.393-3.08 29.76-10.26 41.049-6.16 11.289-15.4 20.525-26.68 27.708-11.29 6.158-23.61 9.237-36.95 9.237-17.45 0-31.81-5.132-42.08-15.394v67.732h-53.36V329.159h50.29v15.394c10.26-11.289 24.63-17.446 44.12-17.446 14.37-2.053 26.69 1.026 37.98 8.21zm-25.66 94.413c6.16-6.157 9.24-15.393 9.24-26.682 0-11.288-3.08-19.498-9.24-26.682-6.16-6.157-13.34-9.236-22.58-9.236-9.23 0-16.42 3.079-22.58 9.236-6.15 6.158-9.23 15.394-9.23 26.682 0 11.289 3.08 19.499 9.23 26.682 6.16 6.158 13.35 9.237 22.58 9.237 9.24 0 16.42-3.079 22.58-9.237z" fill="url(#paint49_linear)"/></g></g><path d="M553.945 263.184c-.638 5.11-.638 9.581 0 14.69 1.278 9.581 6.387 5.11 6.387-2.554 0-6.387 1.278-11.497 3.833-15.968 13.412-5.11 26.825-10.219 39.599-15.329 4.471-1.916 3.194-17.884-1.277-18.522-19.161-3.194-32.574 3.832-40.877 15.967-73.451 28.103-149.457 54.29-216.521 93.251-3.832 1.916-1.916 17.884 1.916 15.968 38.961-21.077 79.838-38.322 121.354-54.29-11.497 38.961-22.355 78.561-35.768 116.883-15.328 44.709-34.49 88.141-51.096 132.85-1.277 3.194 1.277 18.523 4.471 12.775 43.432-81.116 72.812-176.922 92.612-266.979 24.91-9.581 50.458-19.161 75.367-28.742z" fill="#251440"/><path d="M572.468 429.886c-1.278-1.916-3.194-1.916-3.833 0-5.109 8.303-10.858 19.161-14.051 30.019-4.471 2.555-13.413 10.858-15.968 12.774-1.916 1.278-3.832 2.555-5.748 3.194 0-3.833-1.278-7.665-3.194-12.136-20.438-38.961-89.418 8.303-51.735 38.323.639.638 1.278.638 1.916 1.277-16.606-1.916-17.883-14.69-14.69-32.574 3.194-16.606 7.665-32.574 13.413-48.541 10.858-29.381 26.826-56.845 45.987-81.755 2.554-3.193 0-19.161-3.833-14.051-24.27 30.019-42.793 63.87-54.289 100.915-7.026 22.994-19.8 58.761-10.858 82.393 9.58 24.91 49.18 13.413 67.702-9.581 9.581-3.832 19.8-9.58 28.103-16.606v1.278c1.916 10.858 9.581 19.799 18.523 9.58 1.916-2.555 1.916-16.606-2.555-14.051 1.277-.639 1.277-5.749-.639-11.497 10.219-12.135 14.052-26.826 5.749-38.961zm-78.561 41.516c4.471-1.278 9.58-1.278 14.051-1.278 12.774 1.278 12.774 7.665 7.026 14.691-5.748 1.916-11.497 3.832-17.245 3.193-17.884-1.277-21.077-12.774-3.832-16.606zM579.493 400.506c-.638-1.277-1.277-3.193-2.555-4.471-1.277-1.277-2.554.639-3.193 1.916-1.916 3.832-1.916 9.581 0 13.413 1.277 2.555 1.916 5.11 3.193 7.664 1.278 1.917 2.555.639 3.194-.638 1.277-2.555 1.277-5.749.639-8.303 0-3.194-.639-6.387-1.278-9.581zM675.938 433.718c-10.219 38.323-17.245 42.155-22.355 10.22 1.916-4.471-2.555-23.632-5.748-14.052-5.748 17.245-15.329 31.935-29.38 43.432-7.026 5.748-20.439 10.219-25.549-1.916-1.916-4.471 7.026-21.716 8.942-26.187 9.581-27.464 16.607-76.645 40.239-95.167 3.832-3.193 1.916-19.8-2.555-17.245-22.355 14.69-27.464 48.542-35.129 72.174-7.664 22.354-24.271 51.735-21.716 76.644 1.278 12.774 7.665 22.355 21.077 19.8 15.329-3.193 28.742-18.522 38.323-34.49.638 7.026 3.193 13.413 7.664 16.606 21.716 13.413 32.574-36.406 32.574-48.541.639-6.387-5.748-10.858-6.387-1.278z" fill="#251440"/><path d="M651.667 407.531c.639.639 1.916 1.278 2.555 1.917.639.638 1.916 0 2.555-.639.638-1.278 1.277-2.555 1.277-4.471s.639-3.832 0-5.748c0-.639 0-1.278-.639-1.916 0-1.278-.638-1.917-1.277-3.194-.639-.639-1.277-1.916-2.555-2.555-.638-.639-1.277-1.277-1.916-1.277s-.639 0-1.277.638c-.639.639-1.278 1.278-1.278 2.555-.638.639-.638 1.916-.638 3.194-.639 2.555 0 4.471 0 7.026.638 1.277 1.277 3.193 3.193 4.47zM718.731 389.009c-20.439-9.58-33.851 10.219-32.574 28.742 0 8.303 2.555 15.968 8.303 22.355 3.194 3.193 10.219 5.748 12.774 9.58 5.749 9.581-4.471 12.774-10.858 15.968-4.471 1.916-3.832 16.606 1.278 17.884 17.245 3.193 22.354-22.994 21.077-35.129-1.278-7.665-3.832-13.413-9.581-18.523-5.748-5.109-16.606-10.219-10.219-18.522 1.277-1.916 3.194-2.555 5.11-3.194.638 3.833 1.916 7.665 4.471 6.387 4.471-1.916 7.664-4.471 11.496-7.025 2.555-3.194 3.194-15.968-1.277-18.523zM757.054 393.48c-5.11 15.968-10.858 31.935-14.052 48.542-.639 3.193 1.916 17.883 5.748 9.58 6.388-14.69 9.581-30.658 14.052-45.348 1.277-3.832 1.916-8.942 0-12.774-2.555-3.194-5.11-3.832-5.748 0zM766.634 367.932l-1.916-5.748c-.639-1.278-1.278-2.555-2.555-2.555-1.916 0-2.555 2.555-2.555 3.832-.639 2.555-.639 4.471-.639 7.026 0 2.555.639 5.11 1.917 7.026.638 1.277 1.916 2.554 2.554 3.193.639.639 1.278 1.278 2.555.639.639-.639 1.278-1.916 1.278-3.194 1.277-2.554.638-6.387-.639-10.219zM350.199 624.691c127.741-78.561 273.365-74.09 417.712-71.535 4.471 0 4.471-14.69-.638-15.329-141.154-8.942-297.637-11.497-418.99 72.813-3.833 2.554-2.555 16.606 1.916 14.051z" fill="#251440"/><defs><linearGradient id="paint24_linear" x1="67.084" y1="394.263" x2="1011.16" y2="394.263" gradientUnits="userSpaceOnUse"><stop stop-color="#E5811F"/><stop offset=".096" stop-color="#E37F31"/><stop offset=".291" stop-color="#DE7856"/><stop offset=".566" stop-color="#D66D80"/><stop offset=".74" stop-color="#D16494"/><stop offset="1" stop-color="#7773A4"/></linearGradient><linearGradient id="paint49_linear" x1="22.812" y1="428.984" x2="1048.05" y2="428.984" gradientUnits="userSpaceOnUse"><stop stop-color="#E5811F"/><stop offset=".096" stop-color="#E37F31"/><stop offset=".291" stop-color="#DE7856"/><stop offset=".566" stop-color="#D66D80"/><stop offset=".74" stop-color="#D16494"/><stop offset="1" stop-color="#7773A4"/></linearGradient><linearGradient id="paint1_linear" x1="90.868" y1="410.281" x2="991.347" y2="410.281" gradientUnits="userSpaceOnUse"><stop stop-color="#E5811F"/><stop offset=".096" stop-color="#E37F31"/><stop offset=".291" stop-color="#DE7856"/><stop offset=".566" stop-color="#D66D80"/><stop offset=".74" stop-color="#D16494"/><stop offset="1" stop-color="#7773A4"/></linearGradient><linearGradient id="paint2_linear" x1="90.868" y1="410.281" x2="991.347" y2="410.281" gradientUnits="userSpaceOnUse"><stop stop-color="#E5811F"/><stop offset=".096" stop-color="#E37F31"/><stop offset=".291" stop-color="#DE7856"/><stop offset=".566" stop-color="#D66D80"/><stop offset=".74" stop-color="#D16494"/><stop offset="1" stop-color="#7773A4"/></linearGradient><linearGradient id="paint3_linear" x1="90.868" y1="410.281" x2="991.347" y2="410.281" gradientUnits="userSpaceOnUse"><stop stop-color="#E5811F"/><stop offset=".096" stop-color="#E37F31"/><stop offset=".291" stop-color="#DE7856"/><stop offset=".566" stop-color="#D66D80"/><stop offset=".74" stop-color="#D16494"/><stop offset="1" stop-color="#7773A4"/></linearGradient><linearGradient id="paint4_linear" x1="90.868" y1="410.281" x2="991.347" y2="410.281" gradientUnits="userSpaceOnUse"><stop stop-color="#E5811F"/><stop offset=".096" stop-color="#E37F31"/><stop offset=".291" stop-color="#DE7856"/><stop offset=".566" stop-color="#D66D80"/><stop offset=".74" stop-color="#D16494"/><stop offset="1" stop-color="#7773A4"/></linearGradient><linearGradient id="paint5_linear" x1="90.868" y1="410.281" x2="991.347" y2="410.281" gradientUnits="userSpaceOnUse"><stop stop-color="#E5811F"/><stop offset=".096" stop-color="#E37F31"/><stop offset=".291" stop-color="#DE7856"/><stop offset=".566" stop-color="#D66D80"/><stop offset=".74" stop-color="#D16494"/><stop offset="1" stop-color="#7773A4"/></linearGradient><linearGradient id="paint6_linear" x1="90.868" y1="410.281" x2="991.347" y2="410.281" gradientUnits="userSpaceOnUse"><stop stop-color="#E5811F"/><stop offset=".096" stop-color="#E37F31"/><stop offset=".291" stop-color="#DE7856"/><stop offset=".566" stop-color="#D66D80"/><stop offset=".74" stop-color="#D16494"/><stop offset="1" stop-color="#7773A4"/></linearGradient><linearGradient id="paint7_linear" x1="90.868" y1="410.281" x2="991.347" y2="410.281" gradientUnits="userSpaceOnUse"><stop stop-color="#E5811F"/><stop offset=".096" stop-color="#E37F31"/><stop offset=".291" stop-color="#DE7856"/><stop offset=".566" stop-color="#D66D80"/><stop offset=".74" stop-color="#D16494"/><stop offset="1" stop-color="#7773A4"/></linearGradient><linearGradient id="paint8_linear" x1="90.868" y1="410.281" x2="991.347" y2="410.281" gradientUnits="userSpaceOnUse"><stop stop-color="#E5811F"/><stop offset=".096" stop-color="#E37F31"/><stop offset=".291" stop-color="#DE7856"/><stop offset=".566" stop-color="#D66D80"/><stop offset=".74" stop-color="#D16494"/><stop offset="1" stop-color="#7773A4"/></linearGradient><linearGradient id="paint9_linear" x1="90.868" y1="410.281" x2="991.347" y2="410.281" gradientUnits="userSpaceOnUse"><stop stop-color="#E5811F"/><stop offset=".096" stop-color="#E37F31"/><stop offset=".291" stop-color="#DE7856"/><stop offset=".566" stop-color="#D66D80"/><stop offset=".74" stop-color="#D16494"/><stop offset="1" stop-color="#7773A4"/></linearGradient><linearGradient id="paint10_linear" x1="90.868" y1="410.281" x2="991.347" y2="410.281" gradientUnits="userSpaceOnUse"><stop stop-color="#E5811F"/><stop offset=".096" stop-color="#E37F31"/><stop offset=".291" stop-color="#DE7856"/><stop offset=".566" stop-color="#D66D80"/><stop offset=".74" stop-color="#D16494"/><stop offset="1" stop-color="#7773A4"/></linearGradient><linearGradient id="paint11_linear" x1="90.868" y1="410.281" x2="991.347" y2="410.281" gradientUnits="userSpaceOnUse"><stop stop-color="#E5811F"/><stop offset=".096" stop-color="#E37F31"/><stop offset=".291" stop-color="#DE7856"/><stop offset=".566" stop-color="#D66D80"/><stop offset=".74" stop-color="#D16494"/><stop offset="1" stop-color="#7773A4"/></linearGradient><linearGradient id="paint12_linear" x1="90.868" y1="410.281" x2="991.347" y2="410.281" gradientUnits="userSpaceOnUse"><stop stop-color="#E5811F"/><stop offset=".096" stop-color="#E37F31"/><stop offset=".291" stop-color="#DE7856"/><stop offset=".566" stop-color="#D66D80"/><stop offset=".74" stop-color="#D16494"/><stop offset="1" stop-color="#7773A4"/></linearGradient><linearGradient id="paint13_linear" x1="90.868" y1="410.281" x2="991.347" y2="410.281" gradientUnits="userSpaceOnUse"><stop stop-color="#E5811F"/><stop offset=".096" stop-color="#E37F31"/><stop offset=".291" stop-color="#DE7856"/><stop offset=".566" stop-color="#D66D80"/><stop offset=".74" stop-color="#D16494"/><stop offset="1" stop-color="#7773A4"/></linearGradient><linearGradient id="paint14_linear" x1="67.084" y1="146.063" x2="1011.16" y2="146.063" gradientUnits="userSpaceOnUse"><stop stop-color="#E5811F"/><stop offset=".096" stop-color="#E37F31"/><stop offset=".291" stop-color="#DE7856"/><stop offset=".566" stop-color="#D66D80"/><stop offset=".74" stop-color="#D16494"/><stop offset="1" stop-color="#7773A4"/></linearGradient><linearGradient id="paint15_linear" x1="67.084" y1="139.526" x2="1011.16" y2="139.526" gradientUnits="userSpaceOnUse"><stop stop-color="#E5811F"/><stop offset=".096" stop-color="#E37F31"/><stop offset=".291" stop-color="#DE7856"/><stop offset=".566" stop-color="#D66D80"/><stop offset=".74" stop-color="#D16494"/><stop offset="1" stop-color="#7773A4"/></linearGradient><linearGradient id="paint16_linear" x1="67.084" y1="139.526" x2="1011.16" y2="139.526" gradientUnits="userSpaceOnUse"><stop stop-color="#E5811F"/><stop offset=".096" stop-color="#E37F31"/><stop offset=".291" stop-color="#DE7856"/><stop offset=".566" stop-color="#D66D80"/><stop offset=".74" stop-color="#D16494"/><stop offset="1" stop-color="#7773A4"/></linearGradient><linearGradient id="paint17_linear" x1="67.084" y1="140.68" x2="1011.16" y2="140.68" gradientUnits="userSpaceOnUse"><stop stop-color="#E5811F"/><stop offset=".096" stop-color="#E37F31"/><stop offset=".291" stop-color="#DE7856"/><stop offset=".566" stop-color="#D66D80"/><stop offset=".74" stop-color="#D16494"/><stop offset="1" stop-color="#7773A4"/></linearGradient><linearGradient id="paint18_linear" x1="67.084" y1="167.464" x2="1011.16" y2="167.464" gradientUnits="userSpaceOnUse"><stop stop-color="#E5811F"/><stop offset=".096" stop-color="#E37F31"/><stop offset=".291" stop-color="#DE7856"/><stop offset=".566" stop-color="#D66D80"/><stop offset=".74" stop-color="#D16494"/><stop offset="1" stop-color="#7773A4"/></linearGradient><linearGradient id="paint19_linear" x1="67.084" y1="141.834" x2="1011.16" y2="141.834" gradientUnits="userSpaceOnUse"><stop stop-color="#E5811F"/><stop offset=".096" stop-color="#E37F31"/><stop offset=".291" stop-color="#DE7856"/><stop offset=".566" stop-color="#D66D80"/><stop offset=".74" stop-color="#D16494"/><stop offset="1" stop-color="#7773A4"/></linearGradient><linearGradient id="paint20_linear" x1="67.084" y1="372.863" x2="1011.16" y2="372.863" gradientUnits="userSpaceOnUse"><stop stop-color="#E5811F"/><stop offset=".096" stop-color="#E37F31"/><stop offset=".291" stop-color="#DE7856"/><stop offset=".566" stop-color="#D66D80"/><stop offset=".74" stop-color="#D16494"/><stop offset="1" stop-color="#7773A4"/></linearGradient><linearGradient id="paint21_linear" x1="67.084" y1="393.11" x2="1011.16" y2="393.11" gradientUnits="userSpaceOnUse"><stop stop-color="#E5811F"/><stop offset=".096" stop-color="#E37F31"/><stop offset=".291" stop-color="#DE7856"/><stop offset=".566" stop-color="#D66D80"/><stop offset=".74" stop-color="#D16494"/><stop offset="1" stop-color="#7773A4"/></linearGradient><linearGradient id="paint22_linear" x1="67.084" y1="393.11" x2="1011.16" y2="393.11" gradientUnits="userSpaceOnUse"><stop stop-color="#E5811F"/><stop offset=".096" stop-color="#E37F31"/><stop offset=".291" stop-color="#DE7856"/><stop offset=".566" stop-color="#D66D80"/><stop offset=".74" stop-color="#D16494"/><stop offset="1" stop-color="#7773A4"/></linearGradient><linearGradient id="paint23_linear" x1="67.084" y1="378.758" x2="1011.16" y2="378.758" gradientUnits="userSpaceOnUse"><stop stop-color="#E5811F"/><stop offset=".096" stop-color="#E37F31"/><stop offset=".291" stop-color="#DE7856"/><stop offset=".566" stop-color="#D66D80"/><stop offset=".74" stop-color="#D16494"/><stop offset="1" stop-color="#7773A4"/></linearGradient><linearGradient id="paint0_linear" x1="90.868" y1="410.281" x2="991.347" y2="410.281" gradientUnits="userSpaceOnUse"><stop stop-color="#E5811F"/><stop offset=".096" stop-color="#E37F31"/><stop offset=".291" stop-color="#DE7856"/><stop offset=".566" stop-color="#D66D80"/><stop offset=".74" stop-color="#D16494"/><stop offset="1" stop-color="#7773A4"/></linearGradient><linearGradient id="paint25_linear" x1="67.084" y1="416.817" x2="1011.16" y2="416.817" gradientUnits="userSpaceOnUse"><stop stop-color="#E5811F"/><stop offset=".096" stop-color="#E37F31"/><stop offset=".291" stop-color="#DE7856"/><stop offset=".566" stop-color="#D66D80"/><stop offset=".74" stop-color="#D16494"/><stop offset="1" stop-color="#7773A4"/></linearGradient><linearGradient id="paint26_linear" x1="43.894" y1="140.244" x2="1030.49" y2="140.244" gradientUnits="userSpaceOnUse"><stop stop-color="#E5811F"/><stop offset=".096" stop-color="#E37F31"/><stop offset=".291" stop-color="#DE7856"/><stop offset=".566" stop-color="#D66D80"/><stop offset=".74" stop-color="#D16494"/><stop offset="1" stop-color="#7773A4"/></linearGradient><linearGradient id="paint27_linear" x1="43.894" y1="133.413" x2="1030.49" y2="133.413" gradientUnits="userSpaceOnUse"><stop stop-color="#E5811F"/><stop offset=".096" stop-color="#E37F31"/><stop offset=".291" stop-color="#DE7856"/><stop offset=".566" stop-color="#D66D80"/><stop offset=".74" stop-color="#D16494"/><stop offset="1" stop-color="#7773A4"/></linearGradient><linearGradient id="paint28_linear" x1="43.894" y1="133.413" x2="1030.49" y2="133.413" gradientUnits="userSpaceOnUse"><stop stop-color="#E5811F"/><stop offset=".096" stop-color="#E37F31"/><stop offset=".291" stop-color="#DE7856"/><stop offset=".566" stop-color="#D66D80"/><stop offset=".74" stop-color="#D16494"/><stop offset="1" stop-color="#7773A4"/></linearGradient><linearGradient id="paint29_linear" x1="43.894" y1="134.619" x2="1030.49" y2="134.619" gradientUnits="userSpaceOnUse"><stop stop-color="#E5811F"/><stop offset=".096" stop-color="#E37F31"/><stop offset=".291" stop-color="#DE7856"/><stop offset=".566" stop-color="#D66D80"/><stop offset=".74" stop-color="#D16494"/><stop offset="1" stop-color="#7773A4"/></linearGradient><linearGradient id="paint30_linear" x1="43.894" y1="162.609" x2="1030.49" y2="162.609" gradientUnits="userSpaceOnUse"><stop stop-color="#E5811F"/><stop offset=".096" stop-color="#E37F31"/><stop offset=".291" stop-color="#DE7856"/><stop offset=".566" stop-color="#D66D80"/><stop offset=".74" stop-color="#D16494"/><stop offset="1" stop-color="#7773A4"/></linearGradient><linearGradient id="paint31_linear" x1="43.894" y1="135.825" x2="1030.49" y2="135.825" gradientUnits="userSpaceOnUse"><stop stop-color="#E5811F"/><stop offset=".096" stop-color="#E37F31"/><stop offset=".291" stop-color="#DE7856"/><stop offset=".566" stop-color="#D66D80"/><stop offset=".74" stop-color="#D16494"/><stop offset="1" stop-color="#7773A4"/></linearGradient><linearGradient id="paint32_linear" x1="43.894" y1="377.257" x2="1030.49" y2="377.257" gradientUnits="userSpaceOnUse"><stop stop-color="#E5811F"/><stop offset=".096" stop-color="#E37F31"/><stop offset=".291" stop-color="#DE7856"/><stop offset=".566" stop-color="#D66D80"/><stop offset=".74" stop-color="#D16494"/><stop offset="1" stop-color="#7773A4"/></linearGradient><linearGradient id="paint33_linear" x1="43.894" y1="398.416" x2="1030.49" y2="398.416" gradientUnits="userSpaceOnUse"><stop stop-color="#E5811F"/><stop offset=".096" stop-color="#E37F31"/><stop offset=".291" stop-color="#DE7856"/><stop offset=".566" stop-color="#D66D80"/><stop offset=".74" stop-color="#D16494"/><stop offset="1" stop-color="#7773A4"/></linearGradient><linearGradient id="paint34_linear" x1="43.894" y1="398.416" x2="1030.49" y2="398.416" gradientUnits="userSpaceOnUse"><stop stop-color="#E5811F"/><stop offset=".096" stop-color="#E37F31"/><stop offset=".291" stop-color="#DE7856"/><stop offset=".566" stop-color="#D66D80"/><stop offset=".74" stop-color="#D16494"/><stop offset="1" stop-color="#7773A4"/></linearGradient><linearGradient id="paint35_linear" x1="43.894" y1="383.417" x2="1030.49" y2="383.417" gradientUnits="userSpaceOnUse"><stop stop-color="#E5811F"/><stop offset=".096" stop-color="#E37F31"/><stop offset=".291" stop-color="#DE7856"/><stop offset=".566" stop-color="#D66D80"/><stop offset=".74" stop-color="#D16494"/><stop offset="1" stop-color="#7773A4"/></linearGradient><linearGradient id="paint36_linear" x1="43.894" y1="399.62" x2="1030.49" y2="399.62" gradientUnits="userSpaceOnUse"><stop stop-color="#E5811F"/><stop offset=".096" stop-color="#E37F31"/><stop offset=".291" stop-color="#DE7856"/><stop offset=".566" stop-color="#D66D80"/><stop offset=".74" stop-color="#D16494"/><stop offset="1" stop-color="#7773A4"/></linearGradient><linearGradient id="paint37_linear" x1="43.894" y1="423.191" x2="1030.49" y2="423.191" gradientUnits="userSpaceOnUse"><stop stop-color="#E5811F"/><stop offset=".096" stop-color="#E37F31"/><stop offset=".291" stop-color="#DE7856"/><stop offset=".566" stop-color="#D66D80"/><stop offset=".74" stop-color="#D16494"/><stop offset="1" stop-color="#7773A4"/></linearGradient><linearGradient id="paint38_linear" x1="22.813" y1="134.954" x2="1048.05" y2="134.954" gradientUnits="userSpaceOnUse"><stop stop-color="#E5811F"/><stop offset=".096" stop-color="#E37F31"/><stop offset=".291" stop-color="#DE7856"/><stop offset=".566" stop-color="#D66D80"/><stop offset=".74" stop-color="#D16494"/><stop offset="1" stop-color="#7773A4"/></linearGradient><linearGradient id="paint39_linear" x1="22.812" y1="127.856" x2="1048.05" y2="127.856" gradientUnits="userSpaceOnUse"><stop stop-color="#E5811F"/><stop offset=".096" stop-color="#E37F31"/><stop offset=".291" stop-color="#DE7856"/><stop offset=".566" stop-color="#D66D80"/><stop offset=".74" stop-color="#D16494"/><stop offset="1" stop-color="#7773A4"/></linearGradient><linearGradient id="paint40_linear" x1="22.813" y1="127.856" x2="1048.05" y2="127.856" gradientUnits="userSpaceOnUse"><stop stop-color="#E5811F"/><stop offset=".096" stop-color="#E37F31"/><stop offset=".291" stop-color="#DE7856"/><stop offset=".566" stop-color="#D66D80"/><stop offset=".74" stop-color="#D16494"/><stop offset="1" stop-color="#7773A4"/></linearGradient><linearGradient id="paint41_linear" x1="22.812" y1="129.109" x2="1048.05" y2="129.109" gradientUnits="userSpaceOnUse"><stop stop-color="#E5811F"/><stop offset=".096" stop-color="#E37F31"/><stop offset=".291" stop-color="#DE7856"/><stop offset=".566" stop-color="#D66D80"/><stop offset=".74" stop-color="#D16494"/><stop offset="1" stop-color="#7773A4"/></linearGradient><linearGradient id="paint42_linear" x1="22.813" y1="158.195" x2="1048.05" y2="158.195" gradientUnits="userSpaceOnUse"><stop stop-color="#E5811F"/><stop offset=".096" stop-color="#E37F31"/><stop offset=".291" stop-color="#DE7856"/><stop offset=".566" stop-color="#D66D80"/><stop offset=".74" stop-color="#D16494"/><stop offset="1" stop-color="#7773A4"/></linearGradient><linearGradient id="paint43_linear" x1="22.812" y1="130.362" x2="1048.05" y2="130.362" gradientUnits="userSpaceOnUse"><stop stop-color="#E5811F"/><stop offset=".096" stop-color="#E37F31"/><stop offset=".291" stop-color="#DE7856"/><stop offset=".566" stop-color="#D66D80"/><stop offset=".74" stop-color="#D16494"/><stop offset="1" stop-color="#7773A4"/></linearGradient><linearGradient id="paint44_linear" x1="22.813" y1="381.251" x2="1048.05" y2="381.251" gradientUnits="userSpaceOnUse"><stop stop-color="#E5811F"/><stop offset=".096" stop-color="#E37F31"/><stop offset=".291" stop-color="#DE7856"/><stop offset=".566" stop-color="#D66D80"/><stop offset=".74" stop-color="#D16494"/><stop offset="1" stop-color="#7773A4"/></linearGradient><linearGradient id="paint45_linear" x1="22.813" y1="403.24" x2="1048.05" y2="403.24" gradientUnits="userSpaceOnUse"><stop stop-color="#E5811F"/><stop offset=".096" stop-color="#E37F31"/><stop offset=".291" stop-color="#DE7856"/><stop offset=".566" stop-color="#D66D80"/><stop offset=".74" stop-color="#D16494"/><stop offset="1" stop-color="#7773A4"/></linearGradient><linearGradient id="paint46_linear" x1="22.812" y1="403.24" x2="1048.05" y2="403.24" gradientUnits="userSpaceOnUse"><stop stop-color="#E5811F"/><stop offset=".096" stop-color="#E37F31"/><stop offset=".291" stop-color="#DE7856"/><stop offset=".566" stop-color="#D66D80"/><stop offset=".74" stop-color="#D16494"/><stop offset="1" stop-color="#7773A4"/></linearGradient><linearGradient id="paint47_linear" x1="22.812" y1="387.653" x2="1048.05" y2="387.653" gradientUnits="userSpaceOnUse"><stop stop-color="#E5811F"/><stop offset=".096" stop-color="#E37F31"/><stop offset=".291" stop-color="#DE7856"/><stop offset=".566" stop-color="#D66D80"/><stop offset=".74" stop-color="#D16494"/><stop offset="1" stop-color="#7773A4"/></linearGradient><linearGradient id="paint48_linear" x1="22.812" y1="404.491" x2="1048.05" y2="404.491" gradientUnits="userSpaceOnUse"><stop stop-color="#E5811F"/><stop offset=".096" stop-color="#E37F31"/><stop offset=".291" stop-color="#DE7856"/><stop offset=".566" stop-color="#D66D80"/><stop offset=".74" stop-color="#D16494"/><stop offset="1" stop-color="#7773A4"/></linearGradient><filter id="filter0_f" x="17.992" y=".09" width="1098.41" height="555.792" filterUnits="userSpaceOnUse" color-interpolation-filters="sRGB"><feFlood flood-opacity="0" result="BackgroundImageFix"/><feBlend in="SourceGraphic" in2="BackgroundImageFix" result="shape"/><feGaussianBlur stdDeviation="26.504" result="effect1_foregroundBlur"/></filter></defs></svg>