<svg width="150" height="48" fill="none" xmlns="http://www.w3.org/2000/svg"><path d="M76.845 31.248c-.458 0-.814.156-1.066.47l-.176-.45h-.633v3.66h.992v-1.904c0-.3.06-.515.181-.647.12-.13.32-.197.6-.197h.427v-.933h-.325v.001zm-17.103.077a1.505 1.505 0 00-.53.395l-.192-.454h-.68v3.66h.992v-1.923c0-.296.074-.528.22-.7.148-.17.349-.256.604-.256.428 0 .641.273.641.821v2.058h.993V32.71c0-.466-.123-.836-.368-1.114-.246-.276-.577-.416-.992-.416a1.714 1.714 0 00-.688.146zm27.12 0a1.491 1.491 0 00-.53.395l-.191-.454h-.682v3.66h.992v-1.923c0-.296.074-.528.221-.7.147-.17.348-.256.604-.256.427 0 .64.273.64.821v2.058h.993V32.71c0-.466-.123-.836-.37-1.114-.246-.276-.576-.416-.992-.416a1.71 1.71 0 00-.684.146zm-39.813-.012a1.89 1.89 0 00-.624.402c-.172.17-.309.374-.408.613-.099.238-.15.492-.15.76a1.96 1.96 0 00.558 1.383 1.983 1.983 0 001.392.558c.479 0 .89-.14 1.237-.424.347-.284.563-.656.649-1.117h-1a1.027 1.027 0 01-.356.453.918.918 0 01-.531.16.88.88 0 01-.672-.293 1.012 1.012 0 01-.271-.716c0-.283.09-.52.27-.71a.89.89 0 01.673-.287.936.936 0 01.887.572h.986a1.819 1.819 0 00-.645-1.09c-.34-.275-.746-.412-1.22-.412-.274 0-.532.049-.776.148zm6.12 2.508c-.183-.186-.274-.428-.274-.723 0-.296.091-.536.274-.724a.947.947 0 01.704-.28c.286 0 .521.094.704.28.184.186.275.428.275.724 0 .295-.091.536-.275.723a.949.949 0 01-.704.28.949.949 0 01-.704-.28zm-.312-2.406c-.303.166-.54.398-.713.692a1.935 1.935 0 00-.257.99c0 .362.086.691.257.987.171.296.408.527.713.695a2.06 2.06 0 001.016.252c.373 0 .71-.084 1.014-.252.303-.168.542-.4.713-.695a1.92 1.92 0 00.258-.986c0-.364-.087-.694-.258-.99a1.841 1.841 0 00-.713-.693 2.069 2.069 0 00-1.014-.25c-.373 0-.713.083-1.016.25zm17.178.776a.87.87 0 01.558-.182c.224 0 .413.06.57.179.155.118.268.29.337.513h-1.78a.942.942 0 01.315-.51zm-.416-.775c-.291.168-.52.4-.685.695a1.988 1.988 0 00-.247.987c0 .358.082.687.249.983.166.296.395.528.686.697.291.168.614.253.971.253.425 0 .802-.117 1.13-.352.326-.236.558-.553.69-.952h-1.044a.8.8 0 01-.316.31.937.937 0 01-.46.113.894.894 0 01-.599-.2c-.157-.133-.258-.324-.3-.573h2.78a2.05 2.05 0 00.02-.291c0-.352-.078-.673-.236-.963a1.78 1.78 0 00-.674-.696 1.91 1.91 0 00-.99-.26 1.897 1.897 0 00-.975.25zm10.907.775a.87.87 0 01.558-.182c.224 0 .413.06.57.179.155.118.268.29.336.513h-1.781a.944.944 0 01.317-.51zm-.416-.775c-.291.168-.52.4-.685.695a1.99 1.99 0 00-.247.987c0 .358.082.687.249.983.166.296.395.528.686.697.291.168.615.253.971.253.425 0 .802-.117 1.13-.352.326-.236.558-.553.69-.952H81.86a.809.809 0 01-.316.31.937.937 0 01-.46.113.894.894 0 01-.599-.2c-.159-.133-.258-.324-.3-.573h2.78c.014-.095.02-.192.02-.291 0-.352-.078-.673-.236-.963a1.779 1.779 0 00-.674-.696 1.91 1.91 0 00-.99-.26 1.893 1.893 0 00-.975.25zm12.413-.103c-.244.097-.45.232-.623.402s-.31.374-.409.613c-.099.238-.15.492-.15.76a1.96 1.96 0 00.559 1.383 1.983 1.983 0 001.392.558c.478 0 .89-.14 1.236-.424.347-.284.563-.656.65-1.117h-1a1.027 1.027 0 01-.355.453.917.917 0 01-.532.16.88.88 0 01-.67-.293 1.012 1.012 0 01-.273-.716c0-.283.09-.52.27-.71a.887.887 0 01.673-.287.945.945 0 01.887.572h.987a1.812 1.812 0 00-.646-1.09c-.339-.275-.746-.412-1.22-.412-.275 0-.533.049-.776.148zm6.186.878a.87.87 0 01.559-.182c.224 0 .413.06.569.179.156.118.269.29.338.513h-1.78a.943.943 0 01.314-.51zm-.416-.775c-.29.168-.519.4-.684.695a1.988 1.988 0 00-.248.987c0 .358.083.687.25.983.166.296.394.528.686.697.29.168.614.253.97.253.426 0 .803-.117 1.13-.352.327-.236.558-.553.69-.952h-1.043a.808.808 0 01-.317.31.938.938 0 01-.46.113.894.894 0 01-.598-.2c-.16-.133-.258-.324-.3-.573h2.78c.014-.095.02-.192.02-.291a1.99 1.99 0 00-.236-.963 1.786 1.786 0 00-.674-.696 1.91 1.91 0 00-.99-.26 1.898 1.898 0 00-.976.25zm-32.375-1.578c-.378 0-.668.102-.866.307-.2.204-.299.485-.299.842v.33h-.64v.814h.637v2.797h.994V32.13h.923v-.814h-.95v-.308c0-.262.134-.393.402-.393h.542v-.778h-.743zM131.454 13.03c-1.873 0-3.326.641-4.358 1.922l-.719-1.84h-2.593v14.966h4.06v-7.782c0-1.226.246-2.109.74-2.645s1.311-.805 2.452-.805h1.75V13.03h-1.332zm-38.268.373a5.63 5.63 0 00-2.016 1.752 4.564 4.564 0 00-1.792-1.766c-.761-.42-1.616-.63-2.566-.63-.87 0-1.7.2-2.492.597a5.826 5.826 0 00-1.99 1.61l-.76-1.853h-2.824v14.966h4.059v-8.092c0-1.163.258-2.069.773-2.713.517-.645 1.236-.968 2.159-.968.724 0 1.275.26 1.65.778.375.52.563 1.279.563 2.28v8.715h3.951v-8.092c0-1.163.256-2.069.767-2.713.511-.645 1.22-.968 2.125-.968.732 0 1.292.26 1.677.778.384.52.576 1.279.576 2.28v8.715h4.06v-9.392c0-1.75-.491-3.175-1.473-4.276-.982-1.1-2.252-1.651-3.809-1.651-.938 0-1.818.215-2.638.643zm-45.543.622c-1.114.89-1.67 2.042-1.67 3.458 0 .486.06.934.183 1.34.121.406.276.75.462 1.034.184.283.434.543.746.777.312.234.608.422.889.562.28.14.626.268 1.039.385.411.118.762.206 1.052.265.29.058.647.124 1.072.196.47.081.851.157 1.141.224.29.068.584.162.883.284.299.122.518.273.657.453.14.18.21.394.21.637 0 .479-.205.848-.618 1.11-.411.26-.916.393-1.513.393-.753 0-1.356-.172-1.812-.515-.458-.343-.691-.835-.7-1.476h-3.95c.01 1.606.59 2.899 1.745 3.878 1.154.979 2.672 1.468 4.554 1.468 1.901 0 3.427-.458 4.577-1.374 1.15-.915 1.724-2.136 1.724-3.66 0-1.804-.809-3.067-2.43-3.79-.643-.278-1.692-.55-3.15-.811-.344-.063-.599-.111-.767-.143a11.256 11.256 0 01-.652-.149 2.962 2.962 0 01-.597-.202 5.513 5.513 0 01-.422-.243.783.783 0 01-.312-.338 1.065 1.065 0 01-.089-.44c0-.432.179-.78.536-1.042.358-.261.848-.392 1.473-.392.715 0 1.27.149 1.663.446.394.297.596.74.605 1.326h3.856c-.01-1.497-.562-2.704-1.656-3.62-1.096-.916-2.548-1.374-4.358-1.374-1.8 0-3.258.445-4.37 1.333zm18.166 2.862c.624-.495 1.386-.745 2.28-.745.915 0 1.69.244 2.329.732.638.486 1.097 1.186 1.378 2.097H64.52c.236-.893.665-1.587 1.29-2.084zm-1.704-3.166a7.353 7.353 0 00-2.797 2.842c-.674 1.208-1.012 2.553-1.012 4.032 0 1.471.34 2.81 1.018 4.02a7.439 7.439 0 002.804 2.847c1.191.69 2.514 1.036 3.971 1.036 1.737 0 3.276-.48 4.617-1.441 1.339-.961 2.28-2.258 2.824-3.89h-4.264c-.308.542-.74.965-1.297 1.271-.557.307-1.183.461-1.881.461-.986 0-1.805-.273-2.45-.818-.647-.546-1.057-1.328-1.228-2.348h11.365c.053-.387.08-.785.08-1.19 0-1.434-.32-2.748-.963-3.938a7.278 7.278 0 00-2.757-2.848c-1.195-.709-2.543-1.063-4.046-1.063-1.466-.002-2.793.34-3.984 1.027zm45.647 9.805c-.775-.781-1.161-1.757-1.161-2.93 0-1.172.388-2.15 1.161-2.93.773-.78 1.749-1.17 2.926-1.17s2.151.387 2.926 1.163c.773.776 1.16 1.755 1.16 2.936 0 1.182-.387 2.16-1.16 2.937-.775.776-1.749 1.163-2.926 1.163s-2.153-.39-2.926-1.17zm-1.556-9.047l-.692-1.366h-2.675l.059 21.722h4.08v-7.682c1.231.839 2.528 1.372 4.049 1.372 1.485 0 2.825-.342 4.025-1.028a7.367 7.367 0 002.818-2.848c.679-1.213 1.018-2.565 1.018-4.054 0-1.488-.339-2.837-1.018-4.046a7.325 7.325 0 00-2.818-2.834c-1.2-.682-2.542-1.021-4.025-1.021-1.865-.002-3.472.593-4.821 1.785zm30.807 9.074c-.752-.763-1.128-1.748-1.128-2.958 0-1.208.376-2.195 1.128-2.956.751-.762 1.71-1.144 2.878-1.144 1.168 0 2.127.381 2.878 1.144.75.763 1.127 1.748 1.127 2.956 0 1.209-.375 2.195-1.127 2.958-.751.762-1.71 1.144-2.878 1.144-1.167-.002-2.127-.383-2.878-1.144zm-1.276-9.84a7.464 7.464 0 00-2.913 2.829c-.701 1.204-1.052 2.555-1.052 4.053 0 1.48.351 2.824 1.052 4.033a7.498 7.498 0 002.913 2.842c1.24.684 2.624 1.028 4.154 1.028 1.521 0 2.9-.344 4.14-1.028a7.55 7.55 0 002.92-2.842c.706-1.209 1.059-2.554 1.059-4.033 0-1.488-.353-2.837-1.059-4.046a7.486 7.486 0 00-2.92-2.834c-1.24-.682-2.621-1.021-4.14-1.021-1.528-.002-2.914.34-4.154 1.02zM.121 12.57v23.148L20.18 47.315l19.909-11.637V12.571L20.105 1.016.12 12.57z" fill="#000"/><path d="M.12 12.529v23.19l5.133 2.968 12.02-7.193-13.239-13.49L21.688 7.762l7.743 4.58-12.74 7.41 13.656 13.49-16.864 10.203 6.697 3.871L40.206 35.72v-23.19L20.162.934.12 12.53z" fill="#E22946"/></svg>