<svg width="152" height="39" fill="none" xmlns="http://www.w3.org/2000/svg"><path d="M1.585 14.541V2.658c0-1.2.976-2.173 2.18-2.173h11.917c1.204 0 2.18.973 2.18 2.173v11.883c0 1.2-.976 2.174-2.18 2.174H3.765a2.177 2.177 0 01-2.18-2.174z" fill="#A2C623"/><path d="M21.778 36.568V23.21a2.263 2.263 0 012.267-2.26H37.44a2.263 2.263 0 012.267 2.26v13.358a2.263 2.263 0 01-2.267 2.26H24.044a2.263 2.263 0 01-2.266-2.26z" fill="#3FAB35"/><path d="M9.872 38.83c4.96 0 8.982-4.01 8.982-8.956s-4.022-8.955-8.982-8.955c-4.96 0-8.982 4.009-8.982 8.955s4.022 8.955 8.982 8.955z" fill="#386EB5"/><path d="M21.567 15.518L29.574 1.45c.388-.681 1.288-.681 1.675 0l8.007 14.07c.413.725-.06 1.667-.838 1.667H22.404c-.777-.002-1.25-.944-.837-1.669z" fill="#E20E13"/><path opacity=".1" d="M15.675 16.715a2.185 2.185 0 002.189-2.182V2.65c0-.573-.222-1.091-.584-1.48L2.273 16.131c.39.36.91.583 1.485.583h11.917z" fill="#020203"/><path opacity=".05" d="M1.585 14.533c0 1.205.98 2.182 2.188 2.182h11.918c.574 0 1.094-.221 1.484-.583L2.171 1.172a2.17 2.17 0 00-.585 1.48v11.88h-.001zM21.845 36.628c0 1.226.997 2.22 2.227 2.22H37.62c.525 0 1.006-.184 1.384-.492.017-.014.019-.042.003-.06L22.4 21.739a.04.04 0 00-.06.004 2.168 2.168 0 00-.494 1.38v13.506z" fill="#020203"/><path opacity=".05" d="M37.518 38.826a2.185 2.185 0 002.189-2.182V23.097a2.17 2.17 0 00-.522-1.412l-16.62 16.527c.382.323.796.616 1.337.616l13.616-.002zM3.506 23.541a8.936 8.936 0 00.012 12.653c3.503 3.493 9.181 3.496 12.69.012L3.505 23.541z" fill="#020203"/><path opacity=".1" d="M3.506 36.235c3.508 3.486 9.186 3.481 12.69-.012a8.938 8.938 0 00.012-12.652L3.506 36.235zM35.14 8.285l-13.636 8.257c.15.367.48.643.9.643h16.014c.777 0 1.25-.942.838-1.667L35.14 8.285z" fill="#020203"/><path opacity=".1" d="M25.684 8.287l13.636 8.256c-.15.367-.48.644-.9.644H22.406c-.777 0-1.25-.943-.838-1.667l4.116-7.233z" fill="#020203"/><path d="M66.815 6.169h-.403c-.704 0-1.354.373-1.706.984l-6.01 10.385-6.008-10.387a1.971 1.971 0 00-1.707-.984h-.402c-1.516 0-2.465 1.638-1.707 2.947l7.647 13.193v10.3c0 1.085.882 1.965 1.97 1.965h.416c1.087 0 1.97-.88 1.97-1.964v-10.3l7.646-13.193c.756-1.309-.19-2.946-1.706-2.946z" fill="url(#paint0_linear)"/><path d="M85.815 5.104c-8.543 0-14.82 6.387-14.82 14.734 0 8.347 6.279 14.734 14.82 14.734s14.821-6.387 14.821-14.734c0-8.347-6.278-14.734-14.821-14.734zm0 25.465c-6.108 0-10.464-4.428-10.464-10.731 0-6.301 4.356-10.731 10.464-10.731 6.108 0 10.464 4.428 10.464 10.73 0 6.304-4.356 10.732-10.464 10.732z" fill="url(#paint1_linear)"/><path d="M115.967 17.113l-2.862-1.15c-2.776-1.107-3.074-2.597-3.074-3.448 0-1.831 1.366-3.406 4.014-3.406 1.239 0 2.179.299 3.075 1.021.16.139.304.28.434.424.634.702 1.665.887 2.483.41l.082-.049a1.962 1.962 0 00.511-2.962 8.927 8.927 0 00-.907-.932c-.896-.766-2.648-1.916-5.723-1.916-5.338 0-8.328 3.663-8.328 7.495 0 4.259 3.46 6.218 5.808 7.197l2.734 1.15c1.879.765 4.099 1.959 4.099 4.853 0 2.853-2.05 4.77-4.698 4.77-1.708 0-2.905-.682-3.716-1.704a5.901 5.901 0 01-.923-1.828c-.3-.975-1.28-1.575-2.28-1.357l-.439.095a1.969 1.969 0 00-1.459 2.518c.375 1.195 1.006 2.345 1.981 3.425 1.451 1.619 3.416 2.853 6.706 2.853 5.338 0 9.183-3.705 9.183-9.112.005-3.236-1.448-6.217-6.701-8.347z" fill="url(#paint2_linear)"/><path d="M140.825 8.415c-.688-1.532-2.863-1.553-3.579-.035l-11.033 23.392c-.614 1.304.339 2.8 1.782 2.8h.325c.773 0 1.474-.451 1.795-1.153l2.592-5.703h12.171l2.475 5.675a1.97 1.97 0 001.807 1.18h.368c1.427 0 2.381-1.465 1.798-2.766l-10.501-23.39zm-6.323 15.213l4.398-9.623 4.228 9.623h-8.626z" fill="url(#paint3_linear)"/><defs><linearGradient id="paint0_linear" x1="37.585" y1="7.635" x2="150.324" y2="65.246" gradientUnits="userSpaceOnUse"><stop stop-color="#C81617"/><stop offset=".332" stop-color="#CED71A"/><stop offset=".693" stop-color="#3FAB35"/><stop offset="1" stop-color="#396EB5"/></linearGradient><linearGradient id="paint1_linear" x1="42.574" y1="-2.13" x2="155.313" y2="55.482" gradientUnits="userSpaceOnUse"><stop stop-color="#C81617"/><stop offset=".332" stop-color="#CED71A"/><stop offset=".693" stop-color="#3FAB35"/><stop offset="1" stop-color="#396EB5"/></linearGradient><linearGradient id="paint2_linear" x1="48.329" y1="-13.39" x2="161.068" y2="44.221" gradientUnits="userSpaceOnUse"><stop stop-color="#C81617"/><stop offset=".332" stop-color="#CED71A"/><stop offset=".693" stop-color="#3FAB35"/><stop offset="1" stop-color="#396EB5"/></linearGradient><linearGradient id="paint3_linear" x1="51.97" y1="-20.515" x2="164.708" y2="37.096" gradientUnits="userSpaceOnUse"><stop stop-color="#C81617"/><stop offset=".332" stop-color="#CED71A"/><stop offset=".693" stop-color="#3FAB35"/><stop offset="1" stop-color="#396EB5"/></linearGradient></defs></svg>