<svg width="144" height="21" fill="none" xmlns="http://www.w3.org/2000/svg"><path d="M15.316 10.82c0 4.35-3.055 6.992-7.07 6.992C3.738 17.813.5 14.521.5 10.434c0-4.127 3.3-7.42 7.521-7.42 2.746 0 5.062 1.342 6.27 3.253l-2.786 1.586c-.595-.935-1.885-1.667-3.504-1.667-2.419 0-4.222 1.768-4.222 4.269 0 2.42 1.722 4.188 4.508 4.188 1.905 0 3.157-.834 3.668-2.195H8.124V9.601h7.192v1.219zM25.256 15.291h-5.328l-.718 2.235h-3.586l4.879-14.229h4.18l4.878 14.23h-3.586l-.72-2.236zm-.984-3.048l-1.68-5.224-1.68 5.224h3.36zM45.338 17.528h-3.28V9.254L38.35 15.29h-.37l-3.709-6.037v8.274h-3.279V3.298h3.28l3.894 6.323 3.893-6.324h3.279v14.231zM58.657 13.36c0 2.522-2.069 4.168-4.63 4.168h-6.025V3.298h5.614c2.5 0 4.528 1.606 4.528 4.066 0 1.18-.472 2.113-1.25 2.784 1.068.671 1.763 1.77 1.763 3.213zm-7.376-7.012v2.52h2.337c.738 0 1.249-.529 1.249-1.261 0-.732-.49-1.26-1.25-1.26h-2.336zm4.099 6.77c0-.794-.534-1.362-1.353-1.362H51.28v2.724h2.746c.82-.002 1.353-.57 1.353-1.363zM68.904 14.397v3.131h-8.4V3.298h3.276v11.099h5.124zM73.822 3.297h-3.279v14.231h3.28V3.298zM87.757 3.297v14.231h-2.46l-5.531-7.725v7.725h-3.28V3.298h2.46l5.532 7.724V3.297h3.28zM104.621 10.82c0 4.35-3.054 6.993-7.07 6.993-4.507 0-7.745-3.294-7.745-7.38 0-4.128 3.3-7.421 7.521-7.421 2.746 0 5.062 1.342 6.27 3.253l-2.786 1.586c-.595-.935-1.885-1.667-3.504-1.667-2.419 0-4.222 1.768-4.222 4.269 0 2.42 1.721 4.188 4.508 4.188 1.905 0 3.156-.834 3.667-2.195h-3.83V9.601h7.191v1.219z" fill="#131313"/><path fill-rule="evenodd" clip-rule="evenodd" d="M143.5 14.987c0 2.807-2.294 5.083-5.123 5.083H112.76c-2.829 0-5.123-2.276-5.123-5.083v-9.53c0-2.806 2.294-5.082 5.123-5.082h25.617c2.829 0 5.123 2.276 5.123 5.082v9.53z" fill="#131313"/><path d="M114.308 12.892a.974.974 0 011.946 0 .974.974 0 01-1.946 0zM122.61 9.039c0 1.353-1.097 2.442-2.512 2.442h-1.076v2.237h-1.639V6.599h2.715c1.415 0 2.512 1.087 2.512 2.44zm-1.641 0c0-.52-.37-.915-.871-.915h-1.076v1.83h1.076c.503 0 .871-.396.871-.915zM125.949 11.377h-.779v2.338h-1.64V6.597h2.871a2.443 2.443 0 012.459 2.44c0 .874-.534 1.666-1.323 2.064l1.527 2.614h-1.762l-1.353-2.338zm-.779-1.424h1.231c.451 0 .819-.395.819-.915 0-.519-.368-.914-.819-.914h-1.231v1.83zM129.522 10.156c0-2.095 1.67-3.7 3.731-3.7s3.731 1.605 3.731 3.7-1.67 3.701-3.731 3.701c-2.058 0-3.731-1.606-3.731-3.7zm5.823 0c0-1.271-.922-2.115-2.092-2.115-1.169 0-2.091.844-2.091 2.115 0 1.272.922 2.116 2.091 2.116 1.17.002 2.092-.844 2.092-2.116z" fill="#fff"/></svg>