<svg width="60" height="60" fill="none" xmlns="http://www.w3.org/2000/svg"><path d="M31.8 13.801A11.934 11.934 0 0027 12.8c-6.627 0-12 5.386-12 12.03a12.03 12.03 0 008.7 11.569" stroke="#FF579E" stroke-width="3" stroke-linecap="round" stroke-linejoin="round"/><circle cx="10.2" cy="9.2" r="7.2" fill="#FF579E"/><path d="M28.8 18.67c2.088-5.536 7.402-9.47 13.627-9.47C50.475 9.2 57 15.777 57 23.89c0 5.154-2.634 9.688-6.62 12.31M21 48.2c0-3.287 1.993-6.093 4.8-7.2M45.806 57.2c2.218 0 4.277-.695 5.979-1.883A10.848 10.848 0 0056.4 46.4c0-5.965-4.743-10.8-10.594-10.8-1.572 0-3.064.349-4.406.975M32.4 44.6a7.2 7.2 0 010-14.4" stroke="#FF579E" stroke-width="3" stroke-linecap="round" stroke-linejoin="round"/></svg>