<svg width="1417" height="1431" fill="none" xmlns="http://www.w3.org/2000/svg"><g opacity=".4" stroke-width="2"><path d="M194.579 650.904c0-133.721-70.524-222.867 213.107-347.035 283.632-124.169 736.364 123.89 803.364 518.96 42.93 253.111-401.68 372.501-640.851 340.671-239.17-31.84-375.62-378.876-375.62-512.596z" stroke="#FF579E"/><path d="M165.448 787.807c0-133.72 156.381-439.365 440.012-563.534 283.632-124.169 578.45 168.464 645.45 563.534 42.93 253.113-367.951 477.573-607.121 445.733-239.17-31.84-478.341-312.012-478.341-445.733z" stroke="#10E6D9"/><path d="M190.216 532.769c56.46-120.185 326.063-323.705 633.411-306.192 307.353 17.513 531.683 450.529 342.183 800.313-109.96 202.95-532.356 261.73-733.874 124.24-201.517-137.49-298.18-498.177-241.72-618.361z" stroke="#FFA800"/></g></svg>