<svg width="143" height="30" fill="none" xmlns="http://www.w3.org/2000/svg"><path fill-rule="evenodd" clip-rule="evenodd" d="M3.539 14.84L21.249 4.69V.625L0 12.815v4.066l21.248 12.172 10.607-6.09v-4.066l-10.607 6.09L3.538 14.84zm24.778-2.025l-10.624 6.09 3.547 2.042 7.077-4.066v-4.066zm-3.538-6.1L10.624 14.84l3.539 2.042 10.624-6.1V6.717h-.008z" fill="#FF8A00"/><path d="M55.309 18.19v2.688H44.116V6.406H55.05v2.688h-7.61v3.144h6.715v2.601h-6.716v3.351h7.87zM73.742 6.405l-6.259 14.473h-3.306L57.935 6.405h3.616l4.4 10.338 4.46-10.338h3.331zM88.205 18.19v2.688h-11.2V6.405h10.934v2.688h-7.603v3.144h6.716v2.602h-6.716v3.351h7.87zM102.154 20.878l-2.79-4.032h-3.073v4.032h-3.349V6.405h6.26c1.282 0 2.393.216 3.34.638.947.43 1.67 1.034 2.178 1.817.508.784.766 1.715.766 2.792 0 1.076-.258 1.998-.775 2.782-.516.775-1.248 1.378-2.204 1.792l3.246 4.652h-3.599zm-.843-11.096c-.526-.43-1.292-.655-2.29-.655h-2.73v5.049h2.72c1.008 0 1.774-.224 2.291-.664.525-.439.783-1.06.783-1.86.009-.81-.249-1.43-.774-1.87zM119.716 17.777h-6.715l-1.283 3.1h-3.427l6.449-14.472h3.306l6.466 14.473h-3.513l-1.283-3.101zm-1.05-2.542l-2.29-5.539-2.291 5.54h4.581zM128.085 6.405h6.569c1.567 0 2.962.302 4.167.896 1.206.603 2.144 1.447 2.807 2.533.672 1.085.999 2.36.999 3.808 0 1.447-.336 2.713-.999 3.807-.671 1.086-1.601 1.93-2.807 2.533-1.205.603-2.591.896-4.167.896h-6.569V6.405zm6.406 11.725c1.446 0 2.6-.405 3.461-1.206.861-.802 1.291-1.896 1.291-3.274 0-1.378-.43-2.472-1.291-3.273-.861-.802-2.015-1.206-3.461-1.206h-3.057v8.976h3.057v-.017z" fill="#362C50"/></svg>