<svg width="120" height="62" viewBox="0 0 120 62" fill="none" xmlns="http://www.w3.org/2000/svg">
<path d="M118.742 10.0939C105.917 25.9925 76.9581 36.1704 47.4119 42.2598C35.0715 44.8031 22.1075 46.4706 9.45071 48.6051C6.59768 49.0862 3.14361 49.4949 1.07861 50.6172" stroke="#FF579E" stroke-width="2" stroke-linecap="round" stroke-linejoin="round"/>
<path d="M8.5871 42.9817C6.7736 44.5665 4.73335 46.0343 3.2935 47.7497C2.73273 48.4178 2.23837 49.108 1.7735 49.8012C1.6459 49.9914 1.2645 50.4102 1.47849 50.6426C1.72617 50.9117 3.08516 50.8585 3.43271 50.8713C5.82142 50.9591 8.20359 51.0686 10.5866 51.3501C12.0503 51.523 15.7671 51.8054 16.3074 52.8378" stroke="#FF579E" stroke-width="2" stroke-linecap="round" stroke-linejoin="round"/>
</svg>
