<svg width="2182" height="2645" viewBox="0 0 2182 2645" fill="none" xmlns="http://www.w3.org/2000/svg">
<g clip-path="url(#clip0)">
<path d="M1663.95 299V335.591C1684.64 335.591 1700.55 351.5 1700.55 404C1700.55 456.5 1684.64 474 1663.95 474V510.591C1711.68 510.591 1741.91 474 1741.91 404C1741.91 334 1710.09 299 1663.95 299Z" fill="#F0ECF4"/>
<path d="M1627.36 402.409C1627.36 454.909 1643.27 472.409 1663.95 472.409V509C1616.23 509 1586 472.409 1586 402.409C1586 332.409 1616.23 299 1663.95 299V335.591C1643.27 335.591 1627.36 349.909 1627.36 402.409Z" fill="url(#paint0_linear)"/>
</g>
<g clip-path="url(#clip1)">
<path d="M1875 1163V1244.2C1920.9 1244.2 1956.2 1279.5 1956.2 1396C1956.2 1512.5 1920.9 1551.33 1875 1551.33V1632.53C1980.92 1632.53 2048 1551.33 2048 1396C2048 1240.67 1977.39 1163 1875 1163Z" fill="#F0ECF4"/>
<path d="M1793.8 1392.47C1793.8 1508.97 1829.1 1547.8 1875 1547.8V1629C1769.08 1629 1702 1547.8 1702 1392.47C1702 1237.14 1769.08 1163 1875 1163V1244.2C1829.1 1244.2 1793.8 1275.97 1793.8 1392.47Z" fill="url(#paint1_linear)"/>
</g>
<g clip-path="url(#clip2)">
<path d="M346 1517V1549.93C364.572 1549.93 378.857 1564.25 378.857 1611.5C378.857 1658.75 364.572 1674.5 346 1674.5V1707.43C388.857 1707.43 416 1674.5 416 1611.5C416 1548.5 387.429 1517 346 1517Z" fill="#F0ECF4"/>
<path d="M313.143 1610.07C313.143 1657.32 327.429 1673.07 346 1673.07V1706C303.143 1706 276 1673.07 276 1610.07C276 1547.07 303.143 1517 346 1517V1549.93C327.429 1549.93 313.143 1562.82 313.143 1610.07Z" fill="url(#paint2_linear)"/>
</g>
<g clip-path="url(#clip3)">
<path d="M380.046 206V238.409C398.364 238.409 412.455 252.5 412.455 299C412.455 345.5 398.364 361 380.046 361V393.409C422.318 393.409 449.091 361 449.091 299C449.091 237 420.909 206 380.046 206Z" fill="#F0ECF4"/>
<path d="M347.612 298.083C347.612 344.833 361.694 360.417 380 360.417V393C337.755 393 311 360.417 311 298.083C311 235.75 337.755 206 380 206V238.583C361.694 238.583 347.612 251.333 347.612 298.083Z" fill="url(#paint3_linear)"/>
</g>
<g clip-path="url(#clip4)">
<path d="M318.212 455V468.242C325.697 468.242 331.455 474 331.455 493C331.455 512 325.697 518.333 318.212 518.333V531.576C335.485 531.576 346.424 518.333 346.424 493C346.424 467.667 334.909 455 318.212 455Z" fill="#F0ECF4"/>
<path d="M304.97 492.424C304.97 511.424 310.727 517.758 318.212 517.758V531C300.939 531 290 517.758 290 492.424C290 467.091 300.939 455 318.212 455V468.242C310.727 468.242 304.97 473.424 304.97 492.424Z" fill="url(#paint4_linear)"/>
</g>
<g clip-path="url(#clip5)">
<path d="M1898.4 0V21.7803C1910.71 21.7803 1920.18 31.25 1920.18 62.5C1920.18 93.75 1910.71 104.167 1898.4 104.167V125.947C1926.81 125.947 1944.8 104.167 1944.8 62.5C1944.8 20.8333 1925.86 0 1898.4 0Z" fill="#F0ECF4"/>
<path d="M1876.62 61.553C1876.62 92.803 1886.09 103.22 1898.4 103.22V125C1869.99 125 1852 103.22 1852 61.553C1852 19.8864 1869.99 0 1898.4 0V21.7803C1886.09 21.7803 1876.62 30.303 1876.62 61.553Z" fill="url(#paint5_linear)"/>
</g>
<g clip-path="url(#clip6)">
<path d="M1828.4 635V656.78C1840.71 656.78 1850.18 666.25 1850.18 697.5C1850.18 728.75 1840.71 739.167 1828.4 739.167V760.947C1856.81 760.947 1874.8 739.167 1874.8 697.5C1874.8 655.833 1855.86 635 1828.4 635Z" fill="#F0ECF4"/>
<path d="M1806.62 696.553C1806.62 727.803 1816.09 738.22 1828.4 738.22V760C1799.99 760 1782 738.22 1782 696.553C1782 654.886 1799.99 635 1828.4 635V656.78C1816.09 656.78 1806.62 665.303 1806.62 696.553Z" fill="url(#paint6_linear)"/>
</g>
<g clip-path="url(#clip7)">
<path d="M1810.02 208.543V290.165H1772V317H1843.56V208.543H1810.02Z" fill="#F0ECF4"/>
<path d="M1874.87 317H1843.56V290.165H1874.87V317Z" fill="url(#paint7_linear)"/>
<path d="M1843.56 175V208.543H1778.71V188.417C1797.72 185.063 1807.78 181.709 1818.96 175H1843.56Z" fill="url(#paint8_linear)"/>
</g>
<g clip-path="url(#clip8)">
<path d="M1918.06 599.173V633.661H1902V645H1932.24V599.173H1918.06Z" fill="#F0ECF4"/>
<path d="M1945.46 645H1932.24V633.661H1945.46V645Z" fill="url(#paint9_linear)"/>
<path d="M1932.24 585V599.173H1904.83V590.669C1912.87 589.252 1917.12 587.835 1921.84 585H1932.24Z" fill="url(#paint10_linear)"/>
</g>
<g clip-path="url(#clip9)">
<path d="M156.672 89.6515V144.77H131V162.891H179.323V89.6515H156.672Z" fill="#F0ECF4"/>
<path d="M200.465 162.891H179.323V144.77H200.465V162.891Z" fill="url(#paint11_linear)"/>
<path d="M179.323 67V89.6515H135.53V76.0606C148.366 73.7954 155.161 71.5303 162.712 67H179.323Z" fill="url(#paint12_linear)"/>
</g>
<g clip-path="url(#clip10)">
<path d="M1437.27 141.236V214.811H1403V239H1467.5V141.236H1437.27Z" fill="#F0ECF4"/>
<path d="M1495.72 239H1467.5V214.811H1495.72V239Z" fill="url(#paint13_linear)"/>
<path d="M1467.5 111V141.236H1409.05V123.094C1426.18 120.071 1435.25 117.047 1445.33 111H1467.5Z" fill="url(#paint14_linear)"/>
</g>
<g clip-path="url(#clip11)">
<path d="M519.268 484.236V557.811H485V582H549.504V484.236H519.268Z" fill="#F0ECF4"/>
<path d="M577.725 582H549.504V557.811H577.725V582Z" fill="url(#paint15_linear)"/>
<path d="M549.504 454V484.236H491.047V466.094C508.181 463.071 517.252 460.047 527.33 454H549.504Z" fill="url(#paint16_linear)"/>
</g>
<g clip-path="url(#clip12)">
<path d="M1755.54 1126.72V1284.22H1682V1336H1820.43V1126.72H1755.54Z" fill="#F0ECF4"/>
<path d="M1881 1336H1820.44V1284.22H1881V1336Z" fill="url(#paint17_linear)"/>
<path d="M1820.43 1062V1126.72H1694.98V1087.89C1731.75 1081.42 1751.22 1074.94 1772.85 1062H1820.43Z" fill="url(#paint18_linear)"/>
</g>
<g clip-path="url(#clip13)">
<path d="M122.695 1491.19V1754.45H-0.000183105V1841H230.956V1491.19H122.695Z" fill="#F0ECF4"/>
<path d="M332.001 1841H230.957V1754.45H332.001V1841Z" fill="url(#paint19_linear)"/>
<path d="M230.955 1383V1491.19H21.6511V1426.28C82.9989 1415.46 115.477 1404.64 151.564 1383H230.955Z" fill="url(#paint20_linear)"/>
</g>
<g clip-path="url(#clip14)">
<path d="M104.702 619.149V738.746H48.9999V778.065H153.852V619.149H104.702Z" fill="#F0ECF4"/>
<path d="M199.725 778.065H153.852V738.746H199.725V778.065Z" fill="url(#paint21_linear)"/>
<path d="M153.851 570V619.149H58.8293V589.66C86.6806 584.745 101.425 579.83 117.808 570H153.851Z" fill="url(#paint22_linear)"/>
</g>
<g opacity="0.1" filter="url(#filter0_f)">
<path fill-rule="evenodd" clip-rule="evenodd" d="M1910.3 2201.8L1876.42 2306.58L1858.68 2300.82L1892.75 2195.45L1892.86 2195.17C1895.28 2189.05 1900.32 2180.31 1907.95 2172.96C1915.65 2165.54 1926.59 2159 1940.5 2159C1954.54 2159 1964.97 2165.67 1971.99 2173.42C1978.76 2180.9 1982.73 2189.73 1984.42 2195.97L2018.33 2300.82L2000.58 2306.58L1966.53 2201.25L1966.46 2201.01C1965.45 2197.17 1962.73 2191 1958.18 2185.97C1953.77 2181.11 1948.05 2177.68 1940.5 2177.68C1932.82 2177.68 1926.27 2181.23 1920.88 2186.42C1915.53 2191.58 1911.92 2197.82 1910.3 2201.8Z" fill="#FFA800"/>
<path fill-rule="evenodd" clip-rule="evenodd" d="M1750.6 2362.16L1839.41 2424.68L1828.73 2439.85L1739.43 2376.99L1739.2 2376.81C1734.17 2372.79 1727.41 2365.59 1722.7 2356.45C1717.95 2347.25 1714.88 2335.22 1719.04 2322.42C1723.24 2309.49 1732.78 2302.06 1742.13 2298.12C1751.18 2294.32 1760.64 2293.47 1766.96 2293.85L1875.63 2295.48L1875.35 2314.04L1766.21 2312.4L1765.97 2312.38C1762 2312.12 1755.38 2312.68 1749.33 2315.23C1743.47 2317.69 1738.78 2321.69 1736.68 2328.15C1734.54 2334.75 1735.87 2341.52 1739.19 2347.94C1742.47 2354.3 1747.29 2359.46 1750.6 2362.16Z" fill="#ED534B"/>
<path fill-rule="evenodd" clip-rule="evenodd" d="M1848.42 2561.2L1935.32 2496.06L1946.45 2510.9L1859.08 2576.41L1858.84 2576.57C1853.45 2580.1 1844.51 2584.31 1834.37 2585.97C1824.15 2587.64 1811.76 2586.85 1800.87 2578.94C1789.87 2570.94 1785.76 2559.58 1784.9 2549.46C1784.08 2539.68 1786.19 2530.42 1788.51 2524.53L1823.65 2421.68L1841.2 2427.68L1805.92 2530.98L1805.83 2531.2C1804.35 2534.89 1802.84 2541.36 1803.39 2547.9C1803.93 2554.24 1806.28 2559.93 1811.78 2563.92C1817.39 2568 1824.24 2568.83 1831.37 2567.66C1838.43 2566.51 1844.83 2563.51 1848.42 2561.2Z" fill="#FF57C6"/>
<path fill-rule="evenodd" clip-rule="evenodd" d="M2126.4 2361.47L2037.59 2423.98L2048.27 2439.15L2137.57 2376.3L2137.8 2376.12C2142.83 2372.09 2149.59 2364.89 2154.3 2355.75C2159.05 2346.55 2162.12 2334.52 2157.96 2321.72C2153.76 2308.79 2144.22 2301.36 2134.87 2297.42C2125.82 2293.62 2116.36 2292.77 2110.04 2293.16L2001.37 2294.79L2001.65 2313.34L2110.79 2311.7L2111.03 2311.69C2115 2311.42 2121.62 2311.98 2127.67 2314.53C2133.53 2316.99 2138.22 2321 2140.32 2327.46C2142.46 2334.05 2141.13 2340.82 2137.81 2347.25C2134.53 2353.6 2129.71 2358.76 2126.4 2361.47Z" fill="#10E6D9"/>
<path fill-rule="evenodd" clip-rule="evenodd" d="M2027.6 2561.2L1940.7 2496.06L1929.57 2510.9L2016.95 2576.41L2017.19 2576.57C2022.57 2580.1 2031.51 2584.31 2041.65 2585.97C2051.87 2587.64 2064.26 2586.85 2075.15 2578.94C2086.15 2570.94 2090.27 2559.58 2091.12 2549.46C2091.95 2539.68 2089.83 2530.42 2087.51 2524.53L2052.38 2421.68L2034.82 2427.68L2070.1 2530.98L2070.19 2531.2C2071.67 2534.89 2073.18 2541.36 2072.63 2547.9C2072.1 2554.24 2069.74 2559.93 2064.24 2563.92C2058.63 2568 2051.78 2568.83 2044.65 2567.66C2037.59 2566.51 2031.19 2563.51 2027.6 2561.2Z" fill="#9F72FF"/>
</g>
<defs>
<filter id="filter0_f" x="1675" y="2139" width="504.918" height="505.657" filterUnits="userSpaceOnUse" color-interpolation-filters="sRGB">
<feFlood flood-opacity="0" result="BackgroundImageFix"/>
<feBlend mode="normal" in="SourceGraphic" in2="BackgroundImageFix" result="shape"/>
<feGaussianBlur stdDeviation="10" result="effect1_foregroundBlur"/>
</filter>
<linearGradient id="paint0_linear" x1="1624.82" y1="508.841" x2="1624.82" y2="299" gradientUnits="userSpaceOnUse">
<stop stop-color="#F0ECF4"/>
<stop offset="1" stop-color="#F0ECF4" stop-opacity="0"/>
</linearGradient>
<linearGradient id="paint1_linear" x1="1788.15" y1="1628.65" x2="1788.15" y2="1163" gradientUnits="userSpaceOnUse">
<stop stop-color="#F0ECF4"/>
<stop offset="1" stop-color="#F0ECF4" stop-opacity="0"/>
</linearGradient>
<linearGradient id="paint2_linear" x1="310.857" y1="1705.86" x2="310.857" y2="1517" gradientUnits="userSpaceOnUse">
<stop stop-color="#F0ECF4"/>
<stop offset="1" stop-color="#F0ECF4" stop-opacity="0"/>
</linearGradient>
<linearGradient id="paint3_linear" x1="345.359" y1="392.858" x2="345.359" y2="206" gradientUnits="userSpaceOnUse">
<stop stop-color="#F0ECF4"/>
<stop offset="1" stop-color="#F0ECF4" stop-opacity="0"/>
</linearGradient>
<linearGradient id="paint4_linear" x1="304.048" y1="530.942" x2="304.048" y2="455" gradientUnits="userSpaceOnUse">
<stop stop-color="#F0ECF4"/>
<stop offset="1" stop-color="#F0ECF4" stop-opacity="0"/>
</linearGradient>
<linearGradient id="paint5_linear" x1="1875.11" y1="124.905" x2="1875.11" y2="0" gradientUnits="userSpaceOnUse">
<stop stop-color="#F0ECF4"/>
<stop offset="1" stop-color="#F0ECF4" stop-opacity="0"/>
</linearGradient>
<linearGradient id="paint6_linear" x1="1805.11" y1="759.905" x2="1805.11" y2="635" gradientUnits="userSpaceOnUse">
<stop stop-color="#F0ECF4"/>
<stop offset="1" stop-color="#F0ECF4" stop-opacity="0"/>
</linearGradient>
<linearGradient id="paint7_linear" x1="1875.4" y1="303.829" x2="1843.11" y2="303.829" gradientUnits="userSpaceOnUse">
<stop stop-color="#F0ECF4"/>
<stop offset="1" stop-color="#F0ECF4" stop-opacity="0"/>
</linearGradient>
<linearGradient id="paint8_linear" x1="1778.71" y1="191.716" x2="1843.11" y2="191.716" gradientUnits="userSpaceOnUse">
<stop stop-color="#F0ECF4"/>
<stop offset="1" stop-color="#F0ECF4" stop-opacity="0"/>
</linearGradient>
<linearGradient id="paint9_linear" x1="1945.69" y1="639.435" x2="1932.05" y2="639.435" gradientUnits="userSpaceOnUse">
<stop stop-color="#F0ECF4"/>
<stop offset="1" stop-color="#F0ECF4" stop-opacity="0"/>
</linearGradient>
<linearGradient id="paint10_linear" x1="1904.83" y1="592.063" x2="1932.05" y2="592.063" gradientUnits="userSpaceOnUse">
<stop stop-color="#F0ECF4"/>
<stop offset="1" stop-color="#F0ECF4" stop-opacity="0"/>
</linearGradient>
<linearGradient id="paint11_linear" x1="200.825" y1="153.997" x2="179.021" y2="153.997" gradientUnits="userSpaceOnUse">
<stop stop-color="#F0ECF4"/>
<stop offset="1" stop-color="#F0ECF4" stop-opacity="0"/>
</linearGradient>
<linearGradient id="paint12_linear" x1="135.53" y1="78.288" x2="179.021" y2="78.288" gradientUnits="userSpaceOnUse">
<stop stop-color="#F0ECF4"/>
<stop offset="1" stop-color="#F0ECF4" stop-opacity="0"/>
</linearGradient>
<linearGradient id="paint13_linear" x1="1496.21" y1="227.127" x2="1467.1" y2="227.127" gradientUnits="userSpaceOnUse">
<stop stop-color="#F0ECF4"/>
<stop offset="1" stop-color="#F0ECF4" stop-opacity="0"/>
</linearGradient>
<linearGradient id="paint14_linear" x1="1409.05" y1="126.068" x2="1467.1" y2="126.068" gradientUnits="userSpaceOnUse">
<stop stop-color="#F0ECF4"/>
<stop offset="1" stop-color="#F0ECF4" stop-opacity="0"/>
</linearGradient>
<linearGradient id="paint15_linear" x1="578.205" y1="570.127" x2="549.101" y2="570.127" gradientUnits="userSpaceOnUse">
<stop stop-color="#F0ECF4"/>
<stop offset="1" stop-color="#F0ECF4" stop-opacity="0"/>
</linearGradient>
<linearGradient id="paint16_linear" x1="491.047" y1="469.068" x2="549.101" y2="469.068" gradientUnits="userSpaceOnUse">
<stop stop-color="#F0ECF4"/>
<stop offset="1" stop-color="#F0ECF4" stop-opacity="0"/>
</linearGradient>
<linearGradient id="paint17_linear" x1="1882.03" y1="1310.58" x2="1819.57" y2="1310.58" gradientUnits="userSpaceOnUse">
<stop stop-color="#F0ECF4"/>
<stop offset="1" stop-color="#F0ECF4" stop-opacity="0"/>
</linearGradient>
<linearGradient id="paint18_linear" x1="1694.98" y1="1094.25" x2="1819.57" y2="1094.25" gradientUnits="userSpaceOnUse">
<stop stop-color="#F0ECF4"/>
<stop offset="1" stop-color="#F0ECF4" stop-opacity="0"/>
</linearGradient>
<linearGradient id="paint19_linear" x1="333.722" y1="1798.52" x2="229.514" y2="1798.52" gradientUnits="userSpaceOnUse">
<stop stop-color="#F0ECF4"/>
<stop offset="1" stop-color="#F0ECF4" stop-opacity="0"/>
</linearGradient>
<linearGradient id="paint20_linear" x1="21.6511" y1="1436.91" x2="229.512" y2="1436.91" gradientUnits="userSpaceOnUse">
<stop stop-color="#F0ECF4"/>
<stop offset="1" stop-color="#F0ECF4" stop-opacity="0"/>
</linearGradient>
<linearGradient id="paint21_linear" x1="200.506" y1="758.766" x2="153.197" y2="758.766" gradientUnits="userSpaceOnUse">
<stop stop-color="#F0ECF4"/>
<stop offset="1" stop-color="#F0ECF4" stop-opacity="0"/>
</linearGradient>
<linearGradient id="paint22_linear" x1="58.8293" y1="594.493" x2="153.196" y2="594.493" gradientUnits="userSpaceOnUse">
<stop stop-color="#F0ECF4"/>
<stop offset="1" stop-color="#F0ECF4" stop-opacity="0"/>
</linearGradient>
<clipPath id="clip0">
<rect width="155.909" height="210" fill="white" transform="translate(1586 299)"/>
</clipPath>
<clipPath id="clip1">
<rect width="346" height="466" fill="white" transform="translate(1702 1163)"/>
</clipPath>
<clipPath id="clip2">
<rect width="140" height="189" fill="white" transform="translate(276 1517)"/>
</clipPath>
<clipPath id="clip3">
<rect width="138" height="187" fill="white" transform="translate(311 206)"/>
</clipPath>
<clipPath id="clip4">
<rect width="56.4242" height="76" fill="white" transform="translate(290 455)"/>
</clipPath>
<clipPath id="clip5">
<rect width="92.803" height="125" fill="white" transform="translate(1852)"/>
</clipPath>
<clipPath id="clip6">
<rect width="92.803" height="125" fill="white" transform="translate(1782 635)"/>
</clipPath>
<clipPath id="clip7">
<rect width="102.866" height="142" fill="white" transform="translate(1772 175)"/>
</clipPath>
<clipPath id="clip8">
<rect width="43.4646" height="60" fill="white" transform="translate(1902 585)"/>
</clipPath>
<clipPath id="clip9">
<rect width="69.4646" height="95.8913" fill="white" transform="translate(131 67)"/>
</clipPath>
<clipPath id="clip10">
<rect width="92.7244" height="128" fill="white" transform="translate(1403 111)"/>
</clipPath>
<clipPath id="clip11">
<rect width="92.7244" height="128" fill="white" transform="translate(485 454)"/>
</clipPath>
<clipPath id="clip12">
<rect width="199" height="274" fill="white" transform="translate(1682 1062)"/>
</clipPath>
<clipPath id="clip13">
<rect width="332" height="458" fill="white" transform="translate(0 1383)"/>
</clipPath>
<clipPath id="clip14">
<rect width="150.724" height="208.065" fill="white" transform="translate(49 570)"/>
</clipPath>
</defs>
</svg>
