<svg width="48" height="48" viewBox="0 0 48 48" fill="none" xmlns="http://www.w3.org/2000/svg">
<path fill-rule="evenodd" clip-rule="evenodd" d="M2 16C2 10.4772 6.47715 6 12 6H36C41.5228 6 46 10.4772 46 16V32C46 37.5228 41.5228 42 36 42H12C6.47715 42 2 37.5228 2 32V16ZM12 10C8.68629 10 6 12.6863 6 16V32C6 35.3137 8.68629 38 12 38H36C39.3137 38 42 35.3137 42 32V16C42 12.6863 39.3137 10 36 10H12Z" fill="#FF57C6"/>
<path d="M12 4C12 2.89543 12.8954 2 14 2C15.1046 2 16 2.89543 16 4V12C16 13.1046 15.1046 14 14 14C12.8954 14 12 13.1046 12 12V4Z" fill="#FF57C6"/>
<path d="M32 4C32 2.89543 32.8954 2 34 2C35.1046 2 36 2.89543 36 4V12C36 13.1046 35.1046 14 34 14C32.8954 14 32 13.1046 32 12V4Z" fill="#FF57C6"/>
<path d="M10 21C10 20.4477 10.4477 20 11 20H13C13.5523 20 14 20.4477 14 21V23C14 23.5523 13.5523 24 13 24H11C10.4477 24 10 23.5523 10 23V21Z" fill="#FF57C6"/>
<path d="M18 21C18 20.4477 18.4477 20 19 20H21C21.5523 20 22 20.4477 22 21V23C22 23.5523 21.5523 24 21 24H19C18.4477 24 18 23.5523 18 23V21Z" fill="#FF57C6"/>
<path d="M26 21C26 20.4477 26.4477 20 27 20H29C29.5523 20 30 20.4477 30 21V23C30 23.5523 29.5523 24 29 24H27C26.4477 24 26 23.5523 26 23V21Z" fill="#FF57C6"/>
<path d="M34 21C34 20.4477 34.4477 20 35 20H37C37.5523 20 38 20.4477 38 21V23C38 23.5523 37.5523 24 37 24H35C34.4477 24 34 23.5523 34 23V21Z" fill="#FF57C6"/>
<path d="M10 29C10 28.4477 10.4477 28 11 28H13C13.5523 28 14 28.4477 14 29V31C14 31.5523 13.5523 32 13 32H11C10.4477 32 10 31.5523 10 31V29Z" fill="#FF57C6"/>
<path d="M18 29C18 28.4477 18.4477 28 19 28H21C21.5523 28 22 28.4477 22 29V31C22 31.5523 21.5523 32 21 32H19C18.4477 32 18 31.5523 18 31V29Z" fill="#FF57C6"/>
<path d="M26 29C26 28.4477 26.4477 28 27 28H29C29.5523 28 30 28.4477 30 29V31C30 31.5523 29.5523 32 29 32H27C26.4477 32 26 31.5523 26 31V29Z" fill="#FF57C6"/>
<path d="M34 29C34 28.4477 34.4477 28 35 28H37C37.5523 28 38 28.4477 38 29V31C38 31.5523 37.5523 32 37 32H35C34.4477 32 34 31.5523 34 31V29Z" fill="#FF57C6"/>
</svg>
