<svg width="852" height="293" viewBox="0 0 852 293" fill="none" xmlns="http://www.w3.org/2000/svg">
<g opacity="0.037037">
<path opacity="0.037037" d="M113.523 200.515H108.795V122.033H113.523C132.434 122.033 145.672 131.489 145.672 160.801C145.672 190.114 132.434 200.515 113.523 200.515ZM114.468 99.3392H80.4277V222.264H116.359C150.4 222.264 174.039 202.407 174.039 159.856C174.039 118.251 150.4 99.3392 114.468 99.3392Z" stroke="#FF579E"/>
<path opacity="0.037037" d="M194.842 122.979H223.209V199.57H194.842V222.264H279.943V199.57H251.576V122.979H279.943V99.3392H194.842V122.979Z" stroke="#FF579E"/>
<path opacity="0.037037" d="M354.644 175.931H372.61V197.679C369.773 199.57 365.045 200.516 360.317 200.516C340.46 200.516 331.004 185.386 331.004 160.802C331.004 136.217 343.297 121.088 359.372 121.088C368.827 121.088 374.501 124.87 380.174 129.598L395.303 112.577C387.739 104.067 375.446 96.5026 359.372 96.5026C327.222 96.5026 302.637 120.142 302.637 160.802C302.637 202.407 328.168 224.155 359.372 224.155C375.446 224.155 389.63 216.59 398.14 209.026V152.291H355.589V175.931H354.644Z" stroke="#FF579E"/>
<path opacity="0.037037" d="M421.779 122.979H450.146V199.57H421.779V222.264H506.881V199.57H478.513V122.979H506.881V99.3392H421.779V122.979Z" stroke="#FF579E"/>
<path opacity="0.037037" d="M526.738 122.979H563.615V222.264H591.982V122.979H628.86V99.3392H526.738V122.979Z" stroke="#FF579E"/>
<path opacity="0.037037" d="M678.029 172.148L680.866 160.801C683.703 148.509 687.485 134.325 690.322 121.087H691.267C694.104 134.325 697.886 148.509 700.723 160.801L703.56 172.148H678.029ZM675.193 99.3392L636.424 222.264H664.791L672.356 192.951H709.233L716.798 222.264H746.111L707.342 99.3392H675.193V99.3392Z" stroke="#FF579E"/>
<path opacity="0.037037" d="M796.226 199.57V99.3392H768.804V222.264H851.069V199.57H796.226Z" stroke="#FF579E"/>
</g>
<g opacity="0.0740741">
<path opacity="0.0740741" d="M109.741 196.734H105.013V118.251H109.741C128.652 118.251 141.89 127.707 141.89 157.019C142.836 186.332 129.598 196.734 109.741 196.734ZM111.632 95.5573H77.5913V218.482H113.523C147.564 218.482 171.203 198.625 171.203 156.074C171.203 114.469 147.564 95.5573 111.632 95.5573Z" stroke="#FF579E"/>
<path opacity="0.0740741" d="M192.005 119.197H220.373V195.788H192.005V219.427H277.107V195.788H248.74V119.197H277.107V95.5573H192.005V119.197Z" stroke="#FF579E"/>
<path opacity="0.0740741" d="M351.807 172.149H369.773V193.897C366.936 195.788 362.209 197.679 357.481 197.679C337.624 197.679 328.168 182.55 328.168 157.965C328.168 133.38 340.46 118.251 356.535 118.251C365.991 118.251 371.664 122.033 377.338 126.761L392.467 109.741C384.902 101.231 372.61 93.666 356.535 93.666C324.386 93.666 299.801 117.305 299.801 157.965C299.801 199.57 325.331 221.318 356.535 221.318C372.61 221.318 386.793 213.754 395.304 206.189V149.455H352.753V172.149H351.807Z" stroke="#FF579E"/>
<path opacity="0.0740741" d="M418.943 119.197H447.31V195.788H418.943V219.427H504.044V195.788H475.677V119.197H504.044V95.5573H418.943V119.197Z" stroke="#FF579E"/>
<path opacity="0.0740741" d="M523.902 119.197H560.779V219.427H589.146V119.197H626.023V95.5573H523.902V119.197Z" stroke="#FF579E"/>
<path opacity="0.0740741" d="M675.193 168.366L678.03 157.019C680.866 144.727 684.649 130.543 687.485 117.305H688.431C691.268 130.543 695.05 144.727 697.887 157.019L700.724 168.366H675.193ZM671.411 95.5573L632.642 218.482H661.009L668.574 189.169H705.451L713.016 218.482H742.329L703.56 95.5573H671.411Z" stroke="#FF579E"/>
<path opacity="0.0740741" d="M793.39 195.788V95.5573H765.022V219.427H848.233V195.788H793.39Z" stroke="#FF579E"/>
</g>
<g opacity="0.1111">
<path opacity="0.1111" d="M106.904 192.951H102.176V114.469H106.904C125.816 114.469 139.054 123.925 139.054 153.237C139.054 182.55 125.816 192.951 106.904 192.951ZM108.795 91.7751H74.7546V214.699H110.686C144.727 214.699 168.366 194.842 168.366 152.292C168.366 110.687 144.727 91.7751 108.795 91.7751Z" stroke="#FF579E"/>
<path opacity="0.1111" d="M189.169 115.414H217.536V192.006H189.169V215.645H274.27V192.006H244.957V115.414H274.27V91.7751H189.169V115.414Z" stroke="#FF579E"/>
<path opacity="0.1111" d="M348.971 168.366H366.936V190.114C364.1 192.006 359.372 193.897 354.644 193.897C334.787 193.897 325.331 178.768 325.331 154.183C325.331 129.598 337.624 114.469 353.698 114.469C363.154 114.469 368.828 118.251 374.501 122.979L389.63 105.959C382.066 97.4484 369.773 89.8838 353.698 89.8838C321.549 89.8838 296.964 113.523 296.964 154.183C296.964 195.788 322.495 217.536 353.698 217.536C369.773 217.536 383.957 209.971 392.467 202.407V145.673H349.916V168.366H348.971Z" stroke="#FF579E"/>
<path opacity="0.1111" d="M416.106 115.414H444.473V192.006H416.106V215.645H501.207V192.006H471.895V115.414H501.207V91.7751H416.106V115.414Z" stroke="#FF579E"/>
<path opacity="0.1111" d="M521.065 115.414H557.942V215.645H585.364V115.414H623.187V91.7751H521.065V115.414Z" stroke="#FF579E"/>
<path opacity="0.1111" d="M671.411 164.584L674.248 153.237C677.084 140.945 680.867 126.761 683.703 113.523H684.649C687.486 126.761 691.268 140.945 694.105 153.237L696.941 164.584H671.411ZM668.574 91.7751L629.806 214.699H658.173L665.737 185.387H702.615L710.179 214.699H739.492L700.724 91.7751H668.574V91.7751Z" stroke="#FF579E"/>
<path opacity="0.1111" d="M789.607 192.006V91.7751H762.186V215.645H845.396V192.006H789.607Z" stroke="#FF579E"/>
</g>
<g opacity="0.1481">
<path opacity="0.1481" d="M104.067 189.169H99.3396V110.687H104.067C122.979 110.687 136.217 120.142 136.217 149.455C136.217 178.768 122.979 189.169 104.067 189.169ZM105.959 87.9928H71.918V210.917H107.85C141.89 210.917 165.53 191.06 165.53 148.509C164.584 106.904 140.945 87.9928 105.959 87.9928Z" stroke="#FF579E"/>
<path opacity="0.1481" d="M185.387 111.632H214.699V188.223H185.387V211.863H271.434V188.223H242.121V111.632H271.434V87.9928H185.387V111.632Z" stroke="#FF579E"/>
<path opacity="0.1481" d="M345.188 164.584H363.154V186.332C360.317 188.223 355.59 190.115 350.862 190.115C331.95 190.115 322.495 174.985 322.495 149.455C322.495 124.87 334.787 109.741 350.862 109.741C360.318 109.741 365.991 113.523 371.664 118.251L386.794 101.231C378.283 93.6661 366.937 86.1016 350.862 86.1016C318.712 86.1016 294.127 109.741 294.127 150.4C294.127 192.006 319.658 213.754 350.862 213.754C366.937 213.754 381.12 206.189 389.63 198.625V141.89H347.079V164.584H345.188Z" stroke="#FF579E"/>
<path opacity="0.1481" d="M412.324 111.632H441.637V188.223H412.324V211.863H498.371V188.223H469.058V111.632H498.371V87.9928H412.324V111.632Z" stroke="#FF579E"/>
<path opacity="0.1481" d="M518.228 111.632H555.105V211.863H582.527V111.632H619.404V87.9928H518.228V111.632Z" stroke="#FF579E"/>
<path opacity="0.1481" d="M668.574 160.802L671.411 149.455C674.248 137.163 678.03 122.979 680.867 109.741H681.812C684.649 122.979 688.431 137.163 691.268 149.455L694.105 160.802H668.574ZM665.738 87.9928L626.969 210.917H655.336L662.901 181.604H700.724L708.288 210.917H737.601L698.833 87.9928H665.738Z" stroke="#FF579E"/>
<path opacity="0.1481" d="M786.771 188.223V87.9928H759.349V211.863H841.614V188.223H786.771Z" stroke="#FF579E"/>
</g>
<g opacity="0.1852">
<path opacity="0.1852" d="M101.231 185.387H96.5027V106.904H101.231C120.142 106.904 133.38 116.36 133.38 145.673C133.38 174.985 120.142 185.387 101.231 185.387ZM102.176 84.2103H68.1355V207.135H104.067C138.108 207.135 161.747 187.278 161.747 144.727C161.747 103.122 138.108 84.2103 102.176 84.2103Z" stroke="#FF579E"/>
<path opacity="0.1852" d="M182.55 107.85H210.917V184.441H182.55V208.08H267.651V184.441H239.284V107.85H267.651V84.2103H182.55V107.85Z" stroke="#FF579E"/>
<path opacity="0.1852" d="M342.351 160.802H360.317V182.55C357.481 184.441 352.753 186.332 348.025 186.332C328.168 186.332 318.712 171.203 318.712 146.618C318.712 122.033 331.005 106.904 347.079 106.904C356.535 106.904 362.208 110.686 367.882 115.414L383.011 98.3938C375.446 89.8836 363.154 82.3191 347.079 82.3191C314.93 82.3191 290.345 105.958 290.345 146.618C290.345 188.223 315.875 209.971 347.079 209.971C363.154 209.971 377.338 202.407 385.848 194.842V138.108H343.297V160.802H342.351Z" stroke="#FF579E"/>
<path opacity="0.1852" d="M409.487 107.85H437.854V184.441H409.487V208.08H494.588V184.441H466.221V107.85H494.588V84.2103H409.487V107.85Z" stroke="#FF579E"/>
<path opacity="0.1852" d="M514.446 107.85H551.323V208.08H579.69V107.85H616.568V84.2103H514.446V107.85Z" stroke="#FF579E"/>
<path opacity="0.1852" d="M665.737 157.019L668.574 145.673C671.41 133.38 675.193 119.197 678.029 105.958H678.975C681.812 119.197 685.594 133.38 688.431 145.673L691.267 157.019H665.737ZM662.9 84.2103L624.132 207.135H652.499L660.064 177.822H696.941L704.505 207.135H733.818L695.05 84.2103H662.9Z" stroke="#FF579E"/>
<path opacity="0.1852" d="M783.934 184.441V84.2103H756.512V208.08H838.777V184.441H783.934Z" stroke="#FF579E"/>
</g>
<g opacity="0.2222">
<path opacity="0.2222" d="M97.4483 181.604H93.666V103.122H98.3939C117.305 103.122 130.543 112.577 130.543 141.89C130.543 171.203 117.305 181.604 97.4483 181.604ZM99.3394 81.3734H65.2988V204.298H101.231C135.271 204.298 158.91 184.441 158.91 141.89C158.91 99.3393 135.271 81.3734 99.3394 81.3734Z" stroke="#FF579E"/>
<path opacity="0.2222" d="M179.713 104.067H208.08V180.659H179.713V204.298H264.814V180.659H236.447V104.067H264.814V81.3734H179.713V104.067Z" stroke="#FF579E"/>
<path opacity="0.2222" d="M339.515 157.019H357.481V178.767C354.644 180.659 349.916 182.55 345.188 182.55C325.331 182.55 315.875 167.421 315.875 142.836C315.875 118.251 328.168 103.122 344.243 103.122C353.698 103.122 359.372 106.904 365.045 111.632L380.174 94.6115C372.61 86.1014 360.317 78.5368 344.243 78.5368C312.093 78.5368 287.508 102.176 287.508 142.836C287.508 184.441 313.039 206.189 344.243 206.189C360.317 206.189 374.501 198.624 383.011 191.06V134.326H340.46V157.019H339.515Z" stroke="#FF579E"/>
<path opacity="0.2222" d="M406.65 104.067H435.017V180.659H406.65V204.298H491.752V180.659H463.384V104.067H491.752V81.3734H406.65V104.067Z" stroke="#FF579E"/>
<path opacity="0.2222" d="M511.609 104.067H548.486V204.298H576.854V104.067H613.731V81.3734H511.609V104.067Z" stroke="#FF579E"/>
<path opacity="0.2222" d="M662.901 153.237L665.737 141.89C668.574 129.598 672.356 115.414 675.193 102.176H676.139C678.975 115.414 682.758 129.598 685.594 141.89L688.431 153.237H662.901ZM659.118 81.3734L620.35 204.298H648.717L656.282 174.985H693.159L700.723 204.298H730.036L691.268 81.3734H659.118Z" stroke="#FF579E"/>
<path opacity="0.2222" d="M781.097 180.659V81.3734H752.73V204.298H835.94V180.659H781.097Z" stroke="#FF579E"/>
</g>
<g opacity="0.2593">
<path opacity="0.2593" d="M94.6119 177.822H89.884V99.3394H94.6119C113.523 99.3394 126.761 108.795 126.761 138.108C126.761 167.421 114.469 177.822 94.6119 177.822ZM96.503 77.5912H62.4624V200.516H98.3941C132.435 200.516 156.074 180.659 156.074 138.108C156.074 95.5571 132.435 77.5912 96.503 77.5912Z" stroke="#FF579E"/>
<path opacity="0.2593" d="M176.876 100.285H205.244V176.876H176.876V200.516H261.978V176.876H233.611V100.285H261.978V77.5912H176.876V100.285Z" stroke="#FF579E"/>
<path opacity="0.2593" d="M336.678 154.183H354.644V175.931C351.808 177.822 347.08 179.713 342.352 179.713C322.495 179.713 313.039 164.584 313.039 139.999C313.039 115.414 325.331 100.285 341.406 100.285C350.862 100.285 356.535 104.067 362.209 108.795L377.338 91.7749C369.773 82.3192 357.481 74.7546 341.406 74.7546C309.257 74.7546 284.672 98.3939 284.672 139.054C284.672 180.659 310.202 202.407 341.406 202.407C357.481 202.407 371.665 194.842 380.175 187.278V130.543H337.624V154.183H336.678Z" stroke="#FF579E"/>
<path opacity="0.2593" d="M403.814 100.285H432.181V176.876H403.814V200.516H488.915V176.876H460.548V100.285H488.915V77.5912H403.814V100.285Z" stroke="#FF579E"/>
<path opacity="0.2593" d="M508.772 100.285H545.65V200.516H574.017V100.285H610.894V77.5912H508.772V100.285Z" stroke="#FF579E"/>
<path opacity="0.2593" d="M660.064 149.455L662.901 138.108C665.738 125.815 669.52 111.632 672.357 98.3938H673.302C676.139 111.632 679.921 125.815 682.758 138.108L685.595 149.455H660.064ZM656.282 77.5912L617.513 200.516H645.881L653.445 171.203H691.268L698.833 200.516H728.145L689.377 77.5912H656.282V77.5912Z" stroke="#FF579E"/>
<path opacity="0.2593" d="M778.261 176.876V77.5912H749.894V200.516H833.104V176.876H778.261Z" stroke="#FF579E"/>
</g>
<g opacity="0.2963">
<path opacity="0.2963" d="M91.7752 174.04H87.0473V95.5571H91.7752C110.687 95.5571 123.925 105.013 123.925 134.326C123.925 164.584 110.687 174.04 91.7752 174.04ZM93.6663 73.809H59.6257V196.733H95.5575C129.598 196.733 153.237 176.876 153.237 134.326C152.292 92.7204 128.653 73.809 93.6663 73.809Z" stroke="#FF579E"/>
<path opacity="0.2963" d="M173.094 96.5027H202.407V173.094H173.094V196.733H259.142V173.094H229.829V96.5027H259.142V73.809H173.094V96.5027Z" stroke="#FF579E"/>
<path opacity="0.2963" d="M333.842 150.4H350.862V171.203C348.026 173.094 343.298 174.985 338.57 174.985C318.713 174.985 309.257 159.856 309.257 135.271C309.257 110.686 321.549 95.5573 337.624 95.5573C347.08 95.5573 352.753 99.3395 358.427 104.067L373.556 87.0471C365.991 78.537 353.699 70.9724 337.624 70.9724C305.475 70.9724 280.89 94.6117 280.89 135.271C280.89 176.876 306.42 198.625 337.624 198.625C353.699 198.625 367.883 191.06 376.393 183.495V126.761H333.842V150.4V150.4Z" stroke="#FF579E"/>
<path opacity="0.2963" d="M400.032 96.5027H429.344V173.094H400.032V196.733H486.079V173.094H456.766V96.5027H486.079V73.809H400.032V96.5027Z" stroke="#FF579E"/>
<path opacity="0.2963" d="M505.936 96.5027H542.813V196.733H570.235V96.5027H607.112V73.809H505.936V96.5027Z" stroke="#FF579E"/>
<path opacity="0.2963" d="M656.282 145.672L659.119 134.326C661.955 122.033 665.738 107.85 668.574 94.6116H669.52C672.357 107.85 676.139 122.033 678.976 134.326L681.812 145.672H656.282ZM653.445 73.809L614.677 196.733H643.044L650.608 167.421H687.486L695.05 196.733H724.363L685.595 73.809H653.445V73.809Z" stroke="#FF579E"/>
<path opacity="0.2963" d="M774.478 173.094V73.809H747.057V196.733H829.322V173.094H774.478Z" stroke="#FF579E"/>
</g>
<g opacity="0.3333">
<path opacity="0.3333" d="M88.9383 170.257H84.2104V92.7204H88.9383C107.85 92.7204 121.088 102.176 121.088 131.489C121.088 160.802 107.85 170.257 88.9383 170.257ZM89.8839 70.0267H55.8433V192.951H91.775C125.816 192.951 149.455 173.094 149.455 130.543C149.455 88.9382 125.816 70.0267 89.8839 70.0267Z" stroke="#FF579E"/>
<path opacity="0.3333" d="M170.257 93.666H199.57V169.312H170.257V192.951H255.359V169.312H226.992V93.666H255.359V70.0267H170.257V93.666Z" stroke="#FF579E"/>
<path opacity="0.3333" d="M330.059 146.618H348.025V168.366C345.188 170.257 340.461 172.149 335.733 172.149C315.876 172.149 306.42 157.019 306.42 132.435C306.42 107.85 318.712 92.7206 334.787 92.7206C344.243 92.7206 349.916 96.5029 355.59 101.231L370.719 84.2104C363.154 74.7547 351.807 67.1901 334.787 67.1901C302.638 67.1901 278.053 90.8294 278.053 131.489C278.053 173.094 303.583 194.842 334.787 194.842C350.862 194.842 365.045 187.278 373.556 179.713V122.979H331.005V146.618H330.059Z" stroke="#FF579E"/>
<path opacity="0.3333" d="M397.195 93.666H426.507V169.312H397.195V192.951H482.296V169.312H453.929V93.666H482.296V70.0267H397.195V93.666Z" stroke="#FF579E"/>
<path opacity="0.3333" d="M502.154 93.666H539.976V192.951H567.398V93.666H604.275V70.0267H502.154V93.666Z" stroke="#FF579E"/>
<path opacity="0.3333" d="M653.445 141.89L656.282 130.543C659.118 118.251 662.901 104.067 665.737 90.8293H666.683C669.52 104.067 673.302 118.251 676.139 130.543L678.975 141.89H653.445V141.89ZM650.608 70.0267L611.84 192.951H640.207L647.771 163.638H684.649L692.213 192.951H721.526L682.758 70.0267H650.608V70.0267Z" stroke="#FF579E"/>
<path opacity="0.3333" d="M771.641 169.312V70.0267H744.22V192.951H826.485V169.312H771.641Z" stroke="#FF579E"/>
</g>
<g opacity="0.3704">
<path opacity="0.3704" d="M85.156 167.421H81.3738V88.9382H86.1016C105.013 88.9382 118.251 98.3939 118.251 127.707C118.251 157.019 105.013 167.421 85.156 167.421ZM87.0472 66.2445H53.0066V189.169H88.9383C122.979 189.169 146.618 169.312 146.618 126.761C146.618 85.1559 122.979 66.2445 87.0472 66.2445Z" stroke="#FF579E"/>
<path opacity="0.3704" d="M167.421 89.8838H195.788V166.475H167.421V189.169H252.522V166.475H224.155V89.8838H252.522V66.2445H167.421V89.8838Z" stroke="#FF579E"/>
<path opacity="0.3704" d="M327.223 142.836H345.188V164.584C342.352 166.475 337.624 168.366 332.896 168.366C313.039 168.366 303.583 153.237 303.583 128.652C303.583 104.067 315.876 88.9381 331.95 88.9381C341.406 88.9381 347.08 92.7204 352.753 97.4482L367.882 80.4279C360.318 71.9178 348.971 64.3532 331.95 64.3532C299.801 64.3532 275.216 87.9925 275.216 128.652C275.216 170.257 300.747 192.005 331.95 192.005C348.025 192.005 362.209 184.441 370.719 176.876V120.142H328.168V142.836H327.223Z" stroke="#FF579E"/>
<path opacity="0.3704" d="M394.358 89.8838H422.725V166.475H394.358V189.169H479.459V166.475H451.092V89.8838H479.459V66.2445H394.358V89.8838Z" stroke="#FF579E"/>
<path opacity="0.3704" d="M499.317 89.8838H536.194V189.169H564.561V89.8838H601.439V66.2445H499.317V89.8838Z" stroke="#FF579E"/>
<path opacity="0.3704" d="M650.608 138.108L653.445 126.761C656.282 114.469 660.064 100.285 662.901 87.0471H663.846C666.683 100.285 670.465 114.469 673.302 126.761L676.139 138.108H650.608ZM646.826 66.2445L608.058 189.169H636.425L643.989 159.856H681.812L689.377 189.169H718.69L679.921 66.2445H646.826V66.2445Z" stroke="#FF579E"/>
<path opacity="0.3704" d="M768.805 166.475V66.2445H740.438V189.169H823.648V166.475H768.805Z" stroke="#FF579E"/>
</g>
<g opacity="0.4074">
<path opacity="0.4074" d="M82.3194 163.638H77.5915V85.156H82.3194C101.231 85.156 114.469 94.6117 114.469 123.924C114.469 153.237 102.176 163.638 82.3194 163.638ZM84.2105 62.4622H50.1699V185.387H86.1017C120.142 185.387 143.782 165.53 143.782 122.979C143.782 81.3737 120.142 62.4622 84.2105 62.4622Z" stroke="#FF579E"/>
<path opacity="0.4074" d="M164.584 86.1016H192.951V162.693H164.584V185.387H249.685V162.693H221.318V86.1016H249.685V62.4622H164.584V86.1016Z" stroke="#FF579E"/>
<path opacity="0.4074" d="M324.386 139.053H342.352V160.802C339.515 162.693 334.787 164.584 330.059 164.584C310.202 164.584 300.747 149.455 300.747 124.87C300.747 100.285 313.039 85.1559 329.114 85.1559C338.569 85.1559 344.243 88.9382 349.916 93.666L365.045 76.6457C357.481 68.1356 345.188 60.571 329.114 60.571C296.964 60.571 272.379 84.2103 272.379 124.87C272.379 166.475 297.91 188.223 329.114 188.223C345.188 188.223 359.372 180.659 367.882 173.094V116.36H325.331V139.053H324.386Z" stroke="#FF579E"/>
<path opacity="0.4074" d="M391.521 86.1016H419.888V162.693H391.521V185.387H476.623V162.693H448.256V86.1016H476.623V62.4622H391.521V86.1016Z" stroke="#FF579E"/>
<path opacity="0.4074" d="M496.48 86.1016H533.358V185.387H561.725V86.1016H598.602V62.4622H496.48V86.1016Z" stroke="#FF579E"/>
<path opacity="0.4074" d="M647.772 134.326L650.608 122.979C653.445 110.686 657.227 96.5028 660.064 83.2648H661.01C663.846 96.5028 667.629 110.686 670.465 122.979L673.302 134.326H647.772V134.326ZM643.989 62.4622L605.221 185.387H633.588L641.153 156.074H678.03L685.595 185.387H714.907L676.139 62.4622H643.989Z" stroke="#FF579E"/>
<path opacity="0.4074" d="M765.968 162.693V62.4622H737.601V185.387H820.811V162.693H765.968Z" stroke="#FF579E"/>
</g>
<g opacity="0.4444">
<path opacity="0.4444" d="M79.4822 159.856H74.7544V81.3737H79.4822C98.3937 81.3737 111.632 90.8295 111.632 120.142C111.632 149.455 98.3937 159.856 79.4822 159.856ZM81.3734 58.68H47.3328V181.604H83.2645C117.305 181.604 140.944 161.747 140.944 119.197C139.999 77.5914 116.36 58.68 81.3734 58.68Z" stroke="#FF579E"/>
<path opacity="0.4444" d="M160.802 82.3193H190.114V158.911H160.802V181.604H246.849V158.911H217.536V82.3193H246.849V58.68H160.802V82.3193Z" stroke="#FF579E"/>
<path opacity="0.4444" d="M321.549 135.271H339.515V157.019C336.678 158.911 331.95 160.802 327.222 160.802C307.365 160.802 297.909 145.673 297.909 121.088C297.909 96.5028 310.202 81.3736 326.277 81.3736C335.732 81.3736 341.406 85.1559 347.079 89.8838L362.208 72.8635C354.644 64.3533 342.351 56.7887 326.277 56.7887C294.127 56.7887 269.542 80.428 269.542 121.088C269.542 162.693 295.073 184.441 326.277 184.441C342.351 184.441 356.535 176.876 365.045 169.312V112.578H322.494V135.271H321.549Z" stroke="#FF579E"/>
<path opacity="0.4444" d="M387.739 82.3193H417.051V158.911H387.739V181.604H473.786V158.911H444.473V82.3193H473.786V58.68H387.739V82.3193Z" stroke="#FF579E"/>
<path opacity="0.4444" d="M493.643 82.3193H530.52V181.604H557.942V82.3193H594.819V58.68H493.643V82.3193Z" stroke="#FF579E"/>
<path opacity="0.4444" d="M643.989 130.543L646.826 119.197C649.662 106.904 653.445 92.7206 656.281 79.4826H657.227C660.064 92.7206 663.846 106.904 666.683 119.197L669.519 130.543H643.989ZM641.152 58.68L602.384 181.604H630.751L638.316 152.292H675.193L682.757 181.604H712.07L673.302 58.68H641.152V58.68Z" stroke="#FF579E"/>
<path opacity="0.4444" d="M762.186 158.911V58.68H734.764V181.604H817.029V158.911H762.186Z" stroke="#FF579E"/>
</g>
<g opacity="0.4815">
<path opacity="0.4815" d="M76.6458 156.074H71.9179V77.5915H76.6458C95.5573 77.5915 108.795 87.0472 108.795 116.36C108.795 145.673 95.5573 156.074 76.6458 156.074ZM77.5914 54.8978H43.5508V177.822H79.4825C113.523 177.822 137.162 157.965 137.162 115.414C137.162 73.8092 113.523 54.8978 77.5914 54.8978Z" stroke="#FF579E"/>
<path opacity="0.4815" d="M157.965 78.5371H187.278V155.128H157.965V178.768H244.012V155.128H214.699V78.5371H244.012V54.8978H157.965V78.5371Z" stroke="#FF579E"/>
<path opacity="0.4815" d="M317.767 131.489H335.733V153.237C332.896 155.128 328.168 157.019 323.44 157.019C303.583 157.019 294.127 141.89 294.127 117.305C294.127 91.775 306.42 76.6458 322.495 76.6458C331.95 76.6458 337.624 80.4281 343.297 85.156L358.426 68.1357C350.862 60.5711 339.515 53.0065 322.495 53.0065C290.345 53.0065 265.76 76.6458 265.76 117.305C265.76 158.911 291.291 180.659 322.495 180.659C338.569 180.659 352.753 173.094 361.263 165.53V108.795H318.712V131.489H317.767Z" stroke="#FF579E"/>
<path opacity="0.4815" d="M384.902 78.5371H414.215V155.128H384.902V178.768H470.949V155.128H441.636V78.5371H470.949V54.8978H384.902V78.5371Z" stroke="#FF579E"/>
<path opacity="0.4815" d="M489.861 78.5371H527.684V178.768H555.105V78.5371H591.983V54.8978H489.861V78.5371Z" stroke="#FF579E"/>
<path opacity="0.4815" d="M641.152 127.707L643.989 116.36C646.826 104.068 650.608 89.8839 653.445 76.6459H654.39C657.227 89.8839 661.009 104.068 663.846 116.36L666.683 127.707H641.152V127.707ZM638.316 54.8978L599.547 177.822H627.914L635.479 148.509H672.356L679.921 177.822H710.179L671.411 54.8978H638.316V54.8978Z" stroke="#FF579E"/>
<path opacity="0.4815" d="M759.349 155.128V54.8978H731.927V178.768H814.192V155.128H759.349Z" stroke="#FF579E"/>
</g>
<g opacity="0.5185">
<path opacity="0.5185" d="M73.8094 152.292H69.0815V73.809H73.8094C92.7208 73.809 105.959 83.2647 105.959 112.577C105.959 141.89 92.7208 152.292 73.8094 152.292ZM74.755 51.1153H40.7144V174.04H76.6461C110.687 174.04 134.326 154.183 134.326 111.632C134.326 70.0267 110.687 51.1153 74.755 51.1153Z" stroke="#FF579E"/>
<path opacity="0.5185" d="M155.128 74.7546H183.496V151.346H155.128V174.985H240.23V151.346H211.863V74.7546H240.23V51.1153H155.128V74.7546Z" stroke="#FF579E"/>
<path opacity="0.5185" d="M314.93 127.707H332.896V149.455C330.059 151.346 325.332 153.237 320.604 153.237C300.747 153.237 291.291 138.108 291.291 113.523C291.291 88.9381 303.583 73.8089 319.658 73.8089C329.114 73.8089 334.787 77.5912 340.461 82.3191L355.59 65.2988C348.025 56.7886 335.733 49.224 319.658 49.224C287.509 49.224 262.924 72.8633 262.924 113.523C262.924 155.128 288.454 176.876 319.658 176.876C335.733 176.876 349.916 169.312 358.427 161.747V105.013H315.876V127.707H314.93Z" stroke="#FF579E"/>
<path opacity="0.5185" d="M382.066 74.7546H410.433V151.346H382.066V174.985H467.167V151.346H438.8V74.7546H467.167V51.1153H382.066V74.7546Z" stroke="#FF579E"/>
<path opacity="0.5185" d="M487.025 74.7546H523.902V174.985H552.269V74.7546H589.146V51.1153H487.025V74.7546Z" stroke="#FF579E"/>
<path opacity="0.5185" d="M638.316 123.924L641.153 112.577C643.99 100.285 647.772 86.1015 650.609 72.8634H651.554C654.391 86.1015 658.173 100.285 661.01 112.577L663.847 123.924H638.316ZM634.534 51.1153L595.765 174.04H624.133L631.697 144.727H668.574L676.139 174.04H705.452L666.683 51.1153H634.534V51.1153Z" stroke="#FF579E"/>
<path opacity="0.5185" d="M756.513 151.346V51.1153H728.146V174.985H811.356V151.346H756.513Z" stroke="#FF579E"/>
</g>
<g opacity="0.5556">
<path opacity="0.5556" d="M70.0264 148.509H65.2986V70.0268H70.0264C88.9379 70.0268 102.176 79.4825 102.176 108.795C102.176 138.108 89.8834 148.509 70.0264 148.509ZM71.9176 47.3331H37.877V170.257H73.8087C107.849 170.257 131.489 150.4 131.489 107.85C131.489 66.2445 107.849 47.3331 71.9176 47.3331Z" stroke="#FF579E"/>
<path opacity="0.5556" d="M152.291 70.9724H180.658V147.564H152.291V171.203H237.393V147.564H209.025V70.9724H237.393V47.3331H152.291V70.9724Z" stroke="#FF579E"/>
<path opacity="0.5556" d="M312.093 123.924H330.059V145.672C327.222 147.564 322.494 149.455 317.766 149.455C297.909 149.455 288.454 134.326 288.454 109.741C288.454 85.1558 300.746 70.0267 316.821 70.0267C326.277 70.0267 331.95 73.809 337.623 78.5368L352.753 61.5165C345.188 53.0064 332.896 45.4418 316.821 45.4418C284.671 45.4418 260.086 69.0811 260.086 109.741C260.086 151.346 285.617 173.094 316.821 173.094C332.896 173.094 347.079 165.529 355.589 157.965V101.231H313.038V123.924H312.093Z" stroke="#FF579E"/>
<path opacity="0.5556" d="M379.228 70.9724H407.595V147.564H379.228V171.203H464.33V147.564H435.963V70.9724H464.33V47.3331H379.228V70.9724Z" stroke="#FF579E"/>
<path opacity="0.5556" d="M484.187 70.9724H521.064V171.203H549.432V70.9724H586.309V47.3331H484.187V70.9724Z" stroke="#FF579E"/>
<path opacity="0.5556" d="M635.479 120.142L638.315 108.795C641.152 96.5028 644.934 82.3192 647.771 69.0812H648.717C651.553 82.3192 655.336 96.5028 658.172 108.795L661.009 120.142H635.479ZM631.696 47.3331L592.928 170.257H621.295L628.86 140.945H665.737L673.302 170.257H702.614L663.846 47.3331H631.696V47.3331Z" stroke="#FF579E"/>
<path opacity="0.5556" d="M753.675 147.564V47.3331H725.308V171.203H808.518V147.564H753.675Z" stroke="#FF579E"/>
</g>
<g opacity="0.5926">
<path opacity="0.5926" d="M67.19 144.727H62.4621V66.2446H67.19C86.1014 66.2446 99.3394 75.7003 99.3394 105.013C99.3394 134.326 86.1014 144.727 67.19 144.727ZM69.0811 43.5508H35.0405V166.475H70.9723C105.013 166.475 128.652 146.618 128.652 104.067C127.707 62.4623 104.067 43.5508 69.0811 43.5508Z" stroke="#FF579E"/>
<path opacity="0.5926" d="M148.509 67.1901H177.822V143.781H148.509V167.421H234.556V143.781H205.244V67.1901H234.556V43.5508H148.509V67.1901Z" stroke="#FF579E"/>
<path opacity="0.5926" d="M309.256 120.142H327.222V141.89C324.386 143.781 319.658 145.673 314.93 145.673C295.073 145.673 285.617 130.543 285.617 105.958C285.617 81.3736 297.91 66.2444 313.984 66.2444C323.44 66.2444 329.113 70.0267 334.787 74.7546L349.916 57.7343C342.352 49.2241 330.059 41.6596 313.984 41.6596C281.835 41.6596 257.25 65.2989 257.25 105.958C257.25 147.564 282.78 169.312 313.984 169.312C330.059 169.312 344.243 161.747 352.753 154.183V97.4483H310.202V120.142H309.256Z" stroke="#FF579E"/>
<path opacity="0.5926" d="M375.447 67.1901H404.759V143.781H375.447V167.421H461.494V143.781H432.181V67.1901H461.494V43.5508H375.447V67.1901Z" stroke="#FF579E"/>
<path opacity="0.5926" d="M481.351 67.1901H518.228V167.421H545.65V67.1901H582.527V43.5508H481.351V67.1901Z" stroke="#FF579E"/>
<path opacity="0.5926" d="M631.697 116.36L634.533 105.013C637.37 92.7206 641.152 78.537 643.989 65.299H644.935C647.771 78.537 651.554 92.7206 654.39 105.013L657.227 116.36H631.697ZM628.86 43.5508L590.092 166.475H618.459L626.023 137.162H662.901L670.465 166.475H700.724L661.955 43.5508H628.86Z" stroke="#FF579E"/>
<path opacity="0.5926" d="M749.893 143.781V43.5508H722.472V167.421H804.736V143.781H749.893Z" stroke="#FF579E"/>
</g>
<g opacity="0.6296">
<path opacity="0.6296" d="M64.3536 140.945H59.6257V62.4621H64.3536C83.265 62.4621 96.503 71.9178 96.503 101.231C96.503 130.543 83.265 140.945 64.3536 140.945ZM65.2991 40.7139H31.2585V163.638H67.1903C101.231 163.638 124.87 143.781 124.87 101.231C124.87 58.6798 101.231 40.7139 65.2991 40.7139Z" stroke="#FF579E"/>
<path opacity="0.6296" d="M145.673 63.4077H174.985V139.999H145.673V163.638H231.72V139.999H202.407V63.4077H231.72V40.7139H145.673V63.4077Z" stroke="#FF579E"/>
<path opacity="0.6296" d="M305.474 116.36H323.44V138.108C320.604 139.999 315.876 141.89 311.148 141.89C291.291 141.89 281.835 126.761 281.835 102.176C281.835 77.5914 294.128 62.4622 310.202 62.4622C319.658 62.4622 325.332 66.2445 331.005 70.9724L346.134 53.9521C338.57 45.4419 326.277 37.8773 310.202 37.8773C278.053 37.8773 253.468 61.5166 253.468 102.176C253.468 143.781 278.998 165.53 310.202 165.53C326.277 165.53 340.461 157.965 348.971 150.4V93.6661H306.42V116.36H305.474Z" stroke="#FF579E"/>
<path opacity="0.6296" d="M372.61 63.4077H401.923V139.999H372.61V163.638H458.657V139.999H429.344V63.4077H458.657V40.7139H372.61V63.4077Z" stroke="#FF579E"/>
<path opacity="0.6296" d="M478.514 63.4077H515.391V163.638H542.813V63.4077H579.69V40.7139H478.514V63.4077Z" stroke="#FF579E"/>
<path opacity="0.6296" d="M628.86 112.577L631.697 101.231C634.533 88.9381 638.316 74.7545 641.152 61.5165H642.098C644.935 74.7545 648.717 88.9381 651.554 101.231L654.39 112.577H628.86ZM626.023 40.7139L587.255 163.638H615.622L623.187 134.326H660.064L667.629 163.638H696.941L658.173 40.7139H626.023V40.7139Z" stroke="#FF579E"/>
<path opacity="0.6296" d="M747.057 139.999V40.7139H719.635V163.638H801.9V139.999H747.057Z" stroke="#FF579E"/>
</g>
<g opacity="0.6667">
<path opacity="0.6667" d="M61.5164 137.162H56.7886V58.6798H61.5164C80.4279 58.6798 93.6659 68.1356 93.6659 97.4483C93.6659 126.761 80.4279 137.162 61.5164 137.162ZM62.462 36.9317H28.4214V159.856H64.3531C98.3937 159.856 122.033 139.999 122.033 97.4483C122.033 54.8976 98.3937 36.9317 62.462 36.9317Z" stroke="#FF579E"/>
<path opacity="0.6667" d="M142.835 59.6254H171.203V136.217H142.835V159.856H227.937V136.217H199.57V59.6254H227.937V36.9317H142.835V59.6254Z" stroke="#FF579E"/>
<path opacity="0.6667" d="M302.637 113.523H320.603V135.271C317.766 137.162 313.039 139.053 308.311 139.053C288.454 139.053 278.998 123.924 278.998 99.3393C278.998 74.7545 291.29 59.6253 307.365 59.6253C316.821 59.6253 322.494 63.4076 328.168 68.1355L343.297 51.1152C335.732 42.605 323.44 35.0404 307.365 35.0404C275.216 35.0404 250.631 58.6797 250.631 99.3393C250.631 140.945 276.161 162.693 307.365 162.693C323.44 162.693 337.624 155.128 346.134 147.564V90.8292H303.583V113.523H302.637Z" stroke="#FF579E"/>
<path opacity="0.6667" d="M369.773 59.6254H398.14V136.217H369.773V159.856H454.874V136.217H426.507V59.6254H454.874V36.9317H369.773V59.6254Z" stroke="#FF579E"/>
<path opacity="0.6667" d="M474.732 59.6254H511.609V159.856H539.976V59.6254H576.854V36.9317H474.732V59.6254Z" stroke="#FF579E"/>
<path opacity="0.6667" d="M626.023 108.795L628.86 97.4483C631.697 85.1559 635.479 70.9723 638.316 57.7343H639.261C642.098 70.9723 645.88 85.1559 648.717 97.4483L651.554 108.795H626.023ZM622.241 36.9317L583.472 159.856H611.84L619.404 130.543H656.282L663.846 159.856H693.159L654.39 36.9317H622.241V36.9317Z" stroke="#FF579E"/>
<path opacity="0.6667" d="M744.22 136.217V36.9317H715.853V159.856H799.063V136.217H744.22Z" stroke="#FF579E"/>
</g>
<g opacity="0.7037">
<path opacity="0.7037" d="M57.7342 133.38H53.0063V54.8976H57.7342C76.6456 54.8976 89.8836 64.3533 89.8836 93.6661C89.8836 122.979 77.5912 133.38 57.7342 133.38ZM59.6253 33.1495H25.5847V156.074H61.5165C95.5571 156.074 119.196 136.217 119.196 93.6661C119.196 52.0609 95.5571 33.1495 59.6253 33.1495Z" stroke="#FF579E"/>
<path opacity="0.7037" d="M139.999 55.8432H168.366V132.435H139.999V156.074H225.1V132.435H196.733V55.8432H225.1V33.1495H139.999V55.8432Z" stroke="#FF579E"/>
<path opacity="0.7037" d="M299.801 109.741H317.767V131.489C314.93 133.38 310.202 135.271 305.474 135.271C285.617 135.271 276.161 120.142 276.161 95.5571C276.161 70.9722 288.454 55.8431 304.529 55.8431C313.984 55.8431 319.658 59.6254 325.331 64.3532L340.46 47.3329C332.896 38.8228 320.603 31.2582 304.529 31.2582C272.379 31.2582 247.794 54.8975 247.794 95.5571C247.794 137.162 273.325 158.91 304.529 158.91C320.603 158.91 334.787 151.346 343.297 143.781V87.047H300.746V109.741H299.801Z" stroke="#FF579E"/>
<path opacity="0.7037" d="M366.936 55.8432H395.303V132.435H366.936V156.074H452.038V132.435H423.67V55.8432H452.038V33.1495H366.936V55.8432Z" stroke="#FF579E"/>
<path opacity="0.7037" d="M471.895 55.8432H508.772V156.074H537.14V55.8432H574.017V33.1495H471.895V55.8432Z" stroke="#FF579E"/>
<path opacity="0.7037" d="M623.187 105.013L626.023 93.6661C628.86 81.3736 632.642 67.1901 635.479 53.952H636.424C639.261 67.1901 643.043 81.3736 645.88 93.6661L648.717 105.013H623.187ZM619.404 33.1495L580.636 156.074H609.003L616.567 126.761H653.445L661.009 156.074H691.268L653.445 33.1495H619.404Z" stroke="#FF579E"/>
<path opacity="0.7037" d="M741.383 132.435V33.1495H713.016V156.074H796.226V132.435H741.383Z" stroke="#FF579E"/>
</g>
<g opacity="0.7407">
<path opacity="0.7407" d="M54.8975 129.598H50.1696V52.061H54.8975C73.8089 52.061 87.047 61.5167 87.047 90.8295C87.047 120.142 73.8089 129.598 54.8975 129.598ZM56.7887 29.3673H22.748V152.292H57.7342C91.7748 152.292 115.414 132.435 115.414 89.8839C115.414 48.2787 92.7204 29.3673 56.7887 29.3673Z" stroke="#FF579E"/>
<path opacity="0.7407" d="M136.217 53.0066H165.53V128.652H136.217V152.292H222.264V128.652H192.951V53.0066H222.264V29.3673H136.217V53.0066Z" stroke="#FF579E"/>
<path opacity="0.7407" d="M296.964 105.959H314.93V127.707C312.093 129.598 307.365 131.489 302.637 131.489C282.78 131.489 273.325 116.36 273.325 91.7749C273.325 67.19 285.617 52.0609 301.692 52.0609C311.148 52.0609 316.821 55.8432 322.494 60.571L337.624 43.5507C330.059 35.0406 317.767 27.476 301.692 27.476C269.542 27.476 244.958 51.1153 244.958 91.7749C244.958 133.38 270.488 155.128 301.692 155.128C317.767 155.128 331.95 147.564 340.46 139.999V83.2648H297.91V105.959H296.964Z" stroke="#FF579E"/>
<path opacity="0.7407" d="M363.154 53.0066H392.467V128.652H363.154V152.292H449.201V128.652H419.888V53.0066H449.201V29.3673H363.154V53.0066Z" stroke="#FF579E"/>
<path opacity="0.7407" d="M469.058 53.0066H505.935V152.292H533.357V53.0066H570.234V29.3673H469.058V53.0066Z" stroke="#FF579E"/>
<path opacity="0.7407" d="M619.404 101.231L622.241 89.8839C625.078 77.5914 628.86 63.4079 631.697 50.1699H632.642C635.479 63.4079 639.261 77.5914 642.098 89.8839L644.935 101.231H619.404ZM616.568 29.3673L577.799 152.292H606.166L613.731 122.979H650.608L658.173 152.292H687.485L649.663 29.3673H616.568Z" stroke="#FF579E"/>
<path opacity="0.7407" d="M737.601 128.652V29.3673H710.179V152.292H792.444V128.652H737.601Z" stroke="#FF579E"/>
</g>
<g opacity="0.7778">
<path opacity="0.7778" d="M52.0606 125.815H47.3327V48.2785H52.0606C70.9721 48.2785 84.2101 57.7342 84.2101 87.0469C84.2101 116.36 70.9721 125.815 52.0606 125.815ZM53.0062 25.5847H18.9656V148.509H54.8973C88.9379 148.509 112.577 128.652 112.577 86.1013C112.577 44.4962 88.9379 25.5847 53.0062 25.5847Z" stroke="#FF579E"/>
<path opacity="0.7778" d="M133.38 49.224H162.692V125.815H133.38V148.509H219.427V125.815H190.114V49.224H219.427V25.5847H133.38V49.224Z" stroke="#FF579E"/>
<path opacity="0.7778" d="M293.181 102.176H311.147V123.924C308.31 125.815 303.583 127.707 298.855 127.707C278.998 127.707 269.542 112.577 269.542 87.9926C269.542 63.4077 281.834 48.2785 297.909 48.2785C307.365 48.2785 313.038 52.0608 318.712 56.7887L334.786 38.8228C327.222 30.3127 314.929 22.7481 298.855 22.7481C266.705 22.7481 242.12 46.3874 242.12 87.047C242.12 128.652 267.651 150.4 298.855 150.4C314.929 150.4 329.113 142.836 337.623 135.271V78.5368H295.072V102.176H293.181Z" stroke="#FF579E"/>
<path opacity="0.7778" d="M360.317 49.224H389.63V125.815H360.317V148.509H446.364V125.815H417.051V49.224H446.364V25.5847H360.317V49.224Z" stroke="#FF579E"/>
<path opacity="0.7778" d="M466.221 49.224H503.098V148.509H530.52V49.224H567.397V25.5847H466.221V49.224Z" stroke="#FF579E"/>
<path opacity="0.7778" d="M616.567 97.4482L619.404 86.1013C622.241 73.8089 626.023 59.6253 628.86 46.3873H629.805C632.642 59.6253 636.424 73.8089 639.261 86.1013L642.098 97.4482H616.567ZM613.73 25.5847L574.962 148.509H603.329L610.894 119.196H647.771L655.336 148.509H684.648L645.88 25.5847H613.73V25.5847Z" stroke="#FF579E"/>
<path opacity="0.7778" d="M734.764 125.815V25.5847H707.342V148.509H789.607V125.815H734.764Z" stroke="#FF579E"/>
</g>
<g opacity="0.8148">
<path opacity="0.8148" d="M49.2239 122.979H44.4961V44.4965H49.2239C68.1354 44.4965 81.3734 53.9523 81.3734 83.265C81.3734 112.578 68.1354 122.979 49.2239 122.979ZM50.1695 21.8028H16.1289V144.727H52.0607C86.1012 144.727 109.741 124.87 109.741 82.3194C109.741 40.7142 86.1012 21.8028 50.1695 21.8028Z" stroke="#FF579E"/>
<path opacity="0.8148" d="M130.543 45.4421H158.91V122.033H130.543V144.727H215.644V122.033H187.277V45.4421H215.644V21.8028H130.543V45.4421Z" stroke="#FF579E"/>
<path opacity="0.8148" d="M290.345 98.394H308.311V120.142C305.474 122.033 300.746 123.924 296.018 123.924C276.161 123.924 266.706 108.795 266.706 84.2104C266.706 59.6255 278.998 44.4964 295.073 44.4964C304.528 44.4964 310.202 48.2787 315.875 53.0065L331.004 35.9862C323.44 27.4761 312.093 19.9115 295.073 19.9115C262.923 19.9115 238.338 43.5508 238.338 84.2104C238.338 125.816 263.869 147.564 295.073 147.564C311.147 147.564 325.331 139.999 333.841 132.435V75.7003H291.29V98.394H290.345Z" stroke="#FF579E"/>
<path opacity="0.8148" d="M357.48 45.4421H385.847V122.033H357.48V144.727H442.582V122.033H414.215V45.4421H442.582V21.8028H357.48V45.4421Z" stroke="#FF579E"/>
<path opacity="0.8148" d="M462.439 45.4421H499.316V144.727H527.683V45.4421H564.561V21.8028H462.439V45.4421Z" stroke="#FF579E"/>
<path opacity="0.8148" d="M613.731 93.6663L616.567 82.3194C619.404 70.027 623.186 55.8434 626.023 42.6054H626.969C629.805 55.8434 633.588 70.027 636.424 82.3194L639.261 93.6663H613.731ZM609.948 21.8028L571.18 144.727H599.547L607.112 115.414H643.989L651.554 144.727H681.812L643.989 21.8028H609.948Z" stroke="#FF579E"/>
<path opacity="0.8148" d="M731.927 122.033V21.8028H703.56V144.727H786.77V122.033H731.927Z" stroke="#FF579E"/>
</g>
<g opacity="0.8519">
<path opacity="0.8519" d="M45.4419 119.196H40.7141V40.714H45.4419C64.3534 40.714 77.5914 50.1697 77.5914 79.4825C77.5914 108.795 65.2989 119.196 45.4419 119.196ZM47.3331 18.0203H13.2925V140.945H49.2242C83.2648 140.945 106.904 121.088 106.904 78.5369C106.904 36.9317 83.2648 18.0203 47.3331 18.0203Z" stroke="#FF579E"/>
<path opacity="0.8519" d="M127.707 41.6596H156.074V118.251H127.707V140.945H212.808V118.251H184.441V41.6596H212.808V18.0203H127.707V41.6596Z" stroke="#FF579E"/>
<path opacity="0.8519" d="M287.508 94.6115H305.474V116.36C302.638 118.251 297.91 120.142 293.182 120.142C273.325 120.142 263.869 105.013 263.869 80.4279C263.869 55.843 276.162 40.7139 292.236 40.7139C301.692 40.7139 307.365 44.4962 313.039 49.224L328.168 32.2037C320.603 23.6936 308.311 16.129 292.236 16.129C260.087 16.129 235.502 39.7683 235.502 80.4279C235.502 122.033 261.032 143.781 292.236 143.781C308.311 143.781 322.495 136.217 331.005 128.652V71.9178H288.454V94.6115H287.508Z" stroke="#FF579E"/>
<path opacity="0.8519" d="M354.644 41.6596H383.011V118.251H354.644V140.945H439.745V118.251H411.378V41.6596H439.745V18.0203H354.644V41.6596Z" stroke="#FF579E"/>
<path opacity="0.8519" d="M459.603 41.6596H496.48V140.945H524.847V41.6596H561.724V18.0203H459.603V41.6596Z" stroke="#FF579E"/>
<path opacity="0.8519" d="M610.894 89.8838L613.731 78.5369C616.568 66.2444 620.35 52.0609 623.187 38.8229H624.132C626.969 52.0609 630.751 66.2444 633.588 78.5369L636.425 89.8838H610.894ZM607.112 18.0203L568.344 140.945H596.711L604.275 111.632H641.153L648.717 140.945H678.03L639.261 18.0203H607.112V18.0203Z" stroke="#FF579E"/>
<path opacity="0.8519" d="M729.091 118.251V18.0203H700.724V140.945H783.934V118.251H729.091Z" stroke="#FF579E"/>
</g>
<g opacity="0.8889">
<path opacity="0.8889" d="M42.6053 115.414H37.8774V36.9318H42.6053C61.5167 36.9318 74.7547 46.3875 74.7547 75.7002C74.7547 105.013 61.5167 115.414 42.6053 115.414ZM44.4964 14.238H10.4558V137.162H46.3876C80.4282 137.162 104.067 117.305 104.067 74.7547C103.122 33.1495 80.4282 14.238 44.4964 14.238Z" stroke="#FF579E"/>
<path opacity="0.8889" d="M123.925 37.8773H153.237V114.469H123.925V138.108H209.972V114.469H180.659V37.8773H209.972V14.238H123.925V37.8773Z" stroke="#FF579E"/>
<path opacity="0.8889" d="M284.672 90.8292H302.638V112.577C299.801 114.469 295.073 116.36 290.345 116.36C270.488 116.36 261.032 101.231 261.032 76.6457C261.032 52.0608 273.325 36.9316 289.4 36.9316C298.855 36.9316 304.529 40.7139 310.202 45.4418L325.331 28.4215C317.767 19.9113 305.474 12.3468 289.4 12.3468C257.25 12.3468 232.665 35.9861 232.665 76.6457C232.665 118.251 258.196 139.999 289.4 139.999C305.474 139.999 319.658 132.434 328.168 124.87V68.1355H284.672V90.8292Z" stroke="#FF579E"/>
<path opacity="0.8889" d="M350.862 37.8773H380.175V114.469H350.862V138.108H436.909V114.469H407.596V37.8773H436.909V14.238H350.862V37.8773Z" stroke="#FF579E"/>
<path opacity="0.8889" d="M456.766 37.8773H493.643V138.108H521.065V37.8773H557.942V14.238H456.766V37.8773Z" stroke="#FF579E"/>
<path opacity="0.8889" d="M607.112 87.0471L609.949 75.7002C612.785 63.4078 616.568 49.2242 619.404 35.9862H620.35C623.187 49.2242 626.969 63.4078 629.806 75.7002L632.642 87.0471H607.112ZM604.275 14.238L565.507 137.162H593.874L601.439 107.85H638.316L645.88 137.162H675.193L636.425 14.238H604.275V14.238Z" stroke="#FF579E"/>
<path opacity="0.8889" d="M725.309 114.469V14.238H697.887V138.108H780.152V114.469H725.309Z" stroke="#FF579E"/>
</g>
<g opacity="0.9259">
<path opacity="0.9259" d="M39.7684 111.632H35.0405V33.1493H39.7684C58.6798 33.1493 71.9178 42.605 71.9178 71.9177C71.9178 101.23 58.6798 111.632 39.7684 111.632ZM40.7139 10.4555H6.67334V133.38H42.6051C76.6457 133.38 100.285 113.523 100.285 70.9721C100.285 29.367 76.6457 10.4555 40.7139 10.4555Z" stroke="#FF579E"/>
<path opacity="0.9259" d="M121.087 34.0948H150.4V110.686H121.087V134.325H207.134V110.686H177.822V34.0948H207.134V10.4555H121.087V34.0948Z" stroke="#FF579E"/>
<path opacity="0.9259" d="M280.889 87.047H298.855V108.795C296.018 110.686 291.29 112.577 286.562 112.577C266.705 112.577 257.25 97.4483 257.25 72.8634C257.25 48.2785 269.542 33.1494 285.617 33.1494C295.073 33.1494 300.746 36.9317 306.419 41.6595L322.494 23.6936C314.93 15.1835 302.637 7.61891 286.562 7.61891C254.413 7.61891 229.828 31.2582 229.828 71.9178C229.828 113.523 255.359 135.271 286.562 135.271C302.637 135.271 316.821 127.707 325.331 120.142V63.4077H282.78V87.047H280.889Z" stroke="#FF579E"/>
<path opacity="0.9259" d="M348.025 34.0948H377.337V110.686H348.025V134.325H434.072V110.686H404.759V34.0948H434.072V10.4555H348.025V34.0948Z" stroke="#FF579E"/>
<path opacity="0.9259" d="M453.929 34.0948H490.806V134.325H518.228V34.0948H555.105V10.4555H453.929V34.0948Z" stroke="#FF579E"/>
<path opacity="0.9259" d="M604.275 83.2646L607.112 71.9177C609.948 59.6253 613.731 45.4417 616.567 32.2037H617.513C620.35 45.4417 624.132 59.6253 626.969 71.9177L629.805 83.2646H604.275ZM601.438 10.4555L562.67 133.38H591.037L598.601 104.067H635.479L643.043 133.38H672.356L634.533 10.4555H601.438Z" stroke="#FF579E"/>
<path opacity="0.9259" d="M722.471 110.686V10.4555H695.05V134.325H777.315V110.686H722.471Z" stroke="#FF579E"/>
</g>
<g opacity="0.963">
<path opacity="0.963" d="M36.9317 107.85H32.2038V29.367H36.9317C55.8431 29.367 69.0811 38.8228 69.0811 68.1355C69.0811 97.4482 55.8431 107.85 36.9317 107.85ZM37.8773 6.67329H3.83667V129.598H39.7684C73.809 129.598 97.4483 109.741 97.4483 67.1899C97.4483 25.5847 73.809 6.67329 37.8773 6.67329Z" stroke="#FF579E"/>
<path opacity="0.963" d="M118.251 30.3126H146.618V106.904H118.251V130.543H203.352V106.904H174.985V30.3126H203.352V6.67329H118.251V30.3126Z" stroke="#FF579E"/>
<path opacity="0.963" d="M278.053 83.2647H296.018V105.013C293.182 106.904 288.454 108.795 283.726 108.795C263.869 108.795 254.413 93.666 254.413 69.0811C254.413 44.4963 266.706 29.3671 282.78 29.3671C292.236 29.3671 297.91 33.1494 303.583 37.8773L318.712 19.9114C311.148 11.4012 298.855 3.83667 282.78 3.83667C250.631 3.83667 226.046 27.476 226.046 68.1356C226.046 109.741 251.577 131.489 282.78 131.489C298.855 131.489 313.039 123.924 321.549 116.36V59.6254H278.998V83.2647H278.053Z" stroke="#FF579E"/>
<path opacity="0.963" d="M345.188 30.3126H373.555V106.904H345.188V130.543H430.289V106.904H401.922V30.3126H430.289V6.67329H345.188V30.3126Z" stroke="#FF579E"/>
<path opacity="0.963" d="M450.147 30.3126H487.024V130.543H515.391V30.3126H552.269V6.67329H450.147V30.3126Z" stroke="#FF579E"/>
<path opacity="0.963" d="M601.438 79.4824L604.275 68.1355C607.112 55.8431 610.894 41.6595 613.731 28.4215H614.676C617.513 41.6595 621.295 55.8431 624.132 68.1355L626.969 79.4824H601.438ZM597.656 6.67329L558.888 129.598H587.255L594.819 100.285H631.697L639.261 129.598H668.574L629.806 6.67329H597.656V6.67329Z" stroke="#FF579E"/>
<path opacity="0.963" d="M719.635 106.904V6.67329H691.268V130.543H774.478V106.904H719.635Z" stroke="#FF579E"/>
</g>
<path d="M33.1495 104.068H29.3672V25.585H34.095C53.0065 25.585 66.2445 35.0408 66.2445 64.3535C65.2989 93.6662 53.0065 104.068 33.1495 104.068ZM35.0406 2.8913H1V125.816H36.9317C70.9723 125.816 94.6116 105.959 94.6116 63.4079C94.6116 21.8027 70.9723 2.8913 35.0406 2.8913Z" fill="white"/>
<path d="M115.414 26.5306H143.781V103.122H115.414V126.761H200.516V103.122H172.148V26.5306H200.516V2.8913H115.414V26.5306Z" fill="white"/>
<path d="M275.216 79.4825H293.182V101.231C290.345 103.122 285.617 105.013 280.889 105.013C261.032 105.013 251.577 89.8838 251.577 65.299C251.577 40.7141 263.869 25.5849 279.944 25.5849C289.4 25.5849 295.073 29.3672 300.746 34.0951L315.876 17.0748C308.311 8.56462 296.964 1.00005 279.944 1.00005C247.794 1.00005 223.209 24.6394 223.209 65.299C223.209 106.904 248.74 128.652 279.944 128.652C296.019 128.652 310.202 121.088 318.712 113.523V56.7888H275.216V79.4825Z" fill="white"/>
<path d="M342.351 26.5306H370.719V103.122H342.351V126.761H427.453V103.122H399.086V26.5306H427.453V2.8913H342.351V26.5306Z" fill="white"/>
<path d="M447.31 26.5306H484.188V126.761H512.555V26.5306H549.432V2.8913H447.31V26.5306Z" fill="white"/>
<path d="M598.602 75.7004L601.438 64.3535C604.275 52.0611 608.057 37.8775 610.894 24.6395H611.84C614.676 37.8775 618.459 52.0611 621.295 64.3535L624.132 75.7004H598.602ZM594.819 2.8913L556.051 125.816H584.418L591.983 96.503H628.86L636.425 125.816H665.737L626.969 2.8913H594.819Z" fill="white"/>
<path d="M716.798 103.122V2.8913H688.431V126.761H771.641V103.122H716.798Z" fill="white"/>
<path d="M33.1495 104.068H29.3672V25.585H34.095C53.0065 25.585 66.2445 35.0408 66.2445 64.3535C65.2989 93.6662 53.0065 104.068 33.1495 104.068ZM35.0406 2.8913H1V125.816H36.9317C70.9723 125.816 94.6116 105.959 94.6116 63.4079C94.6116 21.8027 70.9723 2.8913 35.0406 2.8913Z" stroke="url(#paint0_linear)" stroke-width="1.5"/>
<path d="M115.414 26.5306H143.781V103.122H115.414V126.761H200.516V103.122H172.148V26.5306H200.516V2.8913H115.414V26.5306Z" stroke="url(#paint1_linear)" stroke-width="1.5"/>
<path d="M275.216 79.4825H293.182V101.231C290.345 103.122 285.617 105.013 280.889 105.013C261.032 105.013 251.577 89.8838 251.577 65.299C251.577 40.7141 263.869 25.5849 279.944 25.5849C289.4 25.5849 295.073 29.3672 300.746 34.0951L315.876 17.0748C308.311 8.56462 296.964 1.00005 279.944 1.00005C247.794 1.00005 223.209 24.6394 223.209 65.299C223.209 106.904 248.74 128.652 279.944 128.652C296.019 128.652 310.202 121.088 318.712 113.523V56.7888H275.216V79.4825Z" stroke="url(#paint2_linear)" stroke-width="1.5"/>
<path d="M342.351 26.5306H370.719V103.122H342.351V126.761H427.453V103.122H399.086V26.5306H427.453V2.8913H342.351V26.5306Z" stroke="url(#paint3_linear)" stroke-width="1.5"/>
<path d="M447.31 26.5306H484.188V126.761H512.555V26.5306H549.432V2.8913H447.31V26.5306Z" stroke="url(#paint4_linear)" stroke-width="1.5"/>
<path d="M598.602 75.7004L601.438 64.3535C604.275 52.0611 608.057 37.8775 610.894 24.6395H611.84C614.676 37.8775 618.459 52.0611 621.295 64.3535L624.132 75.7004H598.602ZM594.819 2.8913L556.051 125.816H584.418L591.983 96.503H628.86L636.425 125.816H665.737L626.969 2.8913H594.819Z" stroke="url(#paint5_linear)" stroke-width="1.5"/>
<path d="M716.798 103.122V2.8913H688.431V126.761H771.641V103.122H716.798Z" stroke="url(#paint6_linear)" stroke-width="1.5"/>
<g filter="url(#filter0_d)">
<path d="M313.039 222.264C312.093 222.264 311.148 223.209 310.202 223.209C313.985 213.754 316.821 203.352 320.604 193.897C323.44 186.332 328.168 175.931 322.495 168.366C313.985 156.074 294.128 169.312 286.563 175.931C281.835 179.713 278.053 183.495 274.271 187.278C278.998 169.312 278.053 154.183 263.869 154.183C257.25 154.183 251.577 157.965 245.903 161.747C247.794 152.291 249.686 142.836 250.631 133.38C250.631 133.38 250.631 133.38 250.631 132.434C250.631 131.489 250.631 129.598 251.577 127.706C251.577 126.761 252.522 124.87 252.522 122.979C253.468 115.414 253.468 107.849 248.74 102.176C245.903 98.3937 242.121 96.5026 237.393 96.5026C235.502 96.5026 233.611 96.5026 231.72 96.5026C229.829 96.5026 228.883 96.5026 226.992 97.4482C223.21 98.3937 219.427 99.3393 216.591 100.285C204.298 105.013 192.951 111.632 182.55 121.087C164.584 138.108 153.237 167.421 169.312 189.169C174.04 195.788 185.387 189.169 180.659 182.55C168.366 165.529 177.822 144.727 191.06 131.489C195.788 126.761 214.699 113.523 226.992 110.686C228.883 110.686 229.829 109.741 231.72 109.741C233.611 109.741 235.502 109.741 237.393 110.686C239.284 111.632 240.23 113.523 240.23 116.36C240.23 118.251 240.23 120.142 240.23 122.979C240.23 124.87 240.23 125.815 240.23 127.706C240.23 129.598 240.23 130.543 239.284 132.434C237.393 141.89 235.502 152.291 233.611 161.747C232.665 165.529 231.72 169.312 230.774 174.04C223.21 180.659 215.645 187.278 209.972 195.788C197.679 210.917 185.387 231.719 182.55 250.631C179.713 265.76 192.951 271.433 205.244 263.869C217.536 256.304 224.155 240.23 228.883 226.992C234.556 211.862 239.284 196.733 242.121 180.659C245.903 177.822 249.686 174.985 253.468 172.148C257.25 169.312 263.869 163.638 264.815 171.203C264.815 174.985 263.869 179.713 262.924 182.55C261.033 190.114 258.196 198.624 255.359 206.189C251.577 216.59 246.849 226.046 242.121 236.447C238.339 244.012 249.686 250.631 253.468 243.066C261.978 226.992 271.434 210.917 283.726 197.679C290.345 190.114 301.692 176.876 312.093 175.931C314.93 175.931 313.985 174.04 313.985 176.876C313.985 177.822 312.093 181.604 311.148 183.495C309.257 189.169 307.366 193.897 305.474 199.57C301.692 210.917 297.91 222.264 294.128 232.665C292.236 238.338 298.855 242.121 303.583 240.23C309.257 237.393 314.93 235.502 320.604 232.665C327.223 229.828 320.604 218.481 313.039 222.264ZM220.373 205.243C216.591 218.481 211.863 230.774 204.298 242.121C202.407 245.903 199.57 249.685 195.788 251.576C194.842 252.522 193.897 252.522 192.951 253.468C192.951 252.522 192.951 251.576 192.951 250.631C196.734 230.774 208.08 212.808 222.264 196.733C222.264 199.57 221.318 202.407 220.373 205.243Z" fill="#251440"/>
<path d="M516.337 153.237C505.936 156.074 495.534 158.91 485.133 161.747C477.569 181.604 468.113 202.407 459.603 222.264C455.82 229.828 445.419 223.209 448.256 215.645C455.82 198.625 463.385 182.55 470.004 165.529C465.276 166.475 460.548 167.421 456.766 167.421C455.82 171.203 450.147 174.985 445.419 172.148L439.746 167.421C435.018 163.638 439.746 157.019 444.474 156.074C454.875 155.128 465.276 153.237 475.677 150.4C477.569 144.727 480.405 139.053 482.296 133.38C483.242 131.489 483.242 130.543 484.188 128.652C485.133 126.761 485.133 125.815 486.079 123.924C487.97 118.251 489.861 112.577 491.752 107.85C492.698 105.958 492.698 104.067 493.643 102.176C493.643 101.231 494.589 100.285 494.589 99.3394C496.48 94.6116 501.208 93.666 504.99 95.5571C506.881 96.5027 507.827 97.4483 507.827 99.3394C507.827 100.285 507.827 101.231 507.827 102.176C505.936 106.904 504.045 112.577 502.153 117.305C501.208 119.196 501.208 121.088 500.262 122.979C499.317 124.87 499.317 126.761 498.371 128.652C496.48 135.271 493.643 140.945 491.752 147.564C499.317 145.672 506.881 143.781 514.446 140.945C521.065 139.053 523.902 151.346 516.337 153.237Z" fill="#251440"/>
<path d="M588.2 143.781C582.527 144.727 576.854 146.618 571.18 150.4C568.343 147.564 563.616 147.564 561.724 151.346C559.833 156.074 557.942 159.856 556.051 164.584C555.105 165.529 555.105 166.475 555.105 167.421C551.323 175.931 547.541 184.441 544.704 193.897C541.867 191.06 537.14 191.06 534.303 194.842C530.521 192.005 529.575 190.114 530.521 188.223C532.412 185.386 534.303 182.55 535.248 178.767C539.031 171.203 528.629 165.529 523.902 172.148C522.956 174.04 521.065 176.876 520.119 178.767C515.391 187.278 508.772 195.788 501.208 202.407C499.317 204.298 493.643 209.971 491.752 206.189C490.807 205.243 493.643 198.624 493.643 196.733C495.534 190.114 499.317 184.441 504.99 179.713C510.664 174.04 502.153 164.584 495.534 170.257C487.024 179.713 466.222 212.808 487.024 220.373C496.48 223.209 504.99 215.645 511.609 209.971C514.446 207.135 518.228 203.352 520.119 200.516C520.119 201.461 521.065 201.461 521.065 202.407C525.793 207.135 532.412 208.08 538.085 205.243C533.357 220.373 528.629 235.502 524.847 250.631C522.956 259.141 535.248 261.978 537.14 254.413C540.922 235.502 546.595 217.536 553.214 199.57C577.799 210.917 609.003 186.332 609.003 159.856C610.894 147.564 598.602 141.89 588.2 143.781ZM596.711 165.529C591.983 180.659 574.962 195.788 558.888 187.278C560.779 181.604 563.616 175.931 566.452 170.257C572.126 163.638 603.33 145.672 596.711 165.529Z" fill="#251440"/>
<path d="M376.392 218.481C366.937 225.1 352.753 227.937 343.297 220.373C355.59 216.59 370.719 209.971 374.501 198.624C381.12 180.659 358.426 176.876 347.079 180.659C330.059 185.386 318.712 200.516 326.277 218.481C336.678 241.175 364.1 241.175 382.066 228.883C389.63 225.1 383.011 213.754 376.392 218.481ZM352.753 192.951C354.644 192.951 362.209 191.06 363.154 193.897C364.1 196.733 358.426 200.516 356.535 200.516C350.862 204.298 344.243 207.135 337.624 208.08C335.733 200.516 344.243 194.842 352.753 192.951Z" fill="#251440"/>
<path d="M433.127 210.917C423.671 217.536 409.487 220.373 400.032 212.808C412.324 209.026 427.453 202.407 431.235 191.06C437.854 173.094 415.161 169.312 403.814 173.094C386.794 177.822 375.447 192.951 383.011 210.917C393.413 233.611 420.834 233.611 438.8 221.318C447.31 217.536 440.691 206.189 433.127 210.917ZM409.487 185.387C411.378 185.387 418.943 183.495 419.889 186.332C420.834 189.169 415.161 192.951 413.27 192.951C407.596 196.733 400.977 199.57 394.358 200.516C393.413 192.951 400.977 187.278 409.487 185.387Z" fill="#251440"/>
</g>
<defs>
<filter id="filter0_d" x="140.607" y="77.644" width="489.59" height="214.561" filterUnits="userSpaceOnUse" color-interpolation-filters="sRGB">
<feFlood flood-opacity="0" result="BackgroundImageFix"/>
<feColorMatrix in="SourceAlpha" type="matrix" values="0 0 0 0 0 0 0 0 0 0 0 0 0 0 0 0 0 0 127 0"/>
<feOffset dy="4"/>
<feGaussianBlur stdDeviation="10.5"/>
<feColorMatrix type="matrix" values="0 0 0 0 1 0 0 0 0 1 0 0 0 0 1 0 0 0 0.25 0"/>
<feBlend mode="normal" in2="BackgroundImageFix" result="effect1_dropShadow"/>
<feBlend mode="normal" in="SourceGraphic" in2="effect1_dropShadow" result="shape"/>
</filter>
<linearGradient id="paint0_linear" x1="748.547" y1="45.2918" x2="2.34915" y2="36.7153" gradientUnits="userSpaceOnUse">
<stop stop-color="#FFA800"/>
<stop offset="0.3125" stop-color="#FF579E"/>
<stop offset="0.682292" stop-color="#9F72FF"/>
<stop offset="1" stop-color="#10E6D9"/>
</linearGradient>
<linearGradient id="paint1_linear" x1="748.547" y1="45.2918" x2="2.34915" y2="36.7153" gradientUnits="userSpaceOnUse">
<stop stop-color="#FFA800"/>
<stop offset="0.3125" stop-color="#FF579E"/>
<stop offset="0.682292" stop-color="#9F72FF"/>
<stop offset="1" stop-color="#10E6D9"/>
</linearGradient>
<linearGradient id="paint2_linear" x1="748.547" y1="45.2918" x2="2.34915" y2="36.7153" gradientUnits="userSpaceOnUse">
<stop stop-color="#FFA800"/>
<stop offset="0.3125" stop-color="#FF579E"/>
<stop offset="0.682292" stop-color="#9F72FF"/>
<stop offset="1" stop-color="#10E6D9"/>
</linearGradient>
<linearGradient id="paint3_linear" x1="748.547" y1="45.2918" x2="2.34915" y2="36.7153" gradientUnits="userSpaceOnUse">
<stop stop-color="#FFA800"/>
<stop offset="0.3125" stop-color="#FF579E"/>
<stop offset="0.682292" stop-color="#9F72FF"/>
<stop offset="1" stop-color="#10E6D9"/>
</linearGradient>
<linearGradient id="paint4_linear" x1="748.547" y1="45.2918" x2="2.34915" y2="36.7153" gradientUnits="userSpaceOnUse">
<stop stop-color="#FFA800"/>
<stop offset="0.3125" stop-color="#FF579E"/>
<stop offset="0.682292" stop-color="#9F72FF"/>
<stop offset="1" stop-color="#10E6D9"/>
</linearGradient>
<linearGradient id="paint5_linear" x1="748.547" y1="45.2918" x2="2.34915" y2="36.7153" gradientUnits="userSpaceOnUse">
<stop stop-color="#FFA800"/>
<stop offset="0.3125" stop-color="#FF579E"/>
<stop offset="0.682292" stop-color="#9F72FF"/>
<stop offset="1" stop-color="#10E6D9"/>
</linearGradient>
<linearGradient id="paint6_linear" x1="748.547" y1="45.2918" x2="2.34915" y2="36.7153" gradientUnits="userSpaceOnUse">
<stop stop-color="#FFA800"/>
<stop offset="0.3125" stop-color="#FF579E"/>
<stop offset="0.682292" stop-color="#9F72FF"/>
<stop offset="1" stop-color="#10E6D9"/>
</linearGradient>
</defs>
</svg>
