<svg width="30" height="30" viewBox="0 0 30 30" fill="none" xmlns="http://www.w3.org/2000/svg">
<path d="M13.8842 8H16.1442L15.7642 17.58H14.2442L13.8842 8ZM15.0242 22.12C14.6509 22.12 14.3376 22 14.0842 21.76C13.8309 21.5067 13.7042 21.2 13.7042 20.84C13.7042 20.48 13.8309 20.18 14.0842 19.94C14.3376 19.6867 14.6509 19.56 15.0242 19.56C15.3976 19.56 15.7042 19.6867 15.9442 19.94C16.1842 20.18 16.3042 20.48 16.3042 20.84C16.3042 21.2 16.1776 21.5067 15.9242 21.76C15.6842 22 15.3842 22.12 15.0242 22.12Z" fill="#ED534B"/>
<rect x="1" y="1" width="28" height="28" rx="14" stroke="#ED534B" stroke-width="2"/>
</svg>
