<svg version="1.2" baseProfile="tiny-ps" xmlns="http://www.w3.org/2000/svg" viewBox="0 0 200 60" width="200" height="60">
	<title>Logo-svg</title>
	<style>
		tspan { white-space:pre }
		.shp0 { fill: #251440 } 
		.shp1 { fill: none;stroke: #ff57c6;stroke-width: 2 } 
		.shp2 { fill: none;stroke: #10e6d9;stroke-width: 2 } 
		.shp3 { fill: none;stroke: #ed534b;stroke-width: 2 } 
		.shp4 { fill: none;stroke: #9f72ff;stroke-width: 2 } 
		.shp5 { fill: none;stroke: #ffa800;stroke-width: 2 } 
	</style>
	<path id="Layer" fill-rule="evenodd" class="shp0" d="M85.72 37.48L85.72 59L79.76 59L79.76 56.52C78.21 58.39 75.97 59.32 73.04 59.32C71.01 59.32 69.17 58.87 67.52 57.96C65.89 57.05 64.61 55.76 63.68 54.08C62.75 52.4 62.28 50.45 62.28 48.24C62.28 46.03 62.75 44.08 63.68 42.4C64.61 40.72 65.89 39.43 67.52 38.52C69.17 37.61 71.01 37.16 73.04 37.16C75.79 37.16 77.93 38.03 79.48 39.76L79.48 37.48L85.72 37.48ZM74.12 54.2C75.69 54.2 77 53.67 78.04 52.6C79.08 51.51 79.6 50.05 79.6 48.24C79.6 46.43 79.08 44.99 78.04 43.92C77 42.83 75.69 42.28 74.12 42.28C72.52 42.28 71.2 42.83 70.16 43.92C69.12 44.99 68.6 46.43 68.6 48.24C68.6 50.05 69.12 51.51 70.16 52.6C71.2 53.67 72.52 54.2 74.12 54.2ZM97.58 37.96L103.1 37.96L103.1 42.76L97.74 42.76L97.74 59L91.5 59L91.5 37C91.5 34.55 92.22 32.6 93.66 31.16C95.12 29.72 97.18 29 99.82 29C100.75 29 101.63 29.11 102.46 29.32C103.31 29.51 104.02 29.79 104.58 30.16L102.94 34.68C102.22 34.17 101.38 33.92 100.42 33.92C98.52 33.92 97.58 34.96 97.58 37.04L97.58 37.96ZM112.3 37.96L117.82 37.96L117.82 42.76L112.46 42.76L112.46 59L106.22 59L106.22 37C106.22 34.55 106.94 32.6 108.38 31.16C109.85 29.72 111.9 29 114.54 29C115.48 29 116.36 29.11 117.18 29.32C118.04 29.51 118.74 29.79 119.3 30.16L117.66 34.68C116.94 34.17 116.1 33.92 115.14 33.92C113.25 33.92 112.3 34.96 112.3 37.04L112.3 37.96ZM134.03 37.16C136.7 37.16 138.84 37.96 140.47 39.56C142.12 41.16 142.95 43.53 142.95 46.68L142.95 59L136.71 59L136.71 47.64C136.71 45.93 136.34 44.67 135.59 43.84C134.84 42.99 133.76 42.56 132.35 42.56C130.78 42.56 129.52 43.05 128.59 44.04C127.66 45 127.19 46.44 127.19 48.36L127.19 59L120.95 59L120.95 29.32L127.19 29.32L127.19 39.72C128.02 38.89 129.02 38.27 130.19 37.84C131.36 37.39 132.64 37.16 134.03 37.16ZM170.29 37.48L170.29 59L164.37 59L164.37 56.44C163.54 57.37 162.55 58.09 161.41 58.6C160.26 59.08 159.02 59.32 157.69 59.32C154.86 59.32 152.62 58.51 150.97 56.88C149.31 55.25 148.49 52.84 148.49 49.64L148.49 37.48L154.73 37.48L154.73 48.72C154.73 52.19 156.18 53.92 159.09 53.92C160.58 53.92 161.78 53.44 162.69 52.48C163.59 51.49 164.05 50.04 164.05 48.12L164.05 37.48L170.29 37.48ZM188.79 37.16C190.79 37.16 192.6 37.63 194.23 38.56C195.88 39.47 197.17 40.76 198.11 42.44C199.04 44.09 199.51 46.03 199.51 48.24C199.51 50.45 199.04 52.4 198.11 54.08C197.17 55.73 195.88 57.03 194.23 57.96C192.6 58.87 190.79 59.32 188.79 59.32C185.83 59.32 183.57 58.39 182.03 56.52L182.03 59L176.07 59L176.07 29.32L182.31 29.32L182.31 39.76C183.88 38.03 186.04 37.16 188.79 37.16ZM187.71 54.2C189.31 54.2 190.61 53.67 191.63 52.6C192.67 51.51 193.19 50.05 193.19 48.24C193.19 46.43 192.67 44.99 191.63 43.92C190.61 42.83 189.31 42.28 187.71 42.28C186.11 42.28 184.79 42.83 183.75 43.92C182.73 44.99 182.23 46.43 182.23 48.24C182.23 50.05 182.73 51.51 183.75 52.6C184.79 53.67 186.11 54.2 187.71 54.2Z" />
	<path id="Layer" class="shp1" d="M15.81 30.19C7.08 30.62 -1.69 16.95 3.1 8.85C10.92 -4.36 27.71 1.62 21.61 14.78C18.66 21.14 24.54 29.76 15.81 30.19Z" />
	<path id="Layer" class="shp2" d="M11.29 11.24C10.12 2.46 21.56 3.36 27 3.36C32.44 3.36 39.5 2.36 41.44 6.9C42.92 10.36 42.12 12.84 32.43 18.65C22.74 24.46 12.75 22.21 11.29 11.24Z" />
	<path id="Layer" class="shp3" d="M42.1 13.57C52.6 16.98 44.73 30.33 36.89 32.89C29.04 35.46 21.18 32.81 20.5 24.15C19.81 15.49 31.6 10.16 42.1 13.57Z" />
	<path id="Layer" class="shp4" d="M38.45 39.4C33.88 43.96 28.6 41.33 26.54 39.44C22.7 36.22 15.77 32.78 16.3 25.19C16.96 15.7 26.06 11.19 33.43 16C40.8 20.82 44.15 33.68 38.45 39.4Z" />
	<path id="Layer" class="shp5" d="M33.46 27.1C35.2 31.33 33.26 37.28 23.14 41.41C12.52 45.74 6.19 39.55 5.44 32.72C5.03 28.95 4.81 25.22 10.12 22.39C17.32 18.56 31.72 22.86 33.46 27.1Z" />
</svg>