<svg width="44" height="40" viewBox="0 0 44 40" fill="none" xmlns="http://www.w3.org/2000/svg">
<g clip-path="url(#clip0)">
<path d="M38.658 6.62619L41.42 5.27393V25.8126H38.658V6.62619Z" fill="#009688"/>
<path d="M5.74542 6.62619L2.9834 5.27393V25.8126H5.74542V6.62619Z" fill="#009688"/>
<path fill-rule="evenodd" clip-rule="evenodd" d="M12.9885 9.93842C9.41526 7.35148 6.46009 5.17611 2.77095 3.60827L0.936035 0.492188C5.4364 1.53088 10.5548 4.33339 14.6303 7.95902C18.725 11.5846 22.2017 16.4645 23.2254 21.4424H20.6758C19.4397 17.3073 16.5811 13.0545 12.9885 9.93842Z" fill="#009688"/>
<path fill-rule="evenodd" clip-rule="evenodd" d="M31.5115 9.93826C35.0848 7.35133 38.0593 5.17595 41.7291 3.60811L43.564 0.394043C39.0636 1.43274 33.9452 4.23525 29.8698 7.86088C25.775 11.4865 22.2983 16.3664 21.2747 21.3443H23.8242C25.1569 17.3071 28.0349 13.0543 31.5115 9.93826Z" fill="#009688"/>
<path fill-rule="evenodd" clip-rule="evenodd" d="M31.9172 21.2463C33.0374 21.2463 33.9645 20.4231 33.9645 19.1689C33.9645 18.0322 33.0374 17.0915 31.9172 17.0915C30.7969 17.0915 29.8698 17.9146 29.8698 19.1689C29.8698 20.3056 30.7776 21.2463 31.9172 21.2463ZM31.9172 23.9312C34.4667 23.9312 36.6107 21.8538 36.6107 19.1689C36.6107 16.4644 34.4667 14.387 31.9172 14.387C29.3483 14.4066 27.2043 16.4644 27.2043 19.1689C27.2043 21.8734 29.3483 23.9312 31.9172 23.9312Z" fill="#009688"/>
<path fill-rule="evenodd" clip-rule="evenodd" d="M12.5829 21.6576C13.7032 21.6576 14.6303 20.8345 14.6303 19.5802C14.6303 18.3259 13.7032 17.5028 12.5829 17.5028C11.4627 17.5028 10.5355 18.3259 10.5355 19.5802C10.5549 20.7169 11.4627 21.6576 12.5829 21.6576ZM12.5829 24.3621C15.1325 24.3621 17.2764 22.2847 17.2764 19.5802C17.2764 16.8757 15.1325 14.8179 12.5829 14.8179C10.0334 14.8179 7.8894 16.8757 7.8894 19.5802C7.8894 22.2847 10.0334 24.3621 12.5829 24.3621Z" fill="#009688"/>
<path d="M43.3515 27.1648H1.24512V28.5171H43.3708V27.1648H43.3515Z" fill="#009688"/>
<path d="M4.62523 30.2615L6.86576 35.9645L9.10628 30.2615H11.8683V39.3941H9.82093V33.6911L7.58041 39.3941H5.93864L3.79469 33.6911V39.3941H1.74731V30.2615H4.62523Z" fill="#009688"/>
<path d="M15.4416 37.6303L14.727 39.3941H12.583L16.2721 30.2615H18.3195L21.9894 39.3941H19.8454L19.1307 37.6303H15.4416ZM17.2958 32.966L16.1756 35.8665H18.3195L17.2958 32.966Z" fill="#009688"/>
<path d="M25.3695 30.2615L27.61 35.9645L29.8505 30.2615H32.6125V39.3941H30.5652V33.6911L28.4405 39.3941H26.7987L24.6548 33.6911V39.3941H22.6074V30.2615H25.3695Z" fill="#009688"/>
<path d="M36.3015 37.6303L35.5868 39.3941H33.4429L37.132 30.2615H39.1794L42.8492 39.3941H40.7053L39.9906 37.6303H36.3015ZM38.0398 32.966L36.9195 35.8665H39.0635L38.0398 32.966Z" fill="#009688"/>
</g>
<defs>
<clipPath id="clip0">
<rect width="42.6279" height="39" fill="white" transform="translate(0.936035 0.394043)"/>
</clipPath>
</defs>
</svg>
