<svg width="115" height="31" viewBox="0 0 115 31" fill="none" xmlns="http://www.w3.org/2000/svg">
<g clip-path="url(#clip0)">
<path d="M4.16055 0.712158H25.967C27.9716 0.712158 29.6101 2.35317 29.6101 4.36079V26.4097C29.6101 28.4348 27.9716 30.0758 25.967 30.0758H4.16055C2.13853 30.0758 0.5 28.4348 0.5 26.4097V4.36079C0.5 2.35317 2.13853 0.712158 4.16055 0.712158Z" fill="#FF0000"/>
<path fill-rule="evenodd" clip-rule="evenodd" d="M2.62656 10.7852C2.62656 6.40339 6.18253 2.84204 10.5752 2.84204H18.088V9.40609C18.088 10.279 17.3734 10.9947 16.5018 10.9947H2.62656V10.7852ZM27.5009 20.0028C27.5009 24.3847 23.9449 27.946 19.5697 27.946H12.0394V21.382C12.0394 20.5091 12.7541 19.7933 13.6256 19.7933H27.5009V20.0028ZM19.5523 11.309C23.9275 11.309 27.4834 14.8703 27.4834 19.2522V19.4617H10.5578C6.18253 19.4617 2.60913 15.9003 2.60913 11.501V11.2915H19.5523V11.309Z" fill="white"/>
<path d="M39.912 18.1873C39.912 18.8157 40.0166 19.3395 40.2258 19.7934C40.435 20.2298 40.7313 20.5964 41.1148 20.8932C41.4983 21.1725 41.9341 21.382 42.4221 21.5042C42.9276 21.6264 43.468 21.6788 44.0432 21.6788C44.6708 21.6788 45.1937 21.6089 45.6469 21.4693C46.0827 21.3122 46.4487 21.1201 46.7276 20.8932C47.0065 20.6662 47.1983 20.4044 47.3203 20.1076C47.4423 19.8108 47.4946 19.4966 47.4946 19.1998C47.4946 18.5713 47.3552 18.1174 47.0588 17.8207C46.7799 17.5239 46.4836 17.2969 46.1524 17.1747C45.5772 16.9652 44.8974 16.7557 44.113 16.5812C43.346 16.3891 42.4047 16.1273 41.2891 15.8305C40.5919 15.6559 39.9992 15.4115 39.5285 15.1147C39.0753 14.818 38.7093 14.4688 38.4304 14.1022C38.1515 13.7356 37.9597 13.3515 37.8377 12.9325C37.7331 12.5136 37.6808 12.0946 37.6808 11.6756C37.6808 10.8551 37.8552 10.1393 38.1863 9.54576C38.535 8.93475 38.9882 8.42848 39.5634 8.04441C40.1212 7.64289 40.7662 7.36357 41.4808 7.17153C42.1955 6.9795 42.9276 6.87476 43.6423 6.87476C44.4964 6.87476 45.2983 6.99696 46.0304 7.22391C46.7974 7.4334 47.4597 7.76509 48.0175 8.20153C48.5928 8.63797 49.046 9.19661 49.3946 9.84254C49.7258 10.4885 49.9001 11.2217 49.9001 12.0771H47.0414C46.9717 11.0297 46.6056 10.279 45.9607 9.86C45.3157 9.42356 44.5139 9.19661 43.5203 9.19661C43.1891 9.19661 42.8405 9.23153 42.4919 9.31882C42.1432 9.37119 41.8295 9.49339 41.5331 9.66797C41.2368 9.82509 40.9928 10.0346 40.801 10.3139C40.6267 10.5932 40.5221 10.9249 40.5221 11.3439C40.5221 11.92 40.6964 12.3739 41.0451 12.723C41.4111 13.0373 41.8818 13.2817 42.457 13.4563C42.5093 13.4737 42.7533 13.5435 43.1717 13.6658C43.59 13.7705 44.0781 13.8927 44.5836 14.0324C45.1065 14.172 45.612 14.3117 46.0827 14.4513C46.5882 14.5735 46.9368 14.6608 47.1634 14.7307C47.7038 14.9052 48.157 15.1322 48.5579 15.4115C48.9588 15.7083 49.2726 16.04 49.5341 16.424C49.813 16.7907 50.0047 17.1922 50.1267 17.6112C50.2662 18.0301 50.3359 18.4666 50.3359 18.8856C50.3359 19.7934 50.1441 20.579 49.7607 21.2423C49.3946 21.8883 48.9065 22.412 48.2964 22.8135C47.6863 23.2325 46.9891 23.5293 46.2221 23.7039C45.4377 23.8959 44.6533 24.0006 43.8515 24.0006C42.9276 24.0006 42.0561 23.8784 41.2194 23.6515C40.4001 23.4245 39.6854 23.0754 39.0753 22.604C38.4652 22.1327 37.9772 21.5217 37.6111 20.8059C37.2451 20.0552 37.0533 19.1823 37.0359 18.1698L39.912 18.1873Z" fill="black"/>
<path d="M59.8706 16.6684C59.8357 16.2494 59.7486 15.8654 59.5917 15.4813C59.4522 15.0972 59.2605 14.7655 58.999 14.5037C58.755 14.2069 58.4587 13.98 58.0926 13.8228C57.744 13.6483 57.3431 13.5435 56.9073 13.5435C56.4541 13.5435 56.0357 13.6308 55.6522 13.7879C55.2862 13.945 54.9724 14.1545 54.6935 14.4513C54.432 14.7306 54.2229 15.0449 54.0486 15.4289C53.8917 15.813 53.8045 16.2145 53.8045 16.6684H59.8706ZM53.822 18.3793C53.822 18.8332 53.8917 19.2871 54.0137 19.706C54.1531 20.125 54.3449 20.5091 54.6064 20.8233C54.8678 21.1376 55.199 21.3994 55.5825 21.6089C55.9834 21.7835 56.4541 21.8882 56.9944 21.8882C57.7614 21.8882 58.3715 21.7311 58.8247 21.3994C59.2954 21.0677 59.644 20.5615 59.8706 19.9155H62.3284C62.1889 20.5615 61.9623 21.1201 61.6137 21.6264C61.2825 22.1326 60.8816 22.5516 60.411 22.9008C59.9403 23.2325 59.3999 23.4943 58.8073 23.6514C58.232 23.826 57.622 23.9308 56.977 23.9308C56.0531 23.9308 55.2339 23.7736 54.5192 23.4769C53.8045 23.1801 53.1944 22.7437 52.6889 22.2025C52.2009 21.6613 51.8348 20.9979 51.5733 20.2298C51.3293 19.4616 51.2073 18.6237 51.2073 17.7159C51.2073 16.8779 51.3293 16.0923 51.5908 15.3416C51.8697 14.5735 52.2531 13.9101 52.7238 13.3515C53.2293 12.7754 53.822 12.3215 54.5192 11.9723C55.2165 11.6406 56.0183 11.4661 56.8898 11.4661C57.8137 11.4661 58.6504 11.6581 59.3825 12.0596C60.132 12.4437 60.7421 12.95 61.2302 13.5959C61.7183 14.2418 62.0669 14.975 62.2761 15.813C62.5027 16.6335 62.5724 17.4889 62.4504 18.3793H53.822Z" fill="black"/>
<path d="M63.7751 11.7979H66.2329V13.4389H66.3027C66.4944 13.1421 66.721 12.8802 66.9476 12.6358C67.1742 12.3914 67.4183 12.1819 67.6972 12.0248C67.9935 11.8503 68.3073 11.728 68.6733 11.6408C69.0394 11.536 69.4577 11.4836 69.9283 11.4836C70.643 11.4836 71.3054 11.6408 71.9155 11.9725C72.543 12.2867 72.9788 12.793 73.2403 13.4563C73.676 12.8453 74.199 12.374 74.7742 12.0074C75.3494 11.6582 76.0816 11.4836 76.9357 11.4836C78.1907 11.4836 79.1494 11.7804 79.8293 12.3914C80.5265 13.0025 80.8751 14.015 80.8751 15.464V23.6167H78.2779V16.7209C78.2779 16.2496 78.2604 15.8131 78.2256 15.4465C78.1907 15.045 78.1036 14.7133 77.9467 14.434C77.8072 14.1372 77.5981 13.9277 77.3017 13.7706C77.0054 13.6135 76.6219 13.5436 76.1164 13.5436C75.2274 13.5436 74.5999 13.823 74.199 14.3641C73.7981 14.9053 73.6063 15.6909 73.6063 16.7035V23.6167H71.0091V16.0226C71.0091 15.2021 70.8522 14.5736 70.5559 14.1721C70.2595 13.7531 69.7192 13.5262 68.9348 13.5262C68.6036 13.5262 68.2724 13.596 67.9586 13.7357C67.6449 13.8753 67.3834 14.0674 67.1394 14.3292C66.9128 14.5911 66.721 14.9053 66.5641 15.2894C66.4247 15.6735 66.355 16.1099 66.355 16.5987V23.6167H63.7751V11.7979Z" fill="black"/>
<path d="M83.0193 11.7979H85.4771V13.404H85.5294C85.8954 12.7231 86.4009 12.2343 87.0633 11.9375C87.7257 11.6408 88.423 11.4836 89.1899 11.4836C90.1138 11.4836 90.9331 11.6582 91.6129 11.9899C92.3101 12.3041 92.8854 12.758 93.356 13.3341C93.8092 13.8928 94.1578 14.5562 94.3844 15.3243C94.611 16.0924 94.7331 16.8955 94.7331 17.7684C94.7331 18.554 94.6285 19.3396 94.4193 20.0728C94.2276 20.8234 93.9138 21.4868 93.478 22.0629C93.0597 22.6216 92.5367 23.0929 91.9092 23.4421C91.2643 23.7738 90.5147 23.9483 89.6431 23.9483C89.2597 23.9483 88.8762 23.9134 88.5101 23.8261C88.1266 23.7738 87.7606 23.6516 87.412 23.5119C87.0633 23.3548 86.7321 23.1628 86.4358 22.9358C86.1395 22.6914 85.8954 22.4121 85.7037 22.0978H85.6514V27.9985H83.0542L83.0193 11.7979ZM92.0835 17.716C92.0835 17.1748 92.0138 16.6685 91.8743 16.1623C91.7349 15.656 91.5257 15.2196 91.2643 14.8355C90.9854 14.434 90.6542 14.1197 90.2358 13.8928C89.8175 13.6484 89.3468 13.5262 88.8239 13.5262C87.7257 13.5262 86.889 13.9102 86.3312 14.6784C85.7909 15.4465 85.512 16.4591 85.512 17.716C85.512 18.3096 85.5817 18.8682 85.7211 19.3919C85.878 19.8982 86.0872 20.3346 86.3835 20.7012C86.6624 21.0678 87.011 21.3646 87.412 21.5741C87.8303 21.7836 88.3009 21.8884 88.8239 21.8884C89.4165 21.8884 89.922 21.7662 90.323 21.5217C90.7413 21.2773 91.0725 20.9631 91.334 20.579C91.6129 20.1775 91.8046 19.7411 91.9092 19.2523C92.0312 18.746 92.0835 18.2397 92.0835 17.716Z" fill="black"/>
<path d="M96.1973 11.7979H98.6376V14.0848H98.6899C98.7596 13.7706 98.9165 13.4563 99.1257 13.1421C99.3523 12.8453 99.6138 12.566 99.9275 12.3216C100.241 12.0597 100.59 11.8503 100.973 11.7106C101.357 11.5535 101.74 11.4836 102.141 11.4836C102.438 11.4836 102.647 11.4836 102.751 11.5011C102.873 11.5186 102.995 11.536 103.117 11.5535V14.0674C102.943 14.0324 102.751 14.015 102.542 13.9975C102.368 13.9626 102.176 13.9452 102.002 13.9452C101.566 13.9452 101.148 14.0324 100.747 14.2245C100.363 14.3991 100.032 14.6435 99.7358 15.0101C99.4395 15.3418 99.2129 15.7607 99.056 16.267C98.8991 16.7733 98.8119 17.3494 98.8119 18.0128V23.6341H96.1973V11.7979Z" fill="black"/>
<path d="M108.539 23.9309C107.597 23.9309 106.743 23.7738 106.011 23.477C105.279 23.1628 104.651 22.7263 104.146 22.1677C103.64 21.6265 103.257 20.9631 102.978 20.195C102.717 19.4268 102.594 18.5889 102.594 17.6811C102.594 16.7733 102.717 15.9528 102.978 15.1847C103.257 14.4165 103.64 13.7706 104.146 13.2119C104.669 12.6708 105.296 12.2343 106.011 11.9375C106.761 11.6233 107.597 11.4487 108.539 11.4487C109.48 11.4487 110.317 11.6058 111.049 11.9375C111.798 12.2343 112.426 12.6708 112.914 13.2119C113.437 13.7531 113.82 14.4165 114.082 15.1847C114.361 15.9528 114.5 16.7733 114.5 17.6811C114.5 18.5889 114.361 19.4268 114.082 20.195C113.82 20.9631 113.437 21.609 112.914 22.1677C112.408 22.7089 111.781 23.1453 111.049 23.477C110.317 23.7912 109.497 23.9309 108.539 23.9309ZM108.539 21.8884C109.114 21.8884 109.619 21.7662 110.038 21.5217C110.456 21.2773 110.822 20.9631 111.083 20.5616C111.362 20.1601 111.554 19.7236 111.676 19.2348C111.816 18.7285 111.885 18.2223 111.885 17.6985C111.885 17.1923 111.816 16.686 111.676 16.1972C111.554 15.6909 111.362 15.2545 111.083 14.8704C110.805 14.4689 110.456 14.1547 110.038 13.9102C109.619 13.6658 109.114 13.5436 108.539 13.5436C107.963 13.5436 107.458 13.6658 107.039 13.9102C106.604 14.1547 106.255 14.4689 105.994 14.8704C105.715 15.2545 105.505 15.6909 105.383 16.1972C105.261 16.7035 105.192 17.2097 105.192 17.6985C105.192 18.2223 105.261 18.7285 105.383 19.2348C105.523 19.7236 105.732 20.1601 105.994 20.5616C106.272 20.9631 106.621 21.2773 107.039 21.5217C107.458 21.7662 107.963 21.8884 108.539 21.8884Z" fill="black"/>
<path d="M38.6394 26.34C38.6219 26.2003 38.5696 26.0956 38.4825 26.0257C38.3953 25.9559 38.2733 25.921 38.1513 25.921C38.0816 25.921 38.0293 25.9385 37.9421 25.9559C37.8724 25.9734 37.8027 26.0083 37.7504 26.0781C37.6981 26.1305 37.6458 26.2178 37.6109 26.3225C37.5761 26.4273 37.5586 26.5669 37.5586 26.724C37.5586 26.8113 37.5761 26.8986 37.5935 26.9859C37.6109 27.0732 37.6458 27.1605 37.6981 27.2303C37.7504 27.3001 37.8027 27.3525 37.8724 27.4049C37.9421 27.4398 38.0293 27.4747 38.1339 27.4747C38.2733 27.4747 38.3953 27.4398 38.4825 27.3351C38.5871 27.2478 38.6394 27.1256 38.6568 26.9685H39.1449C39.0926 27.2478 38.988 27.4747 38.8137 27.6318C38.6394 27.789 38.4128 27.8588 38.1339 27.8588C37.9595 27.8588 37.8201 27.8239 37.6806 27.7715C37.5412 27.7191 37.4366 27.6318 37.3495 27.5271C37.2623 27.4223 37.1926 27.3001 37.1403 27.1605C37.088 27.0208 37.0706 26.8812 37.0706 26.7066C37.0706 26.5495 37.088 26.3924 37.1403 26.2527C37.1926 26.113 37.2449 25.9734 37.3495 25.8861C37.4366 25.7813 37.5586 25.694 37.6806 25.6417C37.8201 25.5718 37.977 25.5544 38.1513 25.5544C38.2733 25.5544 38.3953 25.5718 38.5173 25.6068C38.6394 25.6417 38.744 25.694 38.8311 25.7464C38.9183 25.8163 38.988 25.9035 39.0577 25.9908C39.11 26.0956 39.1449 26.2003 39.1623 26.34H38.6394ZM42.9972 27.8588C42.8229 27.8588 42.666 27.8239 42.5265 27.7715C42.3871 27.7191 42.2825 27.6318 42.1779 27.5271C42.0907 27.4223 42.021 27.3001 41.9513 27.1605C41.899 27.0208 41.8816 26.8637 41.8816 26.6891C41.8816 26.532 41.899 26.3574 41.9513 26.2352C42.0036 26.0956 42.0733 25.9734 42.1779 25.8686C42.2651 25.7639 42.3871 25.694 42.5265 25.6242C42.666 25.5718 42.8229 25.5369 42.9972 25.5369C43.1715 25.5369 43.3284 25.5718 43.4678 25.6242C43.6073 25.6766 43.7293 25.7639 43.8164 25.8686C43.921 25.9734 43.9907 26.0956 44.043 26.2352C44.0953 26.3749 44.1128 26.532 44.1128 26.6891C44.1128 26.8637 44.0779 27.0208 44.043 27.1605C43.9907 27.3001 43.921 27.4223 43.8164 27.5271C43.7293 27.6318 43.6073 27.7017 43.4678 27.7715C43.3284 27.8239 43.1715 27.8588 42.9972 27.8588ZM42.9972 27.4747C43.1018 27.4747 43.1889 27.4573 43.2761 27.4049C43.3632 27.3525 43.4155 27.3001 43.4678 27.2303C43.5201 27.1605 43.555 27.0732 43.5724 26.9859C43.5898 26.8812 43.6073 26.7939 43.6073 26.7066C43.6073 26.6018 43.5898 26.5146 43.5724 26.4273C43.555 26.3225 43.5201 26.2527 43.4678 26.1829C43.4155 26.113 43.3458 26.0432 43.2761 26.0083C43.1889 25.9559 43.1018 25.9385 42.9972 25.9385C42.8926 25.9385 42.788 25.9559 42.7183 26.0083C42.6311 26.0607 42.5788 26.113 42.5265 26.1829C42.4742 26.2527 42.4394 26.34 42.4045 26.4273C42.3871 26.5146 42.3696 26.6193 42.3696 26.7066C42.3696 26.7939 42.3871 26.8986 42.4045 26.9859C42.4394 27.0732 42.4742 27.1605 42.5265 27.2303C42.5788 27.3001 42.6485 27.37 42.7183 27.4049C42.8054 27.4573 42.8926 27.4747 42.9972 27.4747ZM46.9715 25.6068H47.4247V25.9385L47.4421 25.9559C47.5118 25.8337 47.6164 25.7464 47.721 25.6766C47.843 25.6068 47.9651 25.5718 48.1219 25.5718C48.366 25.5718 48.5577 25.6417 48.6972 25.7639C48.8366 25.8861 48.9063 26.0781 48.9063 26.3225V27.8239H48.4183V26.4447C48.4183 26.2701 48.3834 26.1479 48.3137 26.0781C48.244 25.9908 48.1394 25.9559 47.9999 25.9559C47.9128 25.9559 47.843 25.9734 47.7733 26.0083C47.7036 26.0257 47.6513 26.0781 47.6164 26.1305C47.5641 26.1829 47.5467 26.2352 47.5118 26.3051C47.477 26.3749 47.477 26.4447 47.477 26.532V27.8239H47.0063V25.6068H46.9715ZM51.6605 25.6068H52.0265V25.4322C52.0265 25.2925 52.044 25.1878 52.0788 25.1005C52.1137 25.0132 52.166 24.9434 52.2183 24.891C52.2706 24.8386 52.3403 24.8037 52.41 24.8037C52.4797 24.7863 52.5669 24.7688 52.6366 24.7688C52.7935 24.7688 52.9155 24.7863 52.9678 24.8037V25.1703C52.9329 25.1529 52.8981 25.1529 52.8632 25.1529C52.8284 25.1529 52.7935 25.1354 52.7412 25.1354C52.6715 25.1354 52.6192 25.1529 52.5669 25.1878C52.5146 25.2227 52.4972 25.2751 52.4972 25.3624V25.5893H52.9155V25.9559H52.4972V27.789H52.0091V25.9559H51.643L51.6605 25.6068ZM57.1862 26.5146C57.1862 26.4447 57.1687 26.3749 57.1339 26.2876C57.099 26.2178 57.0641 26.1479 57.0293 26.113C56.977 26.0607 56.9247 26.0257 56.855 25.9908C56.7852 25.9559 56.7155 25.9385 56.6284 25.9385C56.5412 25.9385 56.4715 25.9559 56.4018 25.9908C56.332 26.0083 56.2797 26.0607 56.2274 26.113C56.1752 26.1654 56.1403 26.2178 56.1054 26.2876C56.088 26.3574 56.0706 26.4273 56.0531 26.5146H57.1862ZM56.0531 26.8288C56.0531 26.9161 56.0706 26.9859 56.088 27.0732C56.1054 27.1605 56.1577 27.2303 56.1926 27.2827C56.2449 27.3351 56.2972 27.3874 56.3669 27.4223C56.4366 27.4573 56.5238 27.4747 56.6284 27.4747C56.7678 27.4747 56.8898 27.4398 56.9596 27.3874C57.0467 27.3176 57.1164 27.2303 57.1513 27.1081H57.6045C57.5871 27.2303 57.5348 27.3351 57.4651 27.4223C57.3953 27.5096 57.3256 27.5969 57.2385 27.6668C57.1513 27.7366 57.0467 27.7715 56.9421 27.8064C56.8375 27.8413 56.7155 27.8588 56.6109 27.8588C56.4366 27.8588 56.2797 27.8239 56.1577 27.7715C56.0183 27.7191 55.9137 27.6318 55.8265 27.5271C55.7394 27.4223 55.6696 27.3001 55.6174 27.1605C55.5651 27.0208 55.5476 26.8637 55.5476 26.6891C55.5476 26.532 55.5651 26.3924 55.6174 26.2527C55.6696 26.113 55.7394 25.9908 55.8265 25.8861C55.9311 25.7813 56.0357 25.694 56.1577 25.6242C56.2972 25.5544 56.4366 25.5369 56.5935 25.5369C56.7678 25.5369 56.9247 25.5718 57.0467 25.6417C57.1862 25.7115 57.3082 25.8163 57.3953 25.921C57.4825 26.0432 57.5522 26.1829 57.5871 26.34C57.6219 26.4971 57.6394 26.6542 57.6219 26.8113H56.0531V26.8288ZM60.4981 25.6068H60.9513V26.0257H60.9687C60.9862 25.9734 61.0036 25.9035 61.0385 25.8512C61.0907 25.7988 61.1256 25.7464 61.1779 25.6941C61.2302 25.6417 61.2999 25.6068 61.3696 25.5718C61.4394 25.5369 61.5091 25.5369 61.5788 25.5369C61.6311 25.5369 61.6834 25.5369 61.7008 25.5369C61.7183 25.5369 61.7531 25.5369 61.7706 25.5544V26.0257C61.7357 26.0257 61.7008 26.0083 61.666 26.0083C61.6311 26.0083 61.5963 25.9908 61.5614 25.9908C61.4917 25.9908 61.4045 26.0083 61.3348 26.0432C61.2651 26.0781 61.1953 26.1305 61.143 26.1829C61.0907 26.2527 61.0559 26.3225 61.021 26.4098C60.9862 26.4971 60.9687 26.6018 60.9687 26.7415V27.789H60.4807L60.4981 25.6068ZM65.8843 26.5146C65.8843 26.4447 65.8669 26.3749 65.832 26.2876C65.7972 26.2178 65.7623 26.1479 65.7274 26.113C65.6752 26.0607 65.6229 26.0257 65.5531 25.9908C65.4834 25.9559 65.4137 25.9385 65.3265 25.9385C65.2394 25.9385 65.1696 25.9559 65.0999 25.9908C65.0302 26.0083 64.9779 26.0607 64.9256 26.113C64.8733 26.1654 64.8385 26.2178 64.8036 26.2876C64.7687 26.3574 64.7687 26.4273 64.7513 26.5146H65.8843ZM64.7513 26.8288C64.7513 26.9161 64.7687 26.9859 64.7862 27.0732C64.821 27.1605 64.8559 27.2303 64.8907 27.2827C64.943 27.3351 64.9953 27.3874 65.0651 27.4223C65.1348 27.4573 65.2219 27.4747 65.3265 27.4747C65.466 27.4747 65.588 27.4398 65.6577 27.3874C65.7449 27.3176 65.8146 27.2303 65.8495 27.1081H66.3027C66.2852 27.2303 66.233 27.3351 66.1632 27.4223C66.0935 27.5096 66.0238 27.5969 65.9366 27.6668C65.8495 27.7366 65.7449 27.7715 65.6403 27.8064C65.5357 27.8413 65.4137 27.8588 65.3091 27.8588C65.1348 27.8588 64.9779 27.8239 64.8559 27.7715C64.7164 27.7191 64.6118 27.6318 64.5247 27.5271C64.4375 27.4223 64.3678 27.3001 64.3155 27.1605C64.2807 27.0208 64.2458 26.8637 64.2458 26.6891C64.2458 26.532 64.2632 26.3924 64.3155 26.2527C64.3678 26.113 64.4375 25.9908 64.5247 25.8861C64.6118 25.7813 64.7339 25.694 64.8559 25.6242C64.9779 25.5544 65.1348 25.5369 65.2917 25.5369C65.466 25.5369 65.6229 25.5718 65.7449 25.6417C65.8843 25.7115 66.0063 25.8163 66.0935 25.921C66.1807 26.0432 66.2504 26.1829 66.2852 26.34C66.3201 26.4971 66.3375 26.6542 66.3201 26.8113H64.7513V26.8288ZM69.1963 25.6068H69.6495V25.9385L69.6669 25.9559C69.7366 25.8337 69.8412 25.7464 69.9458 25.6766C70.0678 25.6068 70.1898 25.5718 70.3467 25.5718C70.5908 25.5718 70.7825 25.6417 70.9219 25.7639C71.0614 25.8861 71.1311 26.0781 71.1311 26.3225V27.8239H70.643V26.4447C70.643 26.2701 70.5907 26.1479 70.5385 26.0781C70.4687 25.9908 70.3641 25.9559 70.2247 25.9559C70.1375 25.9559 70.0678 25.9734 69.9981 26.0083C69.9284 26.0257 69.8761 26.0781 69.8412 26.1305C69.7889 26.1829 69.7715 26.2352 69.7366 26.3051C69.7018 26.3749 69.7018 26.4447 69.7018 26.532V27.8239H69.2137L69.1963 25.6068ZM75.5761 26.34C75.5586 26.2003 75.5063 26.0956 75.4192 26.0257C75.332 25.9559 75.21 25.921 75.088 25.921C75.0183 25.921 74.966 25.9385 74.8788 25.9559C74.8091 25.9734 74.7394 26.0083 74.6871 26.0781C74.6348 26.1305 74.5825 26.2178 74.5302 26.3225C74.4779 26.4273 74.4779 26.5669 74.4779 26.724C74.4779 26.8113 74.4953 26.8986 74.5128 26.9859C74.5302 27.0732 74.5651 27.1605 74.6174 27.2303C74.6697 27.3001 74.7219 27.3525 74.7917 27.4049C74.8614 27.4398 74.9486 27.4747 75.0531 27.4747C75.1926 27.4747 75.3146 27.4398 75.4018 27.3351C75.4889 27.2478 75.5586 27.1256 75.5761 26.9685H76.0641C76.0293 27.2478 75.9073 27.4747 75.733 27.6318C75.5586 27.789 75.332 27.8588 75.0531 27.8588C74.8788 27.8588 74.7394 27.8239 74.5999 27.7715C74.4779 27.7191 74.3559 27.6318 74.2687 27.5271C74.1816 27.4223 74.1119 27.3001 74.0596 27.1605C74.0073 27.0208 73.9898 26.8812 73.9898 26.7066C73.9898 26.5495 74.0073 26.3924 74.0596 26.2527C74.0944 26.113 74.1641 25.9734 74.2513 25.8861C74.3385 25.7813 74.4605 25.694 74.5825 25.6417C74.7219 25.5718 74.8788 25.5544 75.0531 25.5544C75.1752 25.5544 75.2972 25.5718 75.4192 25.6068C75.5412 25.6417 75.6458 25.694 75.733 25.7464C75.8201 25.8163 75.8898 25.9035 75.9596 25.9908C76.0119 26.0956 76.0467 26.2003 76.0641 26.34H75.5761ZM80.4219 26.5146C80.4219 26.4447 80.4045 26.3749 80.3697 26.2876C80.3522 26.2178 80.2999 26.1479 80.2651 26.113C80.2302 26.0607 80.1605 26.0257 80.0908 25.9908C80.021 25.9559 79.9513 25.9385 79.8641 25.9385C79.777 25.9385 79.7073 25.9559 79.6375 25.9908C79.5678 26.0083 79.5155 26.0607 79.4632 26.113C79.4109 26.1654 79.3761 26.2178 79.3412 26.2876C79.3063 26.3574 79.3064 26.4273 79.2889 26.5146H80.4219ZM79.3064 26.8288C79.3064 26.9161 79.3238 26.9859 79.3412 27.0732C79.3586 27.1605 79.4109 27.2303 79.4458 27.2827C79.4981 27.3351 79.5504 27.3874 79.6201 27.4223C79.6898 27.4573 79.777 27.4747 79.8816 27.4747C80.021 27.4747 80.143 27.4398 80.2128 27.3874C80.2999 27.3176 80.3697 27.2303 80.4045 27.1081H80.8577C80.8229 27.2303 80.788 27.3351 80.7183 27.4223C80.6486 27.5096 80.5788 27.5969 80.4917 27.6668C80.4045 27.7366 80.2999 27.7715 80.1953 27.8064C80.0908 27.8413 79.9687 27.8588 79.8641 27.8588C79.6898 27.8588 79.5504 27.8239 79.4109 27.7715C79.2715 27.7191 79.1669 27.6318 79.0797 27.5271C78.9926 27.4223 78.9229 27.3001 78.8706 27.1605C78.8357 27.0208 78.8008 26.8637 78.8008 26.6891C78.8008 26.532 78.8357 26.3924 78.8706 26.2527C78.9229 26.113 78.9926 25.9908 79.0797 25.8861C79.1843 25.7813 79.2889 25.694 79.4109 25.6242C79.5504 25.5544 79.6898 25.5369 79.8467 25.5369C80.021 25.5369 80.1779 25.5718 80.2999 25.6417C80.4394 25.7115 80.5614 25.8163 80.6485 25.921C80.7357 26.0432 80.8054 26.1829 80.8403 26.34C80.8752 26.4971 80.8926 26.6542 80.8752 26.8113H79.3064V26.8288Z" fill="black"/>
</g>
<defs>
<clipPath id="clip0">
<rect width="114" height="29.3636" fill="white" transform="translate(0.5 0.712158)"/>
</clipPath>
</defs>
</svg>
