<svg width="108" height="34" viewBox="0 0 108 34" fill="none" xmlns="http://www.w3.org/2000/svg">
<g clip-path="url(#clip0)">
<path d="M41.1567 13.785V12.2803H34.2669V13.8575H38.7934L34.1396 19.7494V21.381H41.1567V19.7494H36.4302L41.1567 13.785Z" fill="black"/>
<path d="M45.047 14.4377C43.8654 14.4377 43.011 14.7641 42.4838 15.4892C41.8839 16.2144 41.6294 17.0664 41.6294 17.9729C41.6294 18.9519 41.8839 19.8039 42.4838 20.5291C43.0837 21.2542 43.9199 21.5806 45.047 21.5806C46.2286 21.5806 47.083 21.2542 47.6102 20.5291C48.2101 19.8039 48.4646 18.9519 48.4646 17.9729C48.4646 16.9939 48.2101 16.1419 47.6102 15.4892C47.0648 14.7641 46.2286 14.4377 45.047 14.4377ZM46.2286 19.5501C45.9741 19.9489 45.5742 20.0758 45.047 20.0758C44.5198 20.0758 44.1199 19.8764 43.8654 19.5501C43.6109 19.1513 43.4654 18.6255 43.4654 17.9729C43.4654 17.3202 43.5927 16.7945 43.8654 16.3957C44.1199 15.9968 44.5198 15.8699 45.047 15.8699C45.5742 15.8699 45.9741 16.0693 46.2286 16.3957C46.4831 16.7945 46.6286 17.2477 46.6286 17.9729C46.6286 18.698 46.4831 19.2238 46.2286 19.5501Z" fill="black"/>
<path d="M53.0456 14.5103C52.5184 14.5103 52.064 14.6372 51.7367 14.9091C51.5368 15.1085 51.2823 15.3623 51.0096 15.8337V14.6372H49.3008V21.3811H51.0823V18.1723C51.0823 17.6466 51.155 17.2477 51.2823 16.9939C51.5368 16.5407 52.0094 16.2688 52.7184 16.2688C52.7911 16.2688 52.8456 16.2688 52.9184 16.2688C52.9911 16.2688 53.1183 16.2688 53.2456 16.2688V14.4377C53.1729 14.4377 53.1183 14.4377 53.1183 14.4377C53.1183 14.5103 53.1183 14.5103 53.0456 14.5103Z" fill="black"/>
<path d="M57.6448 14.5101C57.1177 14.5101 56.7177 14.637 56.3905 14.8365C56.136 15.0359 55.8633 15.2353 55.6634 15.5616V12.3528H53.8818V21.4354H55.5906V20.5833C55.8451 20.9097 56.0451 21.1816 56.2451 21.3085C56.5723 21.5079 57.0268 21.6348 57.6267 21.6348C58.5538 21.6348 59.2082 21.3085 59.7354 20.5833C60.2626 19.9307 60.4625 19.0061 60.4625 17.9728C60.4625 16.9938 60.208 16.1417 59.6809 15.4891C59.2264 14.8365 58.4992 14.5101 57.6448 14.5101ZM58.2266 19.55C57.9721 19.9488 57.6267 20.0757 57.1722 20.0757C56.645 20.0757 56.2451 19.8763 55.9906 19.4956C55.7361 19.0968 55.5906 18.6435 55.5906 18.0634C55.5906 17.6102 55.6634 17.157 55.7906 16.885C56.0633 16.2868 56.445 16.033 57.0995 16.033C57.7539 16.033 58.1538 16.3593 58.4083 16.9394C58.5356 17.2657 58.6083 17.6646 58.6083 18.1178C58.6265 18.6979 58.4992 19.1511 58.2266 19.55Z" fill="black"/>
<path d="M66.9705 20.9095C66.8977 20.837 66.8977 20.6557 66.8432 20.4563C66.8432 20.13 66.8432 19.8581 66.8432 19.6768V16.5948C66.8432 15.8153 66.5887 15.217 65.9888 14.9632C65.3889 14.6913 64.7345 14.51 64.0255 14.51C62.9166 14.51 62.0622 14.8363 61.5896 15.4346C61.3351 15.8334 61.1351 16.2867 61.0624 16.8668H62.7712C62.8439 16.5948 62.8984 16.4136 63.0439 16.2685C63.2438 16.0691 63.4983 15.9422 63.9528 15.9422C64.3527 15.9422 64.6072 16.0147 64.8072 16.0691C65.0072 16.196 65.0617 16.3954 65.0617 16.6674C65.0617 16.8668 64.9344 17.0662 64.6618 17.1931C64.5345 17.2656 64.2618 17.32 63.9346 17.32H63.4074C62.753 17.3925 62.2258 17.5738 61.8259 17.7732C61.1715 18.1721 60.8442 18.7522 60.8442 19.5317C60.8442 20.1844 61.0442 20.6376 61.4441 21.0364C61.8441 21.3628 62.3712 21.5622 62.953 21.5622C63.4074 21.5622 63.8801 21.4353 64.2618 21.2359C64.589 21.0364 64.8617 20.837 65.1162 20.5832C65.1162 20.7101 65.1162 20.837 65.1889 20.9821C65.1889 21.109 65.2617 21.2359 65.3162 21.3809H67.225V21.1271C67.0977 21.0546 67.025 20.9821 66.9705 20.9095ZM65.1344 18.7522C65.1344 19.3505 64.9344 19.7312 64.6072 20.0031C64.28 20.2025 63.9528 20.3294 63.5529 20.3294C63.2984 20.3294 63.0984 20.2569 62.953 20.13C62.753 20.0031 62.6985 19.8037 62.6985 19.4774C62.6985 19.151 62.8257 18.8791 63.0984 18.7522C63.2984 18.6797 63.5529 18.5528 63.8801 18.4984L64.28 18.4259C64.48 18.3534 64.6072 18.3534 64.7345 18.299C64.8617 18.2265 64.9344 18.1721 65.0617 18.0995V18.7522H65.1344Z" fill="black"/>
<path d="M71.697 17.32C70.6427 17.0661 70.0609 16.9211 69.861 16.8667C69.661 16.7942 69.6065 16.5948 69.6065 16.4135C69.6065 16.2866 69.6792 16.0872 69.861 16.0147C69.9882 15.8878 70.3154 15.8152 70.7154 15.8152C71.1698 15.8152 71.4971 15.9422 71.697 16.1416C71.8243 16.2685 71.897 16.4679 71.897 16.6673H73.6785C73.6058 15.8152 73.2786 15.2895 72.7514 14.9088C72.2242 14.5825 71.4971 14.3831 70.7154 14.3831C69.7883 14.3831 69.1338 14.5825 68.6794 15.0357C68.2249 15.4889 67.9522 16.0147 67.9522 16.5948C67.9522 17.1205 68.0795 17.5194 68.4067 17.7732C68.7339 18.027 69.2611 18.2989 70.0428 18.4983C71.0971 18.7521 71.7516 18.9516 71.8788 19.0241C72.0788 19.151 72.1333 19.296 72.1333 19.4773C72.1333 19.6767 72.0061 19.8036 71.8061 19.9305C71.6061 20.0574 71.3516 20.0574 70.9517 20.0574C70.3518 20.0574 69.9701 19.9305 69.6974 19.7311C69.5701 19.6042 69.4974 19.4048 69.4429 19.0785H67.625C67.625 19.8036 67.8795 20.3294 68.4067 20.7826C68.9339 21.2358 69.7155 21.4352 70.7699 21.4352C71.8243 21.4352 72.606 21.2358 73.0604 20.7826C73.5876 20.3838 73.7876 19.8036 73.7876 19.151C73.7876 18.6252 73.5876 18.2264 73.2604 17.9001C72.9332 17.7188 72.406 17.4469 71.697 17.32Z" fill="black"/>
<path d="M79.2413 19.405L77.6052 12.2803H74.842V21.381H76.6236V15.2353C76.6236 15.0359 76.6236 14.8365 76.6236 14.5101C76.6236 14.1838 76.6236 13.9119 76.6236 13.785L78.3324 21.4354H80.1684L81.8772 13.785C81.8772 13.9844 81.8772 14.1838 81.8772 14.5101C81.8772 14.8365 81.8772 15.1084 81.8772 15.2353V21.381H83.6587V12.2803H80.8956L79.2413 19.405Z" fill="black"/>
<path d="M90.4756 15.743C90.1484 15.2898 89.7485 14.9635 89.294 14.7641C88.8395 14.5646 88.3123 14.4377 87.7124 14.4377C86.7308 14.4377 85.9309 14.7641 85.2765 15.3442C84.6766 15.9424 84.3494 16.8489 84.3494 18.0273C84.3494 19.2782 84.6766 20.1846 85.4037 20.7104C86.0582 21.2361 86.9126 21.5624 87.767 21.5624C88.8759 21.5624 89.6757 21.2361 90.3302 20.5835C90.7301 20.1846 90.9301 19.8039 90.9846 19.3326H89.2031C89.0758 19.532 89.0031 19.6589 88.8032 19.7858C88.5487 19.9852 88.2033 20.1121 87.8215 20.1121C87.4216 20.1121 87.0944 20.0396 86.8399 19.8402C86.3854 19.5864 86.1854 19.115 86.1127 18.408H91.0392C91.0392 17.8097 91.0392 17.3565 90.9664 17.1027C90.9301 16.6676 90.7301 16.1419 90.4756 15.743ZM86.2036 17.3203C86.2763 16.867 86.4036 16.5407 86.6581 16.2688C86.9126 16.015 87.258 15.8699 87.7124 15.8699C88.1124 15.8699 88.4941 15.9968 88.7668 16.2688C89.0213 16.5226 89.2213 16.867 89.2213 17.3203H86.2036Z" fill="black"/>
<path d="M95.9839 15.4891C95.7839 15.1628 95.5294 14.8908 95.2022 14.7639C94.875 14.5645 94.5478 14.5101 94.0933 14.5101C93.1662 14.5101 92.5117 14.8365 91.9846 15.4891C91.4574 16.1417 91.2029 17.0663 91.2029 18.1722C91.2029 19.1512 91.4574 20.0032 91.9846 20.6015C92.5117 21.2541 93.1662 21.5804 93.9479 21.5804C94.4023 21.5804 94.8023 21.5079 95.1295 21.3266C95.4567 21.1272 95.7294 20.8734 95.9839 20.4746V21.3991H97.6927V12.2803H95.9112V15.4891H95.9839ZM95.6567 19.55C95.384 19.9488 95.0022 20.0757 94.5478 20.0757C94.0206 20.0757 93.6934 19.8763 93.4389 19.4956C93.1662 19.0968 93.0389 18.6435 93.0389 17.9909C93.0389 17.3926 93.1662 16.9394 93.4389 16.5587C93.6934 16.1599 94.0388 15.9786 94.5478 15.9786C94.875 15.9786 95.2022 16.1055 95.4749 16.3049C95.8748 16.6312 96.1293 17.2114 96.1293 18.0634C96.0566 18.6979 95.9112 19.1512 95.6567 19.55Z" fill="black"/>
<path d="M100.783 12.2075H99.0015V13.8391H100.783V12.2075Z" fill="black"/>
<path d="M100.783 14.637H99.0015V21.3809H100.783V14.637Z" fill="black"/>
<path d="M107.8 20.9095C107.727 20.837 107.727 20.6557 107.673 20.4563C107.673 20.13 107.673 19.8581 107.673 19.6768V16.5948C107.673 15.8153 107.418 15.217 106.818 14.9632C106.218 14.6913 105.564 14.51 104.855 14.51C103.746 14.51 102.892 14.8363 102.419 15.4346C102.165 15.8334 101.965 16.2866 101.892 16.8668H103.601C103.673 16.5948 103.728 16.4136 103.855 16.2685C104.055 16.0691 104.31 15.9422 104.782 15.9422C105.182 15.9422 105.437 16.0147 105.637 16.0691C105.837 16.196 105.891 16.3954 105.891 16.6674C105.891 16.8668 105.764 17.0662 105.491 17.1931C105.364 17.2656 105.091 17.32 104.764 17.32L104.164 17.3925C103.51 17.465 102.983 17.6645 102.583 17.8457C101.928 18.2446 101.601 18.8247 101.601 19.6043C101.601 20.2569 101.801 20.7101 102.201 21.109C102.601 21.4353 103.128 21.6347 103.71 21.6347C104.164 21.6347 104.637 21.5078 105.019 21.3084C105.346 21.109 105.619 20.9095 105.873 20.6557C105.873 20.7826 105.873 20.9095 105.946 21.0546C105.946 21.1815 106.019 21.3084 106.073 21.4534H107.982V21.1996C107.927 21.0546 107.873 20.9821 107.8 20.9095ZM105.891 18.7522C105.891 19.3504 105.691 19.7312 105.364 20.0031C105.037 20.2025 104.71 20.3294 104.31 20.3294C104.055 20.3294 103.855 20.2569 103.71 20.13C103.51 20.0031 103.455 19.8037 103.455 19.4773C103.455 19.151 103.583 18.8791 103.855 18.7522C103.982 18.6797 104.31 18.5528 104.637 18.4984L105.037 18.4259C105.237 18.3534 105.364 18.3534 105.491 18.299C105.619 18.2264 105.691 18.1721 105.819 18.0995V18.7522H105.891Z" fill="black"/>
<path d="M10.2346 21.5623L29.4677 30.79V23.0126V12.2803L10.2346 21.5623Z" fill="url(#paint0_linear)"/>
<path d="M29.486 33.4731L0 23.0127V30.79L29.486 33.4731Z" fill="url(#paint1_linear)"/>
<path d="M0 21.5622L19.2331 12.2801L0 3.05249V21.5622Z" fill="url(#paint2_linear)"/>
<path d="M0 0.315186L29.486 10.7756V2.99827L0 0.315186Z" fill="url(#paint3_linear)"/>
</g>
<defs>
<linearGradient id="paint0_linear" x1="10.2419" y1="21.5369" x2="29.4787" y2="21.5369" gradientUnits="userSpaceOnUse">
<stop stop-color="#F26A2A"/>
<stop offset="0.082548" stop-color="#F26A2A"/>
<stop offset="1" stop-color="#C12126"/>
</linearGradient>
<linearGradient id="paint1_linear" x1="29.4787" y1="28.2411" x2="0" y2="28.2411" gradientUnits="userSpaceOnUse">
<stop stop-color="#F26A2A"/>
<stop offset="0.082548" stop-color="#F26A2A"/>
<stop offset="1" stop-color="#C12126"/>
</linearGradient>
<linearGradient id="paint2_linear" x1="-2.2742" y1="-0.748559" x2="8.1934" y2="14.8943" gradientUnits="userSpaceOnUse">
<stop stop-color="#006EB7"/>
<stop offset="1" stop-color="#43BB90"/>
</linearGradient>
<linearGradient id="paint3_linear" x1="0.00181965" y1="5.54717" x2="29.4787" y2="5.54717" gradientUnits="userSpaceOnUse">
<stop stop-color="#006EB7"/>
<stop offset="1" stop-color="#43BB90"/>
</linearGradient>
<clipPath id="clip0">
<rect width="108" height="33.1579" fill="white" transform="translate(0 0.315186)"/>
</clipPath>
</defs>
</svg>
