<svg width="104" height="27" viewBox="0 0 104 27" fill="none" xmlns="http://www.w3.org/2000/svg">
<g clip-path="url(#clip0)">
<path d="M1.2207 10.3411V2.21336C1.2207 1.39878 1.89047 0.729004 2.72316 0.729004H10.869C11.6836 0.729004 12.3534 1.39878 12.3534 2.21336V10.3411C12.3534 11.1557 11.6836 11.8255 10.869 11.8255H2.72316C1.89047 11.8255 1.2207 11.1557 1.2207 10.3411Z" fill="#A2C623"/>
<path d="M15.0325 25.402V16.2787C15.0325 15.4279 15.7203 14.74 16.5892 14.74H25.7488C26.5996 14.74 27.3056 15.4279 27.3056 16.2787V25.4201C27.3056 26.2709 26.6177 26.9588 25.7488 26.9588H16.5892C15.7384 26.9588 15.0325 26.2528 15.0325 25.402Z" fill="#3FAB35"/>
<path d="M6.88656 26.9589C10.2716 26.9589 13.0231 24.2255 13.0231 20.8405C13.0231 17.4554 10.2716 14.722 6.88656 14.722C3.50149 14.7039 0.75 17.4373 0.75 20.8224C0.75 24.2074 3.50149 26.9589 6.88656 26.9589Z" fill="#386EB5"/>
<path d="M14.8877 11.011L20.3726 1.39889C20.6441 0.928236 21.2595 0.928236 21.513 1.39889L26.9979 11.011C27.2875 11.4998 26.9617 12.1514 26.4186 12.1514H15.4669C14.942 12.1514 14.6161 11.4998 14.8877 11.011Z" fill="#E20E13"/>
<path opacity="0.1" d="M10.8691 11.8255C11.7018 11.8255 12.3715 11.1558 12.3715 10.3231V2.21342C12.3715 1.81517 12.2267 1.47124 11.9733 1.19971L1.69141 11.4273C1.96294 11.6626 2.30687 11.8255 2.70511 11.8255H10.8691Z" fill="#020203"/>
<path opacity="0.05" d="M1.2207 10.3412C1.2207 11.1739 1.89047 11.8436 2.72316 11.8436H10.869C11.2673 11.8436 11.6112 11.6988 11.8827 11.4454L1.63705 1.19971C1.38362 1.47124 1.2207 1.81517 1.2207 2.21342V10.3412Z" fill="#020203"/>
<path opacity="0.05" d="M15.0867 25.4383C15.0867 26.271 15.7745 26.9589 16.6072 26.9589H25.8754C26.2375 26.9589 26.5633 26.8322 26.8167 26.615C26.8348 26.615 26.8348 26.5788 26.8167 26.5788L15.4668 15.265C15.4487 15.2469 15.4306 15.2469 15.4306 15.265C15.2134 15.5185 15.0867 15.8443 15.0867 16.2063V25.4383Z" fill="#020203"/>
<path opacity="0.05" d="M25.803 26.9588C26.6357 26.9588 27.3055 26.289 27.3055 25.4564V16.1882C27.3055 15.8261 27.1788 15.4822 26.9435 15.2288L15.5754 26.5244C15.8289 26.7416 16.1185 26.9407 16.4986 26.9407H25.803V26.9588Z" fill="#020203"/>
<path opacity="0.05" d="M2.54209 16.4958C0.152636 18.8853 0.152636 22.7591 2.54209 25.1486C4.93155 27.538 8.82347 27.538 11.2129 25.1486L2.54209 16.4958Z" fill="#020203"/>
<path opacity="0.1" d="M2.54199 25.1847C4.94955 27.5742 8.82337 27.5561 11.2128 25.1847C13.6023 22.7953 13.6023 18.9214 11.2128 16.532L2.54199 25.1847Z" fill="#020203"/>
<path opacity="0.1" d="M24.1738 6.06934L14.8513 11.7171C14.9599 11.9706 15.1772 12.1516 15.4668 12.1516H26.4185C26.9434 12.1516 27.2692 11.4999 26.9977 11.0112L24.1738 6.06934Z" fill="#020203"/>
<path opacity="0.1" d="M17.7116 6.06934L27.0341 11.7171C26.9255 11.9706 26.7082 12.1516 26.4186 12.1516H15.4669C14.942 12.1516 14.6161 11.4999 14.8877 11.0112L17.7116 6.06934Z" fill="#020203"/>
<path d="M45.8419 4.62134H45.5704C45.0816 4.62134 44.6472 4.87477 44.4119 5.29111L40.3027 12.3871L36.1936 5.29111C35.9582 4.87477 35.5057 4.62134 35.035 4.62134H34.7635C33.7317 4.62134 33.08 5.74366 33.5869 6.63065L38.8184 15.6454V22.6871C38.8184 23.4293 39.4157 24.0266 40.1579 24.0266H40.4475C41.1897 24.0266 41.7871 23.4293 41.7871 22.6871V15.6454L47.0185 6.63065C47.5254 5.74366 46.8737 4.62134 45.8419 4.62134Z" fill="url(#paint0_linear)"/>
<path d="M58.8209 3.87891C52.974 3.87891 48.6838 8.24147 48.6838 13.9617C48.6838 19.6638 52.974 24.0445 58.8209 24.0445C64.6679 24.0445 68.958 19.6819 68.958 13.9617C68.958 8.25957 64.6679 3.87891 58.8209 3.87891ZM58.8209 21.3111C54.6394 21.3111 51.6707 18.288 51.6707 13.9617C51.6707 9.65342 54.6575 6.6304 58.8209 6.6304C63.0025 6.6304 65.9712 9.65342 65.9712 13.9617C65.9893 18.2699 63.0025 21.3111 58.8209 21.3111Z" fill="url(#paint1_linear)"/>
<path d="M79.4572 12.0974L77.5022 11.319C75.6015 10.5587 75.4024 9.54502 75.4024 8.96576C75.4024 7.71673 76.3437 6.63061 78.1539 6.63061C79.0047 6.63061 79.6382 6.82973 80.2537 7.33659C80.3623 7.42709 80.4528 7.53571 80.5433 7.62622C80.9778 8.09687 81.6837 8.24168 82.2449 7.89775L82.2992 7.86154C83.0233 7.4452 83.1862 6.46769 82.6431 5.83412C82.444 5.5988 82.2268 5.38158 82.0277 5.20056C81.4122 4.6756 80.2175 3.89722 78.1177 3.89722C74.4611 3.89722 72.4155 6.39528 72.4155 9.02007C72.4155 11.9345 74.7869 13.274 76.3799 13.9438L78.2444 14.7222C79.5296 15.2471 81.0502 16.0617 81.0502 18.0348C81.0502 19.9898 79.6563 21.2932 77.8461 21.2932C76.6695 21.2932 75.8549 20.8225 75.3119 20.1347C75.0584 19.7907 74.8231 19.3744 74.6783 18.8856C74.4792 18.2159 73.8094 17.8176 73.1215 17.9624L72.8138 18.0348C72.0354 18.1977 71.5829 18.9942 71.8182 19.7545C72.0716 20.5691 72.5061 21.3656 73.1758 22.0897C74.1714 23.1939 75.511 24.0447 77.7556 24.0447C81.4122 24.0447 84.037 21.5104 84.037 17.8176C84.037 15.5911 83.0414 13.5637 79.4572 12.0974Z" fill="url(#paint2_linear)"/>
<path d="M96.4549 6.15983C95.9842 5.10991 94.4999 5.09181 94.0111 6.14172L86.4626 22.1438C86.0462 23.0308 86.6979 24.0626 87.6754 24.0626H87.8926C88.4176 24.0626 88.9064 23.7549 89.1236 23.2662L90.8976 19.3742H99.2245L100.908 23.2481C101.125 23.7368 101.614 24.0626 102.139 24.0626H102.392C103.37 24.0626 104.021 23.067 103.623 22.18L96.4549 6.15983ZM92.1285 16.5503L95.1334 9.96123L98.0297 16.5503H92.1285Z" fill="url(#paint3_linear)"/>
</g>
<defs>
<linearGradient id="paint0_linear" x1="25.868" y1="5.57806" x2="102.964" y2="44.977" gradientUnits="userSpaceOnUse">
<stop stop-color="#C81617"/>
<stop offset="0.3324" stop-color="#CED71A"/>
<stop offset="0.6927" stop-color="#3FAB35"/>
<stop offset="1" stop-color="#396EB5"/>
</linearGradient>
<linearGradient id="paint1_linear" x1="29.2954" y1="-1.12804" x2="106.392" y2="38.2691" gradientUnits="userSpaceOnUse">
<stop stop-color="#C81617"/>
<stop offset="0.3324" stop-color="#CED71A"/>
<stop offset="0.6927" stop-color="#3FAB35"/>
<stop offset="1" stop-color="#396EB5"/>
</linearGradient>
<linearGradient id="paint2_linear" x1="33.2483" y1="-8.86278" x2="110.344" y2="30.5343" gradientUnits="userSpaceOnUse">
<stop stop-color="#C81617"/>
<stop offset="0.3324" stop-color="#CED71A"/>
<stop offset="0.6927" stop-color="#3FAB35"/>
<stop offset="1" stop-color="#396EB5"/>
</linearGradient>
<linearGradient id="paint3_linear" x1="35.7505" y1="-13.7618" x2="112.849" y2="25.6352" gradientUnits="userSpaceOnUse">
<stop stop-color="#C81617"/>
<stop offset="0.3324" stop-color="#CED71A"/>
<stop offset="0.6927" stop-color="#3FAB35"/>
<stop offset="1" stop-color="#396EB5"/>
</linearGradient>
<clipPath id="clip0">
<rect width="103" height="26.2297" fill="white" transform="translate(0.75 0.729004)"/>
</clipPath>
</defs>
</svg>
