<svg width="60" height="60" viewBox="0 0 60 60" fill="none" xmlns="http://www.w3.org/2000/svg">
<path d="M30 5L33.2975 11.4614L40.4616 12.6008L35.3354 17.7336L36.4656 24.8992L30 21.61L23.5344 24.8992L24.6646 17.7336L19.5384 12.6008L26.7025 11.4614L30 5Z" stroke="#FF579E" stroke-width="3" stroke-linejoin="round"/>
<path d="M51.2328 2.52361C51.3441 2.30543 51.6559 2.30543 51.7672 2.52361L53.6789 6.26957C53.7225 6.35499 53.8043 6.41442 53.899 6.42948L58.0524 7.09004C58.2943 7.12851 58.3906 7.425 58.2175 7.59831L55.2456 10.574C55.1779 10.6419 55.1466 10.738 55.1616 10.8327L55.8168 14.987C55.855 15.2289 55.6028 15.4121 55.3844 15.3011L51.636 13.3942C51.5506 13.3507 51.4494 13.3507 51.364 13.3942L47.6156 15.3011C47.3972 15.4121 47.145 15.2289 47.1832 14.987L47.8384 10.8327C47.8534 10.738 47.8221 10.6419 47.7544 10.574L44.7825 7.59831C44.6094 7.425 44.7057 7.12851 44.9476 7.09004L49.101 6.42948C49.1957 6.41442 49.2775 6.35499 49.3211 6.26957L51.2328 2.52361Z" fill="#FF579E"/>
<path d="M8.23279 2.52361C8.34413 2.30543 8.65587 2.30543 8.76721 2.52361L10.6789 6.26957C10.7225 6.35499 10.8043 6.41442 10.899 6.42948L15.0524 7.09004C15.2943 7.12851 15.3906 7.425 15.2175 7.59831L12.2456 10.574C12.1779 10.6419 12.1466 10.738 12.1616 10.8327L12.8168 14.987C12.855 15.2289 12.6028 15.4121 12.3844 15.3011L8.63603 13.3942C8.55055 13.3507 8.44945 13.3507 8.36397 13.3942L4.61556 15.3011C4.39724 15.4121 4.14504 15.2289 4.1832 14.987L4.83843 10.8327C4.85337 10.738 4.82213 10.6419 4.75436 10.574L1.78248 7.59831C1.60939 7.425 1.70573 7.12851 1.94763 7.09004L6.101 6.42948C6.19571 6.41442 6.2775 6.35499 6.32109 6.26957L8.23279 2.52361Z" fill="#FF579E"/>
<path d="M53.826 24.5548C54.2144 24.4289 54.5818 24.7963 54.4559 25.1847L53.6133 27.7835C53.564 27.9356 53.5904 28.102 53.6842 28.2314L55.2887 30.4427C55.5284 30.7731 55.2925 31.2361 54.8843 31.2363L52.1522 31.2381C51.9924 31.2382 51.8422 31.3147 51.7482 31.4439L50.1409 33.6532C49.9008 33.9833 49.3876 33.902 49.2612 33.5138L48.4153 30.916C48.3658 30.7641 48.2466 30.6449 48.0947 30.5954L45.4968 29.7495C45.1087 29.6231 45.0274 29.1099 45.3575 28.8698L47.5668 27.2625C47.696 27.1684 47.7725 27.0183 47.7726 26.8585L47.7744 24.1264C47.7746 23.7182 48.2376 23.4823 48.568 23.722L50.7793 25.3265C50.9087 25.4203 51.0751 25.4467 51.2272 25.3974L53.826 24.5548Z" fill="#FF579E"/>
<path d="M6.1847 24.5548C5.79636 24.4289 5.42897 24.7963 5.55487 25.1847L6.39746 27.7835C6.44675 27.9356 6.42039 28.102 6.32653 28.2314L4.72208 30.4427C4.48234 30.7731 4.71822 31.2361 5.12646 31.2363L7.85852 31.2381C8.01835 31.2382 8.16849 31.3147 8.26252 31.4439L9.8698 33.6532C10.11 33.9833 10.6232 33.902 10.7496 33.5138L11.5955 30.916C11.645 30.7641 11.7641 30.6449 11.9161 30.5954L14.5139 29.7495C14.9021 29.6231 14.9834 29.1099 14.6532 28.8698L12.444 27.2625C12.3147 27.1684 12.2382 27.0183 12.2381 26.8585L12.2364 24.1264C12.2361 23.7182 11.7732 23.4823 11.4427 23.722L9.23143 25.3265C9.10207 25.4203 8.93563 25.4467 8.78359 25.3974L6.1847 24.5548Z" fill="#FF579E"/>
<path d="M30 31V42" stroke="#FF579E" stroke-width="3" stroke-linecap="round"/>
<path d="M30 51V57" stroke="#FF579E" stroke-width="3" stroke-linecap="round"/>
<path d="M44.4999 35C35.9999 44 36.9999 57 36.9999 57" stroke="#FF579E" stroke-width="3" stroke-linecap="round"/>
<path d="M15.5108 35C24.0108 44 23.0108 57 23.0108 57" stroke="#FF579E" stroke-width="3" stroke-linecap="round"/>
<path d="M49 47C45.6164 51.0909 46.0144 57 46.0144 57" stroke="#FF579E" stroke-width="3" stroke-linecap="round"/>
<path d="M11.0107 47C14.3944 51.0909 13.9963 57 13.9963 57" stroke="#FF579E" stroke-width="3" stroke-linecap="round"/>
<path d="M54.25 38V44.5" stroke="#FF579E" stroke-width="3" stroke-linecap="round"/>
<path d="M5.76074 38V44.5" stroke="#FF579E" stroke-width="3" stroke-linecap="round"/>
<path d="M57.5 41.25L51 41.25" stroke="#FF579E" stroke-width="3" stroke-linecap="round"/>
<path d="M2.51074 41.25L9.01074 41.25" stroke="#FF579E" stroke-width="3" stroke-linecap="round"/>
</svg>
