<svg width="60" height="60" viewBox="0 0 60 60" fill="none" xmlns="http://www.w3.org/2000/svg">
<path d="M27.6266 8.22156C28.5446 6.59281 30.8901 6.59281 31.8081 8.22156L37.8431 18.9288C38.1856 19.5364 38.7755 19.965 39.4592 20.1029L51.5073 22.5338C53.34 22.9036 54.0648 25.1343 52.7994 26.5107L44.4812 35.5591C44.0091 36.0725 43.7838 36.766 43.8639 37.4589L45.275 49.6685C45.4897 51.5258 43.5921 52.9044 41.8921 52.1263L30.7161 47.0113C30.0819 46.721 29.3528 46.721 28.7185 47.0113L17.5426 52.1263C15.8425 52.9044 13.945 51.5258 14.1597 49.6685L15.5707 37.4589C15.6508 36.766 15.4255 36.0725 14.9535 35.5591L6.63523 26.5107C5.36989 25.1343 6.09468 22.9036 7.9274 22.5338L19.9755 20.1029C20.6592 19.965 21.2491 19.5364 21.5915 18.9288L27.6266 8.22156Z" stroke="#FF579E" stroke-width="3"/>
<path d="M38.6625 9.48487C39.0303 8.83837 39.9697 8.83838 40.3375 9.48488L42.7548 13.7349C42.892 13.9761 43.1282 14.1462 43.4021 14.201L48.228 15.1659C48.9621 15.3126 49.2524 16.1981 48.7456 16.7444L45.4137 20.336C45.2246 20.5398 45.1344 20.8151 45.1664 21.0901L45.7316 25.9365C45.8176 26.6737 45.0576 27.2209 44.3766 26.912L39.9001 24.8817C39.646 24.7665 39.354 24.7665 39.0999 24.8817L34.6234 26.912C33.9424 27.2209 33.1824 26.6737 33.2684 25.9364L33.8336 21.0901C33.8656 20.8151 33.7754 20.5398 33.5863 20.336L30.2544 16.7444C29.7476 16.1981 30.0379 15.3126 30.772 15.1659L35.5979 14.201C35.8718 14.1462 36.108 13.9761 36.2452 13.7349L38.6625 9.48487Z" fill="#FF579E"/>
</svg>
