<svg width="60" height="60" viewBox="0 0 60 60" fill="none" xmlns="http://www.w3.org/2000/svg">
<path d="M31.8 13.801C30.3301 13.1572 28.7067 12.8 27 12.8C20.3726 12.8 15 18.1859 15 24.8297C15 30.3262 18.6772 34.9618 23.7 36.3989" stroke="#FF579E" stroke-width="3" stroke-linecap="round" stroke-linejoin="round"/>
<circle cx="10.2" cy="9.2" r="7.2" fill="#FF579E"/>
<path d="M28.8 18.67C30.8883 13.134 36.2017 9.19995 42.4267 9.19995C50.4753 9.19995 57.0001 15.7766 57.0001 23.8893C57.0001 29.044 54.366 33.5785 50.3807 36.2" stroke="#FF579E" stroke-width="3" stroke-linecap="round" stroke-linejoin="round"/>
<path d="M21 48.2C21 44.9129 22.9934 42.1067 25.8 41" stroke="#FF579E" stroke-width="3" stroke-linecap="round" stroke-linejoin="round"/>
<path d="M45.8055 57.2C48.0238 57.2 50.0828 56.505 51.7845 55.317C54.5714 53.3713 56.3999 50.1033 56.3999 46.4C56.3999 40.4353 51.6566 35.6 45.8055 35.6C44.2335 35.6 42.7415 35.949 41.3999 36.5752" stroke="#FF579E" stroke-width="3" stroke-linecap="round" stroke-linejoin="round"/>
<path d="M32.3999 44.6C28.4235 44.6 25.2 41.3764 25.2 37.4C25.2 33.4235 28.4235 30.2 32.3999 30.2" stroke="#FF579E" stroke-width="3" stroke-linecap="round" stroke-linejoin="round"/>
</svg>
