<svg width="1417" height="1431" viewBox="0 0 1417 1431" fill="none" xmlns="http://www.w3.org/2000/svg">
<g opacity="0.4">
<path d="M194.579 650.904C194.579 517.183 124.055 428.037 407.686 303.869C691.318 179.7 1144.05 427.759 1211.05 822.829C1253.98 1075.94 809.37 1195.33 570.199 1163.5C331.029 1131.66 194.579 784.624 194.579 650.904Z" stroke="#FF579E" stroke-width="2"/>
<path d="M165.448 787.807C165.448 654.087 321.829 348.442 605.46 224.273C889.092 100.104 1183.91 392.737 1250.91 787.807C1293.84 1040.92 882.959 1265.38 643.789 1233.54C404.619 1201.7 165.448 921.528 165.448 787.807Z" stroke="#10E6D9" stroke-width="2"/>
<path d="M190.216 532.769C246.676 412.584 516.279 209.064 823.627 226.577C1130.98 244.09 1355.31 677.106 1165.81 1026.89C1055.85 1229.84 633.454 1288.62 431.936 1151.13C230.419 1013.64 133.756 652.953 190.216 532.769Z" stroke="#FFA800" stroke-width="2"/>
</g>
</svg>
