<svg width="169" height="22" viewBox="0 0 169 22" fill="none" xmlns="http://www.w3.org/2000/svg">
<path d="M6.3251 0.92803L168.5 0.875L162.778 21.875H0.5L6.3251 0.92803Z" fill="black"/>
<path d="M163.912 3.89746H49.1626L44.884 19.4353H159.633L163.912 3.89746Z" fill="#F8FF13"/>
<path d="M17.5628 3.89746H13.9544H13.2842H11.1707H9.57267H9.31492L5.1394 18.9581H9.16027H9.83041L10.9645 14.9278H16.1195C18.8516 14.9278 20.5012 13.655 21.2744 10.9505L21.6868 9.46564C22.5632 6.0717 21.0167 3.89746 17.5628 3.89746ZM16.6865 11.0566H11.9439L12.8203 7.8217H17.5628L16.6865 11.0566Z" fill="#F8FF13"/>
<path d="M43.1317 3.89746H37.3581L32.3578 9.94292L30.2959 3.89746H25.811L21.584 19.0111H26.0172L28.337 10.6323L29.935 15.299H32.7702L36.8942 10.3672L34.4714 19.0111H38.8531L43.0801 3.89746H43.1317Z" fill="#F8FF13"/>
<path d="M114.064 5.75391L107.001 18.163H111.022L112.156 16.0948H117.414V18.163H120.868V5.80694H114.064V5.75391ZM113.806 13.0721L115.971 9.14785H117.414V13.0721H113.806Z" fill="black"/>
<path d="M58.5963 5.75391L51.4824 18.163H55.5033L56.6374 16.0948H61.8954V18.163H65.3493V5.80694H58.5963V5.75391ZM58.287 13.0721L60.452 9.14785H61.8954V13.0721H58.287Z" fill="black"/>
<path d="M133.137 9.30694L134.117 5.75391H123.188L122.209 9.30694H126.178L123.704 18.163H127.312L129.787 9.30694H133.137Z" fill="black"/>
<path d="M91.3819 18.163L94.7842 5.75391H91.1757L87.7734 18.163H91.3819Z" fill="black"/>
<path d="M105.919 18.163L109.373 5.75391H105.764L102.31 18.163H105.919Z" fill="black"/>
<path d="M77.6697 9.30694L78.6492 5.75391H69.8342L68.8032 9.30694L66.3804 18.163H69.9888L71.1229 14.1327H75.8139L76.4841 11.5872H71.7931L72.4117 9.30694H77.6697Z" fill="black"/>
<path d="M88.5464 9.30694L89.5259 5.75391H80.7109L79.6799 9.30694L77.2571 18.163H80.8655L81.9996 14.1327H86.6907L87.3608 11.5872H82.6698L83.2884 9.30694H88.5464Z" fill="black"/>
<path d="M101.692 14.61H97.5677L100.042 5.75391H96.4336L92.9797 18.11H100.712L101.692 14.61Z" fill="black"/>
<path d="M145.818 9.30694L146.798 5.75391H139.323H135.715L132.312 18.163H135.818H135.921H143.241L144.169 15.1403H136.746L137.209 13.4433H142.416L143.344 10.4736H138.034L138.344 9.30694H145.818Z" fill="black"/>
<path d="M156.953 9.04178L157.829 5.75391H151.54C149.375 5.75391 148.293 6.12512 147.674 8.29936C147.468 8.98875 147.107 10.2085 147.107 10.7918C147.107 12.5948 148.19 13.1781 150.252 13.1781H153.19L152.623 15.0342H145.715L144.89 18.0569H152.571C154.685 18.0569 154.839 16.8903 155.406 15.1933L155.716 14.0797C156.592 10.8448 153.86 10.5797 153.241 10.5797C152.674 10.5797 150.045 10.5797 150.045 10.5797L150.509 8.98875L156.953 9.04178Z" fill="black"/>
</svg>
