<svg width="262" height="52" viewBox="0 0 262 52" fill="none" xmlns="http://www.w3.org/2000/svg">
<path fill-rule="evenodd" clip-rule="evenodd" d="M260.111 30.3952C258.902 32.3637 257.208 33.8899 255.027 34.9738C252.847 36.0577 250.337 36.5997 247.496 36.5997H235.61V10.436H247.496C250.337 10.436 252.847 10.978 255.027 12.0619C257.208 13.1458 258.902 14.6721 260.111 16.6406C261.319 18.6091 261.923 20.9015 261.923 23.5179C261.923 26.1342 261.319 28.4267 260.111 30.3952ZM253.458 17.5937C251.9 16.136 249.813 15.4071 247.197 15.4071H241.665V31.6286H247.197C249.813 31.6286 251.9 30.8997 253.458 29.4421C255.015 27.9844 255.794 26.0096 255.794 23.5179C255.794 21.0261 255.015 19.0514 253.458 17.5937ZM220.473 30.9932H208.325L206.008 36.5997H199.804L211.465 10.436H217.445L229.144 36.5997H222.79L220.473 30.9932ZM214.418 16.3789L210.269 26.3959H218.567L214.418 16.3789ZM188.703 36.5997L183.657 29.3112H183.358H178.088V36.5997H172.033V10.436H183.358C185.675 10.436 187.687 10.8223 189.394 11.5947C191.101 12.3672 192.415 13.4635 193.337 14.8839C194.259 16.3042 194.72 17.9861 194.72 19.9297C194.72 21.8733 194.253 23.549 193.319 24.9569C192.384 26.3647 191.057 27.4424 189.338 28.1899L195.206 36.5997H188.703ZM187.17 16.5471C186.223 15.7622 184.84 15.3698 183.021 15.3698H178.088V24.4897H183.021C184.84 24.4897 186.223 24.091 187.17 23.2936C188.117 22.4962 188.591 21.3749 188.591 19.9297C188.591 18.4596 188.117 17.332 187.17 16.5471ZM143.215 10.436H162.988V15.295H149.233V20.9762H161.38V25.6857H149.233V31.7407H163.473V36.5997H143.215V10.436ZM120.004 36.5997L108.717 10.436H115.258L123.219 29.1244L131.292 10.436H137.31L125.985 36.5997H120.004ZM83.7117 10.436H103.484V15.295H89.7293V20.9762H101.877V25.6857H89.7293V31.7407H103.97V36.5997H83.7117V10.436Z" fill="#211540"/>
<path fill-rule="evenodd" clip-rule="evenodd" d="M6.47382 25.697L38.5059 7.34543V0L0.0766602 22.0363V29.3817L38.5059 51.394L57.6979 40.3873V33.0424L38.5059 44.0485L6.47382 25.697ZM51.3008 22.0363L32.0856 33.0424L38.5059 36.7266L51.3008 29.3817V22.0363ZM44.9036 11.0061L19.2918 25.697L25.6884 29.3817L44.9036 18.3515V11.0061Z" fill="#FF8A00"/>
</svg>
