<svg width="335" height="38" viewBox="0 0 335 38" fill="none" xmlns="http://www.w3.org/2000/svg">
<path d="M0.0766602 18.6971C0.0766602 28.8811 8.22026 37.1271 18.2778 37.1271C26.4589 37.1271 33.4016 31.6551 35.6533 24.1311H20.3418C17.3771 24.1311 14.9753 21.6991 14.9753 18.6971C14.9753 15.6951 17.3771 13.2631 20.3418 13.2631H35.6908C33.3641 5.73909 26.4589 0.26709 18.2778 0.26709C8.22026 0.26709 0.0766602 8.51309 0.0766602 18.6971Z" fill="#7FAF2A"/>
<path d="M75.6958 18.6971C75.6958 8.51309 67.5522 0.30509 57.4946 0.30509C49.3135 0.30509 42.3708 5.77709 40.1191 13.3011H52.8787V8.24709L67.8149 18.5451L52.8787 29.1471V24.1311H40.1191C42.4084 31.6551 49.3135 37.1271 57.4946 37.1271C67.5522 37.1271 75.6958 28.8811 75.6958 18.6971C75.6958 28.8811 83.8394 37.1271 93.8969 37.1271C103.954 37.1271 112.098 28.8811 112.098 18.6971C112.098 8.51309 103.954 0.26709 93.8969 0.26709C83.8394 0.26709 75.6958 8.51309 75.6958 18.6971Z" fill="#7FAF2A"/>
<path d="M115.963 27.019L119.453 22.763C121.893 24.777 124.407 26.069 127.485 26.069C129.924 26.069 131.35 25.081 131.35 23.485V23.409C131.35 21.889 130.412 21.129 125.946 19.951C120.542 18.545 117.014 17.025 117.014 11.629V11.553C117.014 6.61297 120.917 3.34497 126.434 3.34497C130.337 3.34497 133.714 4.59897 136.416 6.80297L133.339 11.325C130.975 9.65297 128.61 8.62697 126.359 8.62697C124.107 8.62697 122.906 9.69097 122.906 10.983V11.059C122.906 12.845 124.069 13.415 128.723 14.631C134.164 16.075 137.242 18.051 137.242 22.801V22.877C137.242 28.273 133.151 31.313 127.372 31.313C123.319 31.389 119.191 29.945 115.963 27.019Z" fill="black"/>
<path d="M151.127 23.6372V22.5732C150.114 22.1172 148.838 21.8132 147.412 21.8132C144.898 21.8132 143.359 22.8392 143.359 24.7012V24.7772C143.359 26.3732 144.672 27.3232 146.549 27.3232C149.288 27.3232 151.127 25.8032 151.127 23.6372ZM137.692 25.0052V24.9292C137.692 20.3692 141.107 18.2792 145.986 18.2792C148.05 18.2792 149.551 18.6212 151.015 19.1152V18.7732C151.015 16.3412 149.513 14.9732 146.586 14.9732C144.372 14.9732 142.796 15.3912 140.882 16.1132L139.418 11.5912C141.67 10.5652 143.922 9.91919 147.412 9.91919C150.602 9.91919 152.891 10.7932 154.355 12.2372C155.893 13.7952 156.569 16.0752 156.569 18.8872V30.9712H150.902V28.7292C149.476 30.3252 147.524 31.3892 144.672 31.3892C140.882 31.3892 137.692 29.1472 137.692 25.0052Z" fill="black"/>
<path d="M163.699 2.58496H157.845V30.971H163.699V2.58496Z" fill="black"/>
<path d="M179.048 18.9252C178.71 16.2652 177.172 14.4792 174.695 14.4792C172.256 14.4792 170.717 16.2272 170.229 18.9252H179.048ZM164.525 20.7112V20.5972C164.525 14.6312 168.728 9.72925 174.695 9.72925C181.563 9.72925 184.715 15.1252 184.715 21.0532C184.715 21.5092 184.677 22.0792 184.64 22.6112H170.304C170.867 25.3092 172.744 26.7152 175.333 26.7152C177.284 26.7152 178.71 26.1072 180.324 24.5872L183.664 27.5892C181.75 29.9832 178.973 31.4652 175.258 31.4652C169.103 31.4652 164.525 27.0572 164.525 20.7112Z" fill="black"/>
<path d="M184.002 28.2351L186.516 24.3591C188.73 25.9931 191.094 26.8671 193.008 26.8671C194.697 26.8671 195.448 26.2591 195.448 25.3091V25.2331C195.448 23.9411 193.459 23.5231 191.17 22.8391C188.28 21.9651 185.015 20.6351 185.015 16.5691V16.4931C185.015 12.2371 188.392 9.8811 192.558 9.8811C195.185 9.8811 198 10.7931 200.251 12.2751L198.037 16.3791C196.011 15.1631 193.947 14.4411 192.483 14.4411C191.057 14.4411 190.344 15.0491 190.344 15.8851V15.9611C190.344 17.1391 192.295 17.6711 194.547 18.4691C197.437 19.4571 200.777 20.8251 200.777 24.6631V24.7391C200.777 29.3751 197.362 31.4651 192.896 31.4651C189.969 31.3891 186.741 30.4011 184.002 28.2351Z" fill="black"/>
<path d="M212.485 25.6132C217.327 25.6132 220.592 22.3072 220.592 17.4812V17.4052C220.592 12.5792 217.327 9.19718 212.485 9.19718H207.907V25.6132H212.485ZM202.015 3.76318H212.485C220.929 3.76318 226.784 9.65318 226.784 17.2912V17.3672C226.784 25.0432 220.929 30.9712 212.485 30.9712H202.015V3.76318Z" fill="#7FAF2A"/>
<path d="M243.634 20.7112V20.5972C243.634 17.5192 241.457 14.8592 238.23 14.8592C234.89 14.8592 232.901 17.4812 232.901 20.5212V20.5972C232.901 23.6752 235.078 26.3732 238.305 26.3732C241.645 26.3732 243.634 23.7512 243.634 20.7112ZM227.122 20.7112V20.5972C227.122 14.5932 231.888 9.72925 238.305 9.72925C244.685 9.72925 249.413 14.5172 249.413 20.5212V20.5972C249.413 26.6012 244.647 31.4652 238.23 31.4652C231.85 31.4652 227.122 26.6772 227.122 20.7112Z" fill="#7FAF2A"/>
<path d="M250.201 23.637V10.147H256.056V21.775C256.056 24.587 257.369 26.031 259.583 26.031C261.798 26.031 263.224 24.587 263.224 21.775V10.147H269.078V31.009H263.224V28.045C261.873 29.793 260.146 31.389 257.182 31.389C252.791 31.389 250.201 28.425 250.201 23.637Z" fill="#7FAF2A"/>
<path d="M286.078 20.597V20.521C286.078 17.063 283.789 14.745 281.049 14.745C278.31 14.745 276.058 17.025 276.058 20.521V20.597C276.058 24.055 278.31 26.373 281.049 26.373C283.751 26.373 286.078 24.131 286.078 20.597ZM276.096 28.273V31.009H270.279V2.58496H276.133V13.111C277.559 11.173 279.511 9.72896 282.551 9.72896C287.354 9.72896 291.933 13.529 291.933 20.521V20.597C291.933 27.551 287.429 31.389 282.551 31.389C279.436 31.389 277.484 29.945 276.096 28.273Z" fill="#7FAF2A"/>
<path d="M299.138 2.58496H293.284V30.971H299.138V2.58496Z" fill="#7FAF2A"/>
<path d="M314.9 18.9252C314.562 16.2652 313.023 14.4792 310.547 14.4792C308.145 14.4792 306.569 16.2272 306.081 18.9252H314.9ZM300.376 20.7112V20.5972C300.376 14.6312 304.58 9.72925 310.547 9.72925C317.414 9.72925 320.567 15.1252 320.567 21.0532C320.567 21.5092 320.529 22.0792 320.491 22.6112H306.156C306.719 25.3092 308.558 26.7152 311.185 26.7152C313.136 26.7152 314.562 26.1072 316.176 24.5872L319.516 27.5892C317.602 29.9832 314.825 31.4652 311.109 31.4652C304.917 31.4652 300.376 27.0572 300.376 20.7112Z" fill="#7FAF2A"/>
<path d="M321.655 10.147H327.509V14.365C328.71 11.477 330.624 9.61496 334.077 9.76696V15.961H333.777C329.911 15.961 327.509 18.317 327.509 23.295V31.009H321.655V10.147Z" fill="#7FAF2A"/>
</svg>
