<svg width="182" height="41" viewBox="0 0 182 41" fill="none" xmlns="http://www.w3.org/2000/svg">
<path d="M181.493 23.4436C178.945 23.4436 176.398 23.4436 173.769 23.4436C173.89 24.6703 174.497 25.4472 175.549 25.7335C176.923 26.1015 178.137 25.7744 178.986 24.3841C179.754 24.793 180.482 25.161 181.25 25.529C179.714 27.9825 177.49 28.8821 174.901 28.146C172.435 27.4509 170.979 25.529 170.979 22.8711C170.938 20.3359 172.435 18.2096 174.821 17.5144C177.773 16.6557 180.846 18.2096 181.25 21.1128C181.25 21.1946 181.412 21.2764 181.534 21.399C181.493 22.0942 181.493 22.7893 181.493 23.4436ZM178.743 21.399C178.177 20.0496 177.328 19.5998 176.155 19.6816C175.063 19.7634 174.254 20.2541 173.971 21.399C175.549 21.399 177.004 21.399 178.743 21.399Z" fill="#131214"/>
<path d="M30.168 40.3335C29.6423 39.761 29.2379 39.3521 28.7526 38.8205C34.1715 33.9136 36.5575 27.8618 35.7891 20.6241C35.2634 15.8399 33.0796 11.9144 29.7232 8.52042C23.5359 2.22324 10.8783 -0.189322 1.37495 8.80666C0.808793 8.47953 0.444836 7.98884 0 7.33459C5.62111 1.77344 12.3745 -0.393776 19.9772 1.16007C29.157 3.00016 35.2634 8.76577 37.4471 17.9662C39.5904 26.7168 36.8001 34.1181 30.168 40.3335Z" fill="#C25752"/>
<path d="M66.6446 28.391C62.2771 28.391 58.7993 24.8335 58.8397 20.4173C58.8397 15.9602 62.2771 12.5254 66.7254 12.5663C71.1738 12.6072 74.5303 16.042 74.5303 20.54C74.4899 24.9971 71.0525 28.4319 66.6446 28.391ZM71.5782 20.4582C71.5782 17.4732 69.5562 15.306 66.7254 15.306C63.8947 15.306 61.7514 17.555 61.7514 20.54C61.7918 23.525 63.8138 25.5696 66.7254 25.5696C69.6371 25.5696 71.5782 23.4841 71.5782 20.4582Z" fill="#131214"/>
<path d="M49.4174 22.5441C49.4174 24.3842 49.4174 26.1425 49.4174 27.9826C48.4873 27.9826 47.638 27.9826 46.6675 27.9826C46.6675 23.0348 46.6675 18.087 46.6675 12.9347C48.9321 13.0165 51.2776 12.6485 53.5827 13.1392C55.4833 13.5072 56.6965 14.8157 56.9796 16.8194C57.3031 18.8639 56.5348 20.4178 54.7959 21.4809C54.5128 21.6445 54.1084 21.6854 53.9871 22.1761C55.2407 24.0162 56.5752 25.8971 57.8693 27.819C55.2811 28.4733 54.7554 28.3097 53.3805 26.306C52.6526 25.2838 51.9246 24.2615 51.2372 23.1983C50.8732 22.5441 50.3879 22.217 49.4174 22.5441ZM49.5387 19.6408C53.6635 19.968 54.1084 19.1502 54.1488 17.6372C54.1893 15.9198 52.8952 15.3882 49.5387 15.7153C49.5387 16.9829 49.5387 18.2506 49.5387 19.6408Z" fill="#131214"/>
<path d="M8.81592 8.96837C9.90779 8.96837 10.9188 8.96837 11.8893 8.96837C15.0032 8.96837 18.0766 8.92748 21.1905 8.96837C23.9808 9.00926 26.1241 10.3178 27.3373 12.853C28.51 15.3064 28.3078 17.719 26.6902 19.8862C25.6388 21.2765 24.183 22.217 22.3228 22.6668C23.6573 24.2206 25.1131 25.5291 26.1241 27.1648C26.5689 27.9008 26.205 29.1684 26.205 30.5587C23.0102 27.083 19.9773 23.8117 16.7017 20.2542C18.2788 20.2542 19.492 20.2542 20.7052 20.2542C23.4955 20.2133 25.5175 18.4141 25.5579 15.9198C25.5984 13.3846 23.5764 11.5036 20.6647 11.5036C17.9957 11.5036 15.3267 11.5036 12.6981 11.5036C10.4739 11.4627 10.1909 11.2991 8.81592 8.96837Z" fill="#C25752"/>
<path d="M97.8235 23.6889C98.5514 24.3431 99.2793 24.8338 99.7242 25.6107C96.9743 29.0456 91.8384 29.3727 88.5224 26.3877C85.2872 23.4844 85.085 18.1277 88.118 14.8973C91.1105 11.7487 96.3677 11.7488 99.2793 14.8565C98.6727 15.5516 98.1066 16.2058 97.5 16.901C95.114 14.6929 92.1619 14.6111 89.9782 17.1054C88.2393 19.0682 88.5224 22.4213 90.3826 24.2613C92.445 26.1832 95.3971 25.9788 97.8235 23.6889Z" fill="#131214"/>
<path d="M133.168 23.4437C130.58 23.4437 128.072 23.4437 125.525 23.4437C125.646 24.6704 126.252 25.4473 127.263 25.7336C128.679 26.1425 129.932 25.7336 130.741 24.3842C131.55 24.7931 132.238 25.1611 132.965 25.5291C131.429 28.187 128.679 29.0866 125.889 27.9008C123.341 26.7967 122.047 23.9753 122.896 21.1538C123.705 18.4959 126.455 16.8194 129.245 17.3918C131.833 17.8825 133.37 20.2133 133.168 23.4437ZM130.458 21.3582C129.973 20.1315 129.164 19.6408 127.991 19.6408C126.859 19.6817 126.131 20.2133 125.686 21.3582C127.344 21.3582 128.841 21.3582 130.458 21.3582Z" fill="#131214"/>
<path d="M111.654 22.749C111.694 25.9385 109.43 28.3102 106.316 28.3919C103.121 28.4328 100.735 26.1021 100.735 22.8308C100.735 19.6822 102.959 17.3514 106.033 17.3105C109.308 17.3105 111.613 19.4778 111.654 22.749ZM106.235 25.7749C107.731 25.734 108.944 24.3847 108.863 22.7081C108.783 21.0316 107.691 19.9276 106.154 19.9276C104.617 19.9276 103.485 21.2361 103.525 22.9126C103.566 24.5482 104.779 25.8158 106.235 25.7749Z" fill="#131214"/>
<path d="M8.53271 16.615C10.5547 16.1652 12.0105 16.4923 13.2642 18.087C15.3266 20.6632 17.4699 23.2393 19.8963 25.5292C22.1609 27.6555 23.8594 30.2316 26.2453 32.2353C27.9438 33.6664 27.9438 33.9527 27.6607 37.3466C21.1903 30.3543 14.9222 23.5255 8.53271 16.615Z" fill="#C25752"/>
<path d="M144.612 20.3362C143.763 20.7042 142.995 20.9905 142.267 21.3176C140.568 19.7228 139.072 19.5184 137.94 20.7451C136.888 21.8901 136.929 24.0982 138.061 25.1204C139.315 26.2654 140.73 26.02 142.307 24.3435C143.076 24.6706 143.844 25.0386 144.612 25.3658C143.52 27.7374 141.215 28.8824 138.749 28.3508C136.08 27.8192 134.421 25.7747 134.341 23.035C134.26 20.3771 135.837 18.169 138.344 17.5147C140.932 16.7378 143.278 17.801 144.612 20.3362Z" fill="#131214"/>
<path d="M159.049 17.7193C162.163 17.5558 162.163 17.5558 163.215 20.2545C163.7 21.5222 164.185 22.7489 164.792 24.3027C165.479 22.5444 166.207 21.0724 166.652 19.5185C167.097 17.9647 167.906 17.3922 169.442 17.6784C169.766 17.7193 170.089 17.7193 170.575 17.7602C169.119 21.1541 167.784 24.4254 166.328 27.6558C166.005 28.4327 163.538 28.3509 163.215 27.574C161.799 24.3027 160.465 21.0724 159.049 17.7193Z" fill="#131214"/>
<path d="M147.443 20.1725C146.715 20.0907 146.19 20.0498 145.664 20.0089C145.502 19.232 145.502 18.5368 145.664 17.7599C146.23 17.719 146.796 17.6781 147.443 17.5964C147.443 16.5741 147.443 15.6336 147.443 14.6113C148.333 14.6113 149.142 14.6113 150.031 14.6113C150.355 15.5518 149.991 16.5741 150.233 17.6781C151.002 17.6781 151.811 17.6781 152.66 17.6781C152.66 18.5368 152.66 19.232 152.66 19.968C151.892 20.336 151.042 19.968 150.153 20.2543C150.153 21.3992 150.112 22.6259 150.153 23.8118C150.193 25.4474 150.638 25.8563 152.377 25.6518C152.498 26.0199 152.66 26.4288 152.781 26.7968C152.902 27.1648 153.145 27.4919 153.024 27.9008C149.95 29.4138 147.484 27.9008 147.443 24.5478C147.403 23.0757 147.443 21.6854 147.443 20.1725Z" fill="#131214"/>
<path d="M79.5449 27.9826C78.6148 27.9826 77.7656 27.9826 76.8354 27.9826C76.8354 23.0348 76.8354 18.0462 76.8354 13.0166C77.6847 13.0166 78.5744 13.0166 79.5449 13.0166C79.5449 18.0053 79.5449 22.9531 79.5449 27.9826Z" fill="#131214"/>
<path d="M118.327 13.0166C119.257 13.0166 120.146 13.0166 121.036 13.0166C121.036 18.0053 121.036 22.9122 121.036 27.9417C120.146 28.2689 119.257 28.0235 118.327 28.0644C118.327 22.994 118.327 18.0462 118.327 13.0166Z" fill="#131214"/>
<path d="M115.9 27.9826C115.01 27.9826 114.242 27.9826 113.312 27.9826C113.312 22.994 113.312 18.0462 113.312 13.0166C114.121 13.0166 114.97 13.0166 115.9 13.0166C115.9 18.0053 115.9 22.9531 115.9 27.9826Z" fill="#131214"/>
<path d="M154.924 27.9825C154.924 24.5476 154.924 21.1946 154.924 17.7598C155.814 17.7598 156.704 17.7598 157.634 17.7598C157.634 21.1537 157.634 24.5067 157.634 27.9825C156.744 27.9825 155.935 27.9825 154.924 27.9825Z" fill="#131214"/>
<path d="M8.04733 11.2587C8.00689 12.3627 7.15766 13.1806 6.10623 13.1806C5.0548 13.1397 4.20557 12.281 4.20557 11.1769C4.20557 10.032 5.13568 9.13237 6.22755 9.21415C7.31942 9.29593 8.08777 10.1546 8.04733 11.2587Z" fill="#C25752"/>
<path d="M154.52 14.6525C154.479 13.712 155.369 12.7715 156.299 12.7715C157.229 12.7715 158.24 13.712 158.159 14.6116C158.038 15.5929 157.472 16.2881 156.421 16.4108C155.45 16.4925 154.56 15.5929 154.52 14.6525Z" fill="#131214"/>
</svg>
